<?xml version="1.0" standalone="yes"?>

<svg version="1.1" viewBox="0.0 0.0 960.0 720.0" fill="none" stroke="none" stroke-linecap="square" stroke-miterlimit="10" xmlns="http://www.w3.org/2000/svg" xmlns:xlink="http://www.w3.org/1999/xlink"><clipPath id="p.0"><path d="m0 0l960.0 0l0 720.0l-960.0 0l0 -720.0z" clip-rule="nonzero"></path></clipPath><g clip-path="url(#p.0)"><path fill="#ffffff" d="m0 0l960.0 0l0 720.0l-960.0 0z" fill-rule="evenodd"></path><path fill="#f05732" d="m129.27034 203.12073l56.094482 0l0 48.787415l-56.094482 0z" fill-rule="evenodd"></path><path stroke="#000000" stroke-width="1.0" stroke-linejoin="round" stroke-linecap="butt" d="m129.27034 203.12073l56.094482 0l0 48.787415l-56.094482 0z" fill-rule="evenodd"></path><path fill="#ffffff" d="m154.57848 228.48631q0 1.921875 -0.796875 2.9375q-0.78125 1.015625 -2.3125 1.015625q-1.515625 0 -2.3125 -0.984375q-0.796875 -1.0 -0.8125 -2.859375l0 -1.703125q0 -1.9375 0.796875 -2.9375q0.796875 -1.015625 2.3125 -1.015625q1.515625 0 2.3125 1.0q0.796875 1.0 0.8125 2.859375l0 1.6875zm-1.828125 -1.859375q0 -1.15625 -0.3125 -1.671875q-0.3125 -0.53125 -0.984375 -0.53125q-0.640625 0 -0.953125 0.5q-0.3125 0.5 -0.328125 1.5625l0 2.25q0 1.125 0.296875 1.671875q0.3125 0.546875 1.0 0.546875q0.671875 0 0.96875 -0.515625q0.296875 -0.53125 0.3125 -1.609375l0 -2.203125zm3.428009 4.78125q0 -0.4375 0.296875 -0.703125q0.296875 -0.28125 0.734375 -0.28125q0.453125 0 0.75 0.28125q0.296875 0.265625 0.296875 0.703125q0 0.4375 -0.296875 0.703125q-0.28125 0.265625 -0.75 0.265625q-0.4375 0 -0.734375 -0.265625q-0.296875 -0.265625 -0.296875 -0.703125zm3.9815674 -3.640625l0.53125 -4.703125l5.171875 0l0 1.53125l-3.671875 0l-0.234375 2.0q0.65625 -0.359375 1.390625 -0.359375q1.328125 0 2.078125 0.828125q0.75 0.8125 0.75 2.28125q0 0.90625 -0.390625 1.609375q-0.375 0.703125 -1.078125 1.09375q-0.703125 0.390625 -1.65625 0.390625q-0.84375 0 -1.5625 -0.328125q-0.703125 -0.34375 -1.125 -0.953125q-0.421875 -0.625 -0.4375 -1.421875l1.8125 0q0.0625 0.578125 0.40625 0.90625q0.34375 0.3125 0.90625 0.3125q0.609375 0 0.9375 -0.4375q0.34375 -0.453125 0.34375 -1.265625q0 -0.796875 -0.390625 -1.203125q-0.375 -0.421875 -1.09375 -0.421875q-0.640625 0 -1.046875 0.34375l-0.1875 0.15625l-1.453125 -0.359375z" fill-rule="nonzero"></path><path fill="#6fa8dc" d="m129.27034 251.90814l56.094482 0l0 48.787384l-56.094482 0z" fill-rule="evenodd"></path><path stroke="#000000" stroke-width="1.0" stroke-linejoin="round" stroke-linecap="butt" d="m129.27034 251.90814l56.094482 0l0 48.787384l-56.094482 0z" fill-rule="evenodd"></path><path fill="#000000" d="m139.05159 276.5187q0 -2.421875 0.5 -3.890625q0.5 -1.46875 1.46875 -2.265625q0.984375 -0.796875 2.46875 -0.796875q1.09375 0 1.921875 0.4375q0.828125 0.4375 1.359375 1.28125q0.546875 0.828125 0.84375 2.015625q0.3125 1.1875 0.3125 3.21875q0 2.390625 -0.5 3.859375q-0.484375 1.46875 -1.46875 2.28125q-0.96875 0.796875 -2.46875 0.796875q-1.96875 0 -3.078125 -1.40625q-1.359375 -1.703125 -1.359375 -5.53125zm1.71875 0q0 3.34375 0.78125 4.453125q0.796875 1.109375 1.9375 1.109375q1.15625 0 1.9375 -1.109375q0.78125 -1.125 0.78125 -4.453125q0 -3.359375 -0.78125 -4.46875q-0.78125 -1.109375 -1.953125 -1.109375q-1.15625 0 -1.828125 0.984375q-0.875 1.234375 -0.875 4.59375zm9.594467 6.703125l0 -1.90625l1.90625 0l0 1.90625l-1.90625 0zm4.370804 -11.8125l0 -1.609375l8.796875 0l0 1.296875q-1.296875 1.375 -2.578125 3.671875q-1.265625 2.296875 -1.96875 4.71875q-0.5 1.703125 -0.640625 3.734375l-1.71875 0q0.03125 -1.609375 0.625 -3.875q0.609375 -2.28125 1.734375 -4.390625q1.140625 -2.109375 2.40625 -3.546875l-6.65625 0z" fill-rule="nonzero"></path><path fill="#f05732" d="m129.27034 300.69553l56.094482 0l0 48.787415l-56.094482 0z" fill-rule="evenodd"></path><path stroke="#000000" stroke-width="1.0" stroke-linejoin="round" stroke-linecap="butt" d="m129.27034 300.69553l56.094482 0l0 48.787415l-56.094482 0z" fill-rule="evenodd"></path><path fill="#ffffff" d="m152.81285 329.88925l-1.828125 0l0 -7.078125l-2.1875 0.6875l0 -1.5l3.828125 -1.359375l0.1875 0l0 9.25zm3.365509 -0.90625q0 -0.4375 0.296875 -0.703125q0.296875 -0.28125 0.734375 -0.28125q0.453125 0 0.75 0.28125q0.296875 0.265625 0.296875 0.703125q0 0.4375 -0.296875 0.703125q-0.28125 0.265625 -0.75 0.265625q-0.4375 0 -0.734375 -0.265625q-0.296875 -0.265625 -0.296875 -0.703125zm10.044067 0.90625l-6.34375 0l0 -1.25l3.0 -3.1875q0.609375 -0.671875 0.90625 -1.171875q0.296875 -0.515625 0.296875 -0.953125q0 -0.625 -0.3125 -0.96875q-0.3125 -0.359375 -0.890625 -0.359375q-0.625 0 -0.984375 0.4375q-0.359375 0.421875 -0.359375 1.125l-1.84375 0q0 -0.84375 0.40625 -1.546875q0.40625 -0.703125 1.140625 -1.09375q0.734375 -0.40625 1.671875 -0.40625q1.421875 0 2.21875 0.6875q0.796875 0.6875 0.796875 1.9375q0 0.6875 -0.359375 1.40625q-0.359375 0.703125 -1.21875 1.65625l-2.109375 2.203125l3.984375 0l0 1.484375z" fill-rule="nonzero"></path><path fill="#f05732" d="m129.27034 349.48294l56.094482 0l0 48.787415l-56.094482 0z" fill-rule="evenodd"></path><path stroke="#000000" stroke-width="1.0" stroke-linejoin="round" stroke-linecap="butt" d="m129.27034 349.48294l56.094482 0l0 48.787415l-56.094482 0z" fill-rule="evenodd"></path><path fill="#ffffff" d="m152.30617 377.7704q0 -0.4375 0.296875 -0.703125q0.296875 -0.28125 0.734375 -0.28125q0.453125 0 0.75 0.28125q0.296875 0.265625 0.296875 0.703125q0 0.4375 -0.296875 0.703125q-0.28125 0.265625 -0.75 0.265625q-0.4375 0 -0.734375 -0.265625q-0.296875 -0.265625 -0.296875 -0.703125zm3.8721924 0q0 -0.4375 0.296875 -0.703125q0.296875 -0.28125 0.734375 -0.28125q0.453125 0 0.75 0.28125q0.296875 0.265625 0.296875 0.703125q0 0.4375 -0.296875 0.703125q-0.28125 0.265625 -0.75 0.265625q-0.4375 0 -0.734375 -0.265625q-0.296875 -0.265625 -0.296875 -0.703125zm3.8721924 0q0 -0.4375 0.296875 -0.703125q0.296875 -0.28125 0.734375 -0.28125q0.453125 0 0.75 0.28125q0.296875 0.265625 0.296875 0.703125q0 0.4375 -0.296875 0.703125q-0.28125 0.265625 -0.75 0.265625q-0.4375 0 -0.734375 -0.265625q-0.296875 -0.265625 -0.296875 -0.703125z" fill-rule="nonzero"></path><path fill="#f05732" d="m129.27034 398.27036l56.094482 0l0 48.787384l-56.094482 0z" fill-rule="evenodd"></path><path stroke="#000000" stroke-width="1.0" stroke-linejoin="round" stroke-linecap="butt" d="m129.27034 398.27036l56.094482 0l0 48.787384l-56.094482 0z" fill-rule="evenodd"></path><path fill="#ffffff" d="m154.57848 423.63593q0 1.921875 -0.796875 2.9375q-0.78125 1.015625 -2.3125 1.015625q-1.515625 0 -2.3125 -0.984375q-0.796875 -1.0 -0.8125 -2.859375l0 -1.703125q0 -1.9375 0.796875 -2.9375q0.796875 -1.015625 2.3125 -1.015625q1.515625 0 2.3125 1.0q0.796875 1.0 0.8125 2.859375l0 1.6875zm-1.828125 -1.859375q0 -1.15625 -0.3125 -1.671875q-0.3125 -0.53125 -0.984375 -0.53125q-0.640625 0 -0.953125 0.5q-0.3125 0.5 -0.328125 1.5625l0 2.25q0 1.125 0.296875 1.671875q0.3125 0.546875 1.0 0.546875q0.671875 0 0.96875 -0.515625q0.296875 -0.53125 0.3125 -1.609375l0 -2.203125zm3.428009 4.78125q0 -0.4375 0.296875 -0.703125q0.296875 -0.28125 0.734375 -0.28125q0.453125 0 0.75 0.28125q0.296875 0.265625 0.296875 0.703125q0 0.4375 -0.296875 0.703125q-0.28125 0.265625 -0.75 0.265625q-0.4375 0 -0.734375 -0.265625q-0.296875 -0.265625 -0.296875 -0.703125zm9.981567 -7.3125l-3.5625 8.21875l-1.9375 0l3.578125 -7.75l-4.59375 0l0 -1.5l6.515625 0l0 1.03125z" fill-rule="nonzero"></path><path fill="#f05732" d="m185.36482 203.12073l56.094498 0l0 48.787415l-56.094498 0z" fill-rule="evenodd"></path><path stroke="#000000" stroke-width="1.0" stroke-linejoin="round" stroke-linecap="butt" d="m185.36482 203.12073l56.094498 0l0 48.787415l-56.094498 0z" fill-rule="evenodd"></path><path fill="#ffffff" d="m210.67297 228.48631q0 1.921875 -0.796875 2.9375q-0.78125 1.015625 -2.3125 1.015625q-1.515625 0 -2.3125 -0.984375q-0.796875 -1.0 -0.8125 -2.859375l0 -1.703125q0 -1.9375 0.796875 -2.9375q0.796875 -1.015625 2.3125 -1.015625q1.515625 0 2.3125 1.0q0.796875 1.0 0.8125 2.859375l0 1.6875zm-1.828125 -1.859375q0 -1.15625 -0.3125 -1.671875q-0.3125 -0.53125 -0.984375 -0.53125q-0.640625 0 -0.953125 0.5q-0.3125 0.5 -0.328125 1.5625l0 2.25q0 1.125 0.296875 1.671875q0.3125 0.546875 1.0 0.546875q0.671875 0 0.96875 -0.515625q0.296875 -0.53125 0.3125 -1.609375l0 -2.203125zm3.428009 4.78125q0 -0.4375 0.296875 -0.703125q0.296875 -0.28125 0.734375 -0.28125q0.453125 0 0.75 0.28125q0.296875 0.265625 0.296875 0.703125q0 0.4375 -0.296875 0.703125q-0.28125 0.265625 -0.75 0.265625q-0.4375 0 -0.734375 -0.265625q-0.296875 -0.265625 -0.296875 -0.703125zm5.5753174 -4.53125l0.96875 0q0.703125 0 1.03125 -0.34375q0.34375 -0.34375 0.34375 -0.921875q0 -0.5625 -0.34375 -0.875q-0.328125 -0.3125 -0.90625 -0.3125q-0.53125 0 -0.890625 0.296875q-0.34375 0.28125 -0.34375 0.75l-1.84375 0q0 -0.734375 0.390625 -1.296875q0.390625 -0.578125 1.09375 -0.90625q0.703125 -0.328125 1.546875 -0.328125q1.46875 0 2.296875 0.703125q0.828125 0.703125 0.828125 1.9375q0 0.640625 -0.390625 1.171875q-0.375 0.53125 -1.0 0.8125q0.78125 0.28125 1.15625 0.84375q0.390625 0.546875 0.390625 1.3125q0 1.234375 -0.90625 1.984375q-0.890625 0.734375 -2.375 0.734375q-1.375 0 -2.265625 -0.71875q-0.875 -0.734375 -0.875 -1.9375l1.828125 0q0 0.515625 0.390625 0.84375q0.390625 0.328125 0.96875 0.328125q0.65625 0 1.015625 -0.34375q0.375 -0.34375 0.375 -0.90625q0 -1.390625 -1.515625 -1.390625l-0.96875 0l0 -1.4375z" fill-rule="nonzero"></path><path fill="#f05732" d="m185.36482 251.90814l56.094498 0l0 48.787384l-56.094498 0z" fill-rule="evenodd"></path><path stroke="#000000" stroke-width="1.0" stroke-linejoin="round" stroke-linecap="butt" d="m185.36482 251.90814l56.094498 0l0 48.787384l-56.094498 0z" fill-rule="evenodd"></path><path fill="#ffffff" d="m210.79797 281.10184l-6.34375 0l0 -1.25l3.0 -3.1875q0.609375 -0.671875 0.90625 -1.171875q0.296875 -0.515625 0.296875 -0.953125q0 -0.625 -0.3125 -0.96875q-0.3125 -0.359375 -0.890625 -0.359375q-0.625 0 -0.984375 0.4375q-0.359375 0.421875 -0.359375 1.125l-1.84375 0q0 -0.84375 0.40625 -1.546875q0.40625 -0.703125 1.140625 -1.09375q0.734375 -0.40625 1.671875 -0.40625q1.421875 0 2.21875 0.6875q0.796875 0.6875 0.796875 1.9375q0 0.6875 -0.359375 1.40625q-0.359375 0.703125 -1.21875 1.65625l-2.109375 2.203125l3.984375 0l0 1.484375zm1.474884 -0.90625q0 -0.4375 0.296875 -0.703125q0.296875 -0.28125 0.734375 -0.28125q0.453125 0 0.75 0.28125q0.296875 0.265625 0.296875 0.703125q0 0.4375 -0.296875 0.703125q-0.28125 0.265625 -0.75 0.265625q-0.4375 0 -0.734375 -0.265625q-0.296875 -0.265625 -0.296875 -0.703125zm3.9815674 -3.640625l0.53125 -4.703125l5.171875 0l0 1.53125l-3.671875 0l-0.234375 2.0q0.65625 -0.359375 1.390625 -0.359375q1.328125 0 2.078125 0.828125q0.75 0.8125 0.75 2.28125q0 0.90625 -0.390625 1.609375q-0.375 0.703125 -1.078125 1.09375q-0.703125 0.390625 -1.65625 0.390625q-0.84375 0 -1.5625 -0.328125q-0.703125 -0.34375 -1.125 -0.953125q-0.421875 -0.625 -0.4375 -1.421875l1.8125 0q0.0625 0.578125 0.40625 0.90625q0.34375 0.3125 0.90625 0.3125q0.609375 0 0.9375 -0.4375q0.34375 -0.453125 0.34375 -1.265625q0 -0.796875 -0.390625 -1.203125q-0.375 -0.421875 -1.09375 -0.421875q-0.640625 0 -1.046875 0.34375l-0.1875 0.15625l-1.453125 -0.359375z" fill-rule="nonzero"></path><path fill="#f05732" d="m185.36482 300.69553l56.094498 0l0 48.787415l-56.094498 0z" fill-rule="evenodd"></path><path stroke="#000000" stroke-width="1.0" stroke-linejoin="round" stroke-linecap="butt" d="m185.36482 300.69553l56.094498 0l0 48.787415l-56.094498 0z" fill-rule="evenodd"></path><path fill="#ffffff" d="m208.90735 329.88925l-1.828125 0l0 -7.078125l-2.1875 0.6875l0 -1.5l3.828125 -1.359375l0.1875 0l0 9.25zm3.365509 -0.90625q0 -0.4375 0.296875 -0.703125q0.296875 -0.28125 0.734375 -0.28125q0.453125 0 0.75 0.28125q0.296875 0.265625 0.296875 0.703125q0 0.4375 -0.296875 0.703125q-0.28125 0.265625 -0.75 0.265625q-0.4375 0 -0.734375 -0.265625q-0.296875 -0.265625 -0.296875 -0.703125zm3.9815674 -3.640625l0.53125 -4.703125l5.171875 0l0 1.53125l-3.671875 0l-0.234375 2.0q0.65625 -0.359375 1.390625 -0.359375q1.328125 0 2.078125 0.828125q0.75 0.8125 0.75 2.28125q0 0.90625 -0.390625 1.609375q-0.375 0.703125 -1.078125 1.09375q-0.703125 0.390625 -1.65625 0.390625q-0.84375 0 -1.5625 -0.328125q-0.703125 -0.34375 -1.125 -0.953125q-0.421875 -0.625 -0.4375 -1.421875l1.8125 0q0.0625 0.578125 0.40625 0.90625q0.34375 0.3125 0.90625 0.3125q0.609375 0 0.9375 -0.4375q0.34375 -0.453125 0.34375 -1.265625q0 -0.796875 -0.390625 -1.203125q-0.375 -0.421875 -1.09375 -0.421875q-0.640625 0 -1.046875 0.34375l-0.1875 0.15625l-1.453125 -0.359375z" fill-rule="nonzero"></path><path fill="#f05732" d="m185.36482 349.48294l56.094498 0l0 48.787415l-56.094498 0z" fill-rule="evenodd"></path><path stroke="#000000" stroke-width="1.0" stroke-linejoin="round" stroke-linecap="butt" d="m185.36482 349.48294l56.094498 0l0 48.787415l-56.094498 0z" fill-rule="evenodd"></path><path fill="#ffffff" d="m208.40067 377.7704q0 -0.4375 0.296875 -0.703125q0.296875 -0.28125 0.734375 -0.28125q0.453125 0 0.75 0.28125q0.296875 0.265625 0.296875 0.703125q0 0.4375 -0.296875 0.703125q-0.28125 0.265625 -0.75 0.265625q-0.4375 0 -0.734375 -0.265625q-0.296875 -0.265625 -0.296875 -0.703125zm3.8721924 0q0 -0.4375 0.296875 -0.703125q0.296875 -0.28125 0.734375 -0.28125q0.453125 0 0.75 0.28125q0.296875 0.265625 0.296875 0.703125q0 0.4375 -0.296875 0.703125q-0.28125 0.265625 -0.75 0.265625q-0.4375 0 -0.734375 -0.265625q-0.296875 -0.265625 -0.296875 -0.703125zm3.8721924 0q0 -0.4375 0.296875 -0.703125q0.296875 -0.28125 0.734375 -0.28125q0.453125 0 0.75 0.28125q0.296875 0.265625 0.296875 0.703125q0 0.4375 -0.296875 0.703125q-0.28125 0.265625 -0.75 0.265625q-0.4375 0 -0.734375 -0.265625q-0.296875 -0.265625 -0.296875 -0.703125z" fill-rule="nonzero"></path><path fill="#f05732" d="m185.36482 398.27036l56.094498 0l0 48.787384l-56.094498 0z" fill-rule="evenodd"></path><path stroke="#000000" stroke-width="1.0" stroke-linejoin="round" stroke-linecap="butt" d="m185.36482 398.27036l56.094498 0l0 48.787384l-56.094498 0z" fill-rule="evenodd"></path><path fill="#ffffff" d="m210.67297 423.63593q0 1.921875 -0.796875 2.9375q-0.78125 1.015625 -2.3125 1.015625q-1.515625 0 -2.3125 -0.984375q-0.796875 -1.0 -0.8125 -2.859375l0 -1.703125q0 -1.9375 0.796875 -2.9375q0.796875 -1.015625 2.3125 -1.015625q1.515625 0 2.3125 1.0q0.796875 1.0 0.8125 2.859375l0 1.6875zm-1.828125 -1.859375q0 -1.15625 -0.3125 -1.671875q-0.3125 -0.53125 -0.984375 -0.53125q-0.640625 0 -0.953125 0.5q-0.3125 0.5 -0.328125 1.5625l0 2.25q0 1.125 0.296875 1.671875q0.3125 0.546875 1.0 0.546875q0.671875 0 0.96875 -0.515625q0.296875 -0.53125 0.3125 -1.609375l0 -2.203125zm3.428009 4.78125q0 -0.4375 0.296875 -0.703125q0.296875 -0.28125 0.734375 -0.28125q0.453125 0 0.75 0.28125q0.296875 0.265625 0.296875 0.703125q0 0.4375 -0.296875 0.703125q-0.28125 0.265625 -0.75 0.265625q-0.4375 0 -0.734375 -0.265625q-0.296875 -0.265625 -0.296875 -0.703125zm9.137817 -2.578125l1.046875 0l0 1.484375l-1.046875 0l0 2.0l-1.84375 0l0 -2.0l-3.78125 0l-0.09375 -1.15625l3.859375 -6.09375l1.859375 0l0 5.765625zm-3.890625 0l2.046875 0l0 -3.25l-0.125 0.203125l-1.921875 3.046875z" fill-rule="nonzero"></path><path fill="#f05732" d="m241.45932 203.12073l56.094482 0l0 48.787415l-56.094482 0z" fill-rule="evenodd"></path><path stroke="#000000" stroke-width="1.0" stroke-linejoin="round" stroke-linecap="butt" d="m241.45932 203.12073l56.094482 0l0 48.787415l-56.094482 0z" fill-rule="evenodd"></path><path fill="#ffffff" d="m264.49515 231.40819q0 -0.4375 0.296875 -0.703125q0.296875 -0.28125 0.734375 -0.28125q0.453125 0 0.75 0.28125q0.296875 0.265625 0.296875 0.703125q0 0.4375 -0.296875 0.703125q-0.28125 0.265625 -0.75 0.265625q-0.4375 0 -0.734375 -0.265625q-0.296875 -0.265625 -0.296875 -0.703125zm3.8721924 0q0 -0.4375 0.296875 -0.703125q0.296875 -0.28125 0.734375 -0.28125q0.453125 0 0.75 0.28125q0.296875 0.265625 0.296875 0.703125q0 0.4375 -0.296875 0.703125q-0.28125 0.265625 -0.75 0.265625q-0.4375 0 -0.734375 -0.265625q-0.296875 -0.265625 -0.296875 -0.703125zm3.8721924 0q0 -0.4375 0.296875 -0.703125q0.296875 -0.28125 0.734375 -0.28125q0.453125 0 0.75 0.28125q0.296875 0.265625 0.296875 0.703125q0 0.4375 -0.296875 0.703125q-0.28125 0.265625 -0.75 0.265625q-0.4375 0 -0.734375 -0.265625q-0.296875 -0.265625 -0.296875 -0.703125z" fill-rule="nonzero"></path><path fill="#f05732" d="m241.45932 251.90814l56.094482 0l0 48.787384l-56.094482 0z" fill-rule="evenodd"></path><path stroke="#000000" stroke-width="1.0" stroke-linejoin="round" stroke-linecap="butt" d="m241.45932 251.90814l56.094482 0l0 48.787384l-56.094482 0z" fill-rule="evenodd"></path><path fill="#ffffff" d="m264.49515 280.1956q0 -0.4375 0.296875 -0.703125q0.296875 -0.28125 0.734375 -0.28125q0.453125 0 0.75 0.28125q0.296875 0.265625 0.296875 0.703125q0 0.4375 -0.296875 0.703125q-0.28125 0.265625 -0.75 0.265625q-0.4375 0 -0.734375 -0.265625q-0.296875 -0.265625 -0.296875 -0.703125zm3.8721924 0q0 -0.4375 0.296875 -0.703125q0.296875 -0.28125 0.734375 -0.28125q0.453125 0 0.75 0.28125q0.296875 0.265625 0.296875 0.703125q0 0.4375 -0.296875 0.703125q-0.28125 0.265625 -0.75 0.265625q-0.4375 0 -0.734375 -0.265625q-0.296875 -0.265625 -0.296875 -0.703125zm3.8721924 0q0 -0.4375 0.296875 -0.703125q0.296875 -0.28125 0.734375 -0.28125q0.453125 0 0.75 0.28125q0.296875 0.265625 0.296875 0.703125q0 0.4375 -0.296875 0.703125q-0.28125 0.265625 -0.75 0.265625q-0.4375 0 -0.734375 -0.265625q-0.296875 -0.265625 -0.296875 -0.703125z" fill-rule="nonzero"></path><path fill="#f05732" d="m241.45932 300.69553l56.094482 0l0 48.787415l-56.094482 0z" fill-rule="evenodd"></path><path stroke="#000000" stroke-width="1.0" stroke-linejoin="round" stroke-linecap="butt" d="m241.45932 300.69553l56.094482 0l0 48.787415l-56.094482 0z" fill-rule="evenodd"></path><path fill="#ffffff" d="m264.49515 328.983q0 -0.4375 0.296875 -0.703125q0.296875 -0.28125 0.734375 -0.28125q0.453125 0 0.75 0.28125q0.296875 0.265625 0.296875 0.703125q0 0.4375 -0.296875 0.703125q-0.28125 0.265625 -0.75 0.265625q-0.4375 0 -0.734375 -0.265625q-0.296875 -0.265625 -0.296875 -0.703125zm3.8721924 0q0 -0.4375 0.296875 -0.703125q0.296875 -0.28125 0.734375 -0.28125q0.453125 0 0.75 0.28125q0.296875 0.265625 0.296875 0.703125q0 0.4375 -0.296875 0.703125q-0.28125 0.265625 -0.75 0.265625q-0.4375 0 -0.734375 -0.265625q-0.296875 -0.265625 -0.296875 -0.703125zm3.8721924 0q0 -0.4375 0.296875 -0.703125q0.296875 -0.28125 0.734375 -0.28125q0.453125 0 0.75 0.28125q0.296875 0.265625 0.296875 0.703125q0 0.4375 -0.296875 0.703125q-0.28125 0.265625 -0.75 0.265625q-0.4375 0 -0.734375 -0.265625q-0.296875 -0.265625 -0.296875 -0.703125z" fill-rule="nonzero"></path><path fill="#f05732" d="m241.45932 349.48294l56.094482 0l0 48.787415l-56.094482 0z" fill-rule="evenodd"></path><path stroke="#000000" stroke-width="1.0" stroke-linejoin="round" stroke-linecap="butt" d="m241.45932 349.48294l56.094482 0l0 48.787415l-56.094482 0z" fill-rule="evenodd"></path><path fill="#ffffff" d="m264.49515 377.7704q0 -0.4375 0.296875 -0.703125q0.296875 -0.28125 0.734375 -0.28125q0.453125 0 0.75 0.28125q0.296875 0.265625 0.296875 0.703125q0 0.4375 -0.296875 0.703125q-0.28125 0.265625 -0.75 0.265625q-0.4375 0 -0.734375 -0.265625q-0.296875 -0.265625 -0.296875 -0.703125zm3.8721924 0q0 -0.4375 0.296875 -0.703125q0.296875 -0.28125 0.734375 -0.28125q0.453125 0 0.75 0.28125q0.296875 0.265625 0.296875 0.703125q0 0.4375 -0.296875 0.703125q-0.28125 0.265625 -0.75 0.265625q-0.4375 0 -0.734375 -0.265625q-0.296875 -0.265625 -0.296875 -0.703125zm3.8721924 0q0 -0.4375 0.296875 -0.703125q0.296875 -0.28125 0.734375 -0.28125q0.453125 0 0.75 0.28125q0.296875 0.265625 0.296875 0.703125q0 0.4375 -0.296875 0.703125q-0.28125 0.265625 -0.75 0.265625q-0.4375 0 -0.734375 -0.265625q-0.296875 -0.265625 -0.296875 -0.703125z" fill-rule="nonzero"></path><path fill="#f05732" d="m241.45932 398.27036l56.094482 0l0 48.787384l-56.094482 0z" fill-rule="evenodd"></path><path stroke="#000000" stroke-width="1.0" stroke-linejoin="round" stroke-linecap="butt" d="m241.45932 398.27036l56.094482 0l0 48.787384l-56.094482 0z" fill-rule="evenodd"></path><path fill="#ffffff" d="m264.49515 426.5578q0 -0.4375 0.296875 -0.703125q0.296875 -0.28125 0.734375 -0.28125q0.453125 0 0.75 0.28125q0.296875 0.265625 0.296875 0.703125q0 0.4375 -0.296875 0.703125q-0.28125 0.265625 -0.75 0.265625q-0.4375 0 -0.734375 -0.265625q-0.296875 -0.265625 -0.296875 -0.703125zm3.8721924 0q0 -0.4375 0.296875 -0.703125q0.296875 -0.28125 0.734375 -0.28125q0.453125 0 0.75 0.28125q0.296875 0.265625 0.296875 0.703125q0 0.4375 -0.296875 0.703125q-0.28125 0.265625 -0.75 0.265625q-0.4375 0 -0.734375 -0.265625q-0.296875 -0.265625 -0.296875 -0.703125zm3.8721924 0q0 -0.4375 0.296875 -0.703125q0.296875 -0.28125 0.734375 -0.28125q0.453125 0 0.75 0.28125q0.296875 0.265625 0.296875 0.703125q0 0.4375 -0.296875 0.703125q-0.28125 0.265625 -0.75 0.265625q-0.4375 0 -0.734375 -0.265625q-0.296875 -0.265625 -0.296875 -0.703125z" fill-rule="nonzero"></path><path fill="#f05732" d="m297.5538 203.12073l56.094482 0l0 48.787415l-56.094482 0z" fill-rule="evenodd"></path><path stroke="#000000" stroke-width="1.0" stroke-linejoin="round" stroke-linecap="butt" d="m297.5538 203.12073l56.094482 0l0 48.787415l-56.094482 0z" fill-rule="evenodd"></path><path fill="#ffffff" d="m322.86194 228.48631q0 1.921875 -0.796875 2.9375q-0.78125 1.015625 -2.3125 1.015625q-1.515625 0 -2.3125 -0.984375q-0.796875 -1.0 -0.8125 -2.859375l0 -1.703125q0 -1.9375 0.796875 -2.9375q0.796875 -1.015625 2.3125 -1.015625q1.515625 0 2.3125 1.0q0.796875 1.0 0.8125 2.859375l0 1.6875zm-1.828125 -1.859375q0 -1.15625 -0.3125 -1.671875q-0.3125 -0.53125 -0.984375 -0.53125q-0.640625 0 -0.953125 0.5q-0.3125 0.5 -0.328125 1.5625l0 2.25q0 1.125 0.296875 1.671875q0.3125 0.546875 1.0 0.546875q0.671875 0 0.96875 -0.515625q0.296875 -0.53125 0.3125 -1.609375l0 -2.203125zm3.428009 4.78125q0 -0.4375 0.296875 -0.703125q0.296875 -0.28125 0.734375 -0.28125q0.453125 0 0.75 0.28125q0.296875 0.265625 0.296875 0.703125q0 0.4375 -0.296875 0.703125q-0.28125 0.265625 -0.75 0.265625q-0.4375 0 -0.734375 -0.265625q-0.296875 -0.265625 -0.296875 -0.703125zm7.9971924 -2.78125q-0.71875 0.703125 -1.671875 0.703125q-1.234375 0 -1.96875 -0.84375q-0.734375 -0.84375 -0.734375 -2.265625q0 -0.921875 0.390625 -1.671875q0.40625 -0.765625 1.109375 -1.1875q0.71875 -0.421875 1.609375 -0.421875q0.90625 0 1.609375 0.46875q0.71875 0.453125 1.109375 1.3125q0.390625 0.859375 0.40625 1.953125l0 0.6875q0 2.3125 -1.15625 3.640625q-1.140625 1.3125 -3.25 1.390625l-0.453125 0.015625l0 -1.53125l0.40625 -0.015625q2.390625 -0.109375 2.59375 -2.234375zm-1.234375 -0.703125q0.453125 0 0.765625 -0.21875q0.328125 -0.234375 0.484375 -0.5625l0 -0.75q0 -0.9375 -0.359375 -1.453125q-0.34375 -0.515625 -0.9375 -0.515625q-0.5625 0 -0.921875 0.515625q-0.34375 0.5 -0.34375 1.25q0 0.765625 0.34375 1.25q0.34375 0.484375 0.96875 0.484375z" fill-rule="nonzero"></path><path fill="#f05732" d="m297.5538 251.90814l56.094482 0l0 48.787384l-56.094482 0z" fill-rule="evenodd"></path><path stroke="#000000" stroke-width="1.0" stroke-linejoin="round" stroke-linecap="butt" d="m297.5538 251.90814l56.094482 0l0 48.787384l-56.094482 0z" fill-rule="evenodd"></path><path fill="#ffffff" d="m322.86194 277.2737q0 1.921875 -0.796875 2.9375q-0.78125 1.015625 -2.3125 1.015625q-1.515625 0 -2.3125 -0.984375q-0.796875 -1.0 -0.8125 -2.859375l0 -1.703125q0 -1.9375 0.796875 -2.9375q0.796875 -1.015625 2.3125 -1.015625q1.515625 0 2.3125 1.0q0.796875 1.0 0.8125 2.859375l0 1.6875zm-1.828125 -1.859375q0 -1.15625 -0.3125 -1.671875q-0.3125 -0.53125 -0.984375 -0.53125q-0.640625 0 -0.953125 0.5q-0.3125 0.5 -0.328125 1.5625l0 2.25q0 1.125 0.296875 1.671875q0.3125 0.546875 1.0 0.546875q0.671875 0 0.96875 -0.515625q0.296875 -0.53125 0.3125 -1.609375l0 -2.203125zm3.428009 4.78125q0 -0.4375 0.296875 -0.703125q0.296875 -0.28125 0.734375 -0.28125q0.453125 0 0.75 0.28125q0.296875 0.265625 0.296875 0.703125q0 0.4375 -0.296875 0.703125q-0.28125 0.265625 -0.75 0.265625q-0.4375 0 -0.734375 -0.265625q-0.296875 -0.265625 -0.296875 -0.703125zm9.981567 -7.3125l-3.5625 8.21875l-1.9375 0l3.578125 -7.75l-4.59375 0l0 -1.5l6.515625 0l0 1.03125z" fill-rule="nonzero"></path><path fill="#f05732" d="m297.5538 300.69553l56.094482 0l0 48.787415l-56.094482 0z" fill-rule="evenodd"></path><path stroke="#000000" stroke-width="1.0" stroke-linejoin="round" stroke-linecap="butt" d="m297.5538 300.69553l56.094482 0l0 48.787415l-56.094482 0z" fill-rule="evenodd"></path><path fill="#ffffff" d="m321.0963 329.88925l-1.828125 0l0 -7.078125l-2.1875 0.6875l0 -1.5l3.828125 -1.359375l0.1875 0l0 9.25zm3.365509 -0.90625q0 -0.4375 0.296875 -0.703125q0.296875 -0.28125 0.734375 -0.28125q0.453125 0 0.75 0.28125q0.296875 0.265625 0.296875 0.703125q0 0.4375 -0.296875 0.703125q-0.28125 0.265625 -0.75 0.265625q-0.4375 0 -0.734375 -0.265625q-0.296875 -0.265625 -0.296875 -0.703125zm9.981567 -7.3125l-3.5625 8.21875l-1.9375 0l3.578125 -7.75l-4.59375 0l0 -1.5l6.515625 0l0 1.03125z" fill-rule="nonzero"></path><path fill="#f05732" d="m297.5538 349.48294l56.094482 0l0 48.787415l-56.094482 0z" fill-rule="evenodd"></path><path stroke="#000000" stroke-width="1.0" stroke-linejoin="round" stroke-linecap="butt" d="m297.5538 349.48294l56.094482 0l0 48.787415l-56.094482 0z" fill-rule="evenodd"></path><path fill="#ffffff" d="m320.58963 377.7704q0 -0.4375 0.296875 -0.703125q0.296875 -0.28125 0.734375 -0.28125q0.453125 0 0.75 0.28125q0.296875 0.265625 0.296875 0.703125q0 0.4375 -0.296875 0.703125q-0.28125 0.265625 -0.75 0.265625q-0.4375 0 -0.734375 -0.265625q-0.296875 -0.265625 -0.296875 -0.703125zm3.8721924 0q0 -0.4375 0.296875 -0.703125q0.296875 -0.28125 0.734375 -0.28125q0.453125 0 0.75 0.28125q0.296875 0.265625 0.296875 0.703125q0 0.4375 -0.296875 0.703125q-0.28125 0.265625 -0.75 0.265625q-0.4375 0 -0.734375 -0.265625q-0.296875 -0.265625 -0.296875 -0.703125zm3.8721924 0q0 -0.4375 0.296875 -0.703125q0.296875 -0.28125 0.734375 -0.28125q0.453125 0 0.75 0.28125q0.296875 0.265625 0.296875 0.703125q0 0.4375 -0.296875 0.703125q-0.28125 0.265625 -0.75 0.265625q-0.4375 0 -0.734375 -0.265625q-0.296875 -0.265625 -0.296875 -0.703125z" fill-rule="nonzero"></path><path fill="#f05732" d="m297.5538 398.27036l56.094482 0l0 48.787384l-56.094482 0z" fill-rule="evenodd"></path><path stroke="#000000" stroke-width="1.0" stroke-linejoin="round" stroke-linecap="butt" d="m297.5538 398.27036l56.094482 0l0 48.787384l-56.094482 0z" fill-rule="evenodd"></path><path fill="#ffffff" d="m322.86194 423.63593q0 1.921875 -0.796875 2.9375q-0.78125 1.015625 -2.3125 1.015625q-1.515625 0 -2.3125 -0.984375q-0.796875 -1.0 -0.8125 -2.859375l0 -1.703125q0 -1.9375 0.796875 -2.9375q0.796875 -1.015625 2.3125 -1.015625q1.515625 0 2.3125 1.0q0.796875 1.0 0.8125 2.859375l0 1.6875zm-1.828125 -1.859375q0 -1.15625 -0.3125 -1.671875q-0.3125 -0.53125 -0.984375 -0.53125q-0.640625 0 -0.953125 0.5q-0.3125 0.5 -0.328125 1.5625l0 2.25q0 1.125 0.296875 1.671875q0.3125 0.546875 1.0 0.546875q0.671875 0 0.96875 -0.515625q0.296875 -0.53125 0.3125 -1.609375l0 -2.203125zm3.428009 4.78125q0 -0.4375 0.296875 -0.703125q0.296875 -0.28125 0.734375 -0.28125q0.453125 0 0.75 0.28125q0.296875 0.265625 0.296875 0.703125q0 0.4375 -0.296875 0.703125q-0.28125 0.265625 -0.75 0.265625q-0.4375 0 -0.734375 -0.265625q-0.296875 -0.265625 -0.296875 -0.703125zm8.153442 0.90625l-1.828125 0l0 -7.078125l-2.1875 0.6875l0 -1.5l3.828125 -1.359375l0.1875 0l0 9.25z" fill-rule="nonzero"></path><path fill="#000000" fill-opacity="0.0" d="m60.341206 204.34908l43.59055 0l0 46.330704l-43.59055 0z" fill-rule="evenodd"></path><path fill="#000000" d="m74.106834 224.2847l2.0 -3.6875l2.53125 0l-3.109375 5.296875l3.1875 5.375l-2.5625 0l-2.046875 -3.734375l-2.046875 3.734375l-2.5625 0l3.1875 -5.375l-3.109375 -5.296875l2.53125 0l2.0 3.6875z" fill-rule="nonzero"></path><path fill="#000000" d="m83.33915 238.26907l-1.6875 0l0 -6.53125l-2.015625 0.625l0 -1.375l3.53125 -1.265625l0.171875 0l0 8.546875z" fill-rule="nonzero"></path><path fill="#000000" fill-opacity="0.0" d="m103.931755 227.51443l25.354332 0" fill-rule="evenodd"></path><path stroke="#000000" stroke-width="1.0" stroke-linejoin="round" stroke-linecap="butt" d="m103.931755 227.51443l19.354332 0" fill-rule="evenodd"></path><path fill="#000000" stroke="#000000" stroke-width="1.0" stroke-linecap="butt" d="m123.28609 229.16617l4.538101 -1.6517334l-4.538101 -1.6517334z" fill-rule="evenodd"></path><path fill="#000000" fill-opacity="0.0" d="m60.32546 253.13647l43.59055 0l0 46.33072l-43.59055 0z" fill-rule="evenodd"></path><path fill="#000000" d="m74.09109 273.0721l2.0 -3.6875l2.53125 0l-3.109375 5.296875l3.1875 5.375l-2.5625 0l-2.046875 -3.734375l-2.046875 3.734375l-2.5625 0l3.1875 -5.375l-3.109375 -5.296875l2.53125 0l2.0 3.6875z" fill-rule="nonzero"></path><path fill="#000000" d="m85.05778 287.0565l-5.84375 0l0 -1.15625l2.765625 -2.953125q0.5625 -0.609375 0.828125 -1.078125q0.28125 -0.46875 0.28125 -0.875q0 -0.578125 -0.296875 -0.890625q-0.28125 -0.328125 -0.8125 -0.328125q-0.578125 0 -0.90625 0.390625q-0.328125 0.390625 -0.328125 1.046875l-1.703125 0q0 -0.78125 0.375 -1.421875q0.375 -0.65625 1.046875 -1.015625q0.6875 -0.375 1.546875 -0.375q1.3125 0 2.046875 0.640625q0.734375 0.625 0.734375 1.78125q0 0.640625 -0.328125 1.296875q-0.328125 0.65625 -1.125 1.53125l-1.9375 2.046875l3.65625 0l0 1.359375z" fill-rule="nonzero"></path><path fill="#000000" fill-opacity="0.0" d="m103.91601 276.30182l25.354332 0" fill-rule="evenodd"></path><path stroke="#000000" stroke-width="1.0" stroke-linejoin="round" stroke-linecap="butt" d="m103.91601 276.30185l19.354332 0" fill-rule="evenodd"></path><path fill="#000000" stroke="#000000" stroke-width="1.0" stroke-linecap="butt" d="m123.27034 277.95358l4.538101 -1.6517334l-4.538101 -1.6517334z" fill-rule="evenodd"></path><path fill="#000000" fill-opacity="0.0" d="m60.32546 301.9239l43.59055 0l0 46.33069l-43.59055 0z" fill-rule="evenodd"></path><path fill="#000000" d="m74.09109 321.8595l2.0 -3.6875l2.53125 0l-3.109375 5.296875l3.1875 5.375l-2.5625 0l-2.046875 -3.734375l-2.046875 3.734375l-2.5625 0l3.1875 -5.375l-3.109375 -5.296875l2.53125 0l2.0 3.6875z" fill-rule="nonzero"></path><path fill="#000000" d="m80.93278 330.82825l0.90625 0q0.640625 0 0.953125 -0.3125q0.3125 -0.328125 0.3125 -0.859375q0 -0.515625 -0.3125 -0.796875q-0.296875 -0.296875 -0.84375 -0.296875q-0.484375 0 -0.8125 0.265625q-0.328125 0.265625 -0.328125 0.6875l-1.6875 0q0 -0.65625 0.359375 -1.1875q0.359375 -0.53125 1.0 -0.828125q0.65625 -0.3125 1.4375 -0.3125q1.34375 0 2.109375 0.65625q0.78125 0.640625 0.78125 1.78125q0 0.59375 -0.359375 1.09375q-0.359375 0.484375 -0.9375 0.734375q0.71875 0.265625 1.0625 0.78125q0.359375 0.515625 0.359375 1.21875q0 1.140625 -0.828125 1.828125q-0.828125 0.6875 -2.1875 0.6875q-1.28125 0 -2.09375 -0.671875q-0.8125 -0.6875 -0.8125 -1.796875l1.6875 0q0 0.484375 0.359375 0.796875q0.375 0.296875 0.890625 0.296875q0.609375 0 0.953125 -0.3125q0.34375 -0.328125 0.34375 -0.859375q0 -1.265625 -1.40625 -1.265625l-0.90625 0l0 -1.328125z" fill-rule="nonzero"></path><path fill="#000000" fill-opacity="0.0" d="m103.91601 325.08923l25.354332 0" fill-rule="evenodd"></path><path stroke="#000000" stroke-width="1.0" stroke-linejoin="round" stroke-linecap="butt" d="m103.91601 325.08923l19.354332 0" fill-rule="evenodd"></path><path fill="#000000" stroke="#000000" stroke-width="1.0" stroke-linecap="butt" d="m123.27034 326.74097l4.538101 -1.6517334l-4.538101 -1.6517334z" fill-rule="evenodd"></path><path fill="#000000" fill-opacity="0.0" d="m60.32546 398.27032l43.59055 0l0 46.33072l-43.59055 0z" fill-rule="evenodd"></path><path fill="#000000" d="m74.09109 418.20596l2.0 -3.6875l2.53125 0l-3.109375 5.296875l3.1875 5.375l-2.5625 0l-2.046875 -3.734375l-2.046875 3.734375l-2.5625 0l3.1875 -5.375l-3.109375 -5.296875l2.53125 0l2.0 3.6875z" fill-rule="nonzero"></path><path fill="#000000" d="m80.83903 425.8466l0.0625 0.734375q0.671875 -0.84375 1.8125 -0.84375q1.015625 0 1.5 0.59375q0.5 0.578125 0.515625 1.765625l0 4.09375l-1.703125 0l0 -4.0625q0 -0.53125 -0.234375 -0.765625q-0.234375 -0.25 -0.78125 -0.25q-0.703125 0 -1.0625 0.609375l0 4.46875l-1.703125 0l0 -6.34375l1.59375 0z" fill-rule="nonzero"></path><path fill="#000000" fill-opacity="0.0" d="m103.91601 421.4357l25.354332 0" fill-rule="evenodd"></path><path stroke="#000000" stroke-width="1.0" stroke-linejoin="round" stroke-linecap="butt" d="m103.91601 421.4357l19.354332 0" fill-rule="evenodd"></path><path fill="#000000" stroke="#000000" stroke-width="1.0" stroke-linecap="butt" d="m123.27034 423.08743l4.538101 -1.6517334l-4.538101 -1.6517334z" fill-rule="evenodd"></path><path fill="#000000" fill-opacity="0.0" d="m70.78215 341.12335l18.771652 0l0 48.787415l-18.771652 0z" fill-rule="evenodd"></path><path fill="#000000" d="m80.454025 359.59775q0 -0.375 0.25 -0.59375q0.25 -0.234375 0.625 -0.234375q0.390625 0 0.640625 0.234375q0.25 0.21875 0.25 0.59375q0 0.375 -0.25 0.609375q-0.25 0.21875 -0.640625 0.21875q-0.375 0 -0.625 -0.21875q-0.25 -0.234375 -0.25 -0.609375z" fill-rule="nonzero"></path><path fill="#000000" d="m80.454025 372.59772q0 -0.375 0.25 -0.59375q0.25 -0.234375 0.625 -0.234375q0.390625 0 0.640625 0.234375q0.25 0.21875 0.25 0.59375q0 0.375 -0.25 0.609375q-0.25 0.21875 -0.640625 0.21875q-0.375 0 -0.625 -0.21875q-0.25 -0.234375 -0.25 -0.609375z" fill-rule="nonzero"></path><path fill="#000000" d="m80.454025 385.59772q0 -0.375 0.25 -0.59375q0.25 -0.234375 0.625 -0.234375q0.390625 0 0.640625 0.234375q0.25 0.21875 0.25 0.59375q0 0.375 -0.25 0.609375q-0.25 0.21875 -0.640625 0.21875q-0.375 0 -0.625 -0.21875q-0.25 -0.234375 -0.25 -0.609375z" fill-rule="nonzero"></path><path fill="#000000" fill-opacity="0.0" d="m123.2379 142.16011l68.69292 0l0 36.566925l-68.69292 0z" fill-rule="evenodd"></path><path fill="#000000" d="m139.34367 165.59573l-3.375 0l0 3.484375l-1.75 0l0 -8.53125l5.546875 0l0 1.421875l-3.796875 0l0 2.203125l3.375 0l0 1.421875zm4.2460938 3.609375q-1.390625 0 -2.265625 -0.859375q-0.875 -0.859375 -0.875 -2.28125l0 -0.171875q0 -0.953125 0.359375 -1.703125q0.375 -0.75 1.046875 -1.15625q0.6875 -0.40625 1.546875 -0.40625q1.3125 0 2.046875 0.828125q0.75 0.8125 0.75 2.3125l0 0.6875l-4.03125 0q0.078125 0.625 0.484375 1.0q0.421875 0.375 1.0625 0.375q0.96875 0 1.515625 -0.703125l0.84375 0.921875q-0.390625 0.546875 -1.046875 0.859375q-0.640625 0.296875 -1.4375 0.296875zm-0.1875 -5.21875q-0.5 0 -0.8125 0.34375q-0.3125 0.34375 -0.40625 0.96875l2.359375 0l0 -0.125q-0.015625 -0.5625 -0.3125 -0.875q-0.28125 -0.3125 -0.828125 -0.3125zm7.439453 5.09375q-0.125 -0.234375 -0.171875 -0.5625q-0.609375 0.6875 -1.59375 0.6875q-0.9375 0 -1.546875 -0.546875q-0.609375 -0.546875 -0.609375 -1.359375q0 -1.015625 0.734375 -1.546875q0.75 -0.546875 2.171875 -0.546875l0.765625 0l0 -0.359375q0 -0.4375 -0.21875 -0.703125q-0.21875 -0.265625 -0.71875 -0.265625q-0.421875 0 -0.671875 0.203125q-0.234375 0.203125 -0.234375 0.5625l-1.6875 0q0 -0.546875 0.328125 -1.015625q0.34375 -0.46875 0.96875 -0.734375q0.625 -0.265625 1.390625 -0.265625q1.171875 0 1.859375 0.59375q0.6875 0.578125 0.6875 1.640625l0 2.75q0.015625 0.90625 0.25 1.375l0 0.09375l-1.703125 0zm-1.40625 -1.171875q0.375 0 0.6875 -0.171875q0.328125 -0.171875 0.46875 -0.453125l0 -1.09375l-0.625 0q-1.265625 0 -1.359375 0.890625l0 0.09375q0 0.3125 0.21875 0.53125q0.21875 0.203125 0.609375 0.203125zm6.1835938 -6.734375l0 1.5625l1.09375 0l0 1.25l-1.09375 0l0 3.15625q0 0.359375 0.140625 0.515625q0.140625 0.140625 0.515625 0.140625q0.28125 0 0.5 -0.03125l0 1.28125q-0.5 0.15625 -1.03125 0.15625q-1.78125 0 -1.8125 -1.8125l0 -3.40625l-0.921875 0l0 -1.25l0.921875 0l0 -1.5625l1.6875 0zm5.8359375 7.265625q-0.625 0.765625 -1.734375 0.765625q-1.03125 0 -1.5625 -0.59375q-0.53125 -0.59375 -0.546875 -1.71875l0 -4.15625l1.6875 0l0 4.09375q0 1.0 0.90625 1.0q0.859375 0 1.1875 -0.609375l0 -4.484375l1.703125 0l0 6.34375l-1.59375 0l-0.046875 -0.640625zm6.4804688 -4.109375q-0.34375 -0.046875 -0.609375 -0.046875q-0.96875 0 -1.265625 0.640625l0 4.15625l-1.6875 0l0 -6.34375l1.59375 0l0.046875 0.765625q0.515625 -0.875 1.40625 -0.875q0.28125 0 0.53125 0.078125l-0.015625 1.625zm3.7207031 4.875q-1.390625 0 -2.265625 -0.859375q-0.875 -0.859375 -0.875 -2.28125l0 -0.171875q0 -0.953125 0.359375 -1.703125q0.375 -0.75 1.046875 -1.15625q0.6875 -0.40625 1.546875 -0.40625q1.3125 0 2.046875 0.828125q0.75 0.8125 0.75 2.3125l0 0.6875l-4.03125 0q0.078125 0.625 0.484375 1.0q0.421875 0.375 1.0625 0.375q0.96875 0 1.515625 -0.703125l0.84375 0.921875q-0.390625 0.546875 -1.046875 0.859375q-0.640625 0.296875 -1.4375 0.296875zm-0.1875 -5.21875q-0.5 0 -0.8125 0.34375q-0.3125 0.34375 -0.40625 0.96875l2.359375 0l0 -0.125q-0.015625 -0.5625 -0.3125 -0.875q-0.28125 -0.3125 -0.828125 -0.3125z" fill-rule="nonzero"></path><path fill="#000000" d="m179.2675 176.08011l-1.6875 0l0 -6.53125l-2.015625 0.625l0 -1.375l3.53125 -1.265625l0.171875 0l0 8.546875z" fill-rule="nonzero"></path><path fill="#000000" fill-opacity="0.0" d="m157.58435 178.72704l-0.25196838 24.409454" fill-rule="evenodd"></path><path stroke="#000000" stroke-width="1.0" stroke-linejoin="round" stroke-linecap="butt" d="m157.58437 178.72704l-0.19003296 18.409775" fill-rule="evenodd"></path><path fill="#000000" stroke="#000000" stroke-width="1.0" stroke-linecap="butt" d="m155.74268 197.11975l1.6047974 4.554901l1.6984863 -4.5207977z" fill-rule="evenodd"></path><path fill="#000000" fill-opacity="0.0" d="m175.06561 142.14436l68.69292 0l0 36.566925l-68.69292 0z" fill-rule="evenodd"></path><path fill="#000000" d="m191.17139 165.57999l-3.375 0l0 3.484375l-1.75 0l0 -8.53125l5.546875 0l0 1.421875l-3.796875 0l0 2.203125l3.375 0l0 1.421875zm4.2460938 3.609375q-1.390625 0 -2.265625 -0.859375q-0.875 -0.859375 -0.875 -2.28125l0 -0.171875q0 -0.953125 0.359375 -1.703125q0.375 -0.75 1.046875 -1.15625q0.6875 -0.40625 1.546875 -0.40625q1.3125 0 2.046875 0.828125q0.75 0.8125 0.75 2.3125l0 0.6875l-4.03125 0q0.078125 0.625 0.484375 1.0q0.421875 0.375 1.0625 0.375q0.96875 0 1.515625 -0.703125l0.84375 0.921875q-0.390625 0.546875 -1.046875 0.859375q-0.640625 0.296875 -1.4375 0.296875zm-0.1875 -5.21875q-0.5 0 -0.8125 0.34375q-0.3125 0.34375 -0.40625 0.96875l2.359375 0l0 -0.125q-0.015625 -0.5625 -0.3125 -0.875q-0.28125 -0.3125 -0.828125 -0.3125zm7.439453 5.09375q-0.125 -0.234375 -0.171875 -0.5625q-0.609375 0.6875 -1.59375 0.6875q-0.9375 0 -1.546875 -0.546875q-0.609375 -0.546875 -0.609375 -1.359375q0 -1.015625 0.734375 -1.546875q0.75 -0.546875 2.171875 -0.546875l0.765625 0l0 -0.359375q0 -0.4375 -0.21875 -0.703125q-0.21875 -0.265625 -0.71875 -0.265625q-0.421875 0 -0.671875 0.203125q-0.234375 0.203125 -0.234375 0.5625l-1.6875 0q0 -0.546875 0.328125 -1.015625q0.34375 -0.46875 0.96875 -0.734375q0.625 -0.265625 1.390625 -0.265625q1.171875 0 1.859375 0.59375q0.6875 0.578125 0.6875 1.640625l0 2.75q0.015625 0.90625 0.25 1.375l0 0.09375l-1.703125 0zm-1.40625 -1.171875q0.375 0 0.6875 -0.171875q0.328125 -0.171875 0.46875 -0.453125l0 -1.09375l-0.625 0q-1.265625 0 -1.359375 0.890625l0 0.09375q0 0.3125 0.21875 0.53125q0.21875 0.203125 0.609375 0.203125zm6.1835938 -6.734375l0 1.5625l1.09375 0l0 1.25l-1.09375 0l0 3.15625q0 0.359375 0.140625 0.515625q0.140625 0.140625 0.515625 0.140625q0.28125 0 0.5 -0.03125l0 1.28125q-0.5 0.15625 -1.03125 0.15625q-1.78125 0 -1.8125 -1.8125l0 -3.40625l-0.921875 0l0 -1.25l0.921875 0l0 -1.5625l1.6875 0zm5.8359375 7.265625q-0.625 0.765625 -1.734375 0.765625q-1.03125 0 -1.5625 -0.59375q-0.53125 -0.59375 -0.546875 -1.71875l0 -4.15625l1.6875 0l0 4.09375q0 1.0 0.90625 1.0q0.859375 0 1.1875 -0.609375l0 -4.484375l1.703125 0l0 6.34375l-1.59375 0l-0.046875 -0.640625zm6.4804688 -4.109375q-0.34375 -0.046875 -0.609375 -0.046875q-0.96875 0 -1.265625 0.640625l0 4.15625l-1.6875 0l0 -6.34375l1.59375 0l0.046875 0.765625q0.515625 -0.875 1.40625 -0.875q0.28125 0 0.53125 0.078125l-0.015625 1.625zm3.7207031 4.875q-1.390625 0 -2.265625 -0.859375q-0.875 -0.859375 -0.875 -2.28125l0 -0.171875q0 -0.953125 0.359375 -1.703125q0.375 -0.75 1.046875 -1.15625q0.6875 -0.40625 1.546875 -0.40625q1.3125 0 2.046875 0.828125q0.75 0.8125 0.75 2.3125l0 0.6875l-4.03125 0q0.078125 0.625 0.484375 1.0q0.421875 0.375 1.0625 0.375q0.96875 0 1.515625 -0.703125l0.84375 0.921875q-0.390625 0.546875 -1.046875 0.859375q-0.640625 0.296875 -1.4375 0.296875zm-0.1875 -5.21875q-0.5 0 -0.8125 0.34375q-0.3125 0.34375 -0.40625 0.96875l2.359375 0l0 -0.125q-0.015625 -0.5625 -0.3125 -0.875q-0.28125 -0.3125 -0.828125 -0.3125z" fill-rule="nonzero"></path><path fill="#000000" d="m232.82959 176.06436l-5.84375 0l0 -1.15625l2.765625 -2.953125q0.5625 -0.609375 0.828125 -1.078125q0.28125 -0.46875 0.28125 -0.875q0 -0.578125 -0.296875 -0.890625q-0.28125 -0.328125 -0.8125 -0.328125q-0.578125 0 -0.90625 0.390625q-0.328125 0.390625 -0.328125 1.046875l-1.703125 0q0 -0.78125 0.375 -1.421875q0.375 -0.65625 1.046875 -1.015625q0.6875 -0.375 1.546875 -0.375q1.3125 0 2.046875 0.640625q0.734375 0.625 0.734375 1.78125q0 0.640625 -0.328125 1.296875q-0.328125 0.65625 -1.125 1.53125l-1.9375 2.046875l3.65625 0l0 1.359375z" fill-rule="nonzero"></path><path fill="#000000" fill-opacity="0.0" d="m209.41208 178.71129l0 24.40944" fill-rule="evenodd"></path><path stroke="#000000" stroke-width="1.0" stroke-linejoin="round" stroke-linecap="butt" d="m209.41208 178.71129l0 18.40944" fill-rule="evenodd"></path><path fill="#000000" stroke="#000000" stroke-width="1.0" stroke-linecap="butt" d="m207.76035 197.12073l1.6517334 4.538101l1.6517334 -4.538101z" fill-rule="evenodd"></path><path fill="#000000" fill-opacity="0.0" d="m287.2546 142.14436l75.55905 0l0 36.566925l-75.55905 0z" fill-rule="evenodd"></path><path fill="#000000" d="m303.4835 165.57999l-3.375 0l0 3.484375l-1.75 0l0 -8.53125l5.546875 0l0 1.421875l-3.796875 0l0 2.203125l3.375 0l0 1.421875zm4.2460938 3.609375q-1.390625 0 -2.265625 -0.859375q-0.875 -0.859375 -0.875 -2.28125l0 -0.171875q0 -0.953125 0.359375 -1.703125q0.375 -0.75 1.046875 -1.15625q0.6875 -0.40625 1.546875 -0.40625q1.3125 0 2.046875 0.828125q0.75 0.8125 0.75 2.3125l0 0.6875l-4.03125 0q0.078125 0.625 0.484375 1.0q0.421875 0.375 1.0625 0.375q0.96875 0 1.515625 -0.703125l0.84375 0.921875q-0.390625 0.546875 -1.046875 0.859375q-0.640625 0.296875 -1.4375 0.296875zm-0.1875 -5.21875q-0.5 0 -0.8125 0.34375q-0.3125 0.34375 -0.40625 0.96875l2.359375 0l0 -0.125q-0.015625 -0.5625 -0.3125 -0.875q-0.28125 -0.3125 -0.828125 -0.3125zm7.439453 5.09375q-0.125 -0.234375 -0.171875 -0.5625q-0.609375 0.6875 -1.59375 0.6875q-0.9375 0 -1.546875 -0.546875q-0.609375 -0.546875 -0.609375 -1.359375q0 -1.015625 0.734375 -1.546875q0.75 -0.546875 2.171875 -0.546875l0.765625 0l0 -0.359375q0 -0.4375 -0.21875 -0.703125q-0.21875 -0.265625 -0.71875 -0.265625q-0.421875 0 -0.671875 0.203125q-0.234375 0.203125 -0.234375 0.5625l-1.6875 0q0 -0.546875 0.328125 -1.015625q0.34375 -0.46875 0.96875 -0.734375q0.625 -0.265625 1.390625 -0.265625q1.171875 0 1.859375 0.59375q0.6875 0.578125 0.6875 1.640625l0 2.75q0.015625 0.90625 0.25 1.375l0 0.09375l-1.703125 0zm-1.40625 -1.171875q0.375 0 0.6875 -0.171875q0.328125 -0.171875 0.46875 -0.453125l0 -1.09375l-0.625 0q-1.265625 0 -1.359375 0.890625l0 0.09375q0 0.3125 0.21875 0.53125q0.21875 0.203125 0.609375 0.203125zm6.1835938 -6.734375l0 1.5625l1.09375 0l0 1.25l-1.09375 0l0 3.15625q0 0.359375 0.140625 0.515625q0.140625 0.140625 0.515625 0.140625q0.28125 0 0.5 -0.03125l0 1.28125q-0.5 0.15625 -1.03125 0.15625q-1.78125 0 -1.8125 -1.8125l0 -3.40625l-0.921875 0l0 -1.25l0.921875 0l0 -1.5625l1.6875 0zm5.8359375 7.265625q-0.625 0.765625 -1.734375 0.765625q-1.03125 0 -1.5625 -0.59375q-0.53125 -0.59375 -0.546875 -1.71875l0 -4.15625l1.6875 0l0 4.09375q0 1.0 0.90625 1.0q0.859375 0 1.1875 -0.609375l0 -4.484375l1.703125 0l0 6.34375l-1.59375 0l-0.046875 -0.640625zm6.4804688 -4.109375q-0.34375 -0.046875 -0.609375 -0.046875q-0.96875 0 -1.265625 0.640625l0 4.15625l-1.6875 0l0 -6.34375l1.59375 0l0.046875 0.765625q0.515625 -0.875 1.40625 -0.875q0.28125 0 0.53125 0.078125l-0.015625 1.625zm3.7207031 4.875q-1.390625 0 -2.265625 -0.859375q-0.875 -0.859375 -0.875 -2.28125l0 -0.171875q0 -0.953125 0.359375 -1.703125q0.375 -0.75 1.046875 -1.15625q0.6875 -0.40625 1.546875 -0.40625q1.3125 0 2.046875 0.828125q0.75 0.8125 0.75 2.3125l0 0.6875l-4.03125 0q0.078125 0.625 0.484375 1.0q0.421875 0.375 1.0625 0.375q0.96875 0 1.515625 -0.703125l0.84375 0.921875q-0.390625 0.546875 -1.046875 0.859375q-0.640625 0.296875 -1.4375 0.296875zm-0.1875 -5.21875q-0.5 0 -0.8125 0.34375q-0.3125 0.34375 -0.40625 0.96875l2.359375 0l0 -0.125q-0.015625 -0.5625 -0.3125 -0.875q-0.28125 -0.3125 -0.828125 -0.3125z" fill-rule="nonzero"></path><path fill="#000000" d="m343.94247 169.72061l0.0625 0.71875q0.671875 -0.828125 1.8125 -0.828125q1.234375 0 1.6875 0.96875q0.671875 -0.96875 1.90625 -0.96875q1.03125 0 1.53125 0.609375q0.5 0.59375 0.5 1.796875l0 4.046875l-1.6875 0l0 -4.046875q0 -0.53125 -0.21875 -0.78125q-0.203125 -0.25 -0.75 -0.25q-0.75 0 -1.046875 0.71875l0 4.359375l-1.6875 0l0 -4.03125q0 -0.5625 -0.21875 -0.796875q-0.21875 -0.25 -0.734375 -0.25q-0.71875 0 -1.046875 0.59375l0 4.484375l-1.6875 0l0 -6.34375l1.578125 0z" fill-rule="nonzero"></path><path fill="#000000" fill-opacity="0.0" d="m325.03412 178.71129l0 24.40944" fill-rule="evenodd"></path><path stroke="#000000" stroke-width="1.0" stroke-linejoin="round" stroke-linecap="butt" d="m325.03412 178.71129l0 18.40944" fill-rule="evenodd"></path><path fill="#000000" stroke="#000000" stroke-width="1.0" stroke-linecap="butt" d="m323.3824 197.12073l1.6517334 4.538101l1.6517334 -4.538101z" fill-rule="evenodd"></path><path fill="#000000" fill-opacity="0.0" d="m250.15224 179.6588l37.32283 0l0 7.62204l-37.32283 0z" fill-rule="evenodd"></path><path fill="#000000" fill-opacity="0.0" d="m243.76378 185.13387l43.59056 0l0 7.62204l-43.59056 0z" fill-rule="evenodd"></path><path fill="#000000" fill-opacity="0.0" d="m293.90027 166.3622l0 18.771667l-48.787415 0l0 -18.771667z" fill-rule="evenodd"></path><path fill="#000000" d="m275.42587 174.87195q0.375 0 0.59375 0.25q0.234375 0.25 0.234375 0.625q0 0.390625 -0.234375 0.640625q-0.21875 0.25 -0.59375 0.25q-0.375 0 -0.609375 -0.25q-0.21875 -0.25 -0.21875 -0.640625q0 -0.375 0.21875 -0.625q0.234375 -0.25 0.609375 -0.25z" fill-rule="nonzero"></path><path fill="#000000" d="m262.4259 174.87195q0.375 0 0.59375 0.25q0.234375 0.25 0.234375 0.625q0 0.390625 -0.234375 0.640625q-0.21875 0.25 -0.59375 0.25q-0.375 0 -0.609375 -0.25q-0.21875 -0.25 -0.21875 -0.640625q0 -0.375 0.21875 -0.625q0.234375 -0.25 0.609375 -0.25z" fill-rule="nonzero"></path><path fill="#000000" d="m249.42589 174.87195q0.375 0 0.59375 0.25q0.234375 0.25 0.234375 0.625q0 0.390625 -0.234375 0.640625q-0.21875 0.25 -0.59375 0.25q-0.375 0 -0.609375 -0.25q-0.21875 -0.25 -0.21875 -0.640625q0 -0.375 0.21875 -0.625q0.234375 -0.25 0.609375 -0.25z" fill-rule="nonzero"></path><path fill="#f05732" d="m129.27034 251.91602l56.094482 0l0 48.787384l-56.094482 0z" fill-rule="evenodd"></path><path stroke="#000000" stroke-width="1.0" stroke-linejoin="round" stroke-linecap="butt" d="m129.27034 251.91602l56.094482 0l0 48.787384l-56.094482 0z" fill-rule="evenodd"></path><path fill="#ffffff" d="m154.57848 277.2816q0 1.921875 -0.796875 2.9375q-0.78125 1.015625 -2.3125 1.015625q-1.515625 0 -2.3125 -0.984375q-0.796875 -1.0 -0.8125 -2.859375l0 -1.703125q0 -1.9375 0.796875 -2.9375q0.796875 -1.015625 2.3125 -1.015625q1.515625 0 2.3125 1.0q0.796875 1.0 0.8125 2.859375l0 1.6875zm-1.828125 -1.859375q0 -1.15625 -0.3125 -1.671875q-0.3125 -0.53125 -0.984375 -0.53125q-0.640625 0 -0.953125 0.5q-0.3125 0.5 -0.328125 1.5625l0 2.25q0 1.125 0.296875 1.671875q0.3125 0.546875 1.0 0.546875q0.671875 0 0.96875 -0.515625q0.296875 -0.53125 0.3125 -1.609375l0 -2.203125zm3.428009 4.78125q0 -0.4375 0.296875 -0.703125q0.296875 -0.28125 0.734375 -0.28125q0.453125 0 0.75 0.28125q0.296875 0.265625 0.296875 0.703125q0 0.4375 -0.296875 0.703125q-0.28125 0.265625 -0.75 0.265625q-0.4375 0 -0.734375 -0.265625q-0.296875 -0.265625 -0.296875 -0.703125zm9.981567 -7.3125l-3.5625 8.21875l-1.9375 0l3.578125 -7.75l-4.59375 0l0 -1.5l6.515625 0l0 1.03125z" fill-rule="nonzero"></path><path fill="#942174" d="m435.0971 283.51443l186.48822 0l0 83.1496l-186.48822 0z" fill-rule="evenodd"></path><path stroke="#000000" stroke-width="1.0" stroke-linejoin="round" stroke-linecap="butt" d="m435.0971 283.51443l186.48822 0l0 83.1496l-186.48822 0z" fill-rule="evenodd"></path><path fill="#ffffff" d="m506.96783 318.49362l3.46875 9.796875l3.453125 -9.796875l3.65625 0l0 13.515625l-2.796875 0l0 -3.6875l0.28125 -6.375l-3.640625 10.0625l-1.921875 0l-3.625 -10.0625l0.265625 6.375l0 3.6875l-2.78125 0l0 -13.515625l3.640625 0zm12.108032 8.40625q0 -1.5 0.578125 -2.65625q0.578125 -1.171875 1.65625 -1.8125q1.078125 -0.640625 2.515625 -0.640625q2.03125 0 3.3125 1.25q1.28125 1.234375 1.4375 3.359375l0.015625 0.6875q0 2.3125 -1.296875 3.71875q-1.28125 1.390625 -3.453125 1.390625q-2.171875 0 -3.46875 -1.390625q-1.296875 -1.390625 -1.296875 -3.78125l0 -0.125zm2.6875 0.1875q0 1.4375 0.53125 2.203125q0.546875 0.75 1.546875 0.75q0.96875 0 1.515625 -0.75q0.546875 -0.75 0.546875 -2.390625q0 -1.40625 -0.546875 -2.171875q-0.546875 -0.765625 -1.53125 -0.765625q-0.984375 0 -1.53125 0.765625q-0.53125 0.765625 -0.53125 2.359375zm7.861328 -0.171875q0 -2.34375 1.046875 -3.734375q1.0625 -1.390625 2.890625 -1.390625q1.46875 0 2.421875 1.09375l0 -5.125l2.6875 0l0 14.25l-2.421875 0l-0.125 -1.0625q-1.0 1.25 -2.578125 1.25q-1.78125 0 -2.859375 -1.390625q-1.0625 -1.40625 -1.0625 -3.890625zm2.6875 0.1875q0 1.421875 0.484375 2.171875q0.5 0.75 1.4375 0.75q1.234375 0 1.75 -1.046875l0 -3.96875q-0.5 -1.046875 -1.734375 -1.046875q-1.9375 0 -1.9375 3.140625zm12.871704 5.09375q-2.21875 0 -3.609375 -1.359375q-1.375 -1.359375 -1.375 -3.609375l0 -0.25q0 -1.515625 0.578125 -2.703125q0.59375 -1.203125 1.65625 -1.84375q1.078125 -0.640625 2.453125 -0.640625q2.046875 0 3.234375 1.296875q1.1875 1.296875 1.1875 3.6875l0 1.09375l-6.390625 0q0.125 0.984375 0.78125 1.578125q0.65625 0.59375 1.65625 0.59375q1.546875 0 2.421875 -1.125l1.3125 1.46875q-0.59375 0.859375 -1.625 1.34375q-1.03125 0.46875 -2.28125 0.46875zm-0.3125 -8.234375q-0.796875 0 -1.296875 0.53125q-0.5 0.53125 -0.625 1.546875l3.71875 0l0 -0.21875q-0.015625 -0.890625 -0.484375 -1.375q-0.453125 -0.484375 -1.3125 -0.484375zm8.5998535 8.046875l-2.6875 0l0 -14.25l2.6875 0l0 14.25z" fill-rule="nonzero"></path><path fill="#000000" fill-opacity="0.0" d="m353.6483 325.08923l81.44882 0" fill-rule="evenodd"></path><path stroke="#000000" stroke-width="1.0" stroke-linejoin="round" stroke-linecap="butt" d="m353.6483 325.08923l75.44882 0" fill-rule="evenodd"></path><path fill="#000000" stroke="#000000" stroke-width="1.0" stroke-linecap="butt" d="m429.0971 326.74097l4.5381165 -1.6517334l-4.5381165 -1.6517334z" fill-rule="evenodd"></path><path fill="#999999" d="m795.1837 207.26509l56.094482 0l0 48.7874l-56.094482 0z" fill-rule="evenodd"></path><path stroke="#000000" stroke-width="1.0" stroke-linejoin="round" stroke-linecap="butt" d="m795.1837 207.26509l56.094482 0l0 48.7874l-56.094482 0z" fill-rule="evenodd"></path><path fill="#ffffff" d="m826.25134 232.63066q0 1.921875 -0.796875 2.9375q-0.78125 1.015625 -2.3125 1.015625q-1.515625 0 -2.3125 -0.984375q-0.796875 -1.0 -0.8125 -2.859375l0 -1.703125q0 -1.9375 0.796875 -2.9375q0.796875 -1.015625 2.3125 -1.015625q1.515625 0 2.3125 1.0q0.796875 1.0 0.8125 2.859375l0 1.6875zm-1.828125 -1.859375q0 -1.15625 -0.3125 -1.671875q-0.3125 -0.53125 -0.984375 -0.53125q-0.640625 0 -0.953125 0.5q-0.3125 0.5 -0.328125 1.5625l0 2.25q0 1.125 0.296875 1.671875q0.3125 0.546875 1.0 0.546875q0.671875 0 0.96875 -0.515625q0.296875 -0.53125 0.3125 -1.609375l0 -2.203125z" fill-rule="nonzero"></path><path fill="#999999" d="m795.1837 256.0525l56.094482 0l0 48.787415l-56.094482 0z" fill-rule="evenodd"></path><path stroke="#000000" stroke-width="1.0" stroke-linejoin="round" stroke-linecap="butt" d="m795.1837 256.0525l56.094482 0l0 48.787415l-56.094482 0z" fill-rule="evenodd"></path><path fill="#ffffff" d="m826.25134 281.41806q0 1.921875 -0.796875 2.9375q-0.78125 1.015625 -2.3125 1.015625q-1.515625 0 -2.3125 -0.984375q-0.796875 -1.0 -0.8125 -2.859375l0 -1.703125q0 -1.9375 0.796875 -2.9375q0.796875 -1.015625 2.3125 -1.015625q1.515625 0 2.3125 1.0q0.796875 1.0 0.8125 2.859375l0 1.6875zm-1.828125 -1.859375q0 -1.15625 -0.3125 -1.671875q-0.3125 -0.53125 -0.984375 -0.53125q-0.640625 0 -0.953125 0.5q-0.3125 0.5 -0.328125 1.5625l0 2.25q0 1.125 0.296875 1.671875q0.3125 0.546875 1.0 0.546875q0.671875 0 0.96875 -0.515625q0.296875 -0.53125 0.3125 -1.609375l0 -2.203125z" fill-rule="nonzero"></path><path fill="#999999" d="m795.1837 304.8399l56.094482 0l0 48.787384l-56.094482 0z" fill-rule="evenodd"></path><path stroke="#000000" stroke-width="1.0" stroke-linejoin="round" stroke-linecap="butt" d="m795.1837 304.8399l56.094482 0l0 48.787384l-56.094482 0z" fill-rule="evenodd"></path><path fill="#ffffff" d="m824.4857 334.0336l-1.828125 0l0 -7.078125l-2.1875 0.6875l0 -1.5l3.828125 -1.359375l0.1875 0l0 9.25z" fill-rule="nonzero"></path><path fill="#999999" d="m795.1837 353.6273l56.094482 0l0 48.787415l-56.094482 0z" fill-rule="evenodd"></path><path stroke="#000000" stroke-width="1.0" stroke-linejoin="round" stroke-linecap="butt" d="m795.1837 353.6273l56.094482 0l0 48.787415l-56.094482 0z" fill-rule="evenodd"></path><path fill="#ffffff" d="m819.09814 373.91473q0 -0.4375 0.296875 -0.703125q0.296875 -0.28125 0.734375 -0.28125q0.453125 0 0.75 0.28125q0.296875 0.265625 0.296875 0.703125q0 0.4375 -0.296875 0.703125q-0.28125 0.265625 -0.75 0.265625q-0.4375 0 -0.734375 -0.265625q-0.296875 -0.265625 -0.296875 -0.703125zm3.0 0q0 -0.4375 0.296875 -0.703125q0.296875 -0.28125 0.734375 -0.28125q0.453125 0 0.75 0.28125q0.296875 0.265625 0.296875 0.703125q0 0.4375 -0.296875 0.703125q-0.28125 0.265625 -0.75 0.265625q-0.4375 0 -0.734375 -0.265625q-0.296875 -0.265625 -0.296875 -0.703125zm3.0 0q0 -0.4375 0.296875 -0.703125q0.296875 -0.28125 0.734375 -0.28125q0.453125 0 0.75 0.28125q0.296875 0.265625 0.296875 0.703125q0 0.4375 -0.296875 0.703125q-0.28125 0.265625 -0.75 0.265625q-0.4375 0 -0.734375 -0.265625q-0.296875 -0.265625 -0.296875 -0.703125z" fill-rule="nonzero"></path><path fill="#999999" d="m795.1837 402.4147l56.094482 0l0 48.787384l-56.094482 0z" fill-rule="evenodd"></path><path stroke="#000000" stroke-width="1.0" stroke-linejoin="round" stroke-linecap="butt" d="m795.1837 402.4147l56.094482 0l0 48.787384l-56.094482 0z" fill-rule="evenodd"></path><path fill="#ffffff" d="m824.4857 431.6084l-1.828125 0l0 -7.078125l-2.1875 0.6875l0 -1.5l3.828125 -1.359375l0.1875 0l0 9.25z" fill-rule="nonzero"></path><path fill="#000000" fill-opacity="0.0" d="m733.15485 142.14436l166.51971 0l0 36.566925l-166.51971 0z" fill-rule="evenodd"></path><path fill="#000000" d="m788.0719 159.66435l0 3.0l-1.75 0l0 -8.53125l3.328125 0q0.953125 0 1.6875 0.359375q0.734375 0.34375 1.125 1.0q0.390625 0.640625 0.390625 1.46875q0 1.25 -0.859375 1.984375q-0.859375 0.71875 -2.375 0.71875l-1.546875 0zm0 -1.4375l1.578125 0q0.6875 0 1.046875 -0.328125q0.375 -0.328125 0.375 -0.9375q0 -0.625 -0.375 -1.0q-0.359375 -0.390625 -1.015625 -0.40625l-1.609375 0l0 2.671875zm9.443359 -0.3125q-0.34375 -0.046875 -0.609375 -0.046875q-0.96875 0 -1.265625 0.640625l0 4.15625l-1.6875 0l0 -6.34375l1.59375 0l0.046875 0.765625q0.515625 -0.875 1.40625 -0.875q0.28125 0 0.53125 0.078125l-0.015625 1.625zm3.7207031 4.875q-1.390625 0 -2.265625 -0.859375q-0.875 -0.859375 -0.875 -2.28125l0 -0.171875q0 -0.953125 0.359375 -1.703125q0.375 -0.75 1.046875 -1.15625q0.6875 -0.40625 1.546875 -0.40625q1.3125 0 2.046875 0.828125q0.75 0.8125 0.75 2.3125l0 0.6875l-4.03125 0q0.078125 0.625 0.484375 1.0q0.421875 0.375 1.0625 0.375q0.96875 0 1.515625 -0.703125l0.84375 0.921875q-0.390625 0.546875 -1.046875 0.859375q-0.640625 0.296875 -1.4375 0.296875zm-0.1875 -5.21875q-0.5 0 -0.8125 0.34375q-0.3125 0.34375 -0.40625 0.96875l2.359375 0l0 -0.125q-0.015625 -0.5625 -0.3125 -0.875q-0.28125 -0.3125 -0.828125 -0.3125zm3.5019531 1.875q0 -1.484375 0.65625 -2.359375q0.671875 -0.875 1.828125 -0.875q0.921875 0 1.53125 0.6875l0 -3.234375l1.6875 0l0 9.0l-1.515625 0l-0.09375 -0.671875q-0.625 0.796875 -1.625 0.796875q-1.125 0 -1.796875 -0.875q-0.671875 -0.890625 -0.671875 -2.46875zm1.6875 0.125q0 0.890625 0.3125 1.375q0.3125 0.46875 0.90625 0.46875q0.78125 0 1.109375 -0.671875l0 -2.5q-0.328125 -0.65625 -1.09375 -0.65625q-1.234375 0 -1.234375 1.984375zm7.1210938 3.09375l-1.703125 0l0 -6.34375l1.703125 0l0 6.34375zm-1.796875 -7.984375q0 -0.375 0.25 -0.625q0.265625 -0.25 0.703125 -0.25q0.421875 0 0.671875 0.25q0.265625 0.25 0.265625 0.625q0 0.390625 -0.265625 0.640625q-0.25 0.234375 -0.6875 0.234375q-0.421875 0 -0.6875 -0.234375q-0.25 -0.25 -0.25 -0.640625zm5.8222656 6.734375q0.46875 0 0.765625 -0.25q0.296875 -0.265625 0.3125 -0.6875l1.578125 0q0 0.640625 -0.34375 1.1875q-0.34375 0.53125 -0.953125 0.828125q-0.59375 0.296875 -1.328125 0.296875q-1.359375 0 -2.140625 -0.859375q-0.78125 -0.875 -0.78125 -2.40625l0 -0.109375q0 -1.46875 0.78125 -2.328125q0.78125 -0.875 2.140625 -0.875q1.1875 0 1.90625 0.671875q0.71875 0.671875 0.71875 1.796875l-1.578125 0q-0.015625 -0.484375 -0.3125 -0.796875q-0.296875 -0.3125 -0.765625 -0.3125q-0.59375 0 -0.90625 0.4375q-0.296875 0.4375 -0.296875 1.390625l0 0.1875q0 0.96875 0.296875 1.40625q0.296875 0.421875 0.90625 0.421875zm5.6484375 -6.65625l0 1.5625l1.09375 0l0 1.25l-1.09375 0l0 3.15625q0 0.359375 0.140625 0.515625q0.140625 0.140625 0.515625 0.140625q0.28125 0 0.5 -0.03125l0 1.28125q-0.5 0.15625 -1.03125 0.15625q-1.78125 0 -1.8125 -1.8125l0 -3.40625l-0.921875 0l0 -1.25l0.921875 0l0 -1.5625l1.6875 0zm3.8203125 7.90625l-1.703125 0l0 -6.34375l1.703125 0l0 6.34375zm-1.796875 -7.984375q0 -0.375 0.25 -0.625q0.265625 -0.25 0.703125 -0.25q0.421875 0 0.671875 0.25q0.265625 0.25 0.265625 0.625q0 0.390625 -0.265625 0.640625q-0.25 0.234375 -0.6875 0.234375q-0.421875 0 -0.6875 -0.234375q-0.25 -0.25 -0.25 -0.640625zm2.9316406 4.75q0 -0.9375 0.359375 -1.671875q0.359375 -0.75 1.046875 -1.140625q0.6875 -0.40625 1.578125 -0.40625q1.296875 0 2.09375 0.78125q0.8125 0.78125 0.90625 2.125l0.015625 0.4375q0 1.46875 -0.8125 2.359375q-0.8125 0.875 -2.1875 0.875q-1.375 0 -2.1875 -0.875q-0.8125 -0.890625 -0.8125 -2.40625l0 -0.078125zm1.6875 0.125q0 0.90625 0.34375 1.390625q0.34375 0.46875 0.96875 0.46875q0.625 0 0.96875 -0.46875q0.34375 -0.46875 0.34375 -1.515625q0 -0.875 -0.34375 -1.359375q-0.34375 -0.5 -0.984375 -0.5q-0.609375 0 -0.953125 0.484375q-0.34375 0.484375 -0.34375 1.5zm6.9101562 -3.234375l0.0625 0.734375q0.671875 -0.84375 1.8125 -0.84375q1.015625 0 1.5 0.59375q0.5 0.578125 0.515625 1.765625l0 4.09375l-1.703125 0l0 -4.0625q0 -0.53125 -0.234375 -0.765625q-0.234375 -0.25 -0.78125 -0.25q-0.703125 0 -1.0625 0.609375l0 4.46875l-1.703125 0l0 -6.34375l1.59375 0zm8.595703 4.59375q0 -0.3125 -0.3125 -0.484375q-0.296875 -0.1875 -0.96875 -0.328125q-2.265625 -0.46875 -2.265625 -1.921875q0 -0.84375 0.6875 -1.40625q0.703125 -0.5625 1.84375 -0.5625q1.203125 0 1.921875 0.5625q0.734375 0.5625 0.734375 1.484375l-1.703125 0q0 -0.375 -0.234375 -0.609375q-0.234375 -0.234375 -0.734375 -0.234375q-0.421875 0 -0.65625 0.203125q-0.234375 0.1875 -0.234375 0.484375q0 0.28125 0.265625 0.453125q0.265625 0.171875 0.890625 0.296875q0.640625 0.125 1.078125 0.28125q1.34375 0.5 1.34375 1.703125q0 0.875 -0.75 1.421875q-0.734375 0.53125 -1.921875 0.53125q-0.796875 0 -1.421875 -0.28125q-0.609375 -0.296875 -0.96875 -0.78125q-0.34375 -0.5 -0.34375 -1.078125l1.609375 0q0.015625 0.453125 0.328125 0.703125q0.3125 0.234375 0.828125 0.234375q0.5 0 0.734375 -0.1875q0.25 -0.1875 0.25 -0.484375z" fill-rule="nonzero"></path><path fill="#000000" fill-opacity="0.0" d="m816.4147 178.71129l0 24.40944" fill-rule="evenodd"></path><path stroke="#000000" stroke-width="1.0" stroke-linejoin="round" stroke-linecap="butt" d="m816.4147 178.71129l0 18.40944" fill-rule="evenodd"></path><path fill="#000000" stroke="#000000" stroke-width="1.0" stroke-linecap="butt" d="m814.76294 197.12073l1.6517334 4.538101l1.6517334 -4.538101z" fill-rule="evenodd"></path><path fill="#000000" fill-opacity="0.0" d="m733.15356 202.82677l56.094482 0l0 46.33072l-56.094482 0z" fill-rule="evenodd"></path><path fill="#000000" d="m746.9348 225.94989l1.859375 -6.234375l2.875 0l-4.046875 11.59375l-0.21875 0.53125q-0.90625 1.953125 -2.96875 1.953125q-0.578125 0 -1.1875 -0.171875l0 -2.03125l0.40625 0.015625q0.765625 0 1.140625 -0.234375q0.375 -0.234375 0.59375 -0.765625l0.3125 -0.828125l-3.515625 -10.0625l2.875 0l1.875 6.234375zm3.453125 -7.859375l0 0.109375l-2.140625 0l-1.421875 -1.34375l-1.4375 1.34375l-2.09375 0l0 -0.140625l2.75 -2.5625l1.5625 0l2.78125 2.59375z" fill-rule="nonzero"></path><path fill="#000000" d="m756.2056 236.74677l-1.6875 0l0 -6.53125l-2.015625 0.625l0 -1.375l3.53125 -1.265625l0.171875 0l0 8.546875z" fill-rule="nonzero"></path><path fill="#000000" fill-opacity="0.0" d="m769.8294 232.51443l25.35431 0" fill-rule="evenodd"></path><path stroke="#000000" stroke-width="1.0" stroke-linejoin="round" stroke-linecap="butt" d="m769.8294 232.51443l19.35431 0" fill-rule="evenodd"></path><path fill="#000000" stroke="#000000" stroke-width="1.0" stroke-linecap="butt" d="m789.1837 234.16617l4.538086 -1.6517334l-4.538086 -1.6517334z" fill-rule="evenodd"></path><path fill="#000000" fill-opacity="0.0" d="m767.87665 280.3836l29.259827 0.12597656" fill-rule="evenodd"></path><path stroke="#000000" stroke-width="1.0" stroke-linejoin="round" stroke-linecap="butt" d="m767.87665 280.3836l23.259888 0.10015869" fill-rule="evenodd"></path><path fill="#000000" stroke="#000000" stroke-width="1.0" stroke-linecap="butt" d="m791.12946 282.13547l4.545166 -1.6321716l-4.530945 -1.6712646z" fill-rule="evenodd"></path><path fill="#000000" fill-opacity="0.0" d="m769.8294 328.5013l25.35431 0" fill-rule="evenodd"></path><path stroke="#000000" stroke-width="1.0" stroke-linejoin="round" stroke-linecap="butt" d="m769.8294 328.5013l19.35431 0" fill-rule="evenodd"></path><path fill="#000000" stroke="#000000" stroke-width="1.0" stroke-linecap="butt" d="m789.1837 330.15305l4.538086 -1.6517334l-4.538086 -1.6517334z" fill-rule="evenodd"></path><path fill="#000000" fill-opacity="0.0" d="m769.8294 426.80838l25.35431 0" fill-rule="evenodd"></path><path stroke="#000000" stroke-width="1.0" stroke-linejoin="round" stroke-linecap="butt" d="m769.8294 426.8084l19.35431 0" fill-rule="evenodd"></path><path fill="#000000" stroke="#000000" stroke-width="1.0" stroke-linecap="butt" d="m789.1837 428.46014l4.538086 -1.6517334l-4.538086 -1.6517334z" fill-rule="evenodd"></path><path fill="#000000" fill-opacity="0.0" d="m742.32806 341.12335l18.771667 0l0 48.787415l-18.771667 0z" fill-rule="evenodd"></path><path fill="#000000" d="m751.99994 359.59775q0 -0.375 0.25 -0.59375q0.25 -0.234375 0.625 -0.234375q0.390625 0 0.640625 0.234375q0.25 0.21875 0.25 0.59375q0 0.375 -0.25 0.609375q-0.25 0.21875 -0.640625 0.21875q-0.375 0 -0.625 -0.21875q-0.25 -0.234375 -0.25 -0.609375z" fill-rule="nonzero"></path><path fill="#000000" d="m751.99994 372.59772q0 -0.375 0.25 -0.59375q0.25 -0.234375 0.625 -0.234375q0.390625 0 0.640625 0.234375q0.25 0.21875 0.25 0.59375q0 0.375 -0.25 0.609375q-0.25 0.21875 -0.640625 0.21875q-0.375 0 -0.625 -0.21875q-0.25 -0.234375 -0.25 -0.609375z" fill-rule="nonzero"></path><path fill="#000000" d="m751.99994 385.59772q0 -0.375 0.25 -0.59375q0.25 -0.234375 0.625 -0.234375q0.390625 0 0.640625 0.234375q0.25 0.21875 0.25 0.59375q0 0.375 -0.25 0.609375q-0.25 0.21875 -0.640625 0.21875q-0.375 0 -0.625 -0.21875q-0.25 -0.234375 -0.25 -0.609375z" fill-rule="nonzero"></path><path fill="#000000" fill-opacity="0.0" d="m733.15356 299.54462l56.094482 0l0 46.33072l-56.094482 0z" fill-rule="evenodd"></path><path fill="#000000" d="m746.9348 322.66776l1.859375 -6.234375l2.875 0l-4.046875 11.59375l-0.21875 0.53125q-0.90625 1.953125 -2.96875 1.953125q-0.578125 0 -1.1875 -0.171875l0 -2.03125l0.40625 0.015625q0.765625 0 1.140625 -0.234375q0.375 -0.234375 0.59375 -0.765625l0.3125 -0.828125l-3.515625 -10.0625l2.875 0l1.875 6.234375zm3.453125 -7.859375l0 0.109375l-2.140625 0l-1.421875 -1.34375l-1.4375 1.34375l-2.09375 0l0 -0.140625l2.75 -2.5625l1.5625 0l2.78125 2.59375z" fill-rule="nonzero"></path><path fill="#000000" d="m753.815 328.449l0.90625 0q0.640625 0 0.953125 -0.3125q0.3125 -0.328125 0.3125 -0.859375q0 -0.515625 -0.3125 -0.796875q-0.296875 -0.296875 -0.84375 -0.296875q-0.484375 0 -0.8125 0.265625q-0.328125 0.265625 -0.328125 0.6875l-1.6875 0q0 -0.65625 0.359375 -1.1875q0.359375 -0.53125 1.0 -0.828125q0.65625 -0.3125 1.4375 -0.3125q1.34375 0 2.109375 0.65625q0.78125 0.640625 0.78125 1.78125q0 0.59375 -0.359375 1.09375q-0.359375 0.484375 -0.9375 0.734375q0.71875 0.265625 1.0625 0.78125q0.359375 0.515625 0.359375 1.21875q0 1.140625 -0.828125 1.828125q-0.828125 0.6875 -2.1875 0.6875q-1.28125 0 -2.09375 -0.671875q-0.8125 -0.6875 -0.8125 -1.796875l1.6875 0q0 0.484375 0.359375 0.796875q0.375 0.296875 0.890625 0.296875q0.609375 0 0.953125 -0.3125q0.34375 -0.328125 0.34375 -0.859375q0 -1.265625 -1.40625 -1.265625l-0.90625 0l0 -1.328125z" fill-rule="nonzero"></path><path fill="#000000" fill-opacity="0.0" d="m736.36615 401.01837l56.094482 0l0 46.33072l-56.094482 0z" fill-rule="evenodd"></path><path fill="#000000" d="m750.1474 424.1415l1.859375 -6.234375l2.875 0l-4.046875 11.59375l-0.21875 0.53125q-0.90625 1.953125 -2.96875 1.953125q-0.578125 0 -1.1875 -0.171875l0 -2.03125l0.40625 0.015625q0.765625 0 1.140625 -0.234375q0.375 -0.234375 0.59375 -0.765625l0.3125 -0.828125l-3.515625 -10.0625l2.875 0l1.875 6.234375zm3.453125 -7.859375l0 0.109375l-2.140625 0l-1.421875 -1.34375l-1.4375 1.34375l-2.09375 0l0 -0.140625l2.75 -2.5625l1.5625 0l2.78125 2.59375z" fill-rule="nonzero"></path><path fill="#000000" d="m756.93384 428.59464l0.0625 0.734375q0.671875 -0.84375 1.8125 -0.84375q1.015625 0 1.5 0.59375q0.5 0.578125 0.515625 1.765625l0 4.09375l-1.703125 0l0 -4.0625q0 -0.53125 -0.234375 -0.765625q-0.234375 -0.25 -0.78125 -0.25q-0.703125 0 -1.0625 0.609375l0 4.46875l-1.703125 0l0 -6.34375l1.59375 0z" fill-rule="nonzero"></path><path fill="#000000" fill-opacity="0.0" d="m733.15356 246.24672l56.094482 0l0 46.330704l-56.094482 0z" fill-rule="evenodd"></path><path fill="#000000" d="m746.9348 269.36984l1.859375 -6.234375l2.875 0l-4.046875 11.59375l-0.21875 0.53125q-0.90625 1.953125 -2.96875 1.953125q-0.578125 0 -1.1875 -0.171875l0 -2.03125l0.40625 0.015625q0.765625 0 1.140625 -0.234375q0.375 -0.234375 0.59375 -0.765625l0.3125 -0.828125l-3.515625 -10.0625l2.875 0l1.875 6.234375zm3.453125 -7.859375l0 0.109375l-2.140625 0l-1.421875 -1.34375l-1.4375 1.34375l-2.09375 0l0 -0.140625l2.75 -2.5625l1.5625 0l2.78125 2.59375z" fill-rule="nonzero"></path><path fill="#000000" d="m757.94 280.16672l-5.84375 0l0 -1.15625l2.765625 -2.953125q0.5625 -0.609375 0.828125 -1.078125q0.28125 -0.46875 0.28125 -0.875q0 -0.578125 -0.296875 -0.890625q-0.28125 -0.328125 -0.8125 -0.328125q-0.578125 0 -0.90625 0.390625q-0.328125 0.390625 -0.328125 1.046875l-1.703125 0q0 -0.78125 0.375 -1.421875q0.375 -0.65625 1.046875 -1.015625q0.6875 -0.375 1.546875 -0.375q1.3125 0 2.046875 0.640625q0.734375 0.625 0.734375 1.78125q0 0.640625 -0.328125 1.296875q-0.328125 0.65625 -1.125 1.53125l-1.9375 2.046875l3.65625 0l0 1.359375z" fill-rule="nonzero"></path><path fill="#000000" fill-opacity="0.0" d="m621.5853 329.22833l81.44879 0" fill-rule="evenodd"></path><path stroke="#000000" stroke-width="1.0" stroke-linejoin="round" stroke-linecap="butt" d="m621.5853 329.22833l75.44879 0" fill-rule="evenodd"></path><path fill="#000000" stroke="#000000" stroke-width="1.0" stroke-linecap="butt" d="m697.0341 330.88007l4.538086 -1.6517334l-4.538086 -1.6517334z" fill-rule="evenodd"></path><path fill="#35524a" d="m464.7979 494.70602l127.08661 0l0 83.14963l-127.08661 0z" fill-rule="evenodd"></path><path stroke="#000000" stroke-width="1.0" stroke-linejoin="round" stroke-linecap="butt" d="m464.7979 494.70602l127.08661 0l0 83.14963l-127.08661 0z" fill-rule="evenodd"></path><path fill="#ffffff" d="m498.30615 516.9665l5.921875 0l0 2.234375l-8.703125 0l0 -13.5156555l2.78125 0l0 11.2812805zm11.7743225 2.421875q-2.21875 0 -3.609375 -1.359375q-1.375 -1.359375 -1.375 -3.609375l0 -0.25q0 -1.515625 0.578125 -2.7031555q0.59375 -1.203125 1.65625 -1.84375q1.078125 -0.640625 2.453125 -0.640625q2.046875 0 3.2343445 1.296875q1.1875 1.296875 1.1875 3.6875305l0 1.09375l-6.3905945 0q0.125 0.984375 0.78125 1.578125q0.65625 0.59375 1.65625 0.59375q1.546875 0 2.4218445 -1.125l1.3125 1.46875q-0.59375 0.859375 -1.625 1.34375q-1.0312195 0.46875 -2.2812195 0.46875zm-0.3125 -8.2344055q-0.796875 0 -1.296875 0.53125q-0.5 0.5312805 -0.625 1.5469055l3.71875 0l0 -0.21875q-0.015625 -0.890625 -0.484375 -1.3750305q-0.453125 -0.484375 -1.3125 -0.484375zm11.584198 8.0469055q-0.1875 -0.359375 -0.265625 -0.90625q-0.96875 1.09375 -2.53125 1.09375q-1.484375 0 -2.453125 -0.84375q-0.96875 -0.859375 -0.96875 -2.171875q0 -1.59375 1.1875 -2.4375q1.1875 -0.859375 3.421875 -0.859375l1.234375 0l0 -0.578125q0 -0.7031555 -0.359375 -1.1094055q-0.359375 -0.421875 -1.125 -0.421875q-0.671875 0 -1.0625 0.328125q-0.390625 0.3125 -0.390625 0.8906555l-2.671875 0q0 -0.8750305 0.53125 -1.6094055q0.546875 -0.75 1.515625 -1.171875q0.984375 -0.421875 2.21875 -0.421875q1.859375 0 2.9375 0.9375q1.09375 0.921875 1.09375 2.6094055l0 4.359375q0.015625 1.421875 0.40625 2.15625l0 0.15625l-2.71875 0zm-2.21875 -1.859375q0.59375 0 1.09375 -0.265625q0.5 -0.265625 0.75 -0.71875l0 -1.71875l-1.0 0q-2.015625 0 -2.140625 1.390625l-0.015625 0.15625q0 0.5 0.34375 0.828125q0.359375 0.328125 0.96875 0.328125zm12.049133 -5.6719055q-0.546875 -0.0625 -0.96875 -0.0625q-1.515625 0 -1.984375 1.0312805l0 6.5625l-2.6875 0l0 -10.0312805l2.53125 0l0.078125 1.1875q0.796875 -1.375 2.234375 -1.375q0.4375 0 0.828125 0.109375l-0.03125 2.578125zm3.6329346 -2.5l0.078125 1.15625q1.078125 -1.34375 2.890625 -1.34375q1.59375 0 2.375 0.9375q0.78125 0.9375 0.796875 2.7969055l0 6.484375l-2.6875 0l0 -6.421875q0 -0.8594055 -0.375 -1.2344055q-0.359375 -0.390625 -1.21875 -0.390625q-1.140625 0 -1.703125 0.9687805l0 7.078125l-2.6875 0l0 -10.0312805l2.53125 0zm12.604797 10.2187805q-2.21875 0 -3.609375 -1.359375q-1.375 -1.359375 -1.375 -3.609375l0 -0.25q0 -1.515625 0.578125 -2.7031555q0.59375 -1.203125 1.65625 -1.84375q1.078125 -0.640625 2.453125 -0.640625q2.046875 0 3.234375 1.296875q1.1875 1.296875 1.1875 3.6875305l0 1.09375l-6.390625 0q0.125 0.984375 0.78125 1.578125q0.65625 0.59375 1.65625 0.59375q1.546875 0 2.421875 -1.125l1.3125 1.46875q-0.59375 0.859375 -1.625 1.34375q-1.03125 0.46875 -2.28125 0.46875zm-0.3125 -8.2344055q-0.796875 0 -1.296875 0.53125q-0.5 0.5312805 -0.625 1.5469055l3.71875 0l0 -0.21875q-0.015625 -0.890625 -0.484375 -1.3750305q-0.453125 -0.484375 -1.3125 -0.484375zm5.3498535 2.9531555q0 -2.3437805 1.046875 -3.7344055q1.0625 -1.390625 2.890625 -1.390625q1.46875 0 2.421875 1.09375l0 -5.125l2.6875 0l0 14.2500305l-2.421875 0l-0.125 -1.0625q-1.0 1.25 -2.578125 1.25q-1.78125 0 -2.859375 -1.390625q-1.0625 -1.40625 -1.0625 -3.890625zm2.6875 0.1875q0 1.421875 0.484375 2.171875q0.5 0.75 1.4375 0.75q1.234375 0 1.75 -1.046875l0 -3.96875q-0.5 -1.0469055 -1.734375 -1.0469055q-1.9375 0 -1.9375 3.1406555z" fill-rule="nonzero"></path><path fill="#ffffff" d="m483.39392 536.43524l0 4.765625l-2.78125 0l0 -13.515625l5.265625 0q1.53125 0 2.6875 0.5625q1.15625 0.5625 1.765625 1.59375q0.625 1.015625 0.625 2.328125q0 1.984375 -1.359375 3.125q-1.359375 1.140625 -3.765625 1.140625l-2.4375 0zm0 -2.25l2.484375 0q1.109375 0 1.6875 -0.515625q0.578125 -0.515625 0.578125 -1.484375q0 -1.0 -0.578125 -1.609375q-0.578125 -0.609375 -1.609375 -0.625l-2.5625 0l0 4.234375zm14.893005 7.015625q-0.1875 -0.359375 -0.265625 -0.90625q-0.96875 1.09375 -2.53125 1.09375q-1.484375 0 -2.453125 -0.84375q-0.96875 -0.859375 -0.96875 -2.171875q0 -1.59375 1.1875 -2.4375q1.1875 -0.859375 3.421875 -0.859375l1.234375 0l0 -0.578125q0 -0.703125 -0.359375 -1.109375q-0.359375 -0.421875 -1.125 -0.421875q-0.671875 0 -1.0625 0.328125q-0.390625 0.3125 -0.390625 0.890625l-2.671875 0q0 -0.875 0.53125 -1.609375q0.546875 -0.75 1.515625 -1.171875q0.984375 -0.421875 2.21875 -0.421875q1.859375 0 2.9375 0.9375q1.09375 0.921875 1.09375 2.609375l0 4.359375q0.015625 1.421875 0.40625 2.15625l0 0.15625l-2.71875 0zm-2.21875 -1.859375q0.59375 0 1.09375 -0.265625q0.5 -0.265625 0.75 -0.71875l0 -1.71875l-1.0 0q-2.015625 0 -2.140625 1.390625l-0.015625 0.15625q0 0.5 0.34375 0.828125q0.359375 0.328125 0.96875 0.328125zm12.049103 -5.671875q-0.546875 -0.0625 -0.96875 -0.0625q-1.515625 0 -1.984375 1.03125l0 6.5625l-2.6875 0l0 -10.03125l2.53125 0l0.078125 1.1875q0.796875 -1.375 2.234375 -1.375q0.4375 0 0.828125 0.109375l-0.03125 2.578125zm6.976654 7.53125q-0.1875 -0.359375 -0.265625 -0.90625q-0.96875 1.09375 -2.53125 1.09375q-1.4843445 0 -2.4530945 -0.84375q-0.96875 -0.859375 -0.96875 -2.171875q0 -1.59375 1.1875 -2.4375q1.1875 -0.859375 3.4218445 -0.859375l1.234375 0l0 -0.578125q0 -0.703125 -0.359375 -1.109375q-0.359375 -0.421875 -1.125 -0.421875q-0.671875 0 -1.0625 0.328125q-0.39059448 0.3125 -0.39059448 0.890625l-2.671875 0q0 -0.875 0.53125 -1.609375q0.546875 -0.75 1.515625 -1.171875q0.9843445 -0.421875 2.2187195 -0.421875q1.859375 0 2.9375 0.9375q1.09375 0.921875 1.09375 2.609375l0 4.359375q0.015625 1.421875 0.40625 2.15625l0 0.15625l-2.71875 0zm-2.21875 -1.859375q0.59375 0 1.09375 -0.265625q0.5 -0.265625 0.75 -0.71875l0 -1.71875l-1.0 0q-2.0155945 0 -2.1405945 1.390625l-0.015625 0.15625q0 0.5 0.34375 0.828125q0.35934448 0.328125 0.9687195 0.328125zm8.924133 -8.171875l0.078125 1.109375q1.0625 -1.296875 2.890625 -1.296875q1.9375 0 2.65625 1.53125q1.0625 -1.53125 3.015625 -1.53125q1.640625 0 2.4375 0.953125q0.796875 0.9375 0.796875 2.859375l0 6.40625l-2.6875 0l0 -6.40625q0 -0.84375 -0.34375 -1.234375q-0.328125 -0.40625 -1.171875 -0.40625q-1.203125 0 -1.671875 1.15625l0.015625 6.890625l-2.6875 0l0 -6.390625q0 -0.875 -0.34375 -1.265625q-0.34375 -0.390625 -1.171875 -0.390625q-1.140625 0 -1.640625 0.953125l0 7.09375l-2.6875 0l0 -10.03125l2.515625 0zm18.260498 10.21875q-2.21875 0 -3.609375 -1.359375q-1.375 -1.359375 -1.375 -3.609375l0 -0.25q0 -1.515625 0.578125 -2.703125q0.59375 -1.203125 1.65625 -1.84375q1.078125 -0.640625 2.453125 -0.640625q2.046875 0 3.234375 1.296875q1.1875 1.296875 1.1875 3.6875l0 1.09375l-6.390625 0q0.125 0.984375 0.78125 1.578125q0.65625 0.59375 1.65625 0.59375q1.546875 0 2.421875 -1.125l1.3125 1.46875q-0.59375 0.859375 -1.625 1.34375q-1.03125 0.46875 -2.28125 0.46875zm-0.3125 -8.234375q-0.796875 0 -1.296875 0.53125q-0.5 0.53125 -0.625 1.546875l3.71875 0l0 -0.21875q-0.015625 -0.890625 -0.484375 -1.375q-0.453125 -0.484375 -1.3125 -0.484375zm8.9748535 -4.453125l0 2.46875l1.71875 0l0 1.953125l-1.71875 0l0 5.015625q0 0.5625 0.21875 0.8125q0.21875 0.234375 0.8125 0.234375q0.453125 0 0.796875 -0.078125l0 2.03125q-0.796875 0.25 -1.625 0.25q-2.828125 0 -2.875 -2.84375l0 -5.421875l-1.46875 0l0 -1.953125l1.46875 0l0 -2.46875l2.671875 0zm7.725647 12.6875q-2.21875 0 -3.609375 -1.359375q-1.375 -1.359375 -1.375 -3.609375l0 -0.25q0 -1.515625 0.578125 -2.703125q0.59375 -1.203125 1.65625 -1.84375q1.078125 -0.640625 2.453125 -0.640625q2.046875 0 3.234375 1.296875q1.1875 1.296875 1.1875 3.6875l0 1.09375l-6.390625 0q0.125 0.984375 0.78125 1.578125q0.65625 0.59375 1.65625 0.59375q1.546875 0 2.421875 -1.125l1.3125 1.46875q-0.59375 0.859375 -1.625 1.34375q-1.03125 0.46875 -2.28125 0.46875zm-0.3125 -8.234375q-0.796875 0 -1.296875 0.53125q-0.5 0.53125 -0.625 1.546875l3.71875 0l0 -0.21875q-0.015625 -0.890625 -0.484375 -1.375q-0.453125 -0.484375 -1.3125 -0.484375zm11.4123535 0.515625q-0.546875 -0.0625 -0.96875 -0.0625q-1.515625 0 -1.984375 1.03125l0 6.5625l-2.6875 0l0 -10.03125l2.53125 0l0.078125 1.1875q0.796875 -1.375 2.234375 -1.375q0.4375 0 0.828125 0.109375l-0.03125 2.578125zm6.6016846 4.75q0 -0.484375 -0.484375 -0.765625q-0.484375 -0.28125 -1.5625 -0.5q-3.59375 -0.765625 -3.59375 -3.046875q0 -1.34375 1.109375 -2.234375q1.109375 -0.890625 2.90625 -0.890625q1.90625 0 3.046875 0.90625q1.15625 0.890625 1.15625 2.328125l-2.6875 0q0 -0.578125 -0.375 -0.953125q-0.359375 -0.375 -1.15625 -0.375q-0.671875 0 -1.046875 0.3125q-0.359375 0.296875 -0.359375 0.765625q0 0.453125 0.421875 0.734375q0.421875 0.265625 1.421875 0.46875q1.0 0.203125 1.6875 0.453125q2.125 0.765625 2.125 2.6875q0 1.375 -1.1875 2.234375q-1.171875 0.84375 -3.03125 0.84375q-1.265625 0 -2.25 -0.453125q-0.96875 -0.453125 -1.53125 -1.234375q-0.5625 -0.78125 -0.5625 -1.6875l2.546875 0q0.03125 0.703125 0.515625 1.09375q0.5 0.375 1.328125 0.375q0.765625 0 1.15625 -0.28125q0.40625 -0.296875 0.40625 -0.78125z" fill-rule="nonzero"></path><path fill="#ffffff" d="m533.0323 559.5265q0 3.09375 -1.3125 4.765625q-1.296875 1.671875 -3.71875 1.671875q-2.390625 0 -3.703125 -1.625q-1.3125 -1.640625 -1.34375 -4.640625l0 -2.65625q0 -3.09375 1.296875 -4.75q1.3125 -1.671875 3.734375 -1.671875q2.359375 0 3.671875 1.609375q1.328125 1.609375 1.375 4.625l0 2.671875zm-2.96875 -0.125l-4.15625 0l0 0.53125q0 3.640625 2.09375 3.640625q1.921875 0 2.046875 -3.109375l0.015625 -1.0625zm-4.15625 -2.28125l4.15625 0l0 -0.5q0 -1.828125 -0.515625 -2.703125q-0.515625 -0.890625 -1.5625 -0.890625q-1.9375 0 -2.0625 3.078125l-0.015625 1.015625z" fill-rule="nonzero"></path><path fill="#000000" fill-opacity="0.0" d="m528.3412 494.70602l0 -128.0315" fill-rule="evenodd"></path><path stroke="#000000" stroke-width="1.0" stroke-linejoin="round" stroke-linecap="butt" d="m528.3412 494.70602l0 -122.031494" fill-rule="evenodd"></path><path fill="#000000" stroke="#000000" stroke-width="1.0" stroke-linecap="butt" d="m529.9929 372.67453l-1.6517334 -4.538086l-1.6517334 4.538086z" fill-rule="evenodd"></path><path fill="#000000" fill-opacity="0.0" d="m357.36465 453.87045l0 0c0 10.532562 -1.4230042 19.070862 -3.1783447 19.070862l-107.69055 0c-1.7553558 0 -3.1783447 8.53833 -3.1783447 19.070862l0 0c0 -10.532532 -1.4230042 -19.070862 -3.1783447 -19.070862l-107.69055 0c-1.7553558 0 -3.1783447 -8.5383 -3.1783447 -19.070862z" fill-rule="evenodd"></path><path fill="#000000" fill-opacity="0.0" d="m357.36465 453.87045l0 0c0 10.532562 -1.4230042 19.070862 -3.1783447 19.070862l-107.69055 0c-1.7553558 0 -3.1783447 8.53833 -3.1783447 19.070862l0 0c0 -10.532532 -1.4230042 -19.070862 -3.1783447 -19.070862l-107.69055 0c-1.7553558 0 -3.1783447 -8.5383 -3.1783447 -19.070862" fill-rule="evenodd"></path><path stroke="#000000" stroke-width="1.0" stroke-linejoin="round" stroke-linecap="butt" d="m357.36465 453.87045l0 0c0 10.532562 -1.4230042 19.070862 -3.1783447 19.070862l-107.69055 0c-1.7553558 0 -3.1783447 8.53833 -3.1783447 19.070862l0 0c0 -10.532532 -1.4230042 -19.070862 -3.1783447 -19.070862l-107.69055 0c-1.7553558 0 -3.1783447 -8.5383 -3.1783447 -19.070862" fill-rule="evenodd"></path><path fill="#000000" fill-opacity="0.0" d="m160.05643 499.6063l166.51968 0l0 36.566925l-166.51968 0z" fill-rule="evenodd"></path><path fill="#000000" d="m231.72154 520.1263l0 -8.5312195l2.625 0q1.125 0 2.0 0.5155945q0.890625 0.5 1.390625 1.4375q0.5 0.921875 0.5 2.125l0 0.390625q0 1.1875 -0.484375 2.109375q-0.484375 0.921875 -1.375 1.4375q-0.890625 0.515625 -2.015625 0.515625l-2.640625 0zm1.75 -7.109375l0 5.703125l0.859375 0q1.03125 0 1.5625 -0.671875q0.546875 -0.6875 0.5625 -1.9375l0 -0.453125q0 -1.296875 -0.546875 -1.96875q-0.53125 -0.671875 -1.5625 -0.671875l-0.875 0zm9.611328 7.109375q-0.125 -0.234375 -0.171875 -0.5625q-0.609375 0.6875 -1.59375 0.6875q-0.9375 0 -1.546875 -0.546875q-0.609375 -0.546875 -0.609375 -1.359375q0 -1.015625 0.734375 -1.546875q0.75 -0.546875 2.171875 -0.546875l0.765625 0l0 -0.359375q0 -0.4375 -0.21875 -0.703125q-0.21875 -0.265625 -0.71875 -0.265625q-0.421875 0 -0.671875 0.203125q-0.234375 0.203125 -0.234375 0.5625l-1.6875 0q0 -0.546875 0.328125 -1.015625q0.34375 -0.46875 0.96875 -0.734375q0.625 -0.265625 1.390625 -0.265625q1.171875 0 1.859375 0.59375q0.6875 0.578125 0.6875 1.640625l0 2.75q0.015625 0.90625 0.25 1.375l0 0.09375l-1.703125 0zm-1.40625 -1.171875q0.375 0 0.6875 -0.171875q0.328125 -0.171875 0.46875 -0.453125l0 -1.09375l-0.625 0q-1.265625 0 -1.359375 0.890625l0 0.09375q0 0.3125 0.21875 0.53125q0.21875 0.203125 0.609375 0.203125zm6.1835938 -6.734375l0 1.5625l1.09375 0l0 1.25l-1.09375 0l0 3.15625q0 0.359375 0.140625 0.515625q0.140625 0.140625 0.515625 0.140625q0.28125 0 0.5 -0.03125l0 1.28125q-0.5 0.15625 -1.03125 0.15625q-1.78125 0 -1.8125 -1.8125l0 -3.40625l-0.921875 0l0 -1.25l0.921875 0l0 -1.5625l1.6875 0zm5.7109375 7.90625q-0.125 -0.234375 -0.171875 -0.5625q-0.609375 0.6875 -1.59375 0.6875q-0.9375 0 -1.546875 -0.546875q-0.609375 -0.546875 -0.609375 -1.359375q0 -1.015625 0.734375 -1.546875q0.75 -0.546875 2.171875 -0.546875l0.765625 0l0 -0.359375q0 -0.4375 -0.21875 -0.703125q-0.21875 -0.265625 -0.71875 -0.265625q-0.421875 0 -0.671875 0.203125q-0.234375 0.203125 -0.234375 0.5625l-1.6875 0q0 -0.546875 0.328125 -1.015625q0.34375 -0.46875 0.96875 -0.734375q0.625 -0.265625 1.390625 -0.265625q1.171875 0 1.859375 0.59375q0.6875 0.578125 0.6875 1.640625l0 2.75q0.015625 0.90625 0.25 1.375l0 0.09375l-1.703125 0zm-1.40625 -1.171875q0.375 0 0.6875 -0.171875q0.328125 -0.171875 0.46875 -0.453125l0 -1.09375l-0.625 0q-1.265625 0 -1.359375 0.890625l0 0.09375q0 0.3125 0.21875 0.53125q0.21875 0.203125 0.609375 0.203125z" fill-rule="nonzero"></path></g></svg>

