<?xml version="1.0" standalone="yes"?>

<svg version="1.1" viewBox="0.0 0.0 1153.5826771653544 715.6929133858267" fill="none" stroke="none" stroke-linecap="square" stroke-miterlimit="10" xmlns="http://www.w3.org/2000/svg" xmlns:xlink="http://www.w3.org/1999/xlink"><clipPath id="p.0"><path d="m0 0l1153.5826 0l0 715.69293l-1153.5826 0l0 -715.69293z" clip-rule="nonzero"></path></clipPath><g clip-path="url(#p.0)"><path fill="#ffffff" d="m0 0l1153.5826 0l0 715.69293l-1153.5826 0z" fill-rule="evenodd"></path><path fill="#ffffff" d="m109.826775 499.9134l230.58267 0l0 56.5354l-230.58267 0z" fill-rule="evenodd"></path><path stroke="#000000" stroke-width="1.0" stroke-linejoin="round" stroke-linecap="butt" d="m109.826775 499.9134l230.58267 0l0 56.5354l-230.58267 0z" fill-rule="evenodd"></path><path fill="#f05732" d="m282.80316 528.1811l0 0c0 -13.176575 11.4713745 -23.858246 25.62204 -23.858246l0 0c14.150665 0 25.62204 10.681671 25.62204 23.858246l0 0c0 13.176575 -11.4713745 23.858276 -25.62204 23.858276l0 0c-14.150665 0 -25.62204 -10.681702 -25.62204 -23.858276z" fill-rule="evenodd"></path><path stroke="#000000" stroke-width="1.0" stroke-linejoin="round" stroke-linecap="butt" d="m282.80316 528.1811l0 0c0 -13.176575 11.4713745 -23.858246 25.62204 -23.858246l0 0c14.150665 0 25.62204 10.681671 25.62204 23.858246l0 0c0 13.176575 -11.4713745 23.858276 -25.62204 23.858276l0 0c-14.150665 0 -25.62204 -10.681702 -25.62204 -23.858276z" fill-rule="evenodd"></path><path fill="#f05732" d="m226.57742 528.1811l0 0c0 -13.176575 11.47139 -23.858246 25.622055 -23.858246l0 0c14.15065 0 25.622055 10.681671 25.622055 23.858246l0 0c0 13.176575 -11.471405 23.858276 -25.622055 23.858276l0 0c-14.150665 0 -25.622055 -10.681702 -25.622055 -23.858276z" fill-rule="evenodd"></path><path stroke="#000000" stroke-width="1.0" stroke-linejoin="round" stroke-linecap="butt" d="m226.57742 528.1811l0 0c0 -13.176575 11.47139 -23.858246 25.622055 -23.858246l0 0c14.15065 0 25.622055 10.681671 25.622055 23.858246l0 0c0 13.176575 -11.471405 23.858276 -25.622055 23.858276l0 0c-14.150665 0 -25.622055 -10.681702 -25.622055 -23.858276z" fill-rule="evenodd"></path><path fill="#f05732" d="m170.3517 528.1811l0 0c0 -13.176575 11.47139 -23.858246 25.622055 -23.858246l0 0c14.150665 0 25.62204 10.681671 25.62204 23.858246l0 0c0 13.176575 -11.4713745 23.858276 -25.62204 23.858276l0 0c-14.150665 0 -25.622055 -10.681702 -25.622055 -23.858276z" fill-rule="evenodd"></path><path stroke="#000000" stroke-width="1.0" stroke-linejoin="round" stroke-linecap="butt" d="m170.3517 528.1811l0 0c0 -13.176575 11.47139 -23.858246 25.622055 -23.858246l0 0c14.150665 0 25.62204 10.681671 25.62204 23.858246l0 0c0 13.176575 -11.4713745 23.858276 -25.62204 23.858276l0 0c-14.150665 0 -25.622055 -10.681702 -25.622055 -23.858276z" fill-rule="evenodd"></path><path fill="#f05732" d="m114.125984 528.1811l0 0c0 -13.176575 11.471382 -23.858246 25.622047 -23.858246l0 0c14.150665 0 25.62204 10.681671 25.62204 23.858246l0 0c0 13.176575 -11.4713745 23.858276 -25.62204 23.858276l0 0c-14.150665 0 -25.622047 -10.681702 -25.622047 -23.858276z" fill-rule="evenodd"></path><path stroke="#000000" stroke-width="1.0" stroke-linejoin="round" stroke-linecap="butt" d="m114.125984 528.1811l0 0c0 -13.176575 11.471382 -23.858246 25.622047 -23.858246l0 0c14.150665 0 25.62204 10.681671 25.62204 23.858246l0 0c0 13.176575 -11.4713745 23.858276 -25.62204 23.858276l0 0c-14.150665 0 -25.622047 -10.681702 -25.622047 -23.858276z" fill-rule="evenodd"></path><path fill="#ffffff" d="m377.5971 158.92651l173.07086 0l0 56.53543l-173.07086 0z" fill-rule="evenodd"></path><path stroke="#000000" stroke-width="1.0" stroke-linejoin="round" stroke-linecap="butt" d="m377.5971 158.92651l173.07086 0l0 56.53543l-173.07086 0z" fill-rule="evenodd"></path><path fill="#35524a" d="m494.34778 187.19423l0 0c0 -13.176559 11.4713745 -23.858276 25.62201 -23.858276l0 0c14.150696 0 25.62207 10.681717 25.62207 23.858276l0 0c0 13.176559 -11.4713745 23.858261 -25.62207 23.858261l0 0c-14.150635 0 -25.62201 -10.681702 -25.62201 -23.858261z" fill-rule="evenodd"></path><path stroke="#000000" stroke-width="1.0" stroke-linejoin="round" stroke-linecap="butt" d="m494.34778 187.19423l0 0c0 -13.176559 11.4713745 -23.858276 25.62201 -23.858276l0 0c14.150696 0 25.62207 10.681717 25.62207 23.858276l0 0c0 13.176559 -11.4713745 23.858261 -25.62207 23.858261l0 0c-14.150635 0 -25.62201 -10.681702 -25.62201 -23.858261z" fill-rule="evenodd"></path><path fill="#35524a" d="m438.12204 187.19423l0 0c0 -13.176559 11.4713745 -23.858276 25.62204 -23.858276l0 0c14.150696 0 25.62207 10.681717 25.62207 23.858276l0 0c0 13.176559 -11.4713745 23.858261 -25.62207 23.858261l0 0c-14.150665 0 -25.62204 -10.681702 -25.62204 -23.858261z" fill-rule="evenodd"></path><path stroke="#000000" stroke-width="1.0" stroke-linejoin="round" stroke-linecap="butt" d="m438.12204 187.19423l0 0c0 -13.176559 11.4713745 -23.858276 25.62204 -23.858276l0 0c14.150696 0 25.62207 10.681717 25.62207 23.858276l0 0c0 13.176559 -11.4713745 23.858261 -25.62207 23.858261l0 0c-14.150665 0 -25.62204 -10.681702 -25.62204 -23.858261z" fill-rule="evenodd"></path><path fill="#35524a" d="m381.89633 187.19423l0 0c0 -13.176559 11.4713745 -23.858276 25.62204 -23.858276l0 0c14.150665 0 25.62204 10.681717 25.62204 23.858276l0 0c0 13.176559 -11.4713745 23.858261 -25.62204 23.858261l0 0c-14.150665 0 -25.62204 -10.681702 -25.62204 -23.858261z" fill-rule="evenodd"></path><path stroke="#000000" stroke-width="1.0" stroke-linejoin="round" stroke-linecap="butt" d="m381.89633 187.19423l0 0c0 -13.176559 11.4713745 -23.858276 25.62204 -23.858276l0 0c14.150665 0 25.62204 10.681717 25.62204 23.858276l0 0c0 13.176559 -11.4713745 23.858261 -25.62204 23.858261l0 0c-14.150665 0 -25.62204 -10.681702 -25.62204 -23.858261z" fill-rule="evenodd"></path><path fill="#ffffff" d="m250.6181 329.38846l173.07086 0l0 56.53543l-173.07086 0z" fill-rule="evenodd"></path><path stroke="#000000" stroke-width="1.0" stroke-linejoin="round" stroke-linecap="butt" d="m250.6181 329.38846l173.07086 0l0 56.53543l-173.07086 0z" fill-rule="evenodd"></path><path fill="#942174" d="m367.36877 357.65616l0 0c0 -13.176544 11.4713745 -23.858246 25.62204 -23.858246l0 0c14.150665 0 25.62204 10.681702 25.62204 23.858246l0 0c0 13.176575 -11.4713745 23.858276 -25.62204 23.858276l0 0c-14.150665 0 -25.62204 -10.681702 -25.62204 -23.858276z" fill-rule="evenodd"></path><path stroke="#000000" stroke-width="1.0" stroke-linejoin="round" stroke-linecap="butt" d="m367.36877 357.65616l0 0c0 -13.176544 11.4713745 -23.858246 25.62204 -23.858246l0 0c14.150665 0 25.62204 10.681702 25.62204 23.858246l0 0c0 13.176575 -11.4713745 23.858276 -25.62204 23.858276l0 0c-14.150665 0 -25.62204 -10.681702 -25.62204 -23.858276z" fill-rule="evenodd"></path><path fill="#942174" d="m311.14304 357.65616l0 0c0 -13.176544 11.471405 -23.858246 25.62207 -23.858246l0 0c14.150665 0 25.62204 10.681702 25.62204 23.858246l0 0c0 13.176575 -11.4713745 23.858276 -25.62204 23.858276l0 0c-14.150665 0 -25.62207 -10.681702 -25.62207 -23.858276z" fill-rule="evenodd"></path><path stroke="#000000" stroke-width="1.0" stroke-linejoin="round" stroke-linecap="butt" d="m311.14304 357.65616l0 0c0 -13.176544 11.471405 -23.858246 25.62207 -23.858246l0 0c14.150665 0 25.62204 10.681702 25.62204 23.858246l0 0c0 13.176575 -11.4713745 23.858276 -25.62204 23.858276l0 0c-14.150665 0 -25.62207 -10.681702 -25.62207 -23.858276z" fill-rule="evenodd"></path><path fill="#942174" d="m254.91733 357.65616l0 0c0 -13.176544 11.4713745 -23.858246 25.62204 -23.858246l0 0c14.150665 0 25.62204 10.681702 25.62204 23.858246l0 0c0 13.176575 -11.4713745 23.858276 -25.62204 23.858276l0 0c-14.150665 0 -25.62204 -10.681702 -25.62204 -23.858276z" fill-rule="evenodd"></path><path stroke="#000000" stroke-width="1.0" stroke-linejoin="round" stroke-linecap="butt" d="m254.91733 357.65616l0 0c0 -13.176544 11.4713745 -23.858246 25.62204 -23.858246l0 0c14.150665 0 25.62204 10.681702 25.62204 23.858246l0 0c0 13.176575 -11.4713745 23.858276 -25.62204 23.858276l0 0c-14.150665 0 -25.62204 -10.681702 -25.62204 -23.858276z" fill-rule="evenodd"></path><path fill="#ffffff" d="m344.2756 499.9134l230.58267 0l0 56.5354l-230.58267 0z" fill-rule="evenodd"></path><path stroke="#000000" stroke-width="1.0" stroke-linejoin="round" stroke-linecap="butt" d="m344.2756 499.9134l230.58267 0l0 56.5354l-230.58267 0z" fill-rule="evenodd"></path><path fill="#f05732" d="m517.25195 528.1811l0 0c0 -13.176575 11.4713745 -23.858246 25.62207 -23.858246l0 0c14.150635 0 25.62201 10.681671 25.62201 23.858246l0 0c0 13.176575 -11.4713745 23.858276 -25.62201 23.858276l0 0c-14.150696 0 -25.62207 -10.681702 -25.62207 -23.858276z" fill-rule="evenodd"></path><path stroke="#000000" stroke-width="1.0" stroke-linejoin="round" stroke-linecap="butt" d="m517.25195 528.1811l0 0c0 -13.176575 11.4713745 -23.858246 25.62207 -23.858246l0 0c14.150635 0 25.62201 10.681671 25.62201 23.858246l0 0c0 13.176575 -11.4713745 23.858276 -25.62201 23.858276l0 0c-14.150696 0 -25.62207 -10.681702 -25.62207 -23.858276z" fill-rule="evenodd"></path><path fill="#f05732" d="m461.02625 528.1811l0 0c0 -13.176575 11.4713745 -23.858246 25.62204 -23.858246l0 0c14.150665 0 25.62204 10.681671 25.62204 23.858246l0 0c0 13.176575 -11.4713745 23.858276 -25.62204 23.858276l0 0c-14.150665 0 -25.62204 -10.681702 -25.62204 -23.858276z" fill-rule="evenodd"></path><path stroke="#000000" stroke-width="1.0" stroke-linejoin="round" stroke-linecap="butt" d="m461.02625 528.1811l0 0c0 -13.176575 11.4713745 -23.858246 25.62204 -23.858246l0 0c14.150665 0 25.62204 10.681671 25.62204 23.858246l0 0c0 13.176575 -11.4713745 23.858276 -25.62204 23.858276l0 0c-14.150665 0 -25.62204 -10.681702 -25.62204 -23.858276z" fill-rule="evenodd"></path><path fill="#f05732" d="m404.80054 528.1811l0 0c0 -13.176575 11.4713745 -23.858246 25.62204 -23.858246l0 0c14.150665 0 25.62204 10.681671 25.62204 23.858246l0 0c0 13.176575 -11.4713745 23.858276 -25.62204 23.858276l0 0c-14.150665 0 -25.62204 -10.681702 -25.62204 -23.858276z" fill-rule="evenodd"></path><path stroke="#000000" stroke-width="1.0" stroke-linejoin="round" stroke-linecap="butt" d="m404.80054 528.1811l0 0c0 -13.176575 11.4713745 -23.858246 25.62204 -23.858246l0 0c14.150665 0 25.62204 10.681671 25.62204 23.858246l0 0c0 13.176575 -11.4713745 23.858276 -25.62204 23.858276l0 0c-14.150665 0 -25.62204 -10.681702 -25.62204 -23.858276z" fill-rule="evenodd"></path><path fill="#f05732" d="m348.5748 528.1811l0 0c0 -13.176575 11.4713745 -23.858246 25.62204 -23.858246l0 0c14.150665 0 25.62207 10.681671 25.62207 23.858246l0 0c0 13.176575 -11.471405 23.858276 -25.62207 23.858276l0 0c-14.150665 0 -25.62204 -10.681702 -25.62204 -23.858276z" fill-rule="evenodd"></path><path stroke="#000000" stroke-width="1.0" stroke-linejoin="round" stroke-linecap="butt" d="m348.5748 528.1811l0 0c0 -13.176575 11.4713745 -23.858246 25.62204 -23.858246l0 0c14.150665 0 25.62207 10.681671 25.62207 23.858246l0 0c0 13.176575 -11.471405 23.858276 -25.62207 23.858276l0 0c-14.150665 0 -25.62204 -10.681702 -25.62204 -23.858276z" fill-rule="evenodd"></path><path fill="#ffffff" d="m490.64435 329.38846l173.07086 0l0 56.53543l-173.07086 0z" fill-rule="evenodd"></path><path stroke="#000000" stroke-width="1.0" stroke-linejoin="round" stroke-linecap="butt" d="m490.64435 329.38846l173.07086 0l0 56.53543l-173.07086 0z" fill-rule="evenodd"></path><path fill="#942174" d="m607.395 357.65616l0 0c0 -13.176544 11.4713745 -23.858246 25.62207 -23.858246l0 0c14.150635 0 25.62201 10.681702 25.62201 23.858246l0 0c0 13.176575 -11.4713745 23.858276 -25.62201 23.858276l0 0c-14.150696 0 -25.62207 -10.681702 -25.62207 -23.858276z" fill-rule="evenodd"></path><path stroke="#000000" stroke-width="1.0" stroke-linejoin="round" stroke-linecap="butt" d="m607.395 357.65616l0 0c0 -13.176544 11.4713745 -23.858246 25.62207 -23.858246l0 0c14.150635 0 25.62201 10.681702 25.62201 23.858246l0 0c0 13.176575 -11.4713745 23.858276 -25.62201 23.858276l0 0c-14.150696 0 -25.62207 -10.681702 -25.62207 -23.858276z" fill-rule="evenodd"></path><path fill="#942174" d="m551.1693 357.65616l0 0c0 -13.176544 11.4713745 -23.858246 25.62201 -23.858246l0 0c14.150696 0 25.62207 10.681702 25.62207 23.858246l0 0c0 13.176575 -11.4713745 23.858276 -25.62207 23.858276l0 0c-14.150635 0 -25.62201 -10.681702 -25.62201 -23.858276z" fill-rule="evenodd"></path><path stroke="#000000" stroke-width="1.0" stroke-linejoin="round" stroke-linecap="butt" d="m551.1693 357.65616l0 0c0 -13.176544 11.4713745 -23.858246 25.62201 -23.858246l0 0c14.150696 0 25.62207 10.681702 25.62207 23.858246l0 0c0 13.176575 -11.4713745 23.858276 -25.62207 23.858276l0 0c-14.150635 0 -25.62201 -10.681702 -25.62201 -23.858276z" fill-rule="evenodd"></path><path fill="#942174" d="m494.94357 357.65616l0 0c0 -13.176544 11.4713745 -23.858246 25.62204 -23.858246l0 0c14.150696 0 25.62207 10.681702 25.62207 23.858246l0 0c0 13.176575 -11.4713745 23.858276 -25.62207 23.858276l0 0c-14.150665 0 -25.62204 -10.681702 -25.62204 -23.858276z" fill-rule="evenodd"></path><path stroke="#000000" stroke-width="1.0" stroke-linejoin="round" stroke-linecap="butt" d="m494.94357 357.65616l0 0c0 -13.176544 11.4713745 -23.858246 25.62204 -23.858246l0 0c14.150696 0 25.62207 10.681702 25.62207 23.858246l0 0c0 13.176575 -11.4713745 23.858276 -25.62207 23.858276l0 0c-14.150665 0 -25.62204 -10.681702 -25.62204 -23.858276z" fill-rule="evenodd"></path><path fill="#ffffff" d="m578.7244 499.9134l230.58264 0l0 56.5354l-230.58264 0z" fill-rule="evenodd"></path><path stroke="#000000" stroke-width="1.0" stroke-linejoin="round" stroke-linecap="butt" d="m578.7244 499.9134l230.58264 0l0 56.5354l-230.58264 0z" fill-rule="evenodd"></path><path fill="#f05732" d="m751.7008 528.1811l0 0c0 -13.176575 11.4713745 -23.858246 25.62201 -23.858246l0 0c14.150696 0 25.62207 10.681671 25.62207 23.858246l0 0c0 13.176575 -11.4713745 23.858276 -25.62207 23.858276l0 0c-14.150635 0 -25.62201 -10.681702 -25.62201 -23.858276z" fill-rule="evenodd"></path><path stroke="#000000" stroke-width="1.0" stroke-linejoin="round" stroke-linecap="butt" d="m751.7008 528.1811l0 0c0 -13.176575 11.4713745 -23.858246 25.62201 -23.858246l0 0c14.150696 0 25.62207 10.681671 25.62207 23.858246l0 0c0 13.176575 -11.4713745 23.858276 -25.62207 23.858276l0 0c-14.150635 0 -25.62201 -10.681702 -25.62201 -23.858276z" fill-rule="evenodd"></path><path fill="#f05732" d="m695.47504 528.1811l0 0c0 -13.176575 11.471436 -23.858246 25.62207 -23.858246l0 0c14.150696 0 25.62207 10.681671 25.62207 23.858246l0 0c0 13.176575 -11.4713745 23.858276 -25.62207 23.858276l0 0c-14.150635 0 -25.62207 -10.681702 -25.62207 -23.858276z" fill-rule="evenodd"></path><path stroke="#000000" stroke-width="1.0" stroke-linejoin="round" stroke-linecap="butt" d="m695.47504 528.1811l0 0c0 -13.176575 11.471436 -23.858246 25.62207 -23.858246l0 0c14.150696 0 25.62207 10.681671 25.62207 23.858246l0 0c0 13.176575 -11.4713745 23.858276 -25.62207 23.858276l0 0c-14.150635 0 -25.62207 -10.681702 -25.62207 -23.858276z" fill-rule="evenodd"></path><path fill="#f05732" d="m639.2493 528.1811l0 0c0 -13.176575 11.4713745 -23.858246 25.62207 -23.858246l0 0c14.150635 0 25.62201 10.681671 25.62201 23.858246l0 0c0 13.176575 -11.4713745 23.858276 -25.62201 23.858276l0 0c-14.150696 0 -25.62207 -10.681702 -25.62207 -23.858276z" fill-rule="evenodd"></path><path stroke="#000000" stroke-width="1.0" stroke-linejoin="round" stroke-linecap="butt" d="m639.2493 528.1811l0 0c0 -13.176575 11.4713745 -23.858246 25.62207 -23.858246l0 0c14.150635 0 25.62201 10.681671 25.62201 23.858246l0 0c0 13.176575 -11.4713745 23.858276 -25.62201 23.858276l0 0c-14.150696 0 -25.62207 -10.681702 -25.62207 -23.858276z" fill-rule="evenodd"></path><path fill="#f05732" d="m583.0236 528.1811l0 0c0 -13.176575 11.4713745 -23.858246 25.62207 -23.858246l0 0c14.150635 0 25.62201 10.681671 25.62201 23.858246l0 0c0 13.176575 -11.4713745 23.858276 -25.62201 23.858276l0 0c-14.150696 0 -25.62207 -10.681702 -25.62207 -23.858276z" fill-rule="evenodd"></path><path stroke="#000000" stroke-width="1.0" stroke-linejoin="round" stroke-linecap="butt" d="m583.0236 528.1811l0 0c0 -13.176575 11.4713745 -23.858246 25.62207 -23.858246l0 0c14.150635 0 25.62201 10.681671 25.62201 23.858246l0 0c0 13.176575 -11.4713745 23.858276 -25.62201 23.858276l0 0c-14.150696 0 -25.62207 -10.681702 -25.62207 -23.858276z" fill-rule="evenodd"></path><path fill="#ffffff" d="m813.1732 499.9134l230.58264 0l0 56.5354l-230.58264 0z" fill-rule="evenodd"></path><path stroke="#000000" stroke-width="1.0" stroke-linejoin="round" stroke-linecap="butt" d="m813.1732 499.9134l230.58264 0l0 56.5354l-230.58264 0z" fill-rule="evenodd"></path><path fill="#f05732" d="m986.1496 528.1811l0 0c0 -13.176575 11.4713745 -23.858246 25.62207 -23.858246l0 0c14.150696 0 25.62201 10.681671 25.62201 23.858246l0 0c0 13.176575 -11.471313 23.858276 -25.62201 23.858276l0 0c-14.150696 0 -25.62207 -10.681702 -25.62207 -23.858276z" fill-rule="evenodd"></path><path stroke="#000000" stroke-width="1.0" stroke-linejoin="round" stroke-linecap="butt" d="m986.1496 528.1811l0 0c0 -13.176575 11.4713745 -23.858246 25.62207 -23.858246l0 0c14.150696 0 25.62201 10.681671 25.62201 23.858246l0 0c0 13.176575 -11.471313 23.858276 -25.62201 23.858276l0 0c-14.150696 0 -25.62207 -10.681702 -25.62207 -23.858276z" fill-rule="evenodd"></path><path fill="#f05732" d="m929.9239 528.1811l0 0c0 -13.176575 11.4713745 -23.858246 25.62207 -23.858246l0 0c14.150635 0 25.62201 10.681671 25.62201 23.858246l0 0c0 13.176575 -11.4713745 23.858276 -25.62201 23.858276l0 0c-14.150696 0 -25.62207 -10.681702 -25.62207 -23.858276z" fill-rule="evenodd"></path><path stroke="#000000" stroke-width="1.0" stroke-linejoin="round" stroke-linecap="butt" d="m929.9239 528.1811l0 0c0 -13.176575 11.4713745 -23.858246 25.62207 -23.858246l0 0c14.150635 0 25.62201 10.681671 25.62201 23.858246l0 0c0 13.176575 -11.4713745 23.858276 -25.62201 23.858276l0 0c-14.150696 0 -25.62207 -10.681702 -25.62207 -23.858276z" fill-rule="evenodd"></path><path fill="#f05732" d="m873.6982 528.1811l0 0c0 -13.176575 11.4713745 -23.858246 25.62201 -23.858246l0 0c14.150696 0 25.62207 10.681671 25.62207 23.858246l0 0c0 13.176575 -11.4713745 23.858276 -25.62207 23.858276l0 0c-14.150635 0 -25.62201 -10.681702 -25.62201 -23.858276z" fill-rule="evenodd"></path><path stroke="#000000" stroke-width="1.0" stroke-linejoin="round" stroke-linecap="butt" d="m873.6982 528.1811l0 0c0 -13.176575 11.4713745 -23.858246 25.62201 -23.858246l0 0c14.150696 0 25.62207 10.681671 25.62207 23.858246l0 0c0 13.176575 -11.4713745 23.858276 -25.62207 23.858276l0 0c-14.150635 0 -25.62201 -10.681702 -25.62201 -23.858276z" fill-rule="evenodd"></path><path fill="#f05732" d="m817.4724 528.1811l0 0c0 -13.176575 11.471436 -23.858246 25.62207 -23.858246l0 0c14.150696 0 25.62207 10.681671 25.62207 23.858246l0 0c0 13.176575 -11.4713745 23.858276 -25.62207 23.858276l0 0c-14.150635 0 -25.62207 -10.681702 -25.62207 -23.858276z" fill-rule="evenodd"></path><path stroke="#000000" stroke-width="1.0" stroke-linejoin="round" stroke-linecap="butt" d="m817.4724 528.1811l0 0c0 -13.176575 11.471436 -23.858246 25.62207 -23.858246l0 0c14.150696 0 25.62207 10.681671 25.62207 23.858246l0 0c0 13.176575 -11.4713745 23.858276 -25.62207 23.858276l0 0c-14.150635 0 -25.62207 -10.681702 -25.62207 -23.858276z" fill-rule="evenodd"></path><path fill="#ffffff" d="m612.04596 158.91077l173.07086 0l0 56.53543l-173.07086 0z" fill-rule="evenodd"></path><path stroke="#000000" stroke-width="1.0" stroke-linejoin="round" stroke-linecap="butt" d="m612.04596 158.91077l173.07086 0l0 56.53543l-173.07086 0z" fill-rule="evenodd"></path><path fill="#35524a" d="m728.7966 187.17848l0 0c0 -13.176559 11.4713745 -23.858276 25.62207 -23.858276l0 0c14.150635 0 25.62207 10.681717 25.62207 23.858276l0 0c0 13.176559 -11.471436 23.858261 -25.62207 23.858261l0 0c-14.150696 0 -25.62207 -10.681702 -25.62207 -23.858261z" fill-rule="evenodd"></path><path stroke="#000000" stroke-width="1.0" stroke-linejoin="round" stroke-linecap="butt" d="m728.7966 187.17848l0 0c0 -13.176559 11.4713745 -23.858276 25.62207 -23.858276l0 0c14.150635 0 25.62207 10.681717 25.62207 23.858276l0 0c0 13.176559 -11.471436 23.858261 -25.62207 23.858261l0 0c-14.150696 0 -25.62207 -10.681702 -25.62207 -23.858261z" fill-rule="evenodd"></path><path fill="#35524a" d="m672.57086 187.17848l0 0c0 -13.176559 11.4713745 -23.858276 25.62207 -23.858276l0 0c14.150635 0 25.62201 10.681717 25.62201 23.858276l0 0c0 13.176559 -11.4713745 23.858261 -25.62201 23.858261l0 0c-14.150696 0 -25.62207 -10.681702 -25.62207 -23.858261z" fill-rule="evenodd"></path><path stroke="#000000" stroke-width="1.0" stroke-linejoin="round" stroke-linecap="butt" d="m672.57086 187.17848l0 0c0 -13.176559 11.4713745 -23.858276 25.62207 -23.858276l0 0c14.150635 0 25.62201 10.681717 25.62201 23.858276l0 0c0 13.176559 -11.4713745 23.858261 -25.62201 23.858261l0 0c-14.150696 0 -25.62207 -10.681702 -25.62207 -23.858261z" fill-rule="evenodd"></path><path fill="#35524a" d="m616.34515 187.17848l0 0c0 -13.176559 11.4713745 -23.858276 25.62201 -23.858276l0 0c14.150696 0 25.62207 10.681717 25.62207 23.858276l0 0c0 13.176559 -11.4713745 23.858261 -25.62207 23.858261l0 0c-14.150635 0 -25.62201 -10.681702 -25.62201 -23.858261z" fill-rule="evenodd"></path><path stroke="#000000" stroke-width="1.0" stroke-linejoin="round" stroke-linecap="butt" d="m616.34515 187.17848l0 0c0 -13.176559 11.4713745 -23.858276 25.62201 -23.858276l0 0c14.150696 0 25.62207 10.681717 25.62207 23.858276l0 0c0 13.176559 -11.4713745 23.858261 -25.62207 23.858261l0 0c-14.150635 0 -25.62201 -10.681702 -25.62201 -23.858261z" fill-rule="evenodd"></path><path fill="#ffffff" d="m726.3714 329.38846l173.07086 0l0 56.53543l-173.07086 0z" fill-rule="evenodd"></path><path stroke="#000000" stroke-width="1.0" stroke-linejoin="round" stroke-linecap="butt" d="m726.3714 329.38846l173.07086 0l0 56.53543l-173.07086 0z" fill-rule="evenodd"></path><path fill="#942174" d="m843.1221 357.65616l0 0c0 -13.176544 11.4713745 -23.858246 25.62201 -23.858246l0 0c14.150696 0 25.62207 10.681702 25.62207 23.858246l0 0c0 13.176575 -11.4713745 23.858276 -25.62207 23.858276l0 0c-14.150635 0 -25.62201 -10.681702 -25.62201 -23.858276z" fill-rule="evenodd"></path><path stroke="#000000" stroke-width="1.0" stroke-linejoin="round" stroke-linecap="butt" d="m843.1221 357.65616l0 0c0 -13.176544 11.4713745 -23.858246 25.62201 -23.858246l0 0c14.150696 0 25.62207 10.681702 25.62207 23.858246l0 0c0 13.176575 -11.4713745 23.858276 -25.62207 23.858276l0 0c-14.150635 0 -25.62201 -10.681702 -25.62201 -23.858276z" fill-rule="evenodd"></path><path fill="#942174" d="m786.8963 357.65616l0 0c0 -13.176544 11.471436 -23.858246 25.62207 -23.858246l0 0c14.150696 0 25.62207 10.681702 25.62207 23.858246l0 0c0 13.176575 -11.4713745 23.858276 -25.62207 23.858276l0 0c-14.150635 0 -25.62207 -10.681702 -25.62207 -23.858276z" fill-rule="evenodd"></path><path stroke="#000000" stroke-width="1.0" stroke-linejoin="round" stroke-linecap="butt" d="m786.8963 357.65616l0 0c0 -13.176544 11.471436 -23.858246 25.62207 -23.858246l0 0c14.150696 0 25.62207 10.681702 25.62207 23.858246l0 0c0 13.176575 -11.4713745 23.858276 -25.62207 23.858276l0 0c-14.150635 0 -25.62207 -10.681702 -25.62207 -23.858276z" fill-rule="evenodd"></path><path fill="#942174" d="m730.6706 357.65616l0 0c0 -13.176544 11.4713745 -23.858246 25.62207 -23.858246l0 0c14.150635 0 25.62201 10.681702 25.62201 23.858246l0 0c0 13.176575 -11.4713745 23.858276 -25.62201 23.858276l0 0c-14.150696 0 -25.62207 -10.681702 -25.62207 -23.858276z" fill-rule="evenodd"></path><path stroke="#000000" stroke-width="1.0" stroke-linejoin="round" stroke-linecap="butt" d="m730.6706 357.65616l0 0c0 -13.176544 11.4713745 -23.858246 25.62207 -23.858246l0 0c14.150635 0 25.62201 10.681702 25.62201 23.858246l0 0c0 13.176575 -11.4713745 23.858276 -25.62201 23.858276l0 0c-14.150696 0 -25.62207 -10.681702 -25.62207 -23.858276z" fill-rule="evenodd"></path><path fill="#000000" fill-opacity="0.0" d="m111.75984 498.28348l137.19685 -112.0" fill-rule="evenodd"></path><path stroke="#000000" stroke-width="2.0" stroke-linejoin="round" stroke-linecap="butt" d="m111.75984 498.28348l137.19685 -112.0" fill-rule="evenodd"></path><path fill="#000000" fill-opacity="0.0" d="m250.6181 328.4252l128.06299 -112.944885" fill-rule="evenodd"></path><path stroke="#000000" stroke-width="2.0" stroke-linejoin="round" stroke-linecap="butt" d="m250.6181 328.4252l128.06299 -112.944885" fill-rule="evenodd"></path><path fill="#000000" fill-opacity="0.0" d="m552.2874 215.48819l110.14172 113.85828" fill-rule="evenodd"></path><path stroke="#000000" stroke-width="2.0" stroke-linejoin="round" stroke-linecap="butt" d="m552.2874 215.48819l110.14172 113.85828" fill-rule="evenodd"></path><path fill="#000000" fill-opacity="0.0" d="m425.35565 386.28348l150.2677 114.80313" fill-rule="evenodd"></path><path stroke="#000000" stroke-width="2.0" stroke-linejoin="round" stroke-linecap="butt" d="m425.35565 386.28348l150.2677 114.80313" fill-rule="evenodd"></path><path fill="#000000" fill-opacity="0.0" d="m612.95404 215.48819l-120.409424 112.944885" fill-rule="evenodd"></path><path stroke="#b7b7b7" stroke-width="2.0" stroke-linejoin="round" stroke-linecap="butt" stroke-dasharray="16.0,6.0" d="m612.95404 215.48819l-120.409424 112.944885" fill-rule="evenodd"></path><path fill="#000000" fill-opacity="0.0" d="m487.77823 383.1391l-146.4252 115.14963" fill-rule="evenodd"></path><path stroke="#b7b7b7" stroke-width="2.0" stroke-linejoin="round" stroke-linecap="butt" stroke-dasharray="16.0,6.0" d="m487.77823 383.1391l-146.4252 115.14963" fill-rule="evenodd"></path><path fill="#000000" fill-opacity="0.0" d="m723.8287 386.8698l-143.52759 110.48819" fill-rule="evenodd"></path><path stroke="#b7b7b7" stroke-width="2.0" stroke-linejoin="round" stroke-linecap="butt" stroke-dasharray="16.0,6.0" d="m723.8287 386.8698l-143.52759 110.48819" fill-rule="evenodd"></path><path fill="#000000" fill-opacity="0.0" d="m782.83856 215.94489l117.57483 113.41733" fill-rule="evenodd"></path><path stroke="#b7b7b7" stroke-width="2.0" stroke-linejoin="round" stroke-linecap="butt" stroke-dasharray="16.0,6.0" d="m782.83856 215.94489l117.57483 113.41733" fill-rule="evenodd"></path><path fill="#000000" fill-opacity="0.0" d="m899.3478 382.9029l143.87402 117.25983" fill-rule="evenodd"></path><path stroke="#b7b7b7" stroke-width="2.0" stroke-linejoin="round" stroke-linecap="butt" stroke-dasharray="16.0,6.0" d="m899.3478 382.9029l143.87402 117.25983" fill-rule="evenodd"></path><path fill="#000000" fill-opacity="0.0" d="m662.6798 382.9029l146.2677 116.31494" fill-rule="evenodd"></path><path stroke="#b7b7b7" stroke-width="2.0" stroke-linejoin="round" stroke-linecap="butt" stroke-dasharray="16.0,6.0" d="m662.6798 382.9029l146.2677 116.31494" fill-rule="evenodd"></path><path fill="#000000" fill-opacity="0.0" d="m143.15749 556.85565l151.2126 0l0 30.803162l-151.2126 0z" fill-rule="evenodd"></path><path fill="#000000" d="m198.63878 570.26l4.40625 11.03125l4.421875 -11.03125l2.3125 0l0 13.515625l-1.78125 0l0 -5.265625l0.15625 -5.671875l-4.421875 10.9375l-1.375 0l-4.421875 -10.90625l0.171875 5.640625l0 5.265625l-1.78125 0l0 -13.515625l2.3125 0zm19.91278 13.515625q-0.15625 -0.296875 -0.25 -1.0625q-1.1875 1.25 -2.859375 1.25q-1.484375 0 -2.4375 -0.84375q-0.9375 -0.84375 -0.9375 -2.125q0 -1.5625 1.1875 -2.4375q1.1875 -0.875 3.359375 -0.875l1.671875 0l0 -0.78125q0 -0.90625 -0.546875 -1.4375q-0.53125 -0.53125 -1.578125 -0.53125q-0.921875 0 -1.546875 0.46875q-0.625 0.46875 -0.625 1.125l-1.71875 0q0 -0.75 0.53125 -1.453125q0.53125 -0.703125 1.4375 -1.109375q0.921875 -0.40625 2.015625 -0.40625q1.734375 0 2.71875 0.875q0.984375 0.859375 1.015625 2.375l0 4.625q0 1.375 0.359375 2.1875l0 0.15625l-1.796875 0zm-2.859375 -1.3125q0.8125 0 1.53125 -0.40625q0.734375 -0.421875 1.0625 -1.09375l0 -2.0625l-1.359375 0q-3.140625 0 -3.140625 1.84375q0 0.8125 0.53125 1.265625q0.53125 0.453125 1.375 0.453125zm11.663605 -7.1875q-0.390625 -0.0625 -0.84375 -0.0625q-1.6875 0 -2.296875 1.4375l0 7.125l-1.71875 0l0 -10.03125l1.671875 0l0.03125 1.15625q0.84375 -1.34375 2.390625 -1.34375q0.5 0 0.765625 0.125l0 1.59375zm4.7347565 5.984375l2.34375 -7.515625l1.84375 0l-4.046875 11.578125q-0.9375 2.5 -2.96875 2.5l-0.328125 -0.015625l-0.640625 -0.125l0 -1.390625l0.46875 0.03125q0.859375 0 1.34375 -0.359375q0.5 -0.34375 0.8125 -1.28125l0.375 -1.015625l-3.578125 -9.921875l1.875 0l2.5 7.515625z" fill-rule="nonzero"></path><path fill="#000000" fill-opacity="0.0" d="m370.9344 556.85565l151.21259 0l0 30.803162l-151.21259 0z" fill-rule="evenodd"></path><path fill="#000000" d="m420.86435 581.1194q0 -0.703125 -0.53125 -1.078125q-0.515625 -0.390625 -1.828125 -0.671875q-1.296875 -0.28125 -2.0625 -0.671875q-0.765625 -0.390625 -1.140625 -0.921875q-0.359375 -0.546875 -0.359375 -1.28125q0 -1.234375 1.046875 -2.078125q1.046875 -0.859375 2.671875 -0.859375q1.703125 0 2.765625 0.875q1.0625 0.875 1.0625 2.25l-1.71875 0q0 -0.703125 -0.609375 -1.203125q-0.59375 -0.515625 -1.5 -0.515625q-0.9375 0 -1.46875 0.40625q-0.53125 0.40625 -0.53125 1.0625q0 0.625 0.484375 0.9375q0.5 0.3125 1.78125 0.609375q1.296875 0.28125 2.09375 0.6875q0.796875 0.390625 1.171875 0.953125q0.390625 0.5625 0.390625 1.375q0 1.34375 -1.078125 2.15625q-1.078125 0.8125 -2.796875 0.8125q-1.203125 0 -2.125 -0.421875q-0.921875 -0.4375 -1.453125 -1.203125q-0.53125 -0.765625 -0.53125 -1.65625l1.71875 0q0.046875 0.859375 0.6875 1.375q0.65625 0.5 1.703125 0.5q0.984375 0 1.5625 -0.390625q0.59375 -0.390625 0.59375 -1.046875zm5.635254 2.65625l-1.703125 0l0 -14.25l1.703125 0l0 14.25zm8.871155 0q-0.15625 -0.296875 -0.25 -1.0625q-1.1875 1.25 -2.859375 1.25q-1.484375 0 -2.4375 -0.84375q-0.9375 -0.84375 -0.9375 -2.125q0 -1.5625 1.1875 -2.4375q1.1875 -0.875 3.359375 -0.875l1.671875 0l0 -0.78125q0 -0.90625 -0.546875 -1.4375q-0.53125 -0.53125 -1.578125 -0.53125q-0.921875 0 -1.546875 0.46875q-0.625 0.46875 -0.625 1.125l-1.71875 0q0 -0.75 0.53125 -1.453125q0.53125 -0.703125 1.4375 -1.109375q0.921875 -0.40625 2.015625 -0.40625q1.734375 0 2.71875 0.875q0.984375 0.859375 1.015625 2.375l0 4.625q0 1.375 0.359375 2.1875l0 0.15625l-1.796875 0zm-2.859375 -1.3125q0.8125 0 1.53125 -0.40625q0.734375 -0.421875 1.0625 -1.09375l0 -2.0625l-1.359375 0q-3.140625 0 -3.140625 1.84375q0 0.8125 0.53125 1.265625q0.53125 0.453125 1.375 0.453125zm15.288605 -3.59375q0 2.296875 -1.046875 3.703125q-1.046875 1.390625 -2.84375 1.390625q-1.828125 0 -2.875 -1.15625l0 4.828125l-1.71875 0l0 -13.890625l1.5625 0l0.09375 1.109375q1.046875 -1.296875 2.90625 -1.296875q1.8125 0 2.859375 1.359375q1.0625 1.359375 1.0625 3.796875l0 0.15625zm-1.71875 -0.203125q0 -1.6875 -0.734375 -2.671875q-0.71875 -0.984375 -1.96875 -0.984375q-1.5625 0 -2.34375 1.375l0 4.796875q0.765625 1.375 2.359375 1.375q1.234375 0 1.953125 -0.96875q0.734375 -0.984375 0.734375 -2.921875zm12.185577 0.203125q0 2.296875 -1.046875 3.703125q-1.046875 1.390625 -2.84375 1.390625q-1.828125 0 -2.875 -1.15625l0 4.828125l-1.71875 0l0 -13.890625l1.5625 0l0.09375 1.109375q1.046875 -1.296875 2.90625 -1.296875q1.8125 0 2.859375 1.359375q1.0625 1.359375 1.0625 3.796875l0 0.15625zm-1.71875 -0.203125q0 -1.6875 -0.734375 -2.671875q-0.71875 -0.984375 -1.96875 -0.984375q-1.5625 0 -2.34375 1.375l0 4.796875q0.765625 1.375 2.359375 1.375q1.234375 0 1.953125 -0.96875q0.734375 -0.984375 0.734375 -2.921875zm7.873047 5.296875q-2.046875 0 -3.328125 -1.34375q-1.28125 -1.34375 -1.28125 -3.578125l0 -0.328125q0 -1.484375 0.5625 -2.65625q0.578125 -1.171875 1.59375 -1.828125q1.03125 -0.671875 2.234375 -0.671875q1.953125 0 3.03125 1.296875q1.09375 1.28125 1.09375 3.6875l0 0.703125l-6.796875 0q0.03125 1.484375 0.859375 2.40625q0.84375 0.90625 2.125 0.90625q0.90625 0 1.53125 -0.359375q0.640625 -0.375 1.109375 -0.984375l1.046875 0.8125q-1.265625 1.9375 -3.78125 1.9375zm-0.21875 -9.0q-1.03125 0 -1.75 0.765625q-0.703125 0.75 -0.859375 2.109375l5.015625 0l0 -0.125q-0.0625 -1.3125 -0.703125 -2.03125q-0.625 -0.71875 -1.703125 -0.71875zm5.5088196 3.703125q0 -2.296875 1.09375 -3.703125q1.109375 -1.40625 2.875 -1.40625q1.765625 0 2.796875 1.203125l0 -5.234375l1.71875 0l0 14.25l-1.578125 0l-0.09375 -1.078125q-1.03125 1.265625 -2.859375 1.265625q-1.75 0 -2.859375 -1.421875q-1.09375 -1.4375 -1.09375 -3.734375l0 -0.140625zm1.71875 0.203125q0 1.703125 0.703125 2.671875q0.71875 0.96875 1.953125 0.96875q1.640625 0 2.390625 -1.46875l0 -4.609375q-0.78125 -1.421875 -2.375 -1.421875q-1.25 0 -1.96875 0.984375q-0.703125 0.96875 -0.703125 2.875z" fill-rule="nonzero"></path><path fill="#000000" fill-opacity="0.0" d="m606.66144 556.85565l151.21259 0l0 30.803162l-151.21259 0z" fill-rule="evenodd"></path><path fill="#000000" d="m672.7659 571.3069l0 2.4375l1.875 0l0 1.3125l-1.875 0l0 6.234375q0 0.59375 0.25 0.90625q0.25 0.296875 0.859375 0.296875q0.296875 0 0.8125 -0.109375l0 1.390625q-0.671875 0.1875 -1.3125 0.1875q-1.15625 0 -1.75 -0.6875q-0.578125 -0.703125 -0.578125 -1.984375l0 -6.234375l-1.828125 0l0 -1.3125l1.828125 0l0 -2.4375l1.71875 0zm5.4848633 3.640625q1.140625 -1.390625 2.96875 -1.390625q3.1875 0 3.203125 3.578125l0 6.640625l-1.703125 0l0 -6.640625q-0.015625 -1.09375 -0.5 -1.609375q-0.484375 -0.515625 -1.515625 -0.515625q-0.84375 0 -1.46875 0.453125q-0.625 0.4375 -0.984375 1.15625l0 7.15625l-1.71875 0l0 -14.25l1.71875 0l0 5.421875zm12.728638 9.015625q-2.046875 0 -3.328125 -1.34375q-1.28125 -1.34375 -1.28125 -3.578125l0 -0.328125q0 -1.484375 0.5625 -2.65625q0.578125 -1.171875 1.59375 -1.828125q1.03125 -0.671875 2.234375 -0.671875q1.953125 0 3.03125 1.296875q1.09375 1.28125 1.09375 3.6875l0 0.703125l-6.796875 0q0.03125 1.484375 0.859375 2.40625q0.84375 0.90625 2.125 0.90625q0.90625 0 1.53125 -0.359375q0.640625 -0.375 1.109375 -0.984375l1.046875 0.8125q-1.265625 1.9375 -3.78125 1.9375zm-0.21875 -9.0q-1.03125 0 -1.75 0.765625q-0.703125 0.75 -0.859375 2.109375l5.015625 0l0 -0.125q-0.0625 -1.3125 -0.703125 -2.03125q-0.625 -0.71875 -1.703125 -0.71875z" fill-rule="nonzero"></path><path fill="#000000" fill-opacity="0.0" d="m852.8583 556.85565l151.21259 0l0 30.803162l-151.21259 0z" fill-rule="evenodd"></path><path fill="#000000" d="m905.9347 578.66626q0 -2.34375 1.078125 -3.71875q1.09375 -1.390625 2.890625 -1.390625q1.828125 0 2.859375 1.296875l0.078125 -1.109375l1.578125 0l0 9.796875q0 1.9375 -1.15625 3.0625q-1.15625 1.125 -3.109375 1.125q-1.078125 0 -2.125 -0.46875q-1.03125 -0.453125 -1.578125 -1.265625l0.890625 -1.03125q1.09375 1.359375 2.6875 1.359375q1.265625 0 1.953125 -0.703125q0.703125 -0.703125 0.703125 -1.984375l0 -0.859375q-1.03125 1.1875 -2.8125 1.1875q-1.75 0 -2.84375 -1.421875q-1.09375 -1.421875 -1.09375 -3.875zm1.71875 0.203125q0 1.703125 0.703125 2.671875q0.703125 0.96875 1.953125 0.96875q1.625 0 2.375 -1.484375l0 -4.578125q-0.78125 -1.4375 -2.359375 -1.4375q-1.25 0 -1.96875 0.984375q-0.703125 0.96875 -0.703125 2.875zm14.013672 -3.59375q-0.390625 -0.0625 -0.84375 -0.0625q-1.6875 0 -2.296875 1.4375l0 7.125l-1.71875 0l0 -10.03125l1.671875 0l0.03125 1.15625q0.84375 -1.34375 2.390625 -1.34375q0.5 0 0.765625 0.125l0 1.59375zm5.625366 8.6875q-2.046875 0 -3.328125 -1.34375q-1.28125 -1.34375 -1.28125 -3.578125l0 -0.328125q0 -1.484375 0.5625 -2.65625q0.578125 -1.171875 1.59375 -1.828125q1.03125 -0.671875 2.234375 -0.671875q1.953125 0 3.03125 1.296875q1.09375 1.28125 1.09375 3.6875l0 0.703125l-6.796875 0q0.03125 1.484375 0.859375 2.40625q0.84375 0.90625 2.125 0.90625q0.90625 0 1.53125 -0.359375q0.640625 -0.375 1.109375 -0.984375l1.046875 0.8125q-1.265625 1.9375 -3.78125 1.9375zm-0.21875 -9.0q-1.03125 0 -1.75 0.765625q-0.703125 0.75 -0.859375 2.109375l5.015625 0l0 -0.125q-0.0625 -1.3125 -0.703125 -2.03125q-0.625 -0.71875 -1.703125 -0.71875zm10.102539 9.0q-2.046875 0 -3.328125 -1.34375q-1.28125 -1.34375 -1.28125 -3.578125l0 -0.328125q0 -1.484375 0.5625 -2.65625q0.578125 -1.171875 1.59375 -1.828125q1.03125 -0.671875 2.234375 -0.671875q1.953125 0 3.03125 1.296875q1.09375 1.28125 1.09375 3.6875l0 0.703125l-6.796875 0q0.03125 1.484375 0.859375 2.40625q0.84375 0.90625 2.125 0.90625q0.90625 0 1.53125 -0.359375q0.640625 -0.375 1.109375 -0.984375l1.046875 0.8125q-1.265625 1.9375 -3.78125 1.9375zm-0.21875 -9.0q-1.03125 0 -1.75 0.765625q-0.703125 0.75 -0.859375 2.109375l5.015625 0l0 -0.125q-0.0625 -1.3125 -0.703125 -2.03125q-0.625 -0.71875 -1.703125 -0.71875zm7.555725 -1.21875l0.0625 1.25q1.140625 -1.4375 3.0 -1.4375q3.1875 0 3.203125 3.578125l0 6.640625l-1.703125 0l0 -6.640625q-0.015625 -1.09375 -0.5 -1.609375q-0.484375 -0.515625 -1.515625 -0.515625q-0.84375 0 -1.46875 0.453125q-0.625 0.4375 -0.984375 1.15625l0 7.15625l-1.71875 0l0 -10.03125l1.625 0z" fill-rule="nonzero"></path><path fill="#000000" fill-opacity="0.0" d="m261.54617 295.94135l151.21259 0.03149414l0 30.803131l-151.21259 -0.03149414z" fill-rule="evenodd"></path><path fill="#000000" d="m285.11337 309.35062l4.40625 11.032166l4.421875 -11.030334l2.3125 4.8828125E-4l0 13.515625l-1.78125 -3.6621094E-4l0 -5.265625l0.15625 -5.6718445l-4.421875 10.936584l-1.375 -3.0517578E-4l-4.421875 -10.907166l0.171875 5.6406555l0 5.265625l-1.78125 -3.6621094E-4l0 -13.515625l2.3125 4.8828125E-4zm19.91278 13.519775q-0.15625 -0.29690552 -0.25 -1.062561q-1.1875 1.2497559 -2.859375 1.2494202q-1.484375 -3.0517578E-4 -2.4375 -0.8442688q-0.9375 -0.8439331 -0.9375 -2.125183q0 -1.5625 1.1875 -2.4372559q1.1875 -0.87475586 3.359375 -0.8742981l1.671875 3.3569336E-4l0 -0.78125q0 -0.90625 -0.546875 -1.4376221q-0.53125 -0.53134155 -1.578125 -0.5315552q-0.921875 -2.1362305E-4 -1.546875 0.4684143q-0.625 0.46862793 -0.625 1.1248779l-1.71875 -3.6621094E-4q0 -0.75 0.53125 -1.4530029q0.53125 -0.70303345 1.4375 -1.1090698q0.921875 -0.4060669 2.015625 -0.40585327q1.734375 3.6621094E-4 2.71875 0.87557983q0.984375 0.8595886 1.015625 2.3752136l0 4.625q0 1.375 0.359375 2.187561l0 0.15625l-1.796875 -3.6621094E-4zm-2.859375 -1.3131104q0.8125 1.8310547E-4 1.53125 -0.4059143q0.734375 -0.4217224 1.0625 -1.0935364l0 -2.0625l-1.359375 -2.746582E-4q-3.140625 -6.713867E-4 -3.140625 1.8430786q0 0.8125 0.53125 1.2657471q0.53125 0.45324707 1.375 0.45339966zm11.663605 -7.1850586q-0.390625 -0.06259155 -0.84375 -0.062683105q-1.6875 -3.3569336E-4 -2.296875 1.4370422l0 7.125l-1.71875 -3.6621094E-4l0 -10.03125l1.671875 3.3569336E-4l0.03125 1.1562805q0.84375 -1.3435974 2.390625 -1.3432617q0.5 9.1552734E-5 0.765625 0.12515259l0 1.59375zm4.734741 5.9853516l2.34375 -7.5151367l1.84375 3.9672852E-4l-4.046875 11.5772705q-0.9375 2.499817 -2.96875 2.4993896l-0.328125 -0.015686035l-0.640625 -0.12515259l0 -1.390625l0.46875 0.03137207q0.859375 1.8310547E-4 1.34375 -0.35910034q0.5 -0.34365845 0.8125 -1.2810974l0.375 -1.0155334l-3.578125 -9.922638l1.875 3.9672852E-4l2.5 7.516144zm16.008118 -0.13726807q0 -0.703125 -0.53125 -1.0782471q-0.515625 -0.39074707 -1.828125 -0.6722412q-1.296875 -0.28152466 -2.0625 -0.67233276q-0.765625 -0.3907776 -1.140625 -0.9220886q-0.359375 -0.54696655 -0.359375 -1.2813416q0 -1.234375 1.046875 -2.0779114q1.046875 -0.8591614 2.671875 -0.85879517q1.703125 3.3569336E-4 2.765625 0.8755493q1.0625 0.87524414 1.0625 2.2502441l-1.71875 -3.6621094E-4q0 -0.703125 -0.609375 -1.2032471q-0.59375 -0.5157471 -1.5 -0.5159302q-0.9375 -2.1362305E-4 -1.46875 0.40594482q-0.53125 0.40612793 -0.53125 1.0623779q0 0.625 0.484375 0.93759155q0.5 0.31262207 1.78125 0.6097412q1.296875 0.28152466 2.09375 0.68795776q0.796875 0.3907776 1.171875 0.95336914q0.390625 0.56256104 0.390625 1.375061q0 1.34375 -1.078125 2.1560364q-1.078125 0.8122864 -2.796875 0.81192017q-1.203125 -2.4414062E-4 -2.125 -0.42233276q-0.921875 -0.4376831 -1.453125 -1.2034302q-0.53125 -0.76571655 -0.53125 -1.6563416l1.71875 3.6621094E-4q0.046875 0.859375 0.6875 1.3751221q0.65625 0.5001526 1.703125 0.5003662q0.984375 2.1362305E-4 1.5625 -0.3902893q0.59375 -0.39050293 0.59375 -1.0467529zm5.635254 2.6574097l-1.703125 -3.6621094E-4l0 -14.25l1.703125 3.6621094E-4l0 14.25zm8.871185 0.0018615723q-0.15625 -0.29690552 -0.25 -1.062561q-1.1875 1.2497559 -2.859375 1.2493896q-1.484375 -3.0517578E-4 -2.4375 -0.8442383q-0.9375 -0.8439636 -0.9375 -2.1252136q0 -1.5625 1.1875 -2.4372559q1.1875 -0.87472534 3.359375 -0.8742981l1.671875 3.6621094E-4l0 -0.78125q0 -0.90625 -0.546875 -1.4376221q-0.53125 -0.5313721 -1.578125 -0.5315857q-0.921875 -1.8310547E-4 -1.546875 0.46844482q-0.625 0.4685974 -0.625 1.1248474l-1.71875 -3.3569336E-4q0 -0.75 0.53125 -1.4530334q0.53125 -0.7030029 1.4375 -1.1090698q0.921875 -0.4060669 2.015625 -0.40582275q1.734375 3.6621094E-4 2.71875 0.87557983q0.984375 0.8595581 1.015625 2.375183l0 4.625q0 1.375 0.359375 2.1875916l0 0.15625l-1.796875 -3.6621094E-4zm-2.859375 -1.3131104q0.8125 1.8310547E-4 1.53125 -0.4059143q0.734375 -0.4217224 1.0625 -1.0935364l0 -2.0625l-1.359375 -2.746582E-4q-3.140625 -6.713867E-4 -3.140625 1.8430786q0 0.8125 0.53125 1.2657471q0.53125 0.45321655 1.375 0.45339966zm15.288605 -3.5905762q0 2.296875 -1.046875 3.7029114q-1.046875 1.3904114 -2.84375 1.3900452q-1.828125 -3.9672852E-4 -2.875 -1.1568604l0 4.828125l-1.71875 -3.3569336E-4l0 -13.890625l1.5625 3.0517578E-4l0.09375 1.1094055q1.046875 -1.2966614 2.90625 -1.2962646q1.8125 3.6621094E-4 2.859375 1.3599548q1.0625 1.3595886 1.0625 3.7970886l0 0.15625zm-1.71875 -0.2034607q0 -1.6875 -0.734375 -2.6720276q-0.71875 -0.9845276 -1.96875 -0.98480225q-1.5625 -3.0517578E-4 -2.34375 1.3745117l0 4.796875q0.765625 1.3751831 2.359375 1.3754883q1.234375 2.746582E-4 1.953125 -0.96832275q0.734375 -0.9842224 0.734375 -2.9217224zm12.185547 0.20565796q0 2.296875 -1.046875 3.7029114q-1.046875 1.3904114 -2.84375 1.3900146q-1.828125 -3.6621094E-4 -2.875 -1.1568298l0 4.828125l-1.71875 -3.6621094E-4l0 -13.890625l1.5625 3.3569336E-4l0.09375 1.109375q1.046875 -1.2966614 2.90625 -1.2962646q1.8125 3.9672852E-4 2.859375 1.3599854q1.0625 1.3595886 1.0625 3.7970886l0 0.15625zm-1.71875 -0.20349121q0 -1.6875 -0.734375 -2.6720276q-0.71875 -0.9845276 -1.96875 -0.9847717q-1.5625 -3.3569336E-4 -2.34375 1.3745117l0 4.796875q0.765625 1.3751526 2.359375 1.3754883q1.234375 2.4414062E-4 1.953125 -0.9683533q0.734375 -0.9842224 0.734375 -2.9217224zm7.8730774 5.298523q-2.046875 -4.272461E-4 -3.328125 -1.3444519q-1.28125 -1.3440247 -1.28125 -3.5783997l0 -0.328125q0 -1.484375 0.5625 -2.656128q0.578125 -1.1717529 1.59375 -1.8277893q1.03125 -0.6716614 2.234375 -0.67141724q1.953125 4.272461E-4 3.03125 1.2975159q1.09375 1.2814941 1.09375 3.6877441l0 0.703125l-6.796875 -0.0014343262q0.03125 1.484375 0.859375 2.406433q0.84375 0.9064331 2.125 0.90670776q0.90625 1.8310547E-4 1.53125 -0.35906982q0.640625 -0.37487793 1.109375 -0.98413086l1.046875 0.8127136q-1.265625 1.9372253 -3.78125 1.9367065zm-0.21875 -9.000061q-1.03125 -2.1362305E-4 -1.75 0.7652588q-0.703125 0.7498779 -0.859375 2.1092224l5.015625 0.0010375977l0 -0.125q-0.0625 -1.3125305 -0.703125 -2.0314026q-0.625 -0.7188721 -1.703125 -0.7191162zm5.508789 3.7042847q0 -2.296875 1.09375 -3.7029114q1.109375 -1.4060059 2.875 -1.4056396q1.765625 3.6621094E-4 2.7969055 1.2037048l0 -5.234375l1.71875 3.6621094E-4l0 14.25l-1.578125 -3.3569336E-4l-0.09375 -1.078125q-1.0312805 1.2653809 -2.8594055 1.2650146q-1.75 -3.6621094E-4 -2.859375 -1.4224854q-1.09375 -1.4377136 -1.09375 -3.7345886l0 -0.140625zm1.71875 0.20349121q0 1.703125 0.703125 2.6720276q0.71875 0.9688721 1.953125 0.9691467q1.640625 3.3569336E-4 2.3906555 -1.4682617l0 -4.609375q-0.7812805 -1.4220276 -2.3750305 -1.4223633q-1.25 -2.746582E-4 -1.96875 0.9839783q-0.703125 0.9685974 -0.703125 2.8748474z" fill-rule="nonzero"></path><path fill="#000000" fill-opacity="0.0" d="m501.18503 295.958l151.21262 0l0 30.803162l-151.21262 0z" fill-rule="evenodd"></path><path fill="#000000" d="m535.67896 320.22174q0 -0.703125 -0.53125 -1.078125q-0.515625 -0.390625 -1.828125 -0.671875q-1.296875 -0.28125 -2.0625 -0.671875q-0.765625 -0.390625 -1.140625 -0.921875q-0.359375 -0.546875 -0.359375 -1.28125q0 -1.234375 1.046875 -2.078125q1.046875 -0.859375 2.671875 -0.859375q1.703125 0 2.765625 0.875q1.0625 0.875 1.0625 2.25l-1.71875 0q0 -0.703125 -0.609375 -1.203125q-0.59375 -0.515625 -1.5 -0.515625q-0.9375 0 -1.46875 0.40625q-0.53125 0.40625 -0.53125 1.0625q0 0.625 0.484375 0.9375q0.5 0.3125 1.78125 0.609375q1.296875 0.28125 2.09375 0.6875q0.796875 0.390625 1.171875 0.953125q0.390625 0.5625 0.390625 1.375q0 1.34375 -1.078125 2.15625q-1.078125 0.8125 -2.796875 0.8125q-1.203125 0 -2.125 -0.421875q-0.921875 -0.4375 -1.453125 -1.203125q-0.53125 -0.765625 -0.53125 -1.65625l1.71875 0q0.046875 0.859375 0.6875 1.375q0.65625 0.5 1.703125 0.5q0.984375 0 1.5625 -0.390625q0.59375 -0.390625 0.59375 -1.046875zm5.635254 2.65625l-1.703125 0l0 -14.25l1.703125 0l0 14.25zm8.871155 0q-0.15625 -0.296875 -0.25 -1.0625q-1.1875 1.25 -2.859375 1.25q-1.484375 0 -2.4375 -0.84375q-0.9375 -0.84375 -0.9375 -2.125q0 -1.5625 1.1875 -2.4375q1.1875 -0.875 3.359375 -0.875l1.671875 0l0 -0.78125q0 -0.90625 -0.546875 -1.4375q-0.53125 -0.53125 -1.578125 -0.53125q-0.921875 0 -1.546875 0.46875q-0.625 0.46875 -0.625 1.125l-1.71875 0q0 -0.75 0.53125 -1.453125q0.53125 -0.703125 1.4375 -1.109375q0.921875 -0.40625 2.015625 -0.40625q1.734375 0 2.71875 0.875q0.984375 0.859375 1.015625 2.375l0 4.625q0 1.375 0.359375 2.1875l0 0.15625l-1.796875 0zm-2.859375 -1.3125q0.8125 0 1.53125 -0.40625q0.734375 -0.421875 1.0625 -1.09375l0 -2.0625l-1.359375 0q-3.140625 0 -3.140625 1.84375q0 0.8125 0.53125 1.265625q0.53125 0.453125 1.375 0.453125zm15.288635 -3.59375q0 2.296875 -1.046875 3.703125q-1.046875 1.390625 -2.84375 1.390625q-1.828125 0 -2.875 -1.15625l0 4.828125l-1.71875 0l0 -13.890625l1.5625 0l0.09375 1.109375q1.046875 -1.296875 2.90625 -1.296875q1.8125 0 2.859375 1.359375q1.0625 1.359375 1.0625 3.796875l0 0.15625zm-1.71875 -0.203125q0 -1.6875 -0.734375 -2.671875q-0.71875 -0.984375 -1.96875 -0.984375q-1.5625 0 -2.34375 1.375l0 4.796875q0.765625 1.375 2.359375 1.375q1.234375 0 1.953125 -0.96875q0.734375 -0.984375 0.734375 -2.921875zm12.185547 0.203125q0 2.296875 -1.046875 3.703125q-1.046875 1.390625 -2.84375 1.390625q-1.828125 0 -2.875 -1.15625l0 4.828125l-1.71875 0l0 -13.890625l1.5625 0l0.09375 1.109375q1.046875 -1.296875 2.90625 -1.296875q1.8125 0 2.859375 1.359375q1.0625 1.359375 1.0625 3.796875l0 0.15625zm-1.71875 -0.203125q0 -1.6875 -0.734375 -2.671875q-0.71875 -0.984375 -1.96875 -0.984375q-1.5625 0 -2.34375 1.375l0 4.796875q0.765625 1.375 2.359375 1.375q1.234375 0 1.953125 -0.96875q0.734375 -0.984375 0.734375 -2.921875zm7.873047 5.296875q-2.046875 0 -3.328125 -1.34375q-1.28125 -1.34375 -1.28125 -3.578125l0 -0.328125q0 -1.484375 0.5625 -2.65625q0.578125 -1.171875 1.59375 -1.828125q1.03125 -0.671875 2.234375 -0.671875q1.953125 0 3.03125 1.296875q1.09375 1.28125 1.09375 3.6875l0 0.703125l-6.796875 0q0.03125 1.484375 0.859375 2.40625q0.84375 0.90625 2.125 0.90625q0.90625 0 1.53125 -0.359375q0.640625 -0.375 1.109375 -0.984375l1.046875 0.8125q-1.265625 1.9375 -3.78125 1.9375zm-0.21875 -9.0q-1.03125 0 -1.75 0.765625q-0.703125 0.75 -0.859375 2.109375l5.015625 0l0 -0.125q-0.0625 -1.3125 -0.703125 -2.03125q-0.625 -0.71875 -1.703125 -0.71875zm5.50885 3.703125q0 -2.296875 1.09375 -3.703125q1.109375 -1.40625 2.875 -1.40625q1.765625 0 2.796875 1.203125l0 -5.234375l1.71875 0l0 14.25l-1.578125 0l-0.09375 -1.078125q-1.03125 1.265625 -2.859375 1.265625q-1.75 0 -2.859375 -1.421875q-1.09375 -1.4375 -1.09375 -3.734375l0 -0.140625zm1.71875 0.203125q0 1.703125 0.703125 2.671875q0.71875 0.96875 1.953125 0.96875q1.640625 0 2.390625 -1.46875l0 -4.609375q-0.78125 -1.421875 -2.375 -1.421875q-1.25 0 -1.96875 0.984375q-0.703125 0.96875 -0.703125 2.875zm16.171204 -7.5625l0 2.4375l1.875 0l0 1.3125l-1.875 0l0 6.234375q0 0.59375 0.25 0.90625q0.25 0.296875 0.859375 0.296875q0.296875 0 0.8125 -0.109375l0 1.390625q-0.671875 0.1875 -1.3125 0.1875q-1.15625 0 -1.75 -0.6875q-0.578125 -0.703125 -0.578125 -1.984375l0 -6.234375l-1.828125 0l0 -1.3125l1.828125 0l0 -2.4375l1.71875 0zm5.4848633 3.640625q1.140625 -1.390625 2.96875 -1.390625q3.1875 0 3.203125 3.578125l0 6.640625l-1.703125 0l0 -6.640625q-0.015625 -1.09375 -0.5 -1.609375q-0.484375 -0.515625 -1.515625 -0.515625q-0.84375 0 -1.46875 0.453125q-0.625 0.4375 -0.984375 1.15625l0 7.15625l-1.71875 0l0 -14.25l1.71875 0l0 5.421875zm12.728638 9.015625q-2.046875 0 -3.328125 -1.34375q-1.28125 -1.34375 -1.28125 -3.578125l0 -0.328125q0 -1.484375 0.5625 -2.65625q0.578125 -1.171875 1.59375 -1.828125q1.03125 -0.671875 2.234375 -0.671875q1.953125 0 3.03125 1.296875q1.09375 1.28125 1.09375 3.6875l0 0.703125l-6.796875 0q0.03125 1.484375 0.859375 2.40625q0.84375 0.90625 2.125 0.90625q0.90625 0 1.53125 -0.359375q0.640625 -0.375 1.109375 -0.984375l1.046875 0.8125q-1.265625 1.9375 -3.78125 1.9375zm-0.21875 -9.0q-1.03125 0 -1.75 0.765625q-0.703125 0.75 -0.859375 2.109375l5.015625 0l0 -0.125q-0.0625 -1.3125 -0.703125 -2.03125q-0.625 -0.71875 -1.703125 -0.71875z" fill-rule="nonzero"></path><path fill="#000000" fill-opacity="0.0" d="m736.91205 295.958l151.21265 0l0 30.803162l-151.21265 0z" fill-rule="evenodd"></path><path fill="#000000" d="m777.2868 310.40924l0 2.4375l1.875 0l0 1.3125l-1.875 0l0 6.234375q0 0.59375 0.25 0.90625q0.25 0.296875 0.859375 0.296875q0.296875 0 0.8125 -0.109375l0 1.390625q-0.671875 0.1875 -1.3125 0.1875q-1.15625 0 -1.75 -0.6875q-0.578125 -0.703125 -0.578125 -1.984375l0 -6.234375l-1.828125 0l0 -1.3125l1.828125 0l0 -2.4375l1.71875 0zm5.4848633 3.640625q1.140625 -1.390625 2.96875 -1.390625q3.1875 0 3.203125 3.578125l0 6.640625l-1.703125 0l0 -6.640625q-0.015625 -1.09375 -0.5 -1.609375q-0.484375 -0.515625 -1.515625 -0.515625q-0.84375 0 -1.46875 0.453125q-0.625 0.4375 -0.984375 1.15625l0 7.15625l-1.71875 0l0 -14.25l1.71875 0l0 5.421875zm12.728638 9.015625q-2.046875 0 -3.328125 -1.34375q-1.28125 -1.34375 -1.28125 -3.578125l0 -0.328125q0 -1.484375 0.5625 -2.65625q0.578125 -1.171875 1.59375 -1.828125q1.03125 -0.671875 2.234375 -0.671875q1.953125 0 3.03125 1.296875q1.09375 1.28125 1.09375 3.6875l0 0.703125l-6.796875 0q0.03125 1.484375 0.859375 2.40625q0.84375 0.90625 2.125 0.90625q0.90625 0 1.53125 -0.359375q0.640625 -0.375 1.109375 -0.984375l1.046875 0.8125q-1.265625 1.9375 -3.78125 1.9375zm-0.21875 -9.0q-1.03125 0 -1.75 0.765625q-0.703125 0.75 -0.859375 2.109375l5.015625 0l0 -0.125q-0.0625 -1.3125 -0.703125 -2.03125q-0.625 -0.71875 -1.703125 -0.71875zm10.142944 3.703125q0 -2.34375 1.078125 -3.71875q1.09375 -1.390625 2.890625 -1.390625q1.828125 0 2.859375 1.296875l0.078125 -1.109375l1.578125 0l0 9.796875q0 1.9375 -1.15625 3.0625q-1.15625 1.125 -3.109375 1.125q-1.078125 0 -2.125 -0.46875q-1.03125 -0.453125 -1.578125 -1.265625l0.890625 -1.03125q1.09375 1.359375 2.6875 1.359375q1.265625 0 1.953125 -0.703125q0.703125 -0.703125 0.703125 -1.984375l0 -0.859375q-1.03125 1.1875 -2.8125 1.1875q-1.75 0 -2.84375 -1.421875q-1.09375 -1.421875 -1.09375 -3.875zm1.71875 0.203125q0 1.703125 0.703125 2.671875q0.703125 0.96875 1.953125 0.96875q1.625 0 2.375 -1.484375l0 -4.578125q-0.78125 -1.4375 -2.359375 -1.4375q-1.25 0 -1.96875 0.984375q-0.703125 0.96875 -0.703125 2.875zm14.013733 -3.59375q-0.390625 -0.0625 -0.84375 -0.0625q-1.6875 0 -2.296875 1.4375l0 7.125l-1.71875 0l0 -10.03125l1.671875 0l0.03125 1.15625q0.84375 -1.34375 2.390625 -1.34375q0.5 0 0.765625 0.125l0 1.59375zm5.625366 8.6875q-2.046875 0 -3.328125 -1.34375q-1.28125 -1.34375 -1.28125 -3.578125l0 -0.328125q0 -1.484375 0.5625 -2.65625q0.578125 -1.171875 1.59375 -1.828125q1.03125 -0.671875 2.234375 -0.671875q1.953125 0 3.03125 1.296875q1.09375 1.28125 1.09375 3.6875l0 0.703125l-6.796875 0q0.03125 1.484375 0.859375 2.40625q0.84375 0.90625 2.125 0.90625q0.90625 0 1.53125 -0.359375q0.640625 -0.375 1.109375 -0.984375l1.046875 0.8125q-1.265625 1.9375 -3.78125 1.9375zm-0.21875 -9.0q-1.03125 0 -1.75 0.765625q-0.703125 0.75 -0.859375 2.109375l5.015625 0l0 -0.125q-0.0625 -1.3125 -0.703125 -2.03125q-0.625 -0.71875 -1.703125 -0.71875zm10.102539 9.0q-2.046875 0 -3.328125 -1.34375q-1.28125 -1.34375 -1.28125 -3.578125l0 -0.328125q0 -1.484375 0.5625 -2.65625q0.578125 -1.171875 1.59375 -1.828125q1.03125 -0.671875 2.234375 -0.671875q1.953125 0 3.03125 1.296875q1.09375 1.28125 1.09375 3.6875l0 0.703125l-6.796875 0q0.03125 1.484375 0.859375 2.40625q0.84375 0.90625 2.125 0.90625q0.90625 0 1.53125 -0.359375q0.640625 -0.375 1.109375 -0.984375l1.046875 0.8125q-1.265625 1.9375 -3.78125 1.9375zm-0.21875 -9.0q-1.03125 0 -1.75 0.765625q-0.703125 0.75 -0.859375 2.109375l5.015625 0l0 -0.125q-0.0625 -1.3125 -0.703125 -2.03125q-0.625 -0.71875 -1.703125 -0.71875zm7.555664 -1.21875l0.0625 1.25q1.140625 -1.4375 3.0 -1.4375q3.1875 0 3.203125 3.578125l0 6.640625l-1.703125 0l0 -6.640625q-0.015625 -1.09375 -0.5 -1.609375q-0.484375 -0.515625 -1.515625 -0.515625q-0.84375 0 -1.46875 0.453125q-0.625 0.4375 -0.984375 1.15625l0 7.15625l-1.71875 0l0 -10.03125l1.625 0z" fill-rule="nonzero"></path><path fill="#000000" fill-opacity="0.0" d="m379.9122 128.06561l168.44095 0.03149414l0 30.803162l-168.44095 -0.0315094z" fill-rule="evenodd"></path><path fill="#000000" d="m396.65753 141.47311l4.40625 11.032074l4.421875 -11.030411l2.3125 4.272461E-4l0 13.515625l-1.78125 -3.3569336E-4l0 -5.265625l0.15625 -5.6718445l-4.421875 10.936676l-1.375 -2.593994E-4l-4.421875 -10.907074l0.171875 5.6406555l0 5.265625l-1.78125 -3.3569336E-4l0 -13.515625l2.3125 4.272461E-4zm19.91278 13.519363q-0.15625 -0.29690552 -0.25 -1.062561q-1.1875 1.2497864 -2.859375 1.249466q-1.484375 -2.746582E-4 -2.4375 -0.8441925q-0.9375 -0.8439331 -0.9375 -2.125183q0 -1.5625 1.1875 -2.437271q1.1875 -0.8747864 3.359375 -0.8743744l1.671875 3.0517578E-4l0 -0.78125q0 -0.90625 -0.546875 -1.4375916q-0.53125 -0.5313568 -1.578125 -0.5315552q-0.921875 -1.6784668E-4 -1.546875 0.46846008q-0.625 0.4686432 -0.625 1.1248932l-1.71875 -3.2043457E-4q0 -0.75 0.53125 -1.4530334q0.53125 -0.7030182 1.4375 -1.1091003q0.921875 -0.40608215 2.015625 -0.4058838q1.734375 3.3569336E-4 2.71875 0.8755188q0.984375 0.8595581 1.015625 2.375183l0 4.625q0 1.375 0.359375 2.1875763l0 0.15625l-1.796875 -3.3569336E-4zm-2.859375 -1.3130493q0.8125 1.5258789E-4 1.53125 -0.40596008q0.734375 -0.42173767 1.0625 -1.0935516l0 -2.0625l-1.359375 -2.4414062E-4q-3.140625 -5.950928E-4 -3.140625 1.8431549q0 0.8125 0.53125 1.2657318q0.53125 0.45321655 1.375 0.45336914zm11.663605 -7.185318q-0.390625 -0.062561035 -0.84375 -0.06265259q-1.6875 -3.2043457E-4 -2.296875 1.4370728l0 7.125l-1.71875 -3.2043457E-4l0 -10.03125l1.671875 3.0517578E-4l0.03125 1.1562653q0.84375 -1.3435974 2.390625 -1.3433075q0.5 9.1552734E-5 0.765625 0.12513733l0 1.59375zm4.7347717 5.98526l2.34375 -7.5151825l1.84375 3.5095215E-4l-4.046875 11.577362q-0.9375 2.4998322 -2.96875 2.4994507l-0.328125 -0.015686035l-0.640625 -0.12512207l0 -1.390625l0.46875 0.031341553q0.859375 1.5258789E-4 1.34375 -0.35913086q0.5 -0.34365845 0.8125 -1.2810974l0.375 -1.0155487l-3.578125 -9.922546l1.875 3.5095215E-4l2.5 7.516083zm16.008118 -0.13761902q0 -0.703125 -0.53125 -1.0782318q-0.515625 -0.39071655 -1.828125 -0.6722107q-1.296875 -0.28149414 -2.0625 -0.6722717q-0.765625 -0.39076233 -1.140625 -0.9220886q-0.359375 -0.54693604 -0.359375 -1.281311q0 -1.234375 1.046875 -2.0779266q1.046875 -0.85917664 2.671875 -0.85887146q1.703125 3.0517578E-4 2.765625 0.87550354q1.0625 0.87519836 1.0625 2.2501984l-1.71875 -3.2043457E-4q0 -0.703125 -0.609375 -1.2032318q-0.59375 -0.5157318 -1.5 -0.51589966q-0.9375 -1.8310547E-4 -1.46875 0.40597534q-0.53125 0.4061432 -0.53125 1.0623932q0 0.625 0.484375 0.93759155q0.5 0.31259155 1.78125 0.6097107q1.296875 0.28149414 2.09375 0.6878967q0.796875 0.39076233 1.171875 0.9533386q0.390625 0.5625763 0.390625 1.3750763q0 1.34375 -1.078125 2.1560364q-1.078125 0.81230164 -2.796875 0.8119812q-1.203125 -2.2888184E-4 -2.125 -0.42227173q-0.921875 -0.43766785 -1.453125 -1.2033997q-0.53125 -0.76571655 -0.53125 -1.6563416l1.71875 3.2043457E-4q0.046875 0.859375 0.6875 1.3751221q0.65625 0.5001221 1.703125 0.50032043q0.984375 1.8310547E-4 1.5625 -0.39033508q0.59375 -0.39050293 0.59375 -1.0467529zm5.635254 2.6573029l-1.703125 -3.2043457E-4l0 -14.25l1.703125 3.2043457E-4l0 14.25zm8.871155 0.0016479492q-0.15625 -0.29690552 -0.25 -1.0625458q-1.1875 1.2497864 -2.859375 1.249466q-1.484375 -2.746582E-4 -2.4375 -0.84420776q-0.9375 -0.84391785 -0.9375 -2.1251678q0 -1.5625 1.1875 -2.4372864q1.1875 -0.8747711 3.359375 -0.87435913l1.671875 3.0517578E-4l0 -0.78125q0 -0.90625 -0.546875 -1.4376068q-0.53125 -0.53134155 -1.578125 -0.5315399q-0.921875 -1.6784668E-4 -1.546875 0.46846008q-0.625 0.46862793 -0.625 1.1248779l-1.71875 -3.2043457E-4q0 -0.75 0.53125 -1.4530182q0.53125 -0.70303345 1.4375 -1.1091003q0.921875 -0.40608215 2.015625 -0.4058838q1.734375 3.2043457E-4 2.71875 0.8755188q0.984375 0.8595581 1.015625 2.375183l0 4.625q0 1.375 0.359375 2.187561l0 0.15625l-1.796875 -3.3569336E-4zm-2.859375 -1.313034q0.8125 1.5258789E-4 1.53125 -0.40596008q0.734375 -0.42173767 1.0625 -1.0935516l0 -2.0625l-1.359375 -2.593994E-4q-3.140625 -5.79834E-4 -3.140625 1.8431702q0 0.8125 0.53125 1.2657166q0.53125 0.4532318 1.375 0.4533844zm15.288605 -3.5908813q0 2.296875 -1.046875 3.7029266q-1.046875 1.3904266 -2.84375 1.390091q-1.828125 -3.3569336E-4 -2.875 -1.156784l0 4.828125l-1.71875 -3.2043457E-4l0 -13.890625l1.5625 2.89917E-4l0.09375 1.1093903q1.046875 -1.2966766 2.90625 -1.2963257q1.8125 3.3569336E-4 2.859375 1.359909q1.0625 1.3595734 1.0625 3.7970734l0 0.15625zm-1.71875 -0.20344543q0 -1.6875 -0.734375 -2.6720123q-0.71875 -0.9845123 -1.96875 -0.98475647q-1.5625 -2.89917E-4 -2.34375 1.3745728l0 4.796875q0.765625 1.3751373 2.359375 1.3754425q1.234375 2.2888184E-4 1.953125 -0.9683838q0.734375 -0.9842377 0.734375 -2.9217377zm12.185577 0.20539856q0 2.296875 -1.046875 3.7029266q-1.046875 1.3904266 -2.84375 1.390091q-1.828125 -3.3569336E-4 -2.875 -1.156784l0 4.828125l-1.71875 -3.2043457E-4l0 -13.890625l1.5625 2.89917E-4l0.09375 1.1093903q1.046875 -1.2966766 2.90625 -1.2963257q1.8125 3.3569336E-4 2.859375 1.359909q1.0625 1.3595734 1.0625 3.7970734l0 0.15625zm-1.71875 -0.20344543q0 -1.6875 -0.734375 -2.6720123q-0.71875 -0.9845123 -1.96875 -0.9847412q-1.5625 -2.89917E-4 -2.34375 1.3745575l0 4.796875q0.765625 1.3751373 2.359375 1.3754425q1.234375 2.2888184E-4 1.953125 -0.9683838q0.734375 -0.9842377 0.734375 -2.9217377zm7.873047 5.29834q-2.046875 -3.8146973E-4 -3.328125 -1.3443604q-1.28125 -1.3439941 -1.28125 -3.5783691l0 -0.328125q0 -1.484375 0.5625 -2.6561432q0.578125 -1.1717682 1.59375 -1.8278351q1.03125 -0.67167664 2.234375 -0.67144775q1.953125 3.6621094E-4 3.03125 1.2974396q1.09375 1.2814484 1.09375 3.6876984l0 0.703125l-6.796875 -0.0012664795q0.03125 1.484375 0.859375 2.4064026q0.84375 0.90641785 2.125 0.9066467q0.90625 1.8310547E-4 1.53125 -0.35908508q0.640625 -0.37487793 1.109375 -0.9841614l1.046875 0.81269836q-1.265625 1.9372559 -3.78125 1.9367828zm-0.21875 -9.0000305q-1.03125 -1.9836426E-4 -1.75 0.7652893q-0.703125 0.7498779 -0.859375 2.1092224l5.015625 9.3078613E-4l0 -0.125q-0.0625 -1.3125153 -0.703125 -2.031372q-0.625 -0.7188721 -1.703125 -0.71907043zm5.5088196 3.7041473q0 -2.296875 1.09375 -3.7029114q1.109375 -1.4060516 2.875 -1.405716q1.765625 3.2043457E-4 2.796875 1.2036438l0 -5.234375l1.71875 3.2043457E-4l0 14.25l-1.578125 -2.89917E-4l-0.09375 -1.0781403q-1.03125 1.2654266 -2.859375 1.265091q-1.75 -3.3569336E-4 -2.859375 -1.422409q-1.09375 -1.4377136 -1.09375 -3.7345886l0 -0.140625zm1.71875 0.20344543q0 1.703125 0.703125 2.6720123q0.71875 0.9688873 1.953125 0.9691162q1.640625 3.0517578E-4 2.390625 -1.4683075l0 -4.609375q-0.78125 -1.4220123 -2.375 -1.4223175q-1.25 -2.2888184E-4 -1.96875 0.9840088q-0.703125 0.9686127 -0.703125 2.8748627zm16.171234 -7.5594788l0 2.4375l1.875 3.5095215E-4l0 1.3125l-1.875 -3.5095215E-4l0 6.234375q0 0.59375 0.25 0.9062958q0.25 0.29693604 0.859375 0.29704285q0.296875 6.1035156E-5 0.8125 -0.10922241l0 1.390625q-0.671875 0.18737793 -1.3125 0.18725586q-1.15625 -2.1362305E-4 -1.75 -0.6878357q-0.578125 -0.7032318 -0.578125 -1.9844818l0 -6.234375l-1.828125 -3.3569336E-4l0 -1.3125l1.828125 3.3569336E-4l0 -2.4375l1.71875 3.2043457E-4zm5.4848633 3.6416626q1.140625 -1.3904114 2.96875 -1.3900757q3.1875 5.950928E-4 3.203125 3.57872l0 6.640625l-1.703125 -3.2043457E-4l0 -6.640625q-0.015625 -1.09375 -0.5 -1.6094666q-0.484375 -0.51571655 -1.515625 -0.51589966q-0.84375 -1.6784668E-4 -1.46875 0.45285034q-0.625 0.43737793 -0.984375 1.1560669l0 7.15625l-1.71875 -3.2043457E-4l0 -14.25l1.71875 3.2043457E-4l0 5.421875zm12.728638 9.018005q-2.046875 -3.8146973E-4 -3.328125 -1.3443756q-1.28125 -1.3439941 -1.28125 -3.5783691l0 -0.328125q0 -1.484375 0.5625 -2.6561432q0.578125 -1.1717682 1.59375 -1.8278198q1.03125 -0.6716919 2.234375 -0.671463q1.953125 3.6621094E-4 3.03125 1.2974396q1.09375 1.2814484 1.09375 3.6876984l0 0.703125l-6.796875 -0.0012664795q0.03125 1.4843903 0.859375 2.4064178q0.84375 0.9064026 2.125 0.9066467q0.90625 1.6784668E-4 1.53125 -0.35908508q0.640625 -0.3748932 1.109375 -0.98417664l1.046875 0.81269836q-1.265625 1.9372559 -3.78125 1.9367981zm-0.21875 -9.000046q-1.03125 -1.9836426E-4 -1.75 0.7652893q-0.703125 0.7498779 -0.859375 2.1092224l5.015625 9.3078613E-4l0 -0.125q-0.0625 -1.3125 -0.703125 -2.031372q-0.625 -0.7188721 -1.703125 -0.71907043z" fill-rule="nonzero"></path><path fill="#000000" fill-opacity="0.0" d="m606.7441 128.03412l182.89764 0.03149414l0 30.803146l-182.89764 -0.03149414z" fill-rule="evenodd"></path><path fill="#000000" d="m631.35077 152.30211q0 -0.703125 -0.53125 -1.0782166q-0.515625 -0.39071655 -1.828125 -0.67219543q-1.296875 -0.28146362 -2.0625 -0.67222595q-0.765625 -0.39076233 -1.140625 -0.92207336q-0.359375 -0.54693604 -0.359375 -1.281311q0 -1.234375 1.046875 -2.077942q1.046875 -0.8591919 2.671875 -0.85891724q1.703125 2.89917E-4 2.765625 0.875473q1.0625 0.8751831 1.0625 2.250183l-1.71875 -2.89917E-4q0 -0.703125 -0.609375 -1.2032318q-0.59375 -0.5157318 -1.5 -0.5158844q-0.9375 -1.6784668E-4 -1.46875 0.4059906q-0.53125 0.40615845 -0.53125 1.0624084q0 0.625 0.484375 0.93759155q0.5 0.31259155 1.78125 0.6096802q1.296875 0.28147888 2.09375 0.6878662q0.796875 0.39076233 1.171875 0.95332336q0.390625 0.56256104 0.390625 1.375061q0 1.34375 -1.078125 2.156067q-1.078125 0.8123169 -2.796875 0.812027q-1.203125 -2.1362305E-4 -2.125 -0.4222412q-0.921875 -0.43766785 -1.453125 -1.2033844q-0.53125 -0.76571655 -0.53125 -1.6563416l1.71875 3.0517578E-4q0.046875 0.859375 0.6875 1.3751068q0.65625 0.5001221 1.703125 0.5003052q0.984375 1.6784668E-4 1.5625 -0.3903656q0.59375 -0.3905182 0.59375 -1.0467682zm5.635254 2.6572113l-1.703125 -2.89917E-4l0 -14.25l1.703125 2.89917E-4l0 14.25zm8.871155 0.0015411377q-0.15625 -0.29690552 -0.25 -1.0625458q-1.1875 1.2497864 -2.859375 1.2494965q-1.484375 -2.4414062E-4 -2.4375 -0.844162q-0.9375 -0.84391785 -0.9375 -2.1251678q0 -1.5625 1.1875 -2.4372864q1.1875 -0.87480164 3.359375 -0.87442017l1.671875 2.89917E-4l0 -0.78125q0 -0.90625 -0.546875 -1.4376068q-0.53125 -0.53134155 -1.578125 -0.5315094q-0.921875 -1.6784668E-4 -1.546875 0.46847534q-0.625 0.4686432 -0.625 1.1248932l-1.71875 -2.89917E-4q0 -0.75 0.53125 -1.4530334q0.53125 -0.70303345 1.4375 -1.1091309q0.921875 -0.4060974 2.015625 -0.40589905q1.734375 2.89917E-4 2.71875 0.87545776q0.984375 0.85954285 1.015625 2.375183l0 4.625q0 1.375 0.359375 2.187561l0 0.15625l-1.796875 -3.0517578E-4zm-2.859375 -1.3130035q0.8125 1.373291E-4 1.53125 -0.40597534q0.734375 -0.42175293 1.0625 -1.0935669l0 -2.0625l-1.359375 -2.4414062E-4q-3.140625 -5.340576E-4 -3.140625 1.843216q0 0.8125 0.53125 1.2657166q0.53125 0.45321655 1.375 0.45335388zm15.288635 -3.5911102q0 2.296875 -1.046875 3.702942q-1.046875 1.3904419 -2.84375 1.3901367q-1.828125 -3.2043457E-4 -2.875 -1.1567535l0 4.8281403l-1.71875 -3.0517578E-4l0 -13.890625l1.5625 2.746582E-4l0.09375 1.1093903q1.046875 -1.2966919 2.90625 -1.2963715q1.8125 3.0517578E-4 2.859375 1.3598633q1.0625 1.3595581 1.0625 3.797058l0 0.15625zm-1.71875 -0.20343018q0 -1.6875 -0.734375 -2.671997q-0.71875 -0.9844971 -1.96875 -0.9847107q-1.5625 -2.746582E-4 -2.34375 1.374588l0 4.796875q0.765625 1.3751373 2.359375 1.375412q1.234375 2.1362305E-4 1.953125 -0.9684143q0.734375 -0.9842529 0.734375 -2.921753zm12.185547 0.20523071q0 2.296875 -1.046875 3.702942q-1.046875 1.3904419 -2.84375 1.3901367q-1.828125 -3.2043457E-4 -2.875 -1.1567383l0 4.828125l-1.71875 -3.0517578E-4l0 -13.890625l1.5625 2.746582E-4l0.09375 1.1093903q1.046875 -1.2966919 2.90625 -1.2963715q1.8125 3.0517578E-4 2.859375 1.3598633q1.0625 1.3595581 1.0625 3.797058l0 0.15625zm-1.71875 -0.20341492q0 -1.6875 -0.734375 -2.6720123q-0.71875 -0.9844971 -1.96875 -0.9847107q-1.5625 -2.746582E-4 -2.34375 1.3746033l0 4.796875q0.765625 1.3751221 2.359375 1.3753967q1.234375 2.1362305E-4 1.953125 -0.9684143q0.734375 -0.9842377 0.734375 -2.9217377zm7.873047 5.298218q-2.046875 -3.5095215E-4 -3.328125 -1.3443146q-1.28125 -1.3439789 -1.28125 -3.578354l0 -0.328125q0 -1.484375 0.5625 -2.6561432q0.578125 -1.1717834 1.59375 -1.8278503q1.03125 -0.67170715 2.234375 -0.67149353q1.953125 3.3569336E-4 3.03125 1.2973938q1.09375 1.2814484 1.09375 3.6876984l0 0.703125l-6.796875 -0.0011749268q0.03125 1.484375 0.859375 2.4064026q0.84375 0.9063873 2.125 0.90660095q0.90625 1.6784668E-4 1.53125 -0.35910034q0.640625 -0.3748932 1.109375 -0.9841919l1.046875 0.8126831q-1.265625 1.9372864 -3.78125 1.9368439zm-0.21875 -9.0000305q-1.03125 -1.8310547E-4 -1.75 0.7653198q-0.703125 0.7498779 -0.859375 2.1092377l5.015625 8.544922E-4l0 -0.125q-0.0625 -1.3125153 -0.703125 -2.031372q-0.625 -0.7188568 -1.703125 -0.7190399zm5.508789 3.704071q0 -2.296875 1.09375 -3.702942q1.109375 -1.4060516 2.875 -1.4057465q1.765625 3.0517578E-4 2.796875 1.203598l0 -5.234375l1.71875 3.0517578E-4l0 14.25l-1.578125 -2.746582E-4l-0.09375 -1.0781403q-1.03125 1.2654419 -2.859375 1.2651367q-1.75 -3.0517578E-4 -2.859375 -1.4223785q-1.09375 -1.4376831 -1.09375 -3.734558l0 -0.140625zm1.71875 0.20343018q0 1.703125 0.703125 2.6719818q0.71875 0.9688873 1.953125 0.96910095q1.640625 2.746582E-4 2.390625 -1.4683533l0 -4.609375q-0.78125 -1.4219971 -2.375 -1.4222717q-1.25 -2.1362305E-4 -1.96875 0.98402405q-0.703125 0.9686432 -0.703125 2.8748932zm16.171265 -7.559723l0 2.4375l1.875 3.2043457E-4l0 1.3125l-1.875 -3.2043457E-4l0 6.234375q0 0.59375 0.25 0.9062958q0.25 0.29692078 0.859375 0.2970276q0.296875 4.5776367E-5 0.8125 -0.10923767l0 1.390625q-0.671875 0.18737793 -1.3125 0.18727112q-1.15625 -1.9836426E-4 -1.75 -0.6878052q-0.578125 -0.70321655 -0.578125 -1.9844666l0 -6.234375l-1.828125 -3.2043457E-4l0 -1.3125l1.828125 3.2043457E-4l0 -2.4375l1.71875 2.89917E-4zm5.4848633 3.641571q1.140625 -1.3904266 2.96875 -1.3901215q3.1875 5.493164E-4 3.203125 3.5786896l0 6.640625l-1.703125 -3.0517578E-4l0 -6.640625q-0.015625 -1.09375 -0.5 -1.6094513q-0.484375 -0.51571655 -1.515625 -0.5158844q-0.84375 -1.5258789E-4 -1.46875 0.4528656q-0.625 0.4373932 -0.984375 1.1560822l0 7.15625l-1.71875 -2.89917E-4l0 -14.25l1.71875 2.89917E-4l0 5.421875zm12.728638 9.017822q-2.046875 -3.6621094E-4 -3.328125 -1.3443298q-1.28125 -1.3439636 -1.28125 -3.5783386l0 -0.328125q0 -1.484375 0.5625 -2.6561584q0.578125 -1.1717834 1.59375 -1.8278503q1.03125 -0.6716919 2.234375 -0.67149353q1.953125 3.3569336E-4 3.03125 1.2973938q1.09375 1.2814484 1.09375 3.6876984l0 0.703125l-6.796875 -0.0011749268q0.03125 1.484375 0.859375 2.4064026q0.84375 0.9063873 2.125 0.9066162q0.90625 1.5258789E-4 1.53125 -0.3591156q0.640625 -0.3748932 1.109375 -0.9841919l1.046875 0.8126831q-1.265625 1.9372864 -3.78125 1.9368591zm-0.21875 -9.000046q-1.03125 -1.8310547E-4 -1.75 0.7653198q-0.703125 0.7498779 -0.859375 2.1092377l5.015625 8.544922E-4l0 -0.125q-0.0625 -1.3125 -0.703125 -2.031372q-0.625 -0.7188568 -1.703125 -0.7190399zm10.142944 3.7048798q0 -2.34375 1.078125 -3.718567q1.09375 -1.3904419 2.890625 -1.3901367q1.828125 3.2043457E-4 2.859375 1.2973785l0.078125 -1.1093597l1.578125 2.593994E-4l0 9.796875q0 1.9375 -1.15625 3.0623016q-1.15625 1.1248016 -3.109375 1.124466q-1.078125 -1.8310547E-4 -2.125 -0.4691162q-1.03125 -0.45329285 -1.578125 -1.2658997l0.890625 -1.0310974q1.09375 1.3595734 2.6875 1.359848q1.265625 2.1362305E-4 1.953125 -0.7027893q0.703125 -0.7030029 0.703125 -1.9842529l0 -0.859375q-1.03125 1.1873169 -2.8125 1.1870117q-1.75 -3.0517578E-4 -2.84375 -1.4223633q-1.09375 -1.4220581 -1.09375 -3.875183zm1.71875 0.20341492q0 1.703125 0.703125 2.671997q0.703125 0.9688721 1.953125 0.9690857q1.625 2.746582E-4 2.375 -1.483963l0 -4.578125q-0.78125 -1.4376373 -2.359375 -1.437912q-1.25 -2.1362305E-4 -1.96875 0.9840393q-0.703125 0.9686279 -0.703125 2.874878zm14.013672 -3.591339q-0.390625 -0.062561035 -0.84375 -0.06263733q-1.6875 -2.89917E-4 -2.296875 1.4371033l0 7.125l-1.71875 -3.0517578E-4l0 -10.03125l1.671875 2.89917E-4l0.03125 1.1562653q0.84375 -1.3436127 2.390625 -1.3433533q0.5 9.1552734E-5 0.765625 0.12513733l0 1.59375zm5.6254272 8.688477q-2.046875 -3.5095215E-4 -3.328125 -1.3443298q-1.28125 -1.3439636 -1.28125 -3.5783386l0 -0.328125q0 -1.484375 0.5625 -2.6561584q0.578125 -1.1717834 1.59375 -1.8278503q1.03125 -0.6716919 2.234375 -0.67149353q1.953125 3.3569336E-4 3.03125 1.2973938q1.09375 1.2814484 1.09375 3.6876984l0 0.703125l-6.796875 -0.0011749268q0.03125 1.484375 0.859375 2.4064026q0.84375 0.9063873 2.125 0.9066162q0.90625 1.5258789E-4 1.53125 -0.3591156q0.640625 -0.3748932 1.109375 -0.9841919l1.046875 0.8126831q-1.265625 1.9372864 -3.78125 1.9368591zm-0.21875 -9.000046q-1.03125 -1.6784668E-4 -1.75 0.7653198q-0.703125 0.7498779 -0.859375 2.1092377l5.015625 8.544922E-4l0 -0.125q-0.0625 -1.3125 -0.703125 -2.031372q-0.625 -0.7188568 -1.703125 -0.7190399zm10.102539 9.0017395q-2.046875 -3.5095215E-4 -3.328125 -1.3443146q-1.28125 -1.3439789 -1.28125 -3.578354l0 -0.328125q0 -1.484375 0.5625 -2.6561584q0.578125 -1.1717682 1.59375 -1.8278503q1.03125 -0.6716919 2.234375 -0.6714783q1.953125 3.3569336E-4 3.03125 1.2973938q1.09375 1.2814331 1.09375 3.687683l0 0.703125l-6.796875 -0.001159668q0.03125 1.484375 0.859375 2.4063873q0.84375 0.9064026 2.125 0.9066162q0.90625 1.5258789E-4 1.53125 -0.35910034q0.640625 -0.3748932 1.109375 -0.9841919l1.046875 0.8126831q-1.265625 1.9372864 -3.78125 1.9368439zm-0.21875 -9.0000305q-1.03125 -1.8310547E-4 -1.75 0.7653198q-0.703125 0.7498779 -0.859375 2.1092224l5.015625 8.69751E-4l0 -0.125q-0.0625 -1.3125153 -0.703125 -2.031372q-0.625 -0.7188568 -1.703125 -0.7190399zm7.555664 -1.217453l0.0625 1.2500153q1.140625 -1.4373016 3.0 -1.4369812q3.1875 5.493164E-4 3.203125 3.5786743l0 6.640625l-1.703125 -3.0517578E-4l0 -6.640625q-0.015625 -1.09375 -0.5 -1.6094513q-0.484375 -0.51571655 -1.515625 -0.5158844q-0.84375 -1.5258789E-4 -1.46875 0.4528656q-0.625 0.4373932 -0.984375 1.1560822l0 7.15625l-1.71875 -2.89917E-4l0 -10.03125l1.625 2.746582E-4z" fill-rule="nonzero"></path></g></svg>

