<?xml version="1.0" standalone="yes"?>

<svg version="1.1" viewBox="0.0 0.0 1643.3884514435695 585.5748031496063" fill="none" stroke="none" stroke-linecap="square" stroke-miterlimit="10" xmlns="http://www.w3.org/2000/svg" xmlns:xlink="http://www.w3.org/1999/xlink"><clipPath id="p.0"><path d="m0 0l1643.3884 0l0 585.5748l-1643.3884 0l0 -585.5748z" clip-rule="nonzero"></path></clipPath><g clip-path="url(#p.0)"><path fill="#ffffff" d="m0 0l1643.3884 0l0 585.5748l-1643.3884 0z" fill-rule="evenodd"></path><path fill="#ffffff" d="m354.0781 349.35544l230.58267 0l0 56.53543l-230.58267 0z" fill-rule="evenodd"></path><path stroke="#000000" stroke-width="1.0" stroke-linejoin="round" stroke-linecap="butt" d="m354.0781 349.35544l230.58267 0l0 56.53543l-230.58267 0z" fill-rule="evenodd"></path><path fill="#f05732" d="m527.05444 377.62317l0 0c0 -13.176575 11.4713745 -23.858276 25.62207 -23.858276l0 0c14.150635 0 25.62207 10.681702 25.62207 23.858276l0 0c0 13.176544 -11.471436 23.858276 -25.62207 23.858276l0 0c-14.150696 0 -25.62207 -10.681732 -25.62207 -23.858276z" fill-rule="evenodd"></path><path stroke="#000000" stroke-width="1.0" stroke-linejoin="round" stroke-linecap="butt" d="m527.05444 377.62317l0 0c0 -13.176575 11.4713745 -23.858276 25.62207 -23.858276l0 0c14.150635 0 25.62207 10.681702 25.62207 23.858276l0 0c0 13.176544 -11.471436 23.858276 -25.62207 23.858276l0 0c-14.150696 0 -25.62207 -10.681732 -25.62207 -23.858276z" fill-rule="evenodd"></path><path fill="#f05732" d="m470.82874 377.62317l0 0c0 -13.176575 11.4713745 -23.858276 25.62204 -23.858276l0 0c14.150665 0 25.62204 10.681702 25.62204 23.858276l0 0c0 13.176544 -11.4713745 23.858276 -25.62204 23.858276l0 0c-14.150665 0 -25.62204 -10.681732 -25.62204 -23.858276z" fill-rule="evenodd"></path><path stroke="#000000" stroke-width="1.0" stroke-linejoin="round" stroke-linecap="butt" d="m470.82874 377.62317l0 0c0 -13.176575 11.4713745 -23.858276 25.62204 -23.858276l0 0c14.150665 0 25.62204 10.681702 25.62204 23.858276l0 0c0 13.176544 -11.4713745 23.858276 -25.62204 23.858276l0 0c-14.150665 0 -25.62204 -10.681732 -25.62204 -23.858276z" fill-rule="evenodd"></path><path fill="#f05732" d="m414.60303 377.62317l0 0c0 -13.176575 11.4713745 -23.858276 25.62204 -23.858276l0 0c14.150665 0 25.62204 10.681702 25.62204 23.858276l0 0c0 13.176544 -11.4713745 23.858276 -25.62204 23.858276l0 0c-14.150665 0 -25.62204 -10.681732 -25.62204 -23.858276z" fill-rule="evenodd"></path><path stroke="#000000" stroke-width="1.0" stroke-linejoin="round" stroke-linecap="butt" d="m414.60303 377.62317l0 0c0 -13.176575 11.4713745 -23.858276 25.62204 -23.858276l0 0c14.150665 0 25.62204 10.681702 25.62204 23.858276l0 0c0 13.176544 -11.4713745 23.858276 -25.62204 23.858276l0 0c-14.150665 0 -25.62204 -10.681732 -25.62204 -23.858276z" fill-rule="evenodd"></path><path fill="#ffffff" d="m588.5269 349.35544l230.58264 0l0 56.53543l-230.58264 0z" fill-rule="evenodd"></path><path stroke="#000000" stroke-width="1.0" stroke-linejoin="round" stroke-linecap="butt" d="m588.5269 349.35544l230.58264 0l0 56.53543l-230.58264 0z" fill-rule="evenodd"></path><path fill="#f05732" d="m761.5033 377.62317l0 0c0 -13.176575 11.4713745 -23.858276 25.62201 -23.858276l0 0c14.150696 0 25.62207 10.681702 25.62207 23.858276l0 0c0 13.176544 -11.4713745 23.858276 -25.62207 23.858276l0 0c-14.150635 0 -25.62201 -10.681732 -25.62201 -23.858276z" fill-rule="evenodd"></path><path stroke="#000000" stroke-width="1.0" stroke-linejoin="round" stroke-linecap="butt" d="m761.5033 377.62317l0 0c0 -13.176575 11.4713745 -23.858276 25.62201 -23.858276l0 0c14.150696 0 25.62207 10.681702 25.62207 23.858276l0 0c0 13.176544 -11.4713745 23.858276 -25.62207 23.858276l0 0c-14.150635 0 -25.62201 -10.681732 -25.62201 -23.858276z" fill-rule="evenodd"></path><path fill="#f05732" d="m705.2776 377.62317l0 0c0 -13.176575 11.4713745 -23.858276 25.62201 -23.858276l0 0c14.150696 0 25.62207 10.681702 25.62207 23.858276l0 0c0 13.176544 -11.4713745 23.858276 -25.62207 23.858276l0 0c-14.150635 0 -25.62201 -10.681732 -25.62201 -23.858276z" fill-rule="evenodd"></path><path stroke="#000000" stroke-width="1.0" stroke-linejoin="round" stroke-linecap="butt" d="m705.2776 377.62317l0 0c0 -13.176575 11.4713745 -23.858276 25.62201 -23.858276l0 0c14.150696 0 25.62207 10.681702 25.62207 23.858276l0 0c0 13.176544 -11.4713745 23.858276 -25.62207 23.858276l0 0c-14.150635 0 -25.62201 -10.681732 -25.62201 -23.858276z" fill-rule="evenodd"></path><path fill="#f05732" d="m649.0518 377.62317l0 0c0 -13.176575 11.4713745 -23.858276 25.62207 -23.858276l0 0c14.150635 0 25.62207 10.681702 25.62207 23.858276l0 0c0 13.176544 -11.471436 23.858276 -25.62207 23.858276l0 0c-14.150696 0 -25.62207 -10.681732 -25.62207 -23.858276z" fill-rule="evenodd"></path><path stroke="#000000" stroke-width="1.0" stroke-linejoin="round" stroke-linecap="butt" d="m649.0518 377.62317l0 0c0 -13.176575 11.4713745 -23.858276 25.62207 -23.858276l0 0c14.150635 0 25.62207 10.681702 25.62207 23.858276l0 0c0 13.176544 -11.471436 23.858276 -25.62207 23.858276l0 0c-14.150696 0 -25.62207 -10.681732 -25.62207 -23.858276z" fill-rule="evenodd"></path><path fill="#f05732" d="m592.8261 377.62317l0 0c0 -13.176575 11.4713745 -23.858276 25.62207 -23.858276l0 0c14.150635 0 25.62201 10.681702 25.62201 23.858276l0 0c0 13.176544 -11.4713745 23.858276 -25.62201 23.858276l0 0c-14.150696 0 -25.62207 -10.681732 -25.62207 -23.858276z" fill-rule="evenodd"></path><path stroke="#000000" stroke-width="1.0" stroke-linejoin="round" stroke-linecap="butt" d="m592.8261 377.62317l0 0c0 -13.176575 11.4713745 -23.858276 25.62207 -23.858276l0 0c14.150635 0 25.62201 10.681702 25.62201 23.858276l0 0c0 13.176544 -11.4713745 23.858276 -25.62201 23.858276l0 0c-14.150696 0 -25.62207 -10.681732 -25.62207 -23.858276z" fill-rule="evenodd"></path><path fill="#ffffff" d="m822.9757 349.35544l230.58264 0l0 56.53543l-230.58264 0z" fill-rule="evenodd"></path><path stroke="#000000" stroke-width="1.0" stroke-linejoin="round" stroke-linecap="butt" d="m822.9757 349.35544l230.58264 0l0 56.53543l-230.58264 0z" fill-rule="evenodd"></path><path fill="#f05732" d="m995.9521 377.62317l0 0c0 -13.176575 11.4713745 -23.858276 25.62207 -23.858276l0 0c14.150696 0 25.62201 10.681702 25.62201 23.858276l0 0c0 13.176544 -11.471313 23.858276 -25.62201 23.858276l0 0c-14.150696 0 -25.62207 -10.681732 -25.62207 -23.858276z" fill-rule="evenodd"></path><path stroke="#000000" stroke-width="1.0" stroke-linejoin="round" stroke-linecap="butt" d="m995.9521 377.62317l0 0c0 -13.176575 11.4713745 -23.858276 25.62207 -23.858276l0 0c14.150696 0 25.62201 10.681702 25.62201 23.858276l0 0c0 13.176544 -11.471313 23.858276 -25.62201 23.858276l0 0c-14.150696 0 -25.62207 -10.681732 -25.62207 -23.858276z" fill-rule="evenodd"></path><path fill="#f05732" d="m939.7264 377.62317l0 0c0 -13.176575 11.4713745 -23.858276 25.62207 -23.858276l0 0c14.150635 0 25.62201 10.681702 25.62201 23.858276l0 0c0 13.176544 -11.4713745 23.858276 -25.62201 23.858276l0 0c-14.150696 0 -25.62207 -10.681732 -25.62207 -23.858276z" fill-rule="evenodd"></path><path stroke="#000000" stroke-width="1.0" stroke-linejoin="round" stroke-linecap="butt" d="m939.7264 377.62317l0 0c0 -13.176575 11.4713745 -23.858276 25.62207 -23.858276l0 0c14.150635 0 25.62201 10.681702 25.62201 23.858276l0 0c0 13.176544 -11.4713745 23.858276 -25.62201 23.858276l0 0c-14.150696 0 -25.62207 -10.681732 -25.62207 -23.858276z" fill-rule="evenodd"></path><path fill="#f05732" d="m883.5007 377.62317l0 0c0 -13.176575 11.4713745 -23.858276 25.62201 -23.858276l0 0c14.150696 0 25.62207 10.681702 25.62207 23.858276l0 0c0 13.176544 -11.4713745 23.858276 -25.62207 23.858276l0 0c-14.150635 0 -25.62201 -10.681732 -25.62201 -23.858276z" fill-rule="evenodd"></path><path stroke="#000000" stroke-width="1.0" stroke-linejoin="round" stroke-linecap="butt" d="m883.5007 377.62317l0 0c0 -13.176575 11.4713745 -23.858276 25.62201 -23.858276l0 0c14.150696 0 25.62207 10.681702 25.62207 23.858276l0 0c0 13.176544 -11.4713745 23.858276 -25.62207 23.858276l0 0c-14.150635 0 -25.62201 -10.681732 -25.62201 -23.858276z" fill-rule="evenodd"></path><path fill="#f05732" d="m827.27496 377.62317l0 0c0 -13.176575 11.4713745 -23.858276 25.62201 -23.858276l0 0c14.150696 0 25.62207 10.681702 25.62207 23.858276l0 0c0 13.176544 -11.4713745 23.858276 -25.62207 23.858276l0 0c-14.150635 0 -25.62201 -10.681732 -25.62201 -23.858276z" fill-rule="evenodd"></path><path stroke="#000000" stroke-width="1.0" stroke-linejoin="round" stroke-linecap="butt" d="m827.27496 377.62317l0 0c0 -13.176575 11.4713745 -23.858276 25.62201 -23.858276l0 0c14.150696 0 25.62207 10.681702 25.62207 23.858276l0 0c0 13.176544 -11.4713745 23.858276 -25.62207 23.858276l0 0c-14.150635 0 -25.62201 -10.681732 -25.62201 -23.858276z" fill-rule="evenodd"></path><path fill="#ffffff" d="m1057.4246 349.35544l230.58264 0l0 56.53543l-230.58264 0z" fill-rule="evenodd"></path><path stroke="#000000" stroke-width="1.0" stroke-linejoin="round" stroke-linecap="butt" d="m1057.4246 349.35544l230.58264 0l0 56.53543l-230.58264 0z" fill-rule="evenodd"></path><path fill="#f05732" d="m1230.4009 377.62317l0 0c0 -13.176575 11.471436 -23.858276 25.62207 -23.858276l0 0c14.150635 0 25.62207 10.681702 25.62207 23.858276l0 0c0 13.176544 -11.471436 23.858276 -25.62207 23.858276l0 0c-14.150635 0 -25.62207 -10.681732 -25.62207 -23.858276z" fill-rule="evenodd"></path><path stroke="#000000" stroke-width="1.0" stroke-linejoin="round" stroke-linecap="butt" d="m1230.4009 377.62317l0 0c0 -13.176575 11.471436 -23.858276 25.62207 -23.858276l0 0c14.150635 0 25.62207 10.681702 25.62207 23.858276l0 0c0 13.176544 -11.471436 23.858276 -25.62207 23.858276l0 0c-14.150635 0 -25.62207 -10.681732 -25.62207 -23.858276z" fill-rule="evenodd"></path><path fill="#f05732" d="m1174.1752 377.62317l0 0c0 -13.176575 11.471436 -23.858276 25.62207 -23.858276l0 0c14.150635 0 25.62207 10.681702 25.62207 23.858276l0 0c0 13.176544 -11.471436 23.858276 -25.62207 23.858276l0 0c-14.150635 0 -25.62207 -10.681732 -25.62207 -23.858276z" fill-rule="evenodd"></path><path stroke="#000000" stroke-width="1.0" stroke-linejoin="round" stroke-linecap="butt" d="m1174.1752 377.62317l0 0c0 -13.176575 11.471436 -23.858276 25.62207 -23.858276l0 0c14.150635 0 25.62207 10.681702 25.62207 23.858276l0 0c0 13.176544 -11.471436 23.858276 -25.62207 23.858276l0 0c-14.150635 0 -25.62207 -10.681732 -25.62207 -23.858276z" fill-rule="evenodd"></path><path fill="#f05732" d="m1117.9495 377.62317l0 0c0 -13.176575 11.471436 -23.858276 25.62207 -23.858276l0 0c14.150635 0 25.62207 10.681702 25.62207 23.858276l0 0c0 13.176544 -11.471436 23.858276 -25.62207 23.858276l0 0c-14.150635 0 -25.62207 -10.681732 -25.62207 -23.858276z" fill-rule="evenodd"></path><path stroke="#000000" stroke-width="1.0" stroke-linejoin="round" stroke-linecap="butt" d="m1117.9495 377.62317l0 0c0 -13.176575 11.471436 -23.858276 25.62207 -23.858276l0 0c14.150635 0 25.62207 10.681702 25.62207 23.858276l0 0c0 13.176544 -11.471436 23.858276 -25.62207 23.858276l0 0c-14.150635 0 -25.62207 -10.681732 -25.62207 -23.858276z" fill-rule="evenodd"></path><path fill="#f05732" d="m1061.7238 377.62317l0 0c0 -13.176575 11.471436 -23.858276 25.62207 -23.858276l0 0c14.150635 0 25.62207 10.681702 25.62207 23.858276l0 0c0 13.176544 -11.471436 23.858276 -25.62207 23.858276l0 0c-14.150635 0 -25.62207 -10.681732 -25.62207 -23.858276z" fill-rule="evenodd"></path><path stroke="#000000" stroke-width="1.0" stroke-linejoin="round" stroke-linecap="butt" d="m1061.7238 377.62317l0 0c0 -13.176575 11.471436 -23.858276 25.62207 -23.858276l0 0c14.150635 0 25.62207 10.681702 25.62207 23.858276l0 0c0 13.176544 -11.471436 23.858276 -25.62207 23.858276l0 0c-14.150635 0 -25.62207 -10.681732 -25.62207 -23.858276z" fill-rule="evenodd"></path><path fill="#000000" fill-opacity="0.0" d="m614.6417 241.92717l-260.7559 107.27559" fill-rule="evenodd"></path><path stroke="#000000" stroke-width="2.0" stroke-linejoin="round" stroke-linecap="butt" d="m614.6417 241.92717l-260.7559 107.27559" fill-rule="evenodd"></path><path fill="#000000" fill-opacity="0.0" d="m843.82275 239.71346l-253.7638 107.999985" fill-rule="evenodd"></path><path stroke="#b7b7b7" stroke-width="2.0" stroke-linejoin="round" stroke-linecap="butt" stroke-dasharray="16.0,6.0" d="m843.82275 239.71346l-253.7638 107.999985" fill-rule="evenodd"></path><path fill="#000000" fill-opacity="0.0" d="m1247.8964 241.92717l275.87402 107.023605" fill-rule="evenodd"></path><path stroke="#b7b7b7" stroke-width="2.0" stroke-linejoin="round" stroke-linecap="butt" stroke-dasharray="16.0,6.0" d="m1247.8964 241.92717l275.87402 107.023605" fill-rule="evenodd"></path><path fill="#000000" fill-opacity="0.0" d="m387.40878 406.2977l151.21262 0l0 30.803162l-151.21262 0z" fill-rule="evenodd"></path><path fill="#000000" d="m442.8901 419.7021l4.40625 11.03125l4.421875 -11.03125l2.3125 0l0 13.515625l-1.78125 0l0 -5.265625l0.15625 -5.671875l-4.421875 10.9375l-1.375 0l-4.421875 -10.90625l0.171875 5.640625l0 5.265625l-1.78125 0l0 -13.515625l2.3125 0zm19.91278 13.515625q-0.15625 -0.296875 -0.25 -1.0625q-1.1875 1.25 -2.859375 1.25q-1.484375 0 -2.4375 -0.84375q-0.9375 -0.84375 -0.9375 -2.125q0 -1.5625 1.1875 -2.4375q1.1875 -0.875 3.359375 -0.875l1.671875 0l0 -0.78125q0 -0.90625 -0.546875 -1.4375q-0.53125 -0.53125 -1.578125 -0.53125q-0.921875 0 -1.546875 0.46875q-0.625 0.46875 -0.625 1.125l-1.71875 0q0 -0.75 0.53125 -1.453125q0.53125 -0.703125 1.4375 -1.109375q0.921875 -0.40625 2.015625 -0.40625q1.734375 0 2.71875 0.875q0.984375 0.859375 1.015625 2.375l0 4.625q0 1.375 0.359375 2.1875l0 0.15625l-1.796875 0zm-2.859375 -1.3125q0.8125 0 1.53125 -0.40625q0.734375 -0.421875 1.0625 -1.09375l0 -2.0625l-1.359375 0q-3.140625 0 -3.140625 1.84375q0 0.8125 0.53125 1.265625q0.53125 0.453125 1.375 0.453125zm11.663605 -7.1875q-0.390625 -0.0625 -0.84375 -0.0625q-1.6875 0 -2.296875 1.4375l0 7.125l-1.71875 0l0 -10.03125l1.671875 0l0.03125 1.15625q0.84375 -1.34375 2.390625 -1.34375q0.5 0 0.765625 0.125l0 1.59375zm4.734741 5.984375l2.34375 -7.515625l1.84375 0l-4.046875 11.578125q-0.9375 2.5 -2.96875 2.5l-0.328125 -0.015625l-0.640625 -0.125l0 -1.390625l0.46875 0.03125q0.859375 0 1.34375 -0.359375q0.5 -0.34375 0.8125 -1.28125l0.375 -1.015625l-3.578125 -9.921875l1.875 0l2.5 7.515625z" fill-rule="nonzero"></path><path fill="#000000" fill-opacity="0.0" d="m615.18567 406.2977l151.21265 0l0 30.803162l-151.21265 0z" fill-rule="evenodd"></path><path fill="#000000" d="m665.11566 430.56146q0 -0.703125 -0.53125 -1.078125q-0.515625 -0.390625 -1.828125 -0.671875q-1.296875 -0.28125 -2.0625 -0.671875q-0.765625 -0.390625 -1.140625 -0.921875q-0.359375 -0.546875 -0.359375 -1.28125q0 -1.234375 1.046875 -2.078125q1.046875 -0.859375 2.671875 -0.859375q1.703125 0 2.765625 0.875q1.0625 0.875 1.0625 2.25l-1.71875 0q0 -0.703125 -0.609375 -1.203125q-0.59375 -0.515625 -1.5 -0.515625q-0.9375 0 -1.46875 0.40625q-0.53125 0.40625 -0.53125 1.0625q0 0.625 0.484375 0.9375q0.5 0.3125 1.78125 0.609375q1.296875 0.28125 2.09375 0.6875q0.796875 0.390625 1.171875 0.953125q0.390625 0.5625 0.390625 1.375q0 1.34375 -1.078125 2.15625q-1.078125 0.8125 -2.796875 0.8125q-1.203125 0 -2.125 -0.421875q-0.921875 -0.4375 -1.453125 -1.203125q-0.53125 -0.765625 -0.53125 -1.65625l1.71875 0q0.046875 0.859375 0.6875 1.375q0.65625 0.5 1.703125 0.5q0.984375 0 1.5625 -0.390625q0.59375 -0.390625 0.59375 -1.046875zm5.635254 2.65625l-1.703125 0l0 -14.25l1.703125 0l0 14.25zm8.871155 0q-0.15625 -0.296875 -0.25 -1.0625q-1.1875 1.25 -2.859375 1.25q-1.484375 0 -2.4375 -0.84375q-0.9375 -0.84375 -0.9375 -2.125q0 -1.5625 1.1875 -2.4375q1.1875 -0.875 3.359375 -0.875l1.671875 0l0 -0.78125q0 -0.90625 -0.546875 -1.4375q-0.53125 -0.53125 -1.578125 -0.53125q-0.921875 0 -1.546875 0.46875q-0.625 0.46875 -0.625 1.125l-1.71875 0q0 -0.75 0.53125 -1.453125q0.53125 -0.703125 1.4375 -1.109375q0.921875 -0.40625 2.015625 -0.40625q1.734375 0 2.71875 0.875q0.984375 0.859375 1.015625 2.375l0 4.625q0 1.375 0.359375 2.1875l0 0.15625l-1.796875 0zm-2.859375 -1.3125q0.8125 0 1.53125 -0.40625q0.734375 -0.421875 1.0625 -1.09375l0 -2.0625l-1.359375 0q-3.140625 0 -3.140625 1.84375q0 0.8125 0.53125 1.265625q0.53125 0.453125 1.375 0.453125zm15.288635 -3.59375q0 2.296875 -1.046875 3.703125q-1.046875 1.390625 -2.84375 1.390625q-1.828125 0 -2.875 -1.15625l0 4.828125l-1.71875 0l0 -13.890625l1.5625 0l0.09375 1.109375q1.046875 -1.296875 2.90625 -1.296875q1.8125 0 2.859375 1.359375q1.0625 1.359375 1.0625 3.796875l0 0.15625zm-1.71875 -0.203125q0 -1.6875 -0.734375 -2.671875q-0.71875 -0.984375 -1.96875 -0.984375q-1.5625 0 -2.34375 1.375l0 4.796875q0.765625 1.375 2.359375 1.375q1.234375 0 1.953125 -0.96875q0.734375 -0.984375 0.734375 -2.921875zm12.185547 0.203125q0 2.296875 -1.046875 3.703125q-1.046875 1.390625 -2.84375 1.390625q-1.828125 0 -2.875 -1.15625l0 4.828125l-1.71875 0l0 -13.890625l1.5625 0l0.09375 1.109375q1.046875 -1.296875 2.90625 -1.296875q1.8125 0 2.859375 1.359375q1.0625 1.359375 1.0625 3.796875l0 0.15625zm-1.71875 -0.203125q0 -1.6875 -0.734375 -2.671875q-0.71875 -0.984375 -1.96875 -0.984375q-1.5625 0 -2.34375 1.375l0 4.796875q0.765625 1.375 2.359375 1.375q1.234375 0 1.953125 -0.96875q0.734375 -0.984375 0.734375 -2.921875zm7.873047 5.296875q-2.046875 0 -3.328125 -1.34375q-1.28125 -1.34375 -1.28125 -3.578125l0 -0.328125q0 -1.484375 0.5625 -2.65625q0.578125 -1.171875 1.59375 -1.828125q1.03125 -0.671875 2.234375 -0.671875q1.953125 0 3.03125 1.296875q1.09375 1.28125 1.09375 3.6875l0 0.703125l-6.796875 0q0.03125 1.484375 0.859375 2.40625q0.84375 0.90625 2.125 0.90625q0.90625 0 1.53125 -0.359375q0.640625 -0.375 1.109375 -0.984375l1.046875 0.8125q-1.265625 1.9375 -3.78125 1.9375zm-0.21875 -9.0q-1.03125 0 -1.75 0.765625q-0.703125 0.75 -0.859375 2.109375l5.015625 0l0 -0.125q-0.0625 -1.3125 -0.703125 -2.03125q-0.625 -0.71875 -1.703125 -0.71875zm5.508789 3.703125q0 -2.296875 1.09375 -3.703125q1.109375 -1.40625 2.875 -1.40625q1.765625 0 2.796875 1.203125l0 -5.234375l1.71875 0l0 14.25l-1.578125 0l-0.09375 -1.078125q-1.03125 1.265625 -2.859375 1.265625q-1.75 0 -2.859375 -1.421875q-1.09375 -1.4375 -1.09375 -3.734375l0 -0.140625zm1.71875 0.203125q0 1.703125 0.703125 2.671875q0.71875 0.96875 1.953125 0.96875q1.640625 0 2.390625 -1.46875l0 -4.609375q-0.78125 -1.421875 -2.375 -1.421875q-1.25 0 -1.96875 0.984375q-0.703125 0.96875 -0.703125 2.875z" fill-rule="nonzero"></path><path fill="#000000" fill-opacity="0.0" d="m850.9127 406.2977l151.21259 0l0 30.803162l-151.21259 0z" fill-rule="evenodd"></path><path fill="#000000" d="m917.0173 420.74896l0 2.4375l1.875 0l0 1.3125l-1.875 0l0 6.234375q0 0.59375 0.25 0.90625q0.25 0.296875 0.859375 0.296875q0.296875 0 0.8125 -0.109375l0 1.390625q-0.671875 0.1875 -1.3125 0.1875q-1.15625 0 -1.75 -0.6875q-0.578125 -0.703125 -0.578125 -1.984375l0 -6.234375l-1.828125 0l0 -1.3125l1.828125 0l0 -2.4375l1.71875 0zm5.4848633 3.640625q1.140625 -1.390625 2.96875 -1.390625q3.1875 0 3.203125 3.578125l0 6.640625l-1.703125 0l0 -6.640625q-0.015625 -1.09375 -0.5 -1.609375q-0.484375 -0.515625 -1.515625 -0.515625q-0.84375 0 -1.46875 0.453125q-0.625 0.4375 -0.984375 1.15625l0 7.15625l-1.71875 0l0 -14.25l1.71875 0l0 5.421875zm12.728638 9.015625q-2.046875 0 -3.328125 -1.34375q-1.28125 -1.34375 -1.28125 -3.578125l0 -0.328125q0 -1.484375 0.5625 -2.65625q0.578125 -1.171875 1.59375 -1.828125q1.03125 -0.671875 2.234375 -0.671875q1.953125 0 3.03125 1.296875q1.09375 1.28125 1.09375 3.6875l0 0.703125l-6.796875 0q0.03125 1.484375 0.859375 2.40625q0.84375 0.90625 2.125 0.90625q0.90625 0 1.53125 -0.359375q0.640625 -0.375 1.109375 -0.984375l1.046875 0.8125q-1.265625 1.9375 -3.78125 1.9375zm-0.21875 -9.0q-1.03125 0 -1.75 0.765625q-0.703125 0.75 -0.859375 2.109375l5.015625 0l0 -0.125q-0.0625 -1.3125 -0.703125 -2.03125q-0.625 -0.71875 -1.703125 -0.71875z" fill-rule="nonzero"></path><path fill="#000000" fill-opacity="0.0" d="m1097.1096 406.2977l151.21252 0l0 30.803162l-151.21252 0z" fill-rule="evenodd"></path><path fill="#000000" d="m1150.186 428.10834q0 -2.34375 1.078125 -3.71875q1.09375 -1.390625 2.890625 -1.390625q1.828125 0 2.859375 1.296875l0.078125 -1.109375l1.578125 0l0 9.796875q0 1.9375 -1.15625 3.0625q-1.15625 1.125 -3.109375 1.125q-1.078125 0 -2.125 -0.46875q-1.03125 -0.453125 -1.578125 -1.265625l0.890625 -1.03125q1.09375 1.359375 2.6875 1.359375q1.265625 0 1.953125 -0.703125q0.703125 -0.703125 0.703125 -1.984375l0 -0.859375q-1.03125 1.1875 -2.8125 1.1875q-1.75 0 -2.84375 -1.421875q-1.09375 -1.421875 -1.09375 -3.875zm1.71875 0.203125q0 1.703125 0.703125 2.671875q0.703125 0.96875 1.953125 0.96875q1.625 0 2.375 -1.484375l0 -4.578125q-0.78125 -1.4375 -2.359375 -1.4375q-1.25 0 -1.96875 0.984375q-0.703125 0.96875 -0.703125 2.875zm14.013672 -3.59375q-0.390625 -0.0625 -0.84375 -0.0625q-1.6875 0 -2.296875 1.4375l0 7.125l-1.71875 0l0 -10.03125l1.671875 0l0.03125 1.15625q0.84375 -1.34375 2.390625 -1.34375q0.5 0 0.765625 0.125l0 1.59375zm5.625366 8.6875q-2.046875 0 -3.328125 -1.34375q-1.28125 -1.34375 -1.28125 -3.578125l0 -0.328125q0 -1.484375 0.5625 -2.65625q0.578125 -1.171875 1.59375 -1.828125q1.03125 -0.671875 2.234375 -0.671875q1.953125 0 3.03125 1.296875q1.09375 1.28125 1.09375 3.6875l0 0.703125l-6.796875 0q0.03125 1.484375 0.859375 2.40625q0.84375 0.90625 2.125 0.90625q0.90625 0 1.53125 -0.359375q0.640625 -0.375 1.109375 -0.984375l1.046875 0.8125q-1.265625 1.9375 -3.78125 1.9375zm-0.21875 -9.0q-1.03125 0 -1.75 0.765625q-0.703125 0.75 -0.859375 2.109375l5.015625 0l0 -0.125q-0.0625 -1.3125 -0.703125 -2.03125q-0.625 -0.71875 -1.703125 -0.71875zm10.102539 9.0q-2.046875 0 -3.328125 -1.34375q-1.28125 -1.34375 -1.28125 -3.578125l0 -0.328125q0 -1.484375 0.5625 -2.65625q0.578125 -1.171875 1.59375 -1.828125q1.03125 -0.671875 2.234375 -0.671875q1.953125 0 3.03125 1.296875q1.09375 1.28125 1.09375 3.6875l0 0.703125l-6.796875 0q0.03125 1.484375 0.859375 2.40625q0.84375 0.90625 2.125 0.90625q0.90625 0 1.53125 -0.359375q0.640625 -0.375 1.109375 -0.984375l1.046875 0.8125q-1.265625 1.9375 -3.78125 1.9375zm-0.21875 -9.0q-1.03125 0 -1.75 0.765625q-0.703125 0.75 -0.859375 2.109375l5.015625 0l0 -0.125q-0.0625 -1.3125 -0.703125 -2.03125q-0.625 -0.71875 -1.703125 -0.71875zm7.555664 -1.21875l0.0625 1.25q1.140625 -1.4375 3.0 -1.4375q3.1875 0 3.203125 3.578125l0 6.640625l-1.703125 0l0 -6.640625q-0.015625 -1.09375 -0.5 -1.609375q-0.484375 -0.515625 -1.515625 -0.515625q-0.84375 0 -1.46875 0.453125q-0.625 0.4375 -0.984375 1.15625l0 7.15625l-1.71875 0l0 -10.03125l1.625 0z" fill-rule="nonzero"></path><path fill="#f05732" d="m358.3773 377.62317l0 0c0 -13.176575 11.4713745 -23.858276 25.62204 -23.858276l0 0c14.150696 0 25.62207 10.681702 25.62207 23.858276l0 0c0 13.176544 -11.4713745 23.858276 -25.62207 23.858276l0 0c-14.150665 0 -25.62204 -10.681732 -25.62204 -23.858276z" fill-rule="evenodd"></path><path stroke="#000000" stroke-width="1.0" stroke-linejoin="round" stroke-linecap="butt" d="m358.3773 377.62317l0 0c0 -13.176575 11.4713745 -23.858276 25.62204 -23.858276l0 0c14.150696 0 25.62207 10.681702 25.62207 23.858276l0 0c0 13.176544 -11.4713745 23.858276 -25.62207 23.858276l0 0c-14.150665 0 -25.62204 -10.681732 -25.62204 -23.858276z" fill-rule="evenodd"></path><path fill="#ffffff" d="m119.629265 349.35544l230.58267 0l0 56.53543l-230.58267 0z" fill-rule="evenodd"></path><path stroke="#000000" stroke-width="1.0" stroke-linejoin="round" stroke-linecap="butt" d="m119.629265 349.35544l230.58267 0l0 56.53543l-230.58267 0z" fill-rule="evenodd"></path><path fill="#f05732" d="m292.60565 377.62317l0 0c0 -13.176575 11.4713745 -23.858276 25.62204 -23.858276l0 0c14.150665 0 25.62204 10.681702 25.62204 23.858276l0 0c0 13.176544 -11.4713745 23.858276 -25.62204 23.858276l0 0c-14.150665 0 -25.62204 -10.681732 -25.62204 -23.858276z" fill-rule="evenodd"></path><path stroke="#000000" stroke-width="1.0" stroke-linejoin="round" stroke-linecap="butt" d="m292.60565 377.62317l0 0c0 -13.176575 11.4713745 -23.858276 25.62204 -23.858276l0 0c14.150665 0 25.62204 10.681702 25.62204 23.858276l0 0c0 13.176544 -11.4713745 23.858276 -25.62204 23.858276l0 0c-14.150665 0 -25.62204 -10.681732 -25.62204 -23.858276z" fill-rule="evenodd"></path><path fill="#f05732" d="m236.37993 377.62317l0 0c0 -13.176575 11.4713745 -23.858276 25.622055 -23.858276l0 0c14.150665 0 25.62204 10.681702 25.62204 23.858276l0 0c0 13.176544 -11.4713745 23.858276 -25.62204 23.858276l0 0c-14.150681 0 -25.622055 -10.681732 -25.622055 -23.858276z" fill-rule="evenodd"></path><path stroke="#000000" stroke-width="1.0" stroke-linejoin="round" stroke-linecap="butt" d="m236.37993 377.62317l0 0c0 -13.176575 11.4713745 -23.858276 25.622055 -23.858276l0 0c14.150665 0 25.62204 10.681702 25.62204 23.858276l0 0c0 13.176544 -11.4713745 23.858276 -25.62204 23.858276l0 0c-14.150681 0 -25.622055 -10.681732 -25.622055 -23.858276z" fill-rule="evenodd"></path><path fill="#f05732" d="m180.1542 377.62317l0 0c0 -13.176575 11.4713745 -23.858276 25.62204 -23.858276l0 0c14.150665 0 25.622055 10.681702 25.622055 23.858276l0 0c0 13.176544 -11.47139 23.858276 -25.622055 23.858276l0 0c-14.150665 0 -25.62204 -10.681732 -25.62204 -23.858276z" fill-rule="evenodd"></path><path stroke="#000000" stroke-width="1.0" stroke-linejoin="round" stroke-linecap="butt" d="m180.1542 377.62317l0 0c0 -13.176575 11.4713745 -23.858276 25.62204 -23.858276l0 0c14.150665 0 25.622055 10.681702 25.622055 23.858276l0 0c0 13.176544 -11.47139 23.858276 -25.622055 23.858276l0 0c-14.150665 0 -25.62204 -10.681732 -25.62204 -23.858276z" fill-rule="evenodd"></path><path fill="#000000" fill-opacity="0.0" d="m166.93898 406.2977l151.2126 0l0 30.803162l-151.2126 0z" fill-rule="evenodd"></path><path fill="#000000" d="m210.72171 427.24896l5.796875 2.34375l0 1.8125l-7.578125 -3.515625l0 -1.359375l7.578125 -3.5l0 1.8125l-5.796875 2.40625zm10.373611 0.6875l0 5.28125l-1.78125 0l0 -13.515625l4.984375 0q2.21875 0 3.46875 1.140625q1.265625 1.125 1.265625 3.0q0 1.96875 -1.234375 3.03125q-1.21875 1.0625 -3.515625 1.0625l-3.1875 0zm0 -1.46875l3.203125 0q1.4375 0 2.1875 -0.671875q0.765625 -0.671875 0.765625 -1.9375q0 -1.203125 -0.765625 -1.921875q-0.75 -0.734375 -2.078125 -0.765625l-3.3125 0l0 5.296875zm17.45697 3.21875l-5.65625 0l-1.28125 3.53125l-1.828125 0l5.15625 -13.515625l1.5625 0l5.15625 13.515625l-1.828125 0l-1.28125 -3.53125zm-5.125 -1.453125l4.59375 0l-2.296875 -6.328125l-2.296875 6.328125zm9.826538 4.984375l0 -13.515625l3.8125 0q1.765625 0 3.125 0.78125q1.359375 0.78125 2.09375 2.21875q0.734375 1.4375 0.75 3.3125l0 0.859375q0 1.90625 -0.75 3.34375q-0.734375 1.4375 -2.109375 2.21875q-1.359375 0.765625 -3.171875 0.78125l-3.75 0zm1.78125 -12.046875l0 10.59375l1.875 0q2.0625 0 3.203125 -1.28125q1.15625 -1.28125 1.15625 -3.65625l0 -0.78125q0 -2.296875 -1.09375 -3.578125q-1.078125 -1.28125 -3.0625 -1.296875l-2.078125 0zm16.265305 6.015625l-6.125 -2.40625l0 -1.765625l7.921875 3.515625l0 1.359375l-7.921875 3.515625l0 -1.78125l6.125 -2.4375z" fill-rule="nonzero"></path><path fill="#f05732" d="m123.928474 377.62317l0 0c0 -13.176575 11.471382 -23.858276 25.622047 -23.858276l0 0c14.150665 0 25.622055 10.681702 25.622055 23.858276l0 0c0 13.176544 -11.47139 23.858276 -25.622055 23.858276l0 0c-14.150665 0 -25.622047 -10.681732 -25.622047 -23.858276z" fill-rule="evenodd"></path><path stroke="#000000" stroke-width="1.0" stroke-linejoin="round" stroke-linecap="butt" d="m123.928474 377.62317l0 0c0 -13.176575 11.471382 -23.858276 25.622047 -23.858276l0 0c14.150665 0 25.622055 10.681702 25.622055 23.858276l0 0c0 13.176544 -11.47139 23.858276 -25.622055 23.858276l0 0c-14.150665 0 -25.622047 -10.681732 -25.622047 -23.858276z" fill-rule="evenodd"></path><path fill="#ffffff" d="m1291.8734 349.35544l230.58264 0l0 56.53543l-230.58264 0z" fill-rule="evenodd"></path><path stroke="#000000" stroke-width="1.0" stroke-linejoin="round" stroke-linecap="butt" d="m1291.8734 349.35544l230.58264 0l0 56.53543l-230.58264 0z" fill-rule="evenodd"></path><path fill="#f05732" d="m1464.8497 377.62317l0 0c0 -13.176575 11.471436 -23.858276 25.62207 -23.858276l0 0c14.150635 0 25.62207 10.681702 25.62207 23.858276l0 0c0 13.176544 -11.471436 23.858276 -25.62207 23.858276l0 0c-14.150635 0 -25.62207 -10.681732 -25.62207 -23.858276z" fill-rule="evenodd"></path><path stroke="#000000" stroke-width="1.0" stroke-linejoin="round" stroke-linecap="butt" d="m1464.8497 377.62317l0 0c0 -13.176575 11.471436 -23.858276 25.62207 -23.858276l0 0c14.150635 0 25.62207 10.681702 25.62207 23.858276l0 0c0 13.176544 -11.471436 23.858276 -25.62207 23.858276l0 0c-14.150635 0 -25.62207 -10.681732 -25.62207 -23.858276z" fill-rule="evenodd"></path><path fill="#f05732" d="m1408.624 377.62317l0 0c0 -13.176575 11.471313 -23.858276 25.62207 -23.858276l0 0c14.150635 0 25.62207 10.681702 25.62207 23.858276l0 0c0 13.176544 -11.471436 23.858276 -25.62207 23.858276l0 0c-14.150757 0 -25.62207 -10.681732 -25.62207 -23.858276z" fill-rule="evenodd"></path><path stroke="#000000" stroke-width="1.0" stroke-linejoin="round" stroke-linecap="butt" d="m1408.624 377.62317l0 0c0 -13.176575 11.471313 -23.858276 25.62207 -23.858276l0 0c14.150635 0 25.62207 10.681702 25.62207 23.858276l0 0c0 13.176544 -11.471436 23.858276 -25.62207 23.858276l0 0c-14.150757 0 -25.62207 -10.681732 -25.62207 -23.858276z" fill-rule="evenodd"></path><path fill="#f05732" d="m1352.3983 377.62317l0 0c0 -13.176575 11.471313 -23.858276 25.62207 -23.858276l0 0c14.150635 0 25.621948 10.681702 25.621948 23.858276l0 0c0 13.176544 -11.471313 23.858276 -25.621948 23.858276l0 0c-14.150757 0 -25.62207 -10.681732 -25.62207 -23.858276z" fill-rule="evenodd"></path><path stroke="#000000" stroke-width="1.0" stroke-linejoin="round" stroke-linecap="butt" d="m1352.3983 377.62317l0 0c0 -13.176575 11.471313 -23.858276 25.62207 -23.858276l0 0c14.150635 0 25.621948 10.681702 25.621948 23.858276l0 0c0 13.176544 -11.471313 23.858276 -25.621948 23.858276l0 0c-14.150757 0 -25.62207 -10.681732 -25.62207 -23.858276z" fill-rule="evenodd"></path><path fill="#000000" fill-opacity="0.0" d="m1325.2041 406.2977l151.21252 0l0 30.803162l-151.21252 0z" fill-rule="evenodd"></path><path fill="#000000" d="m1382.9746 427.24896l5.796875 2.34375l0 1.8125l-7.578125 -3.515625l0 -1.359375l7.578125 -3.5l0 1.8125l-5.796875 2.40625zm10.373535 0.6875l0 5.28125l-1.78125 0l0 -13.515625l4.984375 0q2.21875 0 3.46875 1.140625q1.265625 1.125 1.265625 3.0q0 1.96875 -1.234375 3.03125q-1.21875 1.0625 -3.515625 1.0625l-3.1875 0zm0 -1.46875l3.203125 0q1.4375 0 2.1875 -0.671875q0.765625 -0.671875 0.765625 -1.9375q0 -1.203125 -0.765625 -1.921875q-0.75 -0.734375 -2.078125 -0.765625l-3.3125 0l0 5.296875zm17.457031 3.21875l-5.65625 0l-1.28125 3.53125l-1.828125 0l5.15625 -13.515625l1.5625 0l5.15625 13.515625l-1.828125 0l-1.28125 -3.53125zm-5.125 -1.453125l4.59375 0l-2.296875 -6.328125l-2.296875 6.328125zm9.826538 4.984375l0 -13.515625l3.8125 0q1.765625 0 3.125 0.78125q1.359375 0.78125 2.09375 2.21875q0.734375 1.4375 0.75 3.3125l0 0.859375q0 1.90625 -0.75 3.34375q-0.734375 1.4375 -2.109375 2.21875q-1.359375 0.765625 -3.171875 0.78125l-3.75 0zm1.78125 -12.046875l0 10.59375l1.875 0q2.0625 0 3.203125 -1.28125q1.15625 -1.28125 1.15625 -3.65625l0 -0.78125q0 -2.296875 -1.09375 -3.578125q-1.078125 -1.28125 -3.0625 -1.296875l-2.078125 0zm16.265259 6.015625l-6.125 -2.40625l0 -1.765625l7.921875 3.515625l0 1.359375l-7.921875 3.515625l0 -1.78125l6.125 -2.4375z" fill-rule="nonzero"></path><path fill="#f05732" d="m1296.1726 377.62317l0 0c0 -13.176575 11.471313 -23.858276 25.62207 -23.858276l0 0c14.150635 0 25.621948 10.681702 25.621948 23.858276l0 0c0 13.176544 -11.471313 23.858276 -25.621948 23.858276l0 0c-14.150757 0 -25.62207 -10.681732 -25.62207 -23.858276z" fill-rule="evenodd"></path><path stroke="#000000" stroke-width="1.0" stroke-linejoin="round" stroke-linecap="butt" d="m1296.1726 377.62317l0 0c0 -13.176575 11.471313 -23.858276 25.62207 -23.858276l0 0c14.150635 0 25.621948 10.681702 25.621948 23.858276l0 0c0 13.176544 -11.471313 23.858276 -25.621948 23.858276l0 0c-14.150757 0 -25.62207 -10.681732 -25.62207 -23.858276z" fill-rule="evenodd"></path><path fill="#ffffff" d="m382.83267 184.10742l173.07089 0l0 56.53543l-173.07089 0z" fill-rule="evenodd"></path><path stroke="#000000" stroke-width="1.0" stroke-linejoin="round" stroke-linecap="butt" d="m382.83267 184.10742l173.07089 0l0 56.53543l-173.07089 0z" fill-rule="evenodd"></path><path fill="#942174" d="m499.58334 212.37514l0 0c0 -13.176559 11.4713745 -23.858276 25.62204 -23.858276l0 0c14.150635 0 25.62207 10.681717 25.62207 23.858276l0 0c0 13.176559 -11.471436 23.858261 -25.62207 23.858261l0 0c-14.150665 0 -25.62204 -10.681702 -25.62204 -23.858261z" fill-rule="evenodd"></path><path stroke="#000000" stroke-width="1.0" stroke-linejoin="round" stroke-linecap="butt" d="m499.58334 212.37514l0 0c0 -13.176559 11.4713745 -23.858276 25.62204 -23.858276l0 0c14.150635 0 25.62207 10.681717 25.62207 23.858276l0 0c0 13.176559 -11.471436 23.858261 -25.62207 23.858261l0 0c-14.150665 0 -25.62204 -10.681702 -25.62204 -23.858261z" fill-rule="evenodd"></path><path fill="#942174" d="m443.3576 212.37514l0 0c0 -13.176559 11.4713745 -23.858276 25.62204 -23.858276l0 0c14.150665 0 25.62207 10.681717 25.62207 23.858276l0 0c0 13.176559 -11.471405 23.858261 -25.62207 23.858261l0 0c-14.150665 0 -25.62204 -10.681702 -25.62204 -23.858261z" fill-rule="evenodd"></path><path stroke="#000000" stroke-width="1.0" stroke-linejoin="round" stroke-linecap="butt" d="m443.3576 212.37514l0 0c0 -13.176559 11.4713745 -23.858276 25.62204 -23.858276l0 0c14.150665 0 25.62207 10.681717 25.62207 23.858276l0 0c0 13.176559 -11.471405 23.858261 -25.62207 23.858261l0 0c-14.150665 0 -25.62204 -10.681702 -25.62204 -23.858261z" fill-rule="evenodd"></path><path fill="#942174" d="m387.1319 212.37514l0 0c0 -13.176559 11.4713745 -23.858276 25.62204 -23.858276l0 0c14.150665 0 25.62204 10.681717 25.62204 23.858276l0 0c0 13.176559 -11.4713745 23.858261 -25.62204 23.858261l0 0c-14.150665 0 -25.62204 -10.681702 -25.62204 -23.858261z" fill-rule="evenodd"></path><path stroke="#000000" stroke-width="1.0" stroke-linejoin="round" stroke-linecap="butt" d="m387.1319 212.37514l0 0c0 -13.176559 11.4713745 -23.858276 25.62204 -23.858276l0 0c14.150665 0 25.62204 10.681717 25.62204 23.858276l0 0c0 13.176559 -11.4713745 23.858261 -25.62204 23.858261l0 0c-14.150665 0 -25.62204 -10.681702 -25.62204 -23.858261z" fill-rule="evenodd"></path><path fill="#000000" fill-opacity="0.0" d="m393.76337 148.47395l151.21259 0.03149414l0 30.803146l-151.21259 -0.03149414z" fill-rule="evenodd"></path><path fill="#000000" d="m408.99457 169.42838l5.796875 2.3449554l0 1.8125l-7.578125 -3.517212l0 -1.359375l7.578125 -3.498413l0 1.8125l-5.796875 2.4050446zm10.373627 0.6896515l0 5.28125l-1.78125 -3.6621094E-4l0 -13.515625l4.984375 0.0010375977q2.21875 4.5776367E-4 3.46875 1.1413422q1.265625 1.1252747 1.265625 3.0002747q0 1.96875 -1.234375 3.0309906q-1.21875 1.0622406 -3.515625 1.0617676l-3.1875 -6.713867E-4zm0 -1.46875l3.203125 6.713867E-4q1.4375 3.0517578E-4 2.1875 -0.67141724q0.765625 -0.6717224 0.765625 -1.9373474q0 -1.203125 -0.765625 -1.9220276q-0.75 -0.7345276 -2.078125 -0.7660675l-3.3125 -6.866455E-4l0 5.296875zm17.45697 3.2223969l-5.65625 -0.0011901855l-1.28125 3.5309906l-1.828125 -3.8146973E-4l5.15625 -13.514557l1.5625 3.3569336E-4l5.15625 13.516693l-1.828125 -3.8146973E-4l-1.28125 -3.5315094zm-5.125 -1.4541931l4.59375 9.460449E-4l-2.296875 -6.328598l-2.296875 6.327652zm9.826538 4.9864197l0 -13.515625l3.8125 7.9345703E-4q1.765625 3.6621094E-4 3.125 0.78189087q1.359375 0.7815399 2.09375 2.2191925q0.734375 1.4376526 0.75 3.3126526l0 0.859375q0 1.90625 -0.75 3.3435974q-0.734375 1.4373474 -2.109375 2.2183075q-1.359375 0.76535034 -3.171875 0.7805939l-3.75 -7.7819824E-4zm1.78125 -12.046509l0 10.59375l1.875 3.9672852E-4q2.0625 4.272461E-4 3.203125 -1.2805939q1.15625 -1.2810059 1.15625 -3.6560059l0 -0.78125q0 -2.296875 -1.09375 -3.578354q-1.078125 -1.2814789 -3.0625 -1.2975159l-2.078125 -4.272461E-4zm16.26529 6.0190125l-6.125 -2.4075317l0 -1.765625l7.921875 3.5172882l0 1.359375l-7.921875 3.5139618l0 -1.78125l6.125 -2.4362183zm14.131317 3.377945q0 -0.703125 -0.53125 -1.0782318q-0.515625 -0.3907318 -1.828125 -0.67225647q-1.296875 -0.28152466 -2.0625 -0.67230225q-0.765625 -0.39079285 -1.140625 -0.92211914q-0.359375 -0.5469513 -0.359375 -1.2813263q0 -1.234375 1.046875 -2.0779114q1.046875 -0.8591461 2.671875 -0.8588104q1.703125 3.5095215E-4 2.765625 0.87557983q1.0625 0.8752136 1.0625 2.2502136l-1.71875 -3.5095215E-4q0 -0.703125 -0.609375 -1.2032623q-0.59375 -0.5157471 -1.5 -0.5159302q-0.9375 -1.9836426E-4 -1.46875 0.40594482q-0.53125 0.4061432 -0.53125 1.0623932q0 0.625 0.484375 0.93759155q0.5 0.3126068 1.78125 0.60975647q1.296875 0.2815094 2.09375 0.68792725q0.796875 0.39079285 1.171875 0.95336914q0.390625 0.5625763 0.390625 1.3750763q0 1.34375 -1.078125 2.1560364q-1.078125 0.8122711 -2.796875 0.81192017q-1.203125 -2.593994E-4 -2.125 -0.4223175q-0.921875 -0.43769836 -1.453125 -1.2034302q-0.53125 -0.7657471 -0.53125 -1.6563721l1.71875 3.6621094E-4q0.046875 0.85939026 0.6875 1.3751373q0.65625 0.5001373 1.703125 0.5003662q0.984375 1.9836426E-4 1.5625 -0.39030457q0.59375 -0.39050293 0.59375 -1.0467529zm5.635254 2.657425l-1.703125 -3.5095215E-4l0 -14.25l1.703125 3.5095215E-4l0 14.25zm8.871155 0.0018463135q-0.15625 -0.29690552 -0.25 -1.0625458q-1.1875 1.2497406 -2.859375 1.2494049q-1.484375 -3.2043457E-4 -2.4375 -0.8442688q-0.9375 -0.84394836 -0.9375 -2.1251984q0 -1.5625 1.1875 -2.4372406q1.1875 -0.87475586 3.359375 -0.8742981l1.671875 3.3569336E-4l0 -0.78125q0 -0.90625 -0.546875 -1.4376068q-0.53125 -0.5313568 -1.578125 -0.5315857q-0.921875 -1.8310547E-4 -1.546875 0.46842957q-0.625 0.46862793 -0.625 1.1248779l-1.71875 -3.6621094E-4q0 -0.75 0.53125 -1.4530182q0.53125 -0.7030029 1.4375 -1.1090698q0.921875 -0.40605164 2.015625 -0.40582275q1.734375 3.5095215E-4 2.71875 0.8755646q0.984375 0.85957336 1.015625 2.3752136l0 4.625q0 1.375 0.359375 2.1875763l0 0.15625l-1.796875 -3.8146973E-4zm-2.859375 -1.3130951q0.8125 1.6784668E-4 1.53125 -0.40592957q0.734375 -0.4217224 1.0625 -1.0935364l0 -2.0625l-1.359375 -2.746582E-4q-3.140625 -6.5612793E-4 -3.140625 1.8430939q0 0.8125 0.53125 1.2657318q0.53125 0.4532318 1.375 0.45341492zm15.288605 -3.590561q0 2.296875 -1.046875 3.702896q-1.046875 1.3904114 -2.84375 1.3900452q-1.828125 -3.8146973E-4 -2.875 -1.1568604l0 4.828125l-1.71875 -3.5095215E-4l0 -13.890625l1.5625 3.2043457E-4l0.09375 1.1093903q1.046875 -1.2966461 2.90625 -1.2962646q1.8125 3.8146973E-4 2.859375 1.3599701q1.0625 1.3596039 1.0625 3.797104l0 0.15625zm-1.71875 -0.20349121q0 -1.6875 -0.734375 -2.6720276q-0.71875 -0.9845276 -1.96875 -0.984787q-1.5625 -3.2043457E-4 -2.34375 1.3745117l0 4.796875q0.765625 1.3751678 2.359375 1.3755035q1.234375 2.4414062E-4 1.953125 -0.9683533q0.734375 -0.9842224 0.734375 -2.9217224zm12.185577 0.20567322q0 2.296875 -1.046875 3.702896q-1.046875 1.3904114 -2.84375 1.3900299q-1.828125 -3.8146973E-4 -2.875 -1.1568451l0 4.828125l-1.71875 -3.5095215E-4l0 -13.890625l1.5625 3.2043457E-4l0.09375 1.1093903q1.046875 -1.2966461 2.90625 -1.2962646q1.8125 3.8146973E-4 2.859375 1.3599701q1.0625 1.3596039 1.0625 3.797104l0 0.15625zm-1.71875 -0.20349121q0 -1.6875 -0.734375 -2.6720276q-0.71875 -0.9845276 -1.96875 -0.984787q-1.5625 -3.2043457E-4 -2.34375 1.3745117l0 4.796875q0.765625 1.3751678 2.359375 1.3754883q1.234375 2.593994E-4 1.953125 -0.968338q0.734375 -0.9842224 0.734375 -2.9217224zm7.8730774 5.298523q-2.046875 -4.272461E-4 -3.328125 -1.3444519q-1.28125 -1.3440094 -1.28125 -3.5783844l0 -0.328125q0 -1.484375 0.5625 -2.6561432q0.578125 -1.1717529 1.59375 -1.8277893q1.03125 -0.6716614 2.234375 -0.671402q1.953125 3.9672852E-4 3.03125 1.2975006q1.09375 1.2814789 1.09375 3.687729l0 0.703125l-6.796875 -0.0014190674q0.03125 1.4843903 0.859375 2.406433q0.84375 0.90641785 2.125 0.9066925q0.90625 1.8310547E-4 1.53125 -0.35905457q0.640625 -0.37487793 1.109375 -0.9841461l1.046875 0.8127136q-1.265625 1.9372406 -3.78125 1.9367218zm-0.21875 -9.000046q-1.03125 -2.2888184E-4 -1.75 0.7652588q-0.703125 0.7498474 -0.859375 2.109192l5.015625 0.0010375977l0 -0.125q-0.0625 -1.3125 -0.703125 -2.0313873q-0.625 -0.7188873 -1.703125 -0.71910095zm5.508789 3.7042694q0 -2.296875 1.09375 -3.702896q1.109375 -1.4060211 2.875 -1.4056549q1.765625 3.6621094E-4 2.796875 1.2037048l0 -5.234375l1.71875 3.6621094E-4l0 14.25l-1.578125 -3.3569336E-4l-0.09375 -1.0781403q-1.03125 1.2654114 -2.859375 1.2650299q-1.75 -3.6621094E-4 -2.859375 -1.4224701q-1.09375 -1.4377289 -1.09375 -3.734604l0 -0.140625zm1.71875 0.20347595q0 1.703125 0.703125 2.6720276q0.71875 0.9689026 1.953125 0.9691467q1.640625 3.5095215E-4 2.390625 -1.4682465l0 -4.609375q-0.78125 -1.4220428 -2.375 -1.4223633q-1.25 -2.593994E-4 -1.96875 0.983963q-0.703125 0.9685974 -0.703125 2.8748474z" fill-rule="nonzero"></path><path fill="#000000" fill-opacity="0.0" d="m382.20078 239.69357l-262.58267 109.38583" fill-rule="evenodd"></path><path stroke="#b7b7b7" stroke-width="2.0" stroke-linejoin="round" stroke-linecap="butt" stroke-dasharray="16.0,6.0" d="m382.20078 239.69357l-262.58267 109.38583" fill-rule="evenodd"></path><path fill="#000000" fill-opacity="0.0" d="m1071.3293 241.92717l-247.33856 106.51967" fill-rule="evenodd"></path><path stroke="#b7b7b7" stroke-width="2.0" stroke-linejoin="round" stroke-linecap="butt" stroke-dasharray="16.0,6.0" d="m1071.3293 241.92717l-247.33856 106.51967" fill-rule="evenodd"></path><path fill="#000000" fill-opacity="0.0" d="m1017.14764 241.92763l268.75592 106.51967" fill-rule="evenodd"></path><path stroke="#b7b7b7" stroke-width="2.0" stroke-linejoin="round" stroke-linecap="butt" stroke-dasharray="16.0,6.0" d="m1017.14764 241.92763l268.75592 106.51967" fill-rule="evenodd"></path><path fill="#000000" fill-opacity="0.0" d="m557.2769 238.94817l262.2362 110.99211" fill-rule="evenodd"></path><path stroke="#b7b7b7" stroke-width="2.0" stroke-linejoin="round" stroke-linecap="butt" stroke-dasharray="16.0,6.0" d="m557.2769 238.94817l262.2362 110.99211" fill-rule="evenodd"></path><path fill="#ffffff" d="m614.876 184.10742l173.07086 0l0 56.53543l-173.07086 0z" fill-rule="evenodd"></path><path stroke="#000000" stroke-width="1.0" stroke-linejoin="round" stroke-linecap="butt" d="m614.876 184.10742l173.07086 0l0 56.53543l-173.07086 0z" fill-rule="evenodd"></path><path fill="#942174" d="m731.62665 212.37514l0 0c0 -13.176559 11.4713745 -23.858276 25.62201 -23.858276l0 0c14.150696 0 25.62207 10.681717 25.62207 23.858276l0 0c0 13.176559 -11.4713745 23.858261 -25.62207 23.858261l0 0c-14.150635 0 -25.62201 -10.681702 -25.62201 -23.858261z" fill-rule="evenodd"></path><path stroke="#000000" stroke-width="1.0" stroke-linejoin="round" stroke-linecap="butt" d="m731.62665 212.37514l0 0c0 -13.176559 11.4713745 -23.858276 25.62201 -23.858276l0 0c14.150696 0 25.62207 10.681717 25.62207 23.858276l0 0c0 13.176559 -11.4713745 23.858261 -25.62207 23.858261l0 0c-14.150635 0 -25.62201 -10.681702 -25.62201 -23.858261z" fill-rule="evenodd"></path><path fill="#942174" d="m675.40094 212.37514l0 0c0 -13.176559 11.4713745 -23.858276 25.62201 -23.858276l0 0c14.150696 0 25.62207 10.681717 25.62207 23.858276l0 0c0 13.176559 -11.4713745 23.858261 -25.62207 23.858261l0 0c-14.150635 0 -25.62201 -10.681702 -25.62201 -23.858261z" fill-rule="evenodd"></path><path stroke="#000000" stroke-width="1.0" stroke-linejoin="round" stroke-linecap="butt" d="m675.40094 212.37514l0 0c0 -13.176559 11.4713745 -23.858276 25.62201 -23.858276l0 0c14.150696 0 25.62207 10.681717 25.62207 23.858276l0 0c0 13.176559 -11.4713745 23.858261 -25.62207 23.858261l0 0c-14.150635 0 -25.62201 -10.681702 -25.62201 -23.858261z" fill-rule="evenodd"></path><path fill="#942174" d="m619.1752 212.37514l0 0c0 -13.176559 11.471436 -23.858276 25.62207 -23.858276l0 0c14.150696 0 25.62207 10.681717 25.62207 23.858276l0 0c0 13.176559 -11.4713745 23.858261 -25.62207 23.858261l0 0c-14.150635 0 -25.62207 -10.681702 -25.62207 -23.858261z" fill-rule="evenodd"></path><path stroke="#000000" stroke-width="1.0" stroke-linejoin="round" stroke-linecap="butt" d="m619.1752 212.37514l0 0c0 -13.176559 11.471436 -23.858276 25.62207 -23.858276l0 0c14.150696 0 25.62207 10.681717 25.62207 23.858276l0 0c0 13.176559 -11.4713745 23.858261 -25.62207 23.858261l0 0c-14.150635 0 -25.62207 -10.681702 -25.62207 -23.858261z" fill-rule="evenodd"></path><path fill="#ffffff" d="m844.07806 184.10742l173.07086 0l0 56.53543l-173.07086 0z" fill-rule="evenodd"></path><path stroke="#000000" stroke-width="1.0" stroke-linejoin="round" stroke-linecap="butt" d="m844.07806 184.10742l173.07086 0l0 56.53543l-173.07086 0z" fill-rule="evenodd"></path><path fill="#942174" d="m960.82874 212.37514l0 0c0 -13.176559 11.4713745 -23.858276 25.62207 -23.858276l0 0c14.150635 0 25.62201 10.681717 25.62201 23.858276l0 0c0 13.176559 -11.4713745 23.858261 -25.62201 23.858261l0 0c-14.150696 0 -25.62207 -10.681702 -25.62207 -23.858261z" fill-rule="evenodd"></path><path stroke="#000000" stroke-width="1.0" stroke-linejoin="round" stroke-linecap="butt" d="m960.82874 212.37514l0 0c0 -13.176559 11.4713745 -23.858276 25.62207 -23.858276l0 0c14.150635 0 25.62201 10.681717 25.62201 23.858276l0 0c0 13.176559 -11.4713745 23.858261 -25.62201 23.858261l0 0c-14.150696 0 -25.62207 -10.681702 -25.62207 -23.858261z" fill-rule="evenodd"></path><path fill="#942174" d="m904.603 212.37514l0 0c0 -13.176559 11.4713745 -23.858276 25.62201 -23.858276l0 0c14.150696 0 25.62207 10.681717 25.62207 23.858276l0 0c0 13.176559 -11.4713745 23.858261 -25.62207 23.858261l0 0c-14.150635 0 -25.62201 -10.681702 -25.62201 -23.858261z" fill-rule="evenodd"></path><path stroke="#000000" stroke-width="1.0" stroke-linejoin="round" stroke-linecap="butt" d="m904.603 212.37514l0 0c0 -13.176559 11.4713745 -23.858276 25.62201 -23.858276l0 0c14.150696 0 25.62207 10.681717 25.62207 23.858276l0 0c0 13.176559 -11.4713745 23.858261 -25.62207 23.858261l0 0c-14.150635 0 -25.62201 -10.681702 -25.62201 -23.858261z" fill-rule="evenodd"></path><path fill="#942174" d="m848.3773 212.37514l0 0c0 -13.176559 11.4713745 -23.858276 25.62201 -23.858276l0 0c14.150696 0 25.62207 10.681717 25.62207 23.858276l0 0c0 13.176559 -11.4713745 23.858261 -25.62207 23.858261l0 0c-14.150635 0 -25.62201 -10.681702 -25.62201 -23.858261z" fill-rule="evenodd"></path><path stroke="#000000" stroke-width="1.0" stroke-linejoin="round" stroke-linecap="butt" d="m848.3773 212.37514l0 0c0 -13.176559 11.4713745 -23.858276 25.62201 -23.858276l0 0c14.150696 0 25.62207 10.681717 25.62207 23.858276l0 0c0 13.176559 -11.4713745 23.858261 -25.62207 23.858261l0 0c-14.150635 0 -25.62201 -10.681702 -25.62201 -23.858261z" fill-rule="evenodd"></path><path fill="#000000" fill-opacity="0.0" d="m787.8097 241.32086l266.39368 107.87402" fill-rule="evenodd"></path><path stroke="#000000" stroke-width="2.0" stroke-linejoin="round" stroke-linecap="butt" d="m787.8097 241.32086l266.39368 107.87402" fill-rule="evenodd"></path><path fill="#ffffff" d="m1073.2802 184.10742l173.07092 0l0 56.53543l-173.07092 0z" fill-rule="evenodd"></path><path stroke="#000000" stroke-width="1.0" stroke-linejoin="round" stroke-linecap="butt" d="m1073.2802 184.10742l173.07092 0l0 56.53543l-173.07092 0z" fill-rule="evenodd"></path><path fill="#942174" d="m1190.0309 212.37514l0 0c0 -13.176559 11.471313 -23.858276 25.621948 -23.858276l0 0c14.150757 0 25.62207 10.681717 25.62207 23.858276l0 0c0 13.176559 -11.471313 23.858261 -25.62207 23.858261l0 0c-14.150635 0 -25.621948 -10.681702 -25.621948 -23.858261z" fill-rule="evenodd"></path><path stroke="#000000" stroke-width="1.0" stroke-linejoin="round" stroke-linecap="butt" d="m1190.0309 212.37514l0 0c0 -13.176559 11.471313 -23.858276 25.621948 -23.858276l0 0c14.150757 0 25.62207 10.681717 25.62207 23.858276l0 0c0 13.176559 -11.471313 23.858261 -25.62207 23.858261l0 0c-14.150635 0 -25.621948 -10.681702 -25.621948 -23.858261z" fill-rule="evenodd"></path><path fill="#942174" d="m1133.8052 212.37514l0 0c0 -13.176559 11.471313 -23.858276 25.621948 -23.858276l0 0c14.150757 0 25.62207 10.681717 25.62207 23.858276l0 0c0 13.176559 -11.471313 23.858261 -25.62207 23.858261l0 0c-14.150635 0 -25.621948 -10.681702 -25.621948 -23.858261z" fill-rule="evenodd"></path><path stroke="#000000" stroke-width="1.0" stroke-linejoin="round" stroke-linecap="butt" d="m1133.8052 212.37514l0 0c0 -13.176559 11.471313 -23.858276 25.621948 -23.858276l0 0c14.150757 0 25.62207 10.681717 25.62207 23.858276l0 0c0 13.176559 -11.471313 23.858261 -25.62207 23.858261l0 0c-14.150635 0 -25.621948 -10.681702 -25.621948 -23.858261z" fill-rule="evenodd"></path><path fill="#942174" d="m1077.5793 212.37514l0 0c0 -13.176559 11.471436 -23.858276 25.62207 -23.858276l0 0c14.150635 0 25.62207 10.681717 25.62207 23.858276l0 0c0 13.176559 -11.471436 23.858261 -25.62207 23.858261l0 0c-14.150635 0 -25.62207 -10.681702 -25.62207 -23.858261z" fill-rule="evenodd"></path><path stroke="#000000" stroke-width="1.0" stroke-linejoin="round" stroke-linecap="butt" d="m1077.5793 212.37514l0 0c0 -13.176559 11.471436 -23.858276 25.62207 -23.858276l0 0c14.150635 0 25.62207 10.681717 25.62207 23.858276l0 0c0 13.176559 -11.471436 23.858261 -25.62207 23.858261l0 0c-14.150635 0 -25.62207 -10.681702 -25.62207 -23.858261z" fill-rule="evenodd"></path><path fill="#000000" fill-opacity="0.0" d="m625.4169 148.47395l151.21265 0.03149414l0 30.803146l-151.21265 -0.03149414z" fill-rule="evenodd"></path><path fill="#000000" d="m668.67426 161.88733l4.40625 11.032166l4.421875 -11.030319l2.3125 4.7302246E-4l0 13.515625l-1.78125 -3.6621094E-4l0 -5.265625l0.15625 -5.6718445l-4.421875 10.936584l-1.375 -2.89917E-4l-4.421875 -10.907166l0.171875 5.6406555l0 5.265625l-1.78125 -3.6621094E-4l0 -13.515625l2.3125 4.7302246E-4zm19.91278 13.519775q-0.15625 -0.29690552 -0.25 -1.0625458q-1.1875 1.2497406 -2.859375 1.2494049q-1.484375 -3.2043457E-4 -2.4375 -0.8442688q-0.9375 -0.8439331 -0.9375 -2.125183q0 -1.5625 1.1875 -2.4372559q1.1875 -0.87475586 3.359375 -0.8742981l1.671875 3.3569336E-4l0 -0.78125q0 -0.90625 -0.546875 -1.4376068q-0.53125 -0.5313568 -1.578125 -0.5315857q-0.921875 -1.8310547E-4 -1.546875 0.46842957q-0.625 0.46862793 -0.625 1.1248779l-1.71875 -3.6621094E-4q0 -0.75 0.53125 -1.4530029q0.53125 -0.7030182 1.4375 -1.1090851q0.921875 -0.40605164 2.015625 -0.40582275q1.734375 3.5095215E-4 2.71875 0.8755646q0.984375 0.85957336 1.015625 2.3752136l0 4.625q0 1.375 0.359375 2.1875763l0 0.15625l-1.796875 -3.8146973E-4zm-2.859375 -1.3130951q0.8125 1.6784668E-4 1.53125 -0.40592957q0.734375 -0.4217224 1.0625 -1.0935364l0 -2.0625l-1.359375 -2.746582E-4q-3.140625 -6.5612793E-4 -3.140625 1.8430939q0 0.8125 0.53125 1.2657318q0.53125 0.4532318 1.375 0.45341492zm11.663635 -7.185074q-0.390625 -0.062576294 -0.84375 -0.06266785q-1.6875 -3.5095215E-4 -2.296875 1.4370117l0 7.125l-1.71875 -3.5095215E-4l0 -10.03125l1.671875 3.5095215E-4l0.03125 1.15625q0.84375 -1.3435669 2.390625 -1.3432465q0.5 1.0681152E-4 0.765625 0.12515259l0 1.59375zm4.734741 5.985367l2.34375 -7.5151367l1.84375 3.8146973E-4l-4.046875 11.577286q-0.9375 2.4998016 -2.96875 2.4993744l-0.328125 -0.015686035l-0.640625 -0.12513733l0 -1.390625l0.46875 0.031341553q0.859375 1.8310547E-4 1.34375 -0.35908508q0.5 -0.3436432 0.8125 -1.2810822l0.375 -1.0155487l-3.578125 -9.922623l1.875 3.9672852E-4l2.5 7.516144zm12.492493 -9.950531l0 2.4375l1.875 3.9672852E-4l0 1.3125l-1.875 -3.9672852E-4l0 6.234375q0 0.59375 0.25 0.90631104q0.25 0.29692078 0.859375 0.2970581q0.296875 6.1035156E-5 0.8125 -0.10920715l0 1.390625q-0.671875 0.18734741 -1.3125 0.18722534q-1.15625 -2.4414062E-4 -1.75 -0.6878662q-0.578125 -0.7032471 -0.578125 -1.9844971l0 -6.234375l-1.828125 -3.8146973E-4l0 -1.3125l1.828125 3.8146973E-4l0 -2.4375l1.71875 3.5095215E-4zm5.4848633 3.6417694q1.140625 -1.3903809 2.96875 -1.3899994q3.1875 6.5612793E-4 3.203125 3.5787811l0 6.640625l-1.703125 -3.5095215E-4l0 -6.640625q-0.015625 -1.09375 -0.5 -1.6094818q-0.484375 -0.51571655 -1.515625 -0.5159302q-0.84375 -1.8310547E-4 -1.46875 0.45281982q-0.625 0.43736267 -0.984375 1.1560364l0 7.15625l-1.71875 -3.5095215E-4l0 -14.25l1.71875 3.5095215E-4l0 5.421875zm12.728638 9.01828q-2.046875 -4.272461E-4 -3.328125 -1.3444366q-1.28125 -1.3440247 -1.28125 -3.5783997l0 -0.328125q0 -1.484375 0.5625 -2.656128q0.578125 -1.1717529 1.59375 -1.8277893q1.03125 -0.6716614 2.234375 -0.67141724q1.953125 4.119873E-4 3.03125 1.2975006q1.09375 1.2814789 1.09375 3.687729l0 0.703125l-6.796875 -0.0014038086q0.03125 1.484375 0.859375 2.4064178q0.84375 0.9064331 2.125 0.9066925q0.90625 1.9836426E-4 1.53125 -0.35905457q0.640625 -0.37486267 1.109375 -0.9841461l1.046875 0.8127289q-1.265625 1.9372253 -3.78125 1.9367065zm-0.21875 -9.000046q-1.03125 -2.1362305E-4 -1.75 0.7652588q-0.703125 0.7498627 -0.859375 2.109192l5.015625 0.0010528564l0 -0.125q-0.0625 -1.3125153 -0.703125 -2.0314026q-0.625 -0.7188721 -1.703125 -0.71910095z" fill-rule="nonzero"></path><path fill="#000000" fill-opacity="0.0" d="m854.619 148.47395l151.21259 0.03149414l0 30.803146l-151.21259 -0.03149414z" fill-rule="evenodd"></path><path fill="#000000" d="m878.8192 172.74274q0 -0.703125 -0.53125 -1.0782318q-0.515625 -0.3907318 -1.828125 -0.67225647q-1.296875 -0.28152466 -2.0625 -0.67230225q-0.765625 -0.39079285 -1.140625 -0.92211914q-0.359375 -0.5469513 -0.359375 -1.2813263q0 -1.234375 1.046875 -2.077896q1.046875 -0.8591614 2.671875 -0.8588257q1.703125 3.5095215E-4 2.765625 0.87557983q1.0625 0.8752136 1.0625 2.2502136l-1.71875 -3.5095215E-4q0 -0.703125 -0.609375 -1.2032623q-0.59375 -0.5157471 -1.5 -0.5159302q-0.9375 -1.9836426E-4 -1.46875 0.40594482q-0.53125 0.4061432 -0.53125 1.0623932q0 0.625 0.484375 0.93759155q0.5 0.3126068 1.78125 0.60975647q1.296875 0.2815094 2.09375 0.68792725q0.796875 0.39079285 1.171875 0.95336914q0.390625 0.56259155 0.390625 1.3750916q0 1.34375 -1.078125 2.156021q-1.078125 0.8122711 -2.796875 0.81192017q-1.203125 -2.593994E-4 -2.125 -0.4223175q-0.921875 -0.43769836 -1.453125 -1.2034302q-0.53125 -0.7657318 -0.53125 -1.6563568l1.71875 3.5095215E-4q0.046875 0.85939026 0.6875 1.3751373q0.65625 0.5001373 1.703125 0.5003662q0.984375 1.9836426E-4 1.5625 -0.39030457q0.59375 -0.39050293 0.59375 -1.0467529zm5.635254 2.657425l-1.703125 -3.5095215E-4l0 -14.25l1.703125 3.5095215E-4l0 14.25zm8.871155 0.0018463135q-0.15625 -0.29690552 -0.25 -1.0625458q-1.1875 1.2497406 -2.859375 1.2494049q-1.484375 -3.2043457E-4 -2.4375 -0.8442688q-0.9375 -0.8439331 -0.9375 -2.125183q0 -1.5625 1.1875 -2.4372559q1.1875 -0.87475586 3.359375 -0.8742981l1.671875 3.3569336E-4l0 -0.78125q0 -0.90625 -0.546875 -1.4376068q-0.53125 -0.5313568 -1.578125 -0.5315857q-0.921875 -1.8310547E-4 -1.546875 0.46842957q-0.625 0.46862793 -0.625 1.1248779l-1.71875 -3.6621094E-4q0 -0.75 0.53125 -1.4530029q0.53125 -0.7030182 1.4375 -1.1090851q0.921875 -0.40605164 2.015625 -0.40582275q1.734375 3.5095215E-4 2.71875 0.8755646q0.984375 0.85957336 1.015625 2.3752136l0 4.625q0 1.375 0.359375 2.1875763l0 0.15625l-1.796875 -3.8146973E-4zm-2.859375 -1.3130951q0.8125 1.6784668E-4 1.53125 -0.40592957q0.734375 -0.4217224 1.0625 -1.0935364l0 -2.0625l-1.359375 -2.746582E-4q-3.140625 -6.5612793E-4 -3.140625 1.8430939q0 0.8125 0.53125 1.2657318q0.53125 0.45324707 1.375 0.45341492zm15.288574 -3.590561q0 2.296875 -1.046875 3.702896q-1.046875 1.3904114 -2.84375 1.3900452q-1.828125 -3.8146973E-4 -2.875 -1.1568604l0 4.828125l-1.71875 -3.5095215E-4l0 -13.890625l1.5625 3.2043457E-4l0.09375 1.1094055q1.046875 -1.2966614 2.90625 -1.2962799q1.8125 3.8146973E-4 2.859375 1.3599701q1.0625 1.3596039 1.0625 3.797104l0 0.15625zm-1.71875 -0.20349121q0 -1.6875 -0.734375 -2.6720276q-0.71875 -0.9845276 -1.96875 -0.984787q-1.5625 -3.2043457E-4 -2.34375 1.3745117l0 4.796875q0.765625 1.3751678 2.359375 1.3755035q1.234375 2.4414062E-4 1.953125 -0.9683533q0.734375 -0.9842224 0.734375 -2.9217224zm12.185608 0.20567322q0 2.296875 -1.046875 3.702896q-1.046875 1.3904114 -2.84375 1.3900452q-1.828125 -3.8146973E-4 -2.875 -1.1568604l0 4.828125l-1.71875 -3.5095215E-4l0 -13.890625l1.5625 3.2043457E-4l0.09375 1.1093903q1.046875 -1.2966461 2.90625 -1.2962646q1.8125 3.8146973E-4 2.859375 1.3599701q1.0625 1.3596039 1.0625 3.797104l0 0.15625zm-1.71875 -0.20349121q0 -1.6875 -0.734375 -2.6720276q-0.71875 -0.9845276 -1.96875 -0.984787q-1.5625 -3.2043457E-4 -2.34375 1.3745117l0 4.796875q0.765625 1.3751678 2.359375 1.3754883q1.234375 2.593994E-4 1.953125 -0.968338q0.734375 -0.9842224 0.734375 -2.9217224zm7.873047 5.298523q-2.046875 -4.272461E-4 -3.328125 -1.3444519q-1.28125 -1.3440094 -1.28125 -3.5783844l0 -0.328125q0 -1.484375 0.5625 -2.6561432q0.578125 -1.1717529 1.59375 -1.8277893q1.03125 -0.6716614 2.234375 -0.671402q1.953125 3.9672852E-4 3.03125 1.2975006q1.09375 1.2814789 1.09375 3.687729l0 0.703125l-6.796875 -0.0014190674q0.03125 1.4843903 0.859375 2.406433q0.84375 0.90641785 2.125 0.9066925q0.90625 1.8310547E-4 1.53125 -0.35905457q0.640625 -0.37486267 1.109375 -0.9841461l1.046875 0.8127136q-1.265625 1.9372406 -3.78125 1.9367218zm-0.21875 -9.000046q-1.03125 -2.1362305E-4 -1.75 0.7652588q-0.703125 0.7498474 -0.859375 2.109192l5.015625 0.0010375977l0 -0.125q-0.0625 -1.3125 -0.703125 -2.0313873q-0.625 -0.7188873 -1.703125 -0.71910095zm5.508789 3.7042694q0 -2.296875 1.09375 -3.702896q1.109375 -1.4060211 2.875 -1.4056549q1.765625 3.6621094E-4 2.796875 1.2037048l0 -5.234375l1.71875 3.6621094E-4l0 14.25l-1.578125 -3.3569336E-4l-0.09375 -1.0781403q-1.03125 1.2654114 -2.859375 1.2650299q-1.75 -3.6621094E-4 -2.859375 -1.4224701q-1.09375 -1.4377289 -1.09375 -3.734604l0 -0.140625zm1.71875 0.20347595q0 1.703125 0.703125 2.6720276q0.71875 0.9689026 1.953125 0.969162q1.640625 3.3569336E-4 2.390625 -1.4682617l0 -4.609375q-0.78125 -1.4220276 -2.375 -1.4223633q-1.25 -2.593994E-4 -1.96875 0.983963q-0.703125 0.9685974 -0.703125 2.8748474zm13.43689 -0.20031738q0 -2.34375 1.078125 -3.7185364q1.09375 -1.3903961 2.890625 -1.3900146q1.828125 3.8146973E-4 2.859375 1.2974701l0.078125 -1.1093597l1.578125 3.3569336E-4l0 9.796875q0 1.9375 -1.15625 3.0622559q-1.15625 1.1247559 -3.109375 1.1243439q-1.078125 -2.1362305E-4 -2.125 -0.4691925q-1.03125 -0.45333862 -1.578125 -1.2659454l0.890625 -1.0310669q1.09375 1.3596039 2.6875 1.3599396q1.265625 2.593994E-4 1.953125 -0.7027283q0.703125 -0.7029724 0.703125 -1.9842224l0 -0.859375q-1.03125 1.1872864 -2.8125 1.1869049q-1.75 -3.5095215E-4 -2.84375 -1.4224548q-1.09375 -1.4221039 -1.09375 -3.875229zm1.71875 0.20347595q0 1.703125 0.703125 2.6720276q0.703125 0.9688873 1.953125 0.9691467q1.625 3.5095215E-4 2.375 -1.4838715l0 -4.578125q-0.78125 -1.4376678 -2.359375 -1.4379883q-1.25 -2.593994E-4 -1.96875 0.983963q-0.703125 0.9685974 -0.703125 2.8748474zm14.013672 -3.5908356q-0.390625 -0.062576294 -0.84375 -0.06266785q-1.6875 -3.5095215E-4 -2.296875 1.437027l0 7.125l-1.71875 -3.6621094E-4l0 -10.03125l1.671875 3.5095215E-4l0.03125 1.15625q0.84375 -1.3435669 2.390625 -1.3432465q0.5 1.0681152E-4 0.765625 0.12515259l0 1.59375zm5.625366 8.688675q-2.046875 -4.272461E-4 -3.328125 -1.3444366q-1.28125 -1.3440247 -1.28125 -3.5783997l0 -0.328125q0 -1.484375 0.5625 -2.656128q0.578125 -1.1717529 1.59375 -1.8277893q1.03125 -0.6716614 2.234375 -0.67141724q1.953125 4.119873E-4 3.03125 1.2975159q1.09375 1.2814789 1.09375 3.687729l0 0.703125l-6.796875 -0.0014190674q0.03125 1.484375 0.859375 2.406433q0.84375 0.90641785 2.125 0.9066925q0.90625 1.8310547E-4 1.53125 -0.35906982q0.640625 -0.37486267 1.109375 -0.98413086l1.046875 0.8127136q-1.265625 1.9372406 -3.78125 1.9367065zm-0.21875 -9.000046q-1.03125 -2.1362305E-4 -1.75 0.7652588q-0.703125 0.7498627 -0.859375 2.1092072l5.015625 0.0010375977l0 -0.125q-0.0625 -1.3125153 -0.703125 -2.0313873q-0.625 -0.7188873 -1.703125 -0.7191162zm10.102539 9.002106q-2.046875 -4.272461E-4 -3.328125 -1.3444366q-1.28125 -1.3440247 -1.28125 -3.5783997l0 -0.328125q0 -1.484375 0.5625 -2.656128q0.578125 -1.1717529 1.59375 -1.8277893q1.03125 -0.6716614 2.234375 -0.67141724q1.953125 4.119873E-4 3.03125 1.2975159q1.09375 1.2814789 1.09375 3.687729l0 0.703125l-6.796875 -0.0014190674q0.03125 1.484375 0.859375 2.4064178q0.84375 0.9064331 2.125 0.9066925q0.90625 1.9836426E-4 1.53125 -0.35905457q0.640625 -0.37486267 1.109375 -0.98413086l1.046875 0.8127136q-1.265625 1.9372406 -3.78125 1.9367065zm-0.21875 -9.000046q-1.03125 -2.1362305E-4 -1.75 0.7652588q-0.703125 0.7498627 -0.859375 2.1092072l5.015625 0.0010375977l0 -0.125q-0.0625 -1.3125153 -0.703125 -2.0314026q-0.625 -0.7188721 -1.703125 -0.71910095zm7.555725 -1.2171783l0.0625 1.2500153q1.140625 -1.4372559 3.0 -1.4368744q3.1875 6.713867E-4 3.203125 3.5787964l0 6.640625l-1.703125 -3.5095215E-4l0 -6.640625q-0.015625 -1.0937653 -0.5 -1.6094818q-0.484375 -0.5157318 -1.515625 -0.51594543q-0.84375 -1.6784668E-4 -1.46875 0.45281982q-0.625 0.43737793 -0.984375 1.1560516l0 7.15625l-1.71875 -3.6621094E-4l0 -10.03125l1.625 3.3569336E-4z" fill-rule="nonzero"></path><path fill="#000000" fill-opacity="0.0" d="m1084.2096 148.47395l151.21252 0.03149414l0 30.803146l-151.21252 -0.03149414z" fill-rule="evenodd"></path><path fill="#000000" d="m1120.3029 162.93271l0 2.4375l1.875 3.9672852E-4l0 1.3125l-1.875 -3.9672852E-4l0 6.234375q0 0.59375 0.25 0.90631104q0.25 0.29692078 0.859375 0.2970581q0.296875 6.1035156E-5 0.8125 -0.10920715l0 1.390625q-0.671875 0.18734741 -1.3125 0.18722534q-1.15625 -2.4414062E-4 -1.75 -0.6878662q-0.578125 -0.7032471 -0.578125 -1.9844971l0 -6.234375l-1.828125 -3.8146973E-4l0 -1.3125l1.828125 3.8146973E-4l0 -2.4375l1.71875 3.5095215E-4zm5.4848633 3.6417694q1.140625 -1.3903809 2.96875 -1.3899994q3.1875 6.5612793E-4 3.203125 3.5787964l0 6.640625l-1.703125 -3.6621094E-4l0 -6.640625q-0.015625 -1.09375 -0.5 -1.6094818q-0.484375 -0.51571655 -1.515625 -0.5159302q-0.84375 -1.8310547E-4 -1.46875 0.45281982q-0.625 0.43736267 -0.984375 1.1560364l0 7.15625l-1.71875 -3.5095215E-4l0 -14.25l1.71875 3.5095215E-4l0 5.421875zm12.728638 9.01828q-2.046875 -4.272461E-4 -3.328125 -1.3444366q-1.28125 -1.3440247 -1.28125 -3.5783997l0 -0.328125q0 -1.484375 0.5625 -2.656128q0.578125 -1.1717529 1.59375 -1.8277893q1.03125 -0.6716614 2.234375 -0.67141724q1.953125 4.119873E-4 3.03125 1.2975006q1.09375 1.2814789 1.09375 3.687729l0 0.703125l-6.796875 -0.0014038086q0.03125 1.484375 0.859375 2.4064178q0.84375 0.9064331 2.125 0.9066925q0.90625 1.9836426E-4 1.53125 -0.35905457q0.640625 -0.37486267 1.109375 -0.9841461l1.046875 0.8127289q-1.265625 1.9372253 -3.78125 1.9367065zm-0.21875 -9.000046q-1.03125 -2.1362305E-4 -1.75 0.7652588q-0.703125 0.7498627 -0.859375 2.109192l5.015625 0.0010528564l0 -0.125q-0.0625 -1.3125153 -0.703125 -2.0314026q-0.625 -0.7188721 -1.703125 -0.71910095zm11.705444 2.8461914l5.796875 2.3449554l0 1.8125l-7.578125 -3.5171967l0 -1.359375l7.578125 -3.4984283l0 1.8125l-5.796875 2.4050446zm10.373657 0.6896515l0 5.28125l-1.78125 -3.6621094E-4l0 -13.515625l4.984375 0.0010375977q2.21875 4.5776367E-4 3.46875 1.1413574q1.265625 1.1252594 1.265625 3.0002594q0 1.96875 -1.234375 3.0309906q-1.21875 1.0622406 -3.515625 1.0617676l-3.1875 -6.713867E-4zm0 -1.46875l3.203125 6.713867E-4q1.4375 3.0517578E-4 2.1875 -0.67141724q0.765625 -0.6717224 0.765625 -1.9373474q0 -1.203125 -0.765625 -1.9220276q-0.75 -0.7345276 -2.078125 -0.76605225l-3.3125 -7.019043E-4l0 5.296875zm17.45691 3.2223969l-5.65625 -0.0011749268l-1.28125 3.5309753l-1.828125 -3.8146973E-4l5.15625 -13.514557l1.5625 3.3569336E-4l5.15625 13.516693l-1.828125 -3.8146973E-4l-1.28125 -3.5315094zm-5.125 -1.4541931l4.59375 9.460449E-4l-2.296875 -6.328598l-2.296875 6.327652zm9.826538 4.9864197l0 -13.515625l3.8125 7.9345703E-4q1.765625 3.6621094E-4 3.125 0.7819061q1.359375 0.78152466 2.09375 2.2191772q0.734375 1.4376526 0.75 3.3126526l0 0.859375q0 1.90625 -0.75 3.3435974q-0.734375 1.4373474 -2.109375 2.2183075q-1.359375 0.76535034 -3.171875 0.7805939l-3.75 -7.7819824E-4zm1.78125 -12.046509l0 10.59375l1.875 3.9672852E-4q2.0625 4.272461E-4 3.203125 -1.2805786q1.15625 -1.2810211 1.15625 -3.656021l0 -0.78125q0 -2.296875 -1.09375 -3.578354q-1.078125 -1.2814636 -3.0625 -1.2975006l-2.078125 -4.4250488E-4zm16.265259 6.0190125l-6.125 -2.4075165l0 -1.765625l7.921875 3.517273l0 1.359375l-7.921875 3.513977l0 -1.78125l6.125 -2.4362335z" fill-rule="nonzero"></path></g></svg>

