<?xml version="1.0" standalone="yes"?>

<svg version="1.1" viewBox="0.0 0.0 960.0 720.0" fill="none" stroke="none" stroke-linecap="square" stroke-miterlimit="10" xmlns="http://www.w3.org/2000/svg" xmlns:xlink="http://www.w3.org/1999/xlink"><clipPath id="p.0"><path d="m0 0l960.0 0l0 720.0l-960.0 0l0 -720.0z" clip-rule="nonzero"></path></clipPath><g clip-path="url(#p.0)"><path fill="#ffffff" d="m0 0l960.0 0l0 720.0l-960.0 0z" fill-rule="evenodd"></path><path fill="#ffffff" d="m13.035433 418.1133l230.58267 0l0 56.53543l-230.58267 0z" fill-rule="evenodd"></path><path stroke="#000000" stroke-width="1.0" stroke-linejoin="round" stroke-linecap="butt" d="m13.035433 418.1133l230.58267 0l0 56.53543l-230.58267 0z" fill-rule="evenodd"></path><path fill="#f05732" d="m186.01181 446.38104l0 0c0 -13.176575 11.4713745 -23.858276 25.622055 -23.858276l0 0c14.150665 0 25.62204 10.681702 25.62204 23.858276l0 0c0 13.176544 -11.4713745 23.858276 -25.62204 23.858276l0 0c-14.150681 0 -25.622055 -10.681732 -25.622055 -23.858276z" fill-rule="evenodd"></path><path stroke="#000000" stroke-width="1.0" stroke-linejoin="round" stroke-linecap="butt" d="m186.01181 446.38104l0 0c0 -13.176575 11.4713745 -23.858276 25.622055 -23.858276l0 0c14.150665 0 25.62204 10.681702 25.62204 23.858276l0 0c0 13.176544 -11.4713745 23.858276 -25.62204 23.858276l0 0c-14.150681 0 -25.622055 -10.681732 -25.622055 -23.858276z" fill-rule="evenodd"></path><path fill="#f05732" d="m129.78609 446.38104l0 0c0 -13.176575 11.47139 -23.858276 25.622055 -23.858276l0 0c14.150665 0 25.62204 10.681702 25.62204 23.858276l0 0c0 13.176544 -11.4713745 23.858276 -25.62204 23.858276l0 0c-14.150665 0 -25.622055 -10.681732 -25.622055 -23.858276z" fill-rule="evenodd"></path><path stroke="#000000" stroke-width="1.0" stroke-linejoin="round" stroke-linecap="butt" d="m129.78609 446.38104l0 0c0 -13.176575 11.47139 -23.858276 25.622055 -23.858276l0 0c14.150665 0 25.62204 10.681702 25.62204 23.858276l0 0c0 13.176544 -11.4713745 23.858276 -25.62204 23.858276l0 0c-14.150665 0 -25.622055 -10.681732 -25.622055 -23.858276z" fill-rule="evenodd"></path><path fill="#f05732" d="m73.56036 446.38104l0 0c0 -13.176575 11.471382 -23.858276 25.622047 -23.858276l0 0c14.150673 0 25.622047 10.681702 25.622047 23.858276l0 0c0 13.176544 -11.4713745 23.858276 -25.622047 23.858276l0 0c-14.150665 0 -25.622047 -10.681732 -25.622047 -23.858276z" fill-rule="evenodd"></path><path stroke="#000000" stroke-width="1.0" stroke-linejoin="round" stroke-linecap="butt" d="m73.56036 446.38104l0 0c0 -13.176575 11.471382 -23.858276 25.622047 -23.858276l0 0c14.150673 0 25.622047 10.681702 25.622047 23.858276l0 0c0 13.176544 -11.4713745 23.858276 -25.622047 23.858276l0 0c-14.150665 0 -25.622047 -10.681732 -25.622047 -23.858276z" fill-rule="evenodd"></path><path fill="#ffffff" d="m153.82677 247.5884l173.07088 0l0 56.535416l-173.07088 0z" fill-rule="evenodd"></path><path stroke="#000000" stroke-width="1.0" stroke-linejoin="round" stroke-linecap="butt" d="m153.82677 247.5884l173.07088 0l0 56.535416l-173.07088 0z" fill-rule="evenodd"></path><path fill="#942174" d="m270.57742 275.8561l0 0c0 -13.176575 11.4713745 -23.858276 25.62204 -23.858276l0 0c14.150665 0 25.62207 10.681702 25.62207 23.858276l0 0c0 13.176544 -11.471405 23.858276 -25.62207 23.858276l0 0c-14.150665 0 -25.62204 -10.681732 -25.62204 -23.858276z" fill-rule="evenodd"></path><path stroke="#000000" stroke-width="1.0" stroke-linejoin="round" stroke-linecap="butt" d="m270.57742 275.8561l0 0c0 -13.176575 11.4713745 -23.858276 25.62204 -23.858276l0 0c14.150665 0 25.62207 10.681702 25.62207 23.858276l0 0c0 13.176544 -11.471405 23.858276 -25.62207 23.858276l0 0c-14.150665 0 -25.62204 -10.681732 -25.62204 -23.858276z" fill-rule="evenodd"></path><path fill="#942174" d="m214.3517 275.8561l0 0c0 -13.176575 11.47139 -23.858276 25.622055 -23.858276l0 0c14.150665 0 25.62204 10.681702 25.62204 23.858276l0 0c0 13.176544 -11.4713745 23.858276 -25.62204 23.858276l0 0c-14.150665 0 -25.622055 -10.681732 -25.622055 -23.858276z" fill-rule="evenodd"></path><path stroke="#000000" stroke-width="1.0" stroke-linejoin="round" stroke-linecap="butt" d="m214.3517 275.8561l0 0c0 -13.176575 11.47139 -23.858276 25.622055 -23.858276l0 0c14.150665 0 25.62204 10.681702 25.62204 23.858276l0 0c0 13.176544 -11.4713745 23.858276 -25.62204 23.858276l0 0c-14.150665 0 -25.622055 -10.681732 -25.622055 -23.858276z" fill-rule="evenodd"></path><path fill="#942174" d="m158.12599 275.8561l0 0c0 -13.176575 11.4713745 -23.858276 25.62204 -23.858276l0 0c14.150665 0 25.62204 10.681702 25.62204 23.858276l0 0c0 13.176544 -11.4713745 23.858276 -25.62204 23.858276l0 0c-14.150665 0 -25.62204 -10.681732 -25.62204 -23.858276z" fill-rule="evenodd"></path><path stroke="#000000" stroke-width="1.0" stroke-linejoin="round" stroke-linecap="butt" d="m158.12599 275.8561l0 0c0 -13.176575 11.4713745 -23.858276 25.62204 -23.858276l0 0c14.150665 0 25.62204 10.681702 25.62204 23.858276l0 0c0 13.176544 -11.4713745 23.858276 -25.62204 23.858276l0 0c-14.150665 0 -25.62204 -10.681732 -25.62204 -23.858276z" fill-rule="evenodd"></path><path fill="#ffffff" d="m247.48425 418.1133l230.58267 0l0 56.53543l-230.58267 0z" fill-rule="evenodd"></path><path stroke="#000000" stroke-width="1.0" stroke-linejoin="round" stroke-linecap="butt" d="m247.48425 418.1133l230.58267 0l0 56.53543l-230.58267 0z" fill-rule="evenodd"></path><path fill="#f05732" d="m420.46063 446.38104l0 0c0 -13.176575 11.4713745 -23.858276 25.62204 -23.858276l0 0c14.150665 0 25.62204 10.681702 25.62204 23.858276l0 0c0 13.176544 -11.4713745 23.858276 -25.62204 23.858276l0 0c-14.150665 0 -25.62204 -10.681732 -25.62204 -23.858276z" fill-rule="evenodd"></path><path stroke="#000000" stroke-width="1.0" stroke-linejoin="round" stroke-linecap="butt" d="m420.46063 446.38104l0 0c0 -13.176575 11.4713745 -23.858276 25.62204 -23.858276l0 0c14.150665 0 25.62204 10.681702 25.62204 23.858276l0 0c0 13.176544 -11.4713745 23.858276 -25.62204 23.858276l0 0c-14.150665 0 -25.62204 -10.681732 -25.62204 -23.858276z" fill-rule="evenodd"></path><path fill="#f05732" d="m364.2349 446.38104l0 0c0 -13.176575 11.471405 -23.858276 25.62207 -23.858276l0 0c14.150665 0 25.62204 10.681702 25.62204 23.858276l0 0c0 13.176544 -11.4713745 23.858276 -25.62204 23.858276l0 0c-14.150665 0 -25.62207 -10.681732 -25.62207 -23.858276z" fill-rule="evenodd"></path><path stroke="#000000" stroke-width="1.0" stroke-linejoin="round" stroke-linecap="butt" d="m364.2349 446.38104l0 0c0 -13.176575 11.471405 -23.858276 25.62207 -23.858276l0 0c14.150665 0 25.62204 10.681702 25.62204 23.858276l0 0c0 13.176544 -11.4713745 23.858276 -25.62204 23.858276l0 0c-14.150665 0 -25.62207 -10.681732 -25.62207 -23.858276z" fill-rule="evenodd"></path><path fill="#f05732" d="m308.0092 446.38104l0 0c0 -13.176575 11.4713745 -23.858276 25.62204 -23.858276l0 0c14.150665 0 25.62207 10.681702 25.62207 23.858276l0 0c0 13.176544 -11.471405 23.858276 -25.62207 23.858276l0 0c-14.150665 0 -25.62204 -10.681732 -25.62204 -23.858276z" fill-rule="evenodd"></path><path stroke="#000000" stroke-width="1.0" stroke-linejoin="round" stroke-linecap="butt" d="m308.0092 446.38104l0 0c0 -13.176575 11.4713745 -23.858276 25.62204 -23.858276l0 0c14.150665 0 25.62207 10.681702 25.62207 23.858276l0 0c0 13.176544 -11.471405 23.858276 -25.62207 23.858276l0 0c-14.150665 0 -25.62204 -10.681732 -25.62204 -23.858276z" fill-rule="evenodd"></path><path fill="#f05732" d="m251.78346 446.38104l0 0c0 -13.176575 11.47139 -23.858276 25.622055 -23.858276l0 0c14.150665 0 25.62204 10.681702 25.62204 23.858276l0 0c0 13.176544 -11.4713745 23.858276 -25.62204 23.858276l0 0c-14.150665 0 -25.622055 -10.681732 -25.622055 -23.858276z" fill-rule="evenodd"></path><path stroke="#000000" stroke-width="1.0" stroke-linejoin="round" stroke-linecap="butt" d="m251.78346 446.38104l0 0c0 -13.176575 11.47139 -23.858276 25.622055 -23.858276l0 0c14.150665 0 25.62204 10.681702 25.62204 23.858276l0 0c0 13.176544 -11.4713745 23.858276 -25.62204 23.858276l0 0c-14.150665 0 -25.622055 -10.681732 -25.622055 -23.858276z" fill-rule="evenodd"></path><path fill="#ffffff" d="m393.85303 247.5884l173.07086 0l0 56.535416l-173.07086 0z" fill-rule="evenodd"></path><path stroke="#000000" stroke-width="1.0" stroke-linejoin="round" stroke-linecap="butt" d="m393.85303 247.5884l173.07086 0l0 56.535416l-173.07086 0z" fill-rule="evenodd"></path><path fill="#942174" d="m510.60367 275.8561l0 0c0 -13.176575 11.471405 -23.858276 25.62204 -23.858276l0 0c14.150696 0 25.62207 10.681702 25.62207 23.858276l0 0c0 13.176544 -11.4713745 23.858276 -25.62207 23.858276l0 0c-14.150635 0 -25.62204 -10.681732 -25.62204 -23.858276z" fill-rule="evenodd"></path><path stroke="#000000" stroke-width="1.0" stroke-linejoin="round" stroke-linecap="butt" d="m510.60367 275.8561l0 0c0 -13.176575 11.471405 -23.858276 25.62204 -23.858276l0 0c14.150696 0 25.62207 10.681702 25.62207 23.858276l0 0c0 13.176544 -11.4713745 23.858276 -25.62207 23.858276l0 0c-14.150635 0 -25.62204 -10.681732 -25.62204 -23.858276z" fill-rule="evenodd"></path><path fill="#942174" d="m454.37796 275.8561l0 0c0 -13.176575 11.4713745 -23.858276 25.62204 -23.858276l0 0c14.150665 0 25.62204 10.681702 25.62204 23.858276l0 0c0 13.176544 -11.4713745 23.858276 -25.62204 23.858276l0 0c-14.150665 0 -25.62204 -10.681732 -25.62204 -23.858276z" fill-rule="evenodd"></path><path stroke="#000000" stroke-width="1.0" stroke-linejoin="round" stroke-linecap="butt" d="m454.37796 275.8561l0 0c0 -13.176575 11.4713745 -23.858276 25.62204 -23.858276l0 0c14.150665 0 25.62204 10.681702 25.62204 23.858276l0 0c0 13.176544 -11.4713745 23.858276 -25.62204 23.858276l0 0c-14.150665 0 -25.62204 -10.681732 -25.62204 -23.858276z" fill-rule="evenodd"></path><path fill="#942174" d="m398.15222 275.8561l0 0c0 -13.176575 11.471405 -23.858276 25.62207 -23.858276l0 0c14.150665 0 25.62204 10.681702 25.62204 23.858276l0 0c0 13.176544 -11.4713745 23.858276 -25.62204 23.858276l0 0c-14.150665 0 -25.62207 -10.681732 -25.62207 -23.858276z" fill-rule="evenodd"></path><path stroke="#000000" stroke-width="1.0" stroke-linejoin="round" stroke-linecap="butt" d="m398.15222 275.8561l0 0c0 -13.176575 11.471405 -23.858276 25.62207 -23.858276l0 0c14.150665 0 25.62204 10.681702 25.62204 23.858276l0 0c0 13.176544 -11.4713745 23.858276 -25.62204 23.858276l0 0c-14.150665 0 -25.62207 -10.681732 -25.62207 -23.858276z" fill-rule="evenodd"></path><path fill="#ffffff" d="m481.93307 418.1133l230.58267 0l0 56.53543l-230.58267 0z" fill-rule="evenodd"></path><path stroke="#000000" stroke-width="1.0" stroke-linejoin="round" stroke-linecap="butt" d="m481.93307 418.1133l230.58267 0l0 56.53543l-230.58267 0z" fill-rule="evenodd"></path><path fill="#f05732" d="m654.9094 446.38104l0 0c0 -13.176575 11.471436 -23.858276 25.62207 -23.858276l0 0c14.150696 0 25.62207 10.681702 25.62207 23.858276l0 0c0 13.176544 -11.4713745 23.858276 -25.62207 23.858276l0 0c-14.150635 0 -25.62207 -10.681732 -25.62207 -23.858276z" fill-rule="evenodd"></path><path stroke="#000000" stroke-width="1.0" stroke-linejoin="round" stroke-linecap="butt" d="m654.9094 446.38104l0 0c0 -13.176575 11.471436 -23.858276 25.62207 -23.858276l0 0c14.150696 0 25.62207 10.681702 25.62207 23.858276l0 0c0 13.176544 -11.4713745 23.858276 -25.62207 23.858276l0 0c-14.150635 0 -25.62207 -10.681732 -25.62207 -23.858276z" fill-rule="evenodd"></path><path fill="#f05732" d="m598.6837 446.38104l0 0c0 -13.176575 11.4713745 -23.858276 25.62207 -23.858276l0 0c14.150635 0 25.62201 10.681702 25.62201 23.858276l0 0c0 13.176544 -11.4713745 23.858276 -25.62201 23.858276l0 0c-14.150696 0 -25.62207 -10.681732 -25.62207 -23.858276z" fill-rule="evenodd"></path><path stroke="#000000" stroke-width="1.0" stroke-linejoin="round" stroke-linecap="butt" d="m598.6837 446.38104l0 0c0 -13.176575 11.4713745 -23.858276 25.62207 -23.858276l0 0c14.150635 0 25.62201 10.681702 25.62201 23.858276l0 0c0 13.176544 -11.4713745 23.858276 -25.62201 23.858276l0 0c-14.150696 0 -25.62207 -10.681732 -25.62207 -23.858276z" fill-rule="evenodd"></path><path fill="#f05732" d="m542.458 446.38104l0 0c0 -13.176575 11.4713745 -23.858276 25.62207 -23.858276l0 0c14.150635 0 25.62201 10.681702 25.62201 23.858276l0 0c0 13.176544 -11.4713745 23.858276 -25.62201 23.858276l0 0c-14.150696 0 -25.62207 -10.681732 -25.62207 -23.858276z" fill-rule="evenodd"></path><path stroke="#000000" stroke-width="1.0" stroke-linejoin="round" stroke-linecap="butt" d="m542.458 446.38104l0 0c0 -13.176575 11.4713745 -23.858276 25.62207 -23.858276l0 0c14.150635 0 25.62201 10.681702 25.62201 23.858276l0 0c0 13.176544 -11.4713745 23.858276 -25.62201 23.858276l0 0c-14.150696 0 -25.62207 -10.681732 -25.62207 -23.858276z" fill-rule="evenodd"></path><path fill="#f05732" d="m486.23227 446.38104l0 0c0 -13.176575 11.471405 -23.858276 25.62207 -23.858276l0 0c14.150665 0 25.62204 10.681702 25.62204 23.858276l0 0c0 13.176544 -11.4713745 23.858276 -25.62204 23.858276l0 0c-14.150665 0 -25.62207 -10.681732 -25.62207 -23.858276z" fill-rule="evenodd"></path><path stroke="#000000" stroke-width="1.0" stroke-linejoin="round" stroke-linecap="butt" d="m486.23227 446.38104l0 0c0 -13.176575 11.471405 -23.858276 25.62207 -23.858276l0 0c14.150665 0 25.62204 10.681702 25.62204 23.858276l0 0c0 13.176544 -11.4713745 23.858276 -25.62204 23.858276l0 0c-14.150665 0 -25.62207 -10.681732 -25.62207 -23.858276z" fill-rule="evenodd"></path><path fill="#ffffff" d="m716.3819 418.1133l230.58264 0l0 56.53543l-230.58264 0z" fill-rule="evenodd"></path><path stroke="#000000" stroke-width="1.0" stroke-linejoin="round" stroke-linecap="butt" d="m716.3819 418.1133l230.58264 0l0 56.53543l-230.58264 0z" fill-rule="evenodd"></path><path fill="#f05732" d="m889.3583 446.38104l0 0c0 -13.176575 11.4713745 -23.858276 25.62201 -23.858276l0 0c14.150696 0 25.62207 10.681702 25.62207 23.858276l0 0c0 13.176544 -11.4713745 23.858276 -25.62207 23.858276l0 0c-14.150635 0 -25.62201 -10.681732 -25.62201 -23.858276z" fill-rule="evenodd"></path><path stroke="#000000" stroke-width="1.0" stroke-linejoin="round" stroke-linecap="butt" d="m889.3583 446.38104l0 0c0 -13.176575 11.4713745 -23.858276 25.62201 -23.858276l0 0c14.150696 0 25.62207 10.681702 25.62207 23.858276l0 0c0 13.176544 -11.4713745 23.858276 -25.62207 23.858276l0 0c-14.150635 0 -25.62201 -10.681732 -25.62201 -23.858276z" fill-rule="evenodd"></path><path fill="#f05732" d="m833.13257 446.38104l0 0c0 -13.176575 11.4713745 -23.858276 25.62201 -23.858276l0 0c14.150696 0 25.62207 10.681702 25.62207 23.858276l0 0c0 13.176544 -11.4713745 23.858276 -25.62207 23.858276l0 0c-14.150635 0 -25.62201 -10.681732 -25.62201 -23.858276z" fill-rule="evenodd"></path><path stroke="#000000" stroke-width="1.0" stroke-linejoin="round" stroke-linecap="butt" d="m833.13257 446.38104l0 0c0 -13.176575 11.4713745 -23.858276 25.62201 -23.858276l0 0c14.150696 0 25.62207 10.681702 25.62207 23.858276l0 0c0 13.176544 -11.4713745 23.858276 -25.62207 23.858276l0 0c-14.150635 0 -25.62201 -10.681732 -25.62201 -23.858276z" fill-rule="evenodd"></path><path fill="#f05732" d="m776.9068 446.38104l0 0c0 -13.176575 11.471436 -23.858276 25.62207 -23.858276l0 0c14.150696 0 25.62207 10.681702 25.62207 23.858276l0 0c0 13.176544 -11.4713745 23.858276 -25.62207 23.858276l0 0c-14.150635 0 -25.62207 -10.681732 -25.62207 -23.858276z" fill-rule="evenodd"></path><path stroke="#000000" stroke-width="1.0" stroke-linejoin="round" stroke-linecap="butt" d="m776.9068 446.38104l0 0c0 -13.176575 11.471436 -23.858276 25.62207 -23.858276l0 0c14.150696 0 25.62207 10.681702 25.62207 23.858276l0 0c0 13.176544 -11.4713745 23.858276 -25.62207 23.858276l0 0c-14.150635 0 -25.62207 -10.681732 -25.62207 -23.858276z" fill-rule="evenodd"></path><path fill="#f05732" d="m720.6811 446.38104l0 0c0 -13.176575 11.4713745 -23.858276 25.62207 -23.858276l0 0c14.150635 0 25.62201 10.681702 25.62201 23.858276l0 0c0 13.176544 -11.4713745 23.858276 -25.62201 23.858276l0 0c-14.150696 0 -25.62207 -10.681732 -25.62207 -23.858276z" fill-rule="evenodd"></path><path stroke="#000000" stroke-width="1.0" stroke-linejoin="round" stroke-linecap="butt" d="m720.6811 446.38104l0 0c0 -13.176575 11.4713745 -23.858276 25.62207 -23.858276l0 0c14.150635 0 25.62201 10.681702 25.62201 23.858276l0 0c0 13.176544 -11.4713745 23.858276 -25.62201 23.858276l0 0c-14.150696 0 -25.62207 -10.681732 -25.62207 -23.858276z" fill-rule="evenodd"></path><path fill="#ffffff" d="m629.5801 247.5884l173.07086 0l0 56.535416l-173.07086 0z" fill-rule="evenodd"></path><path stroke="#000000" stroke-width="1.0" stroke-linejoin="round" stroke-linecap="butt" d="m629.5801 247.5884l173.07086 0l0 56.535416l-173.07086 0z" fill-rule="evenodd"></path><path fill="#942174" d="m746.3307 275.8561l0 0c0 -13.176575 11.4713745 -23.858276 25.62207 -23.858276l0 0c14.150635 0 25.62207 10.681702 25.62207 23.858276l0 0c0 13.176544 -11.471436 23.858276 -25.62207 23.858276l0 0c-14.150696 0 -25.62207 -10.681732 -25.62207 -23.858276z" fill-rule="evenodd"></path><path stroke="#000000" stroke-width="1.0" stroke-linejoin="round" stroke-linecap="butt" d="m746.3307 275.8561l0 0c0 -13.176575 11.4713745 -23.858276 25.62207 -23.858276l0 0c14.150635 0 25.62207 10.681702 25.62207 23.858276l0 0c0 13.176544 -11.471436 23.858276 -25.62207 23.858276l0 0c-14.150696 0 -25.62207 -10.681732 -25.62207 -23.858276z" fill-rule="evenodd"></path><path fill="#942174" d="m690.105 275.8561l0 0c0 -13.176575 11.4713745 -23.858276 25.62207 -23.858276l0 0c14.150635 0 25.62201 10.681702 25.62201 23.858276l0 0c0 13.176544 -11.4713745 23.858276 -25.62201 23.858276l0 0c-14.150696 0 -25.62207 -10.681732 -25.62207 -23.858276z" fill-rule="evenodd"></path><path stroke="#000000" stroke-width="1.0" stroke-linejoin="round" stroke-linecap="butt" d="m690.105 275.8561l0 0c0 -13.176575 11.4713745 -23.858276 25.62207 -23.858276l0 0c14.150635 0 25.62201 10.681702 25.62201 23.858276l0 0c0 13.176544 -11.4713745 23.858276 -25.62201 23.858276l0 0c-14.150696 0 -25.62207 -10.681732 -25.62207 -23.858276z" fill-rule="evenodd"></path><path fill="#942174" d="m633.8793 275.8561l0 0c0 -13.176575 11.4713745 -23.858276 25.62207 -23.858276l0 0c14.150635 0 25.62201 10.681702 25.62201 23.858276l0 0c0 13.176544 -11.4713745 23.858276 -25.62201 23.858276l0 0c-14.150696 0 -25.62207 -10.681732 -25.62207 -23.858276z" fill-rule="evenodd"></path><path stroke="#000000" stroke-width="1.0" stroke-linejoin="round" stroke-linecap="butt" d="m633.8793 275.8561l0 0c0 -13.176575 11.4713745 -23.858276 25.62207 -23.858276l0 0c14.150635 0 25.62201 10.681702 25.62201 23.858276l0 0c0 13.176544 -11.4713745 23.858276 -25.62201 23.858276l0 0c-14.150696 0 -25.62207 -10.681732 -25.62207 -23.858276z" fill-rule="evenodd"></path><path fill="#000000" fill-opacity="0.0" d="m14.968504 416.4834l137.19685 -112.0" fill-rule="evenodd"></path><path stroke="#000000" stroke-width="2.0" stroke-linejoin="round" stroke-linecap="butt" d="m14.968504 416.4834l137.19685 -112.0" fill-rule="evenodd"></path><path fill="#000000" fill-opacity="0.0" d="m328.5643 304.4834l150.26773 114.80316" fill-rule="evenodd"></path><path stroke="#000000" stroke-width="2.0" stroke-linejoin="round" stroke-linecap="butt" d="m328.5643 304.4834l150.26773 114.80316" fill-rule="evenodd"></path><path fill="#000000" fill-opacity="0.0" d="m390.98688 301.33905l-146.4252 115.1496" fill-rule="evenodd"></path><path stroke="#b7b7b7" stroke-width="2.0" stroke-linejoin="round" stroke-linecap="butt" stroke-dasharray="16.0,6.0" d="m390.98688 301.33905l-146.4252 115.1496" fill-rule="evenodd"></path><path fill="#000000" fill-opacity="0.0" d="m627.03735 305.06976l-143.52759 110.48819" fill-rule="evenodd"></path><path stroke="#b7b7b7" stroke-width="2.0" stroke-linejoin="round" stroke-linecap="butt" stroke-dasharray="16.0,6.0" d="m627.03735 305.06976l-143.52759 110.48819" fill-rule="evenodd"></path><path fill="#000000" fill-opacity="0.0" d="m802.55646 301.1028l143.87396 117.25986" fill-rule="evenodd"></path><path stroke="#b7b7b7" stroke-width="2.0" stroke-linejoin="round" stroke-linecap="butt" stroke-dasharray="16.0,6.0" d="m802.55646 301.1028l143.87396 117.25986" fill-rule="evenodd"></path><path fill="#000000" fill-opacity="0.0" d="m565.8884 301.1028l146.26776 116.31497" fill-rule="evenodd"></path><path stroke="#b7b7b7" stroke-width="2.0" stroke-linejoin="round" stroke-linecap="butt" stroke-dasharray="16.0,6.0" d="m565.8884 301.1028l146.26776 116.31497" fill-rule="evenodd"></path><path fill="#000000" fill-opacity="0.0" d="m46.366142 475.05557l151.21259 0l0 30.803162l-151.21259 0z" fill-rule="evenodd"></path><path fill="#000000" d="m101.84744 488.45996l4.40625 11.03125l4.421875 -11.03125l2.3125 0l0 13.515625l-1.78125 0l0 -5.265625l0.15625 -5.671875l-4.421875 10.9375l-1.375 0l-4.421875 -10.90625l0.171875 5.640625l0 5.265625l-1.78125 0l0 -13.515625l2.3125 0zm19.91278 13.515625q-0.15625 -0.296875 -0.25 -1.0625q-1.1875 1.25 -2.859375 1.25q-1.484375 0 -2.4375 -0.84375q-0.9375 -0.84375 -0.9375 -2.125q0 -1.5625 1.1875 -2.4375q1.1875 -0.875 3.359375 -0.875l1.671875 0l0 -0.78125q0 -0.90625 -0.546875 -1.4375q-0.53125 -0.53125 -1.578125 -0.53125q-0.921875 0 -1.546875 0.46875q-0.625 0.46875 -0.625 1.125l-1.71875 0q0 -0.75 0.53125 -1.453125q0.53125 -0.703125 1.4375 -1.109375q0.921875 -0.40625 2.015625 -0.40625q1.734375 0 2.71875 0.875q0.984375 0.859375 1.015625 2.375l0 4.625q0 1.375 0.359375 2.1875l0 0.15625l-1.796875 0zm-2.859375 -1.3125q0.8125 0 1.53125 -0.40625q0.734375 -0.421875 1.0625 -1.09375l0 -2.0625l-1.359375 0q-3.140625 0 -3.140625 1.84375q0 0.8125 0.53125 1.265625q0.53125 0.453125 1.375 0.453125zm11.663605 -7.1875q-0.390625 -0.0625 -0.84375 -0.0625q-1.6875 0 -2.296875 1.4375l0 7.125l-1.71875 0l0 -10.03125l1.671875 0l0.03125 1.15625q0.84375 -1.34375 2.390625 -1.34375q0.5 0 0.765625 0.125l0 1.59375zm4.7347565 5.984375l2.34375 -7.515625l1.84375 0l-4.046875 11.578125q-0.9375 2.5 -2.96875 2.5l-0.328125 -0.015625l-0.640625 -0.125l0 -1.390625l0.46875 0.03125q0.859375 0 1.34375 -0.359375q0.5 -0.34375 0.8125 -1.28125l0.375 -1.015625l-3.578125 -9.921875l1.875 0l2.5 7.515625z" fill-rule="nonzero"></path><path fill="#000000" fill-opacity="0.0" d="m274.14304 475.05557l151.21262 0l0 30.803162l-151.21262 0z" fill-rule="evenodd"></path><path fill="#000000" d="m324.073 499.31934q0 -0.703125 -0.53125 -1.078125q-0.515625 -0.390625 -1.828125 -0.671875q-1.296875 -0.28125 -2.0625 -0.671875q-0.765625 -0.390625 -1.140625 -0.921875q-0.359375 -0.546875 -0.359375 -1.28125q0 -1.234375 1.046875 -2.078125q1.046875 -0.859375 2.671875 -0.859375q1.703125 0 2.765625 0.875q1.0625 0.875 1.0625 2.25l-1.71875 0q0 -0.703125 -0.609375 -1.203125q-0.59375 -0.515625 -1.5 -0.515625q-0.9375 0 -1.46875 0.40625q-0.53125 0.40625 -0.53125 1.0625q0 0.625 0.484375 0.9375q0.5 0.3125 1.78125 0.609375q1.296875 0.28125 2.09375 0.6875q0.796875 0.390625 1.171875 0.953125q0.390625 0.5625 0.390625 1.375q0 1.34375 -1.078125 2.15625q-1.078125 0.8125 -2.796875 0.8125q-1.203125 0 -2.125 -0.421875q-0.921875 -0.4375 -1.453125 -1.203125q-0.53125 -0.765625 -0.53125 -1.65625l1.71875 0q0.046875 0.859375 0.6875 1.375q0.65625 0.5 1.703125 0.5q0.984375 0 1.5625 -0.390625q0.59375 -0.390625 0.59375 -1.046875zm5.635254 2.65625l-1.703125 0l0 -14.25l1.703125 0l0 14.25zm8.871185 0q-0.15625 -0.296875 -0.25 -1.0625q-1.1875 1.25 -2.859375 1.25q-1.484375 0 -2.4375 -0.84375q-0.9375 -0.84375 -0.9375 -2.125q0 -1.5625 1.1875 -2.4375q1.1875 -0.875 3.359375 -0.875l1.671875 0l0 -0.78125q0 -0.90625 -0.546875 -1.4375q-0.53125 -0.53125 -1.578125 -0.53125q-0.921875 0 -1.546875 0.46875q-0.625 0.46875 -0.625 1.125l-1.71875 0q0 -0.75 0.53125 -1.453125q0.53125 -0.703125 1.4375 -1.109375q0.921875 -0.40625 2.015625 -0.40625q1.734375 0 2.71875 0.875q0.984375 0.859375 1.015625 2.375l0 4.625q0 1.375 0.359375 2.1875l0 0.15625l-1.796875 0zm-2.859375 -1.3125q0.8125 0 1.53125 -0.40625q0.734375 -0.421875 1.0625 -1.09375l0 -2.0625l-1.359375 0q-3.140625 0 -3.140625 1.84375q0 0.8125 0.53125 1.265625q0.53125 0.453125 1.375 0.453125zm15.288605 -3.59375q0 2.296875 -1.046875 3.703125q-1.046875 1.390625 -2.84375 1.390625q-1.828125 0 -2.875 -1.15625l0 4.828125l-1.71875 0l0 -13.890625l1.5625 0l0.09375 1.109375q1.046875 -1.296875 2.90625 -1.296875q1.8125 0 2.859375 1.359375q1.0625 1.359375 1.0625 3.796875l0 0.15625zm-1.71875 -0.203125q0 -1.6875 -0.734375 -2.671875q-0.71875 -0.984375 -1.96875 -0.984375q-1.5625 0 -2.34375 1.375l0 4.796875q0.765625 1.375 2.359375 1.375q1.234375 0 1.953125 -0.96875q0.734375 -0.984375 0.734375 -2.921875zm12.185547 0.203125q0 2.296875 -1.046875 3.703125q-1.046875 1.390625 -2.84375 1.390625q-1.828125 0 -2.875 -1.15625l0 4.828125l-1.71875 0l0 -13.890625l1.5625 0l0.09375 1.109375q1.046875 -1.296875 2.90625 -1.296875q1.8125 0 2.859375 1.359375q1.0625 1.359375 1.0625 3.796875l0 0.15625zm-1.71875 -0.203125q0 -1.6875 -0.734375 -2.671875q-0.71875 -0.984375 -1.96875 -0.984375q-1.5625 0 -2.34375 1.375l0 4.796875q0.765625 1.375 2.359375 1.375q1.234375 0 1.953125 -0.96875q0.734375 -0.984375 0.734375 -2.921875zm7.8730774 5.296875q-2.046875 0 -3.328125 -1.34375q-1.28125 -1.34375 -1.28125 -3.578125l0 -0.328125q0 -1.484375 0.5625 -2.65625q0.578125 -1.171875 1.59375 -1.828125q1.03125 -0.671875 2.234375 -0.671875q1.953125 0 3.03125 1.296875q1.09375 1.28125 1.09375 3.6875l0 0.703125l-6.796875 0q0.03125 1.484375 0.859375 2.40625q0.84375 0.90625 2.125 0.90625q0.90625 0 1.53125 -0.359375q0.640625 -0.375 1.109375 -0.984375l1.046875 0.8125q-1.265625 1.9375 -3.78125 1.9375zm-0.21875 -9.0q-1.03125 0 -1.75 0.765625q-0.703125 0.75 -0.859375 2.109375l5.015625 0l0 -0.125q-0.0625 -1.3125 -0.703125 -2.03125q-0.625 -0.71875 -1.703125 -0.71875zm5.508789 3.703125q0 -2.296875 1.09375 -3.703125q1.109375 -1.40625 2.875 -1.40625q1.765625 0 2.796875 1.203125l0 -5.234375l1.71875 0l0 14.25l-1.578125 0l-0.09375 -1.078125q-1.03125 1.265625 -2.859375 1.265625q-1.75 0 -2.859375 -1.421875q-1.09375 -1.4375 -1.09375 -3.734375l0 -0.140625zm1.71875 0.203125q0 1.703125 0.703125 2.671875q0.71875 0.96875 1.953125 0.96875q1.640625 0 2.390625 -1.46875l0 -4.609375q-0.78125 -1.421875 -2.375 -1.421875q-1.25 0 -1.96875 0.984375q-0.703125 0.96875 -0.703125 2.875z" fill-rule="nonzero"></path><path fill="#000000" fill-opacity="0.0" d="m509.8701 475.05557l151.21262 0l0 30.803162l-151.21262 0z" fill-rule="evenodd"></path><path fill="#000000" d="m575.9746 489.50684l0 2.4375l1.875 0l0 1.3125l-1.875 0l0 6.234375q0 0.59375 0.25 0.90625q0.25 0.296875 0.859375 0.296875q0.296875 0 0.8125 -0.109375l0 1.390625q-0.671875 0.1875 -1.3125 0.1875q-1.15625 0 -1.75 -0.6875q-0.578125 -0.703125 -0.578125 -1.984375l0 -6.234375l-1.828125 0l0 -1.3125l1.828125 0l0 -2.4375l1.71875 0zm5.4848633 3.640625q1.140625 -1.390625 2.96875 -1.390625q3.1875 0 3.203125 3.578125l0 6.640625l-1.703125 0l0 -6.640625q-0.015625 -1.09375 -0.5 -1.609375q-0.484375 -0.515625 -1.515625 -0.515625q-0.84375 0 -1.46875 0.453125q-0.625 0.4375 -0.984375 1.15625l0 7.15625l-1.71875 0l0 -14.25l1.71875 0l0 5.421875zm12.728638 9.015625q-2.046875 0 -3.328125 -1.34375q-1.28125 -1.34375 -1.28125 -3.578125l0 -0.328125q0 -1.484375 0.5625 -2.65625q0.578125 -1.171875 1.59375 -1.828125q1.03125 -0.671875 2.234375 -0.671875q1.953125 0 3.03125 1.296875q1.09375 1.28125 1.09375 3.6875l0 0.703125l-6.796875 0q0.03125 1.484375 0.859375 2.40625q0.84375 0.90625 2.125 0.90625q0.90625 0 1.53125 -0.359375q0.640625 -0.375 1.109375 -0.984375l1.046875 0.8125q-1.265625 1.9375 -3.78125 1.9375zm-0.21875 -9.0q-1.03125 0 -1.75 0.765625q-0.703125 0.75 -0.859375 2.109375l5.015625 0l0 -0.125q-0.0625 -1.3125 -0.703125 -2.03125q-0.625 -0.71875 -1.703125 -0.71875z" fill-rule="nonzero"></path><path fill="#000000" fill-opacity="0.0" d="m756.06696 475.05557l151.21259 0l0 30.803162l-151.21259 0z" fill-rule="evenodd"></path><path fill="#000000" d="m809.1433 496.8662q0 -2.34375 1.078125 -3.71875q1.09375 -1.390625 2.890625 -1.390625q1.828125 0 2.859375 1.296875l0.078125 -1.109375l1.578125 0l0 9.796875q0 1.9375 -1.15625 3.0625q-1.15625 1.125 -3.109375 1.125q-1.078125 0 -2.125 -0.46875q-1.03125 -0.453125 -1.578125 -1.265625l0.890625 -1.03125q1.09375 1.359375 2.6875 1.359375q1.265625 0 1.953125 -0.703125q0.703125 -0.703125 0.703125 -1.984375l0 -0.859375q-1.03125 1.1875 -2.8125 1.1875q-1.75 0 -2.84375 -1.421875q-1.09375 -1.421875 -1.09375 -3.875zm1.71875 0.203125q0 1.703125 0.703125 2.671875q0.703125 0.96875 1.953125 0.96875q1.625 0 2.375 -1.484375l0 -4.578125q-0.78125 -1.4375 -2.359375 -1.4375q-1.25 0 -1.96875 0.984375q-0.703125 0.96875 -0.703125 2.875zm14.013733 -3.59375q-0.390625 -0.0625 -0.84375 -0.0625q-1.6875 0 -2.296875 1.4375l0 7.125l-1.71875 0l0 -10.03125l1.671875 0l0.03125 1.15625q0.84375 -1.34375 2.390625 -1.34375q0.5 0 0.765625 0.125l0 1.59375zm5.625366 8.6875q-2.046875 0 -3.328125 -1.34375q-1.28125 -1.34375 -1.28125 -3.578125l0 -0.328125q0 -1.484375 0.5625 -2.65625q0.578125 -1.171875 1.59375 -1.828125q1.03125 -0.671875 2.234375 -0.671875q1.953125 0 3.03125 1.296875q1.09375 1.28125 1.09375 3.6875l0 0.703125l-6.796875 0q0.03125 1.484375 0.859375 2.40625q0.84375 0.90625 2.125 0.90625q0.90625 0 1.53125 -0.359375q0.640625 -0.375 1.109375 -0.984375l1.046875 0.8125q-1.265625 1.9375 -3.78125 1.9375zm-0.21875 -9.0q-1.03125 0 -1.75 0.765625q-0.703125 0.75 -0.859375 2.109375l5.015625 0l0 -0.125q-0.0625 -1.3125 -0.703125 -2.03125q-0.625 -0.71875 -1.703125 -0.71875zm10.102539 9.0q-2.046875 0 -3.328125 -1.34375q-1.28125 -1.34375 -1.28125 -3.578125l0 -0.328125q0 -1.484375 0.5625 -2.65625q0.578125 -1.171875 1.59375 -1.828125q1.03125 -0.671875 2.234375 -0.671875q1.953125 0 3.03125 1.296875q1.09375 1.28125 1.09375 3.6875l0 0.703125l-6.796875 0q0.03125 1.484375 0.859375 2.40625q0.84375 0.90625 2.125 0.90625q0.90625 0 1.53125 -0.359375q0.640625 -0.375 1.109375 -0.984375l1.046875 0.8125q-1.265625 1.9375 -3.78125 1.9375zm-0.21875 -9.0q-1.03125 0 -1.75 0.765625q-0.703125 0.75 -0.859375 2.109375l5.015625 0l0 -0.125q-0.0625 -1.3125 -0.703125 -2.03125q-0.625 -0.71875 -1.703125 -0.71875zm7.555664 -1.21875l0.0625 1.25q1.140625 -1.4375 3.0 -1.4375q3.1875 0 3.203125 3.578125l0 6.640625l-1.703125 0l0 -6.640625q-0.015625 -1.09375 -0.5 -1.609375q-0.484375 -0.515625 -1.515625 -0.515625q-0.84375 0 -1.46875 0.453125q-0.625 0.4375 -0.984375 1.15625l0 7.15625l-1.71875 0l0 -10.03125l1.625 0z" fill-rule="nonzero"></path><path fill="#000000" fill-opacity="0.0" d="m164.75482 214.14127l151.21262 0.03149414l0 30.803162l-151.21262 -0.03149414z" fill-rule="evenodd"></path><path fill="#000000" d="m188.32204 227.55055l4.40625 11.032166l4.421875 -11.030319l2.3125 4.7302246E-4l0 13.515625l-1.78125 -3.6621094E-4l0 -5.265625l0.15625 -5.6718445l-4.421875 10.936584l-1.375 -2.89917E-4l-4.421875 -10.907181l0.171875 5.640671l0 5.265625l-1.78125 -3.6621094E-4l0 -13.515625l2.3125 4.7302246E-4zm19.91278 13.519775q-0.15625 -0.29690552 -0.25 -1.0625458q-1.1875 1.2497406 -2.859375 1.2493896q-1.484375 -3.0517578E-4 -2.4375 -0.84425354q-0.9375 -0.84394836 -0.9375 -2.1251984q0 -1.5625 1.1875 -2.4372406q1.1875 -0.87475586 3.359375 -0.87431335l1.671875 3.5095215E-4l0 -0.78125q0 -0.90625 -0.546875 -1.4376068q-0.53125 -0.5313568 -1.578125 -0.5315857q-0.921875 -1.8310547E-4 -1.546875 0.46842957q-0.625 0.46862793 -0.625 1.1248779l-1.71875 -3.6621094E-4q0 -0.75 0.53125 -1.4530182q0.53125 -0.7030029 1.4375 -1.1090698q0.921875 -0.40605164 2.015625 -0.40582275q1.734375 3.5095215E-4 2.71875 0.8755646q0.984375 0.85957336 1.015625 2.3752136l0 4.625q0 1.375 0.359375 2.187561l0 0.15625l-1.796875 -3.6621094E-4zm-2.859375 -1.3130951q0.8125 1.6784668E-4 1.53125 -0.40592957q0.734375 -0.4217224 1.0625 -1.0935364l0 -2.0625l-1.359375 -2.746582E-4q-3.140625 -6.5612793E-4 -3.140625 1.8430939q0 0.8125 0.53125 1.2657318q0.53125 0.4532318 1.375 0.45341492zm11.663605 -7.185074q-0.390625 -0.062576294 -0.84375 -0.06266785q-1.6875 -3.5095215E-4 -2.296875 1.4370117l0 7.125l-1.71875 -3.5095215E-4l0 -10.03125l1.671875 3.5095215E-4l0.03125 1.15625q0.84375 -1.3435669 2.390625 -1.3432465q0.5 9.1552734E-5 0.765625 0.12515259l0 1.59375zm4.7347565 5.985367l2.34375 -7.5151367l1.84375 3.8146973E-4l-4.046875 11.577286q-0.9375 2.4998016 -2.96875 2.4993744l-0.328125 -0.015686035l-0.640625 -0.12513733l0 -1.390625l0.46875 0.031341553q0.859375 1.8310547E-4 1.34375 -0.35908508q0.5 -0.34365845 0.8125 -1.2810822l0.375 -1.0155487l-3.578125 -9.922623l1.875 3.9672852E-4l2.5 7.516144zm16.008118 -0.13729858q0 -0.703125 -0.53125 -1.0782318q-0.515625 -0.3907318 -1.828125 -0.67225647q-1.296875 -0.28152466 -2.0625 -0.67230225q-0.765625 -0.39079285 -1.140625 -0.92211914q-0.359375 -0.5469513 -0.359375 -1.2813263q0 -1.234375 1.046875 -2.077896q1.046875 -0.8591614 2.671875 -0.8588257q1.703125 3.5095215E-4 2.765625 0.87557983q1.0625 0.8752136 1.0625 2.2502136l-1.71875 -3.5095215E-4q0 -0.703125 -0.609375 -1.2032471q-0.59375 -0.5157471 -1.5 -0.51594543q-0.9375 -1.9836426E-4 -1.46875 0.40594482q-0.53125 0.4061432 -0.53125 1.0623932q0 0.625 0.484375 0.93759155q0.5 0.3126068 1.78125 0.60975647q1.296875 0.28152466 2.09375 0.68792725q0.796875 0.39079285 1.171875 0.95336914q0.390625 0.56259155 0.390625 1.3750916q0 1.34375 -1.078125 2.156021q-1.078125 0.8122711 -2.796875 0.81192017q-1.203125 -2.593994E-4 -2.125 -0.4223175q-0.921875 -0.43769836 -1.453125 -1.2034302q-0.53125 -0.7657318 -0.53125 -1.6563568l1.71875 3.5095215E-4q0.046875 0.85939026 0.6875 1.3751526q0.65625 0.5001373 1.703125 0.50035095q0.984375 1.9836426E-4 1.5625 -0.39030457q0.59375 -0.39050293 0.59375 -1.0467529zm5.635254 2.657425l-1.703125 -3.5095215E-4l0 -14.25l1.703125 3.5095215E-4l0 14.25zm8.87117 0.0018463135q-0.15625 -0.29690552 -0.25 -1.0625458q-1.1875 1.2497559 -2.859375 1.2494049q-1.484375 -3.0517578E-4 -2.4375 -0.84425354q-0.9375 -0.84394836 -0.9375 -2.1251984q0 -1.5625 1.1875 -2.4372559q1.1875 -0.87475586 3.359375 -0.8742981l1.671875 3.5095215E-4l0 -0.78125q0 -0.90625 -0.546875 -1.4376221q-0.53125 -0.5313568 -1.578125 -0.53157043q-0.921875 -1.9836426E-4 -1.546875 0.46842957q-0.625 0.46861267 -0.625 1.1248627l-1.71875 -3.5095215E-4q0 -0.75 0.53125 -1.4530182q0.53125 -0.7030182 1.4375 -1.1090851q0.921875 -0.40605164 2.015625 -0.40582275q1.734375 3.6621094E-4 2.71875 0.8755646q0.984375 0.85957336 1.015625 2.3752136l0 4.625q0 1.375 0.359375 2.1875763l0 0.15625l-1.796875 -3.8146973E-4zm-2.859375 -1.3130951q0.8125 1.6784668E-4 1.53125 -0.40592957q0.734375 -0.4217224 1.0625 -1.0935211l0 -2.0625l-1.359375 -2.89917E-4q-3.140625 -6.5612793E-4 -3.140625 1.8430939q0 0.8125 0.53125 1.2657318q0.53125 0.45324707 1.375 0.45341492zm15.2885895 -3.590561q0 2.296875 -1.046875 3.7029114q-1.046875 1.3903961 -2.84375 1.3900299q-1.828125 -3.8146973E-4 -2.875 -1.1568451l0 4.828125l-1.71875 -3.6621094E-4l0 -13.890625l1.5625 3.2043457E-4l0.09375 1.1094055q1.046875 -1.2966614 2.90625 -1.2962799q1.8125 3.8146973E-4 2.859375 1.3599701q1.0625 1.3596039 1.0625 3.797104l0 0.15625zm-1.71875 -0.20349121q0 -1.6875 -0.734375 -2.6720276q-0.71875 -0.9845123 -1.96875 -0.9847717q-1.5625 -3.3569336E-4 -2.34375 1.3745117l0 4.796875q0.765625 1.3751526 2.359375 1.3754883q1.234375 2.593994E-4 1.953125 -0.9683533q0.734375 -0.9842224 0.734375 -2.9217224zm12.185577 0.20567322q0 2.296875 -1.046875 3.7029114q-1.046875 1.3903961 -2.84375 1.3900299q-1.828125 -3.8146973E-4 -2.875 -1.1568604l0 4.828125l-1.71875 -3.5095215E-4l0 -13.890625l1.5625 3.2043457E-4l0.09375 1.1094055q1.046875 -1.2966614 2.90625 -1.2962799q1.8125 3.8146973E-4 2.859375 1.3599701q1.0625 1.3596039 1.0625 3.797104l0 0.15625zm-1.71875 -0.20349121q0 -1.6875 -0.734375 -2.6720276q-0.71875 -0.9845123 -1.96875 -0.984787q-1.5625 -3.2043457E-4 -2.34375 1.3745117l0 4.796875q0.765625 1.3751678 2.359375 1.3755035q1.234375 2.593994E-4 1.953125 -0.9683533q0.734375 -0.9842224 0.734375 -2.9217224zm7.873047 5.298523q-2.046875 -4.272461E-4 -3.328125 -1.3444519q-1.28125 -1.3440094 -1.28125 -3.5783844l0 -0.328125q0 -1.484375 0.5625 -2.656128q0.578125 -1.1717682 1.59375 -1.8278046q1.03125 -0.6716614 2.234375 -0.671402q1.953125 3.9672852E-4 3.03125 1.2975006q1.09375 1.2814789 1.09375 3.687729l0 0.703125l-6.796875 -0.0014190674q0.03125 1.4843903 0.859375 2.406433q0.84375 0.9064331 2.125 0.9066925q0.90625 1.8310547E-4 1.53125 -0.35905457q0.640625 -0.37486267 1.109375 -0.9841461l1.046875 0.8127136q-1.265625 1.9372406 -3.78125 1.9367218zm-0.21875 -9.000046q-1.03125 -2.1362305E-4 -1.75 0.7652588q-0.703125 0.7498474 -0.859375 2.109192l5.015625 0.0010528564l0 -0.125q-0.0625 -1.3125153 -0.703125 -2.0314026q-0.625 -0.7188721 -1.703125 -0.71910095zm5.5088196 3.7042694q0 -2.296875 1.09375 -3.702896q1.109375 -1.4060211 2.875 -1.4056549q1.765625 3.6621094E-4 2.796875 1.2037048l0 -5.234375l1.71875 3.6621094E-4l0 14.25l-1.578125 -3.3569336E-4l-0.09375 -1.0781403q-1.03125 1.2654114 -2.859375 1.2650299q-1.75 -3.6621094E-4 -2.859375 -1.4224701q-1.09375 -1.4377289 -1.09375 -3.734604l0 -0.140625zm1.71875 0.20347595q0 1.703125 0.703125 2.6720276q0.71875 0.9689026 1.953125 0.969162q1.640625 3.3569336E-4 2.390625 -1.4682617l0 -4.609375q-0.78125 -1.4220276 -2.375 -1.4223633q-1.25 -2.593994E-4 -1.96875 0.983963q-0.703125 0.9685974 -0.703125 2.8748474z" fill-rule="nonzero"></path><path fill="#000000" fill-opacity="0.0" d="m404.3937 214.15794l151.21262 0l0 30.803146l-151.21262 0z" fill-rule="evenodd"></path><path fill="#000000" d="m438.88763 238.42169q0 -0.703125 -0.53125 -1.078125q-0.515625 -0.390625 -1.828125 -0.671875q-1.296875 -0.28125 -2.0625 -0.671875q-0.765625 -0.390625 -1.140625 -0.921875q-0.359375 -0.546875 -0.359375 -1.28125q0 -1.234375 1.046875 -2.078125q1.046875 -0.859375 2.671875 -0.859375q1.703125 0 2.765625 0.875q1.0625 0.875 1.0625 2.25l-1.71875 0q0 -0.703125 -0.609375 -1.203125q-0.59375 -0.515625 -1.5 -0.515625q-0.9375 0 -1.46875 0.40625q-0.53125 0.40625 -0.53125 1.0625q0 0.625 0.484375 0.9375q0.5 0.3125 1.78125 0.609375q1.296875 0.28125 2.09375 0.6875q0.796875 0.390625 1.171875 0.953125q0.390625 0.5625 0.390625 1.375q0 1.34375 -1.078125 2.15625q-1.078125 0.8125 -2.796875 0.8125q-1.203125 0 -2.125 -0.421875q-0.921875 -0.4375 -1.453125 -1.203125q-0.53125 -0.765625 -0.53125 -1.65625l1.71875 0q0.046875 0.859375 0.6875 1.375q0.65625 0.5 1.703125 0.5q0.984375 0 1.5625 -0.390625q0.59375 -0.390625 0.59375 -1.046875zm5.635254 2.65625l-1.703125 0l0 -14.25l1.703125 0l0 14.25zm8.871155 0q-0.15625 -0.296875 -0.25 -1.0625q-1.1875 1.25 -2.859375 1.25q-1.484375 0 -2.4375 -0.84375q-0.9375 -0.84375 -0.9375 -2.125q0 -1.5625 1.1875 -2.4375q1.1875 -0.875 3.359375 -0.875l1.671875 0l0 -0.78125q0 -0.90625 -0.546875 -1.4375q-0.53125 -0.53125 -1.578125 -0.53125q-0.921875 0 -1.546875 0.46875q-0.625 0.46875 -0.625 1.125l-1.71875 0q0 -0.75 0.53125 -1.453125q0.53125 -0.703125 1.4375 -1.109375q0.921875 -0.40625 2.015625 -0.40625q1.734375 0 2.71875 0.875q0.984375 0.859375 1.015625 2.375l0 4.625q0 1.375 0.359375 2.1875l0 0.15625l-1.796875 0zm-2.859375 -1.3125q0.8125 0 1.53125 -0.40625q0.734375 -0.421875 1.0625 -1.09375l0 -2.0625l-1.359375 0q-3.140625 0 -3.140625 1.84375q0 0.8125 0.53125 1.265625q0.53125 0.453125 1.375 0.453125zm15.288605 -3.59375q0 2.296875 -1.046875 3.703125q-1.046875 1.390625 -2.84375 1.390625q-1.828125 0 -2.875 -1.15625l0 4.828125l-1.71875 0l0 -13.890625l1.5625 0l0.09375 1.109375q1.046875 -1.296875 2.90625 -1.296875q1.8125 0 2.859375 1.359375q1.0625 1.359375 1.0625 3.796875l0 0.15625zm-1.71875 -0.203125q0 -1.6875 -0.734375 -2.671875q-0.71875 -0.984375 -1.96875 -0.984375q-1.5625 0 -2.34375 1.375l0 4.796875q0.765625 1.375 2.359375 1.375q1.234375 0 1.953125 -0.96875q0.734375 -0.984375 0.734375 -2.921875zm12.185577 0.203125q0 2.296875 -1.046875 3.703125q-1.046875 1.390625 -2.84375 1.390625q-1.828125 0 -2.875 -1.15625l0 4.828125l-1.71875 0l0 -13.890625l1.5625 0l0.09375 1.109375q1.046875 -1.296875 2.90625 -1.296875q1.8125 0 2.859375 1.359375q1.0625 1.359375 1.0625 3.796875l0 0.15625zm-1.71875 -0.203125q0 -1.6875 -0.734375 -2.671875q-0.71875 -0.984375 -1.96875 -0.984375q-1.5625 0 -2.34375 1.375l0 4.796875q0.765625 1.375 2.359375 1.375q1.234375 0 1.953125 -0.96875q0.734375 -0.984375 0.734375 -2.921875zm7.873047 5.296875q-2.046875 0 -3.328125 -1.34375q-1.28125 -1.34375 -1.28125 -3.578125l0 -0.328125q0 -1.484375 0.5625 -2.65625q0.578125 -1.171875 1.59375 -1.828125q1.03125 -0.671875 2.234375 -0.671875q1.953125 0 3.03125 1.296875q1.09375 1.28125 1.09375 3.6875l0 0.703125l-6.796875 0q0.03125 1.484375 0.859375 2.40625q0.84375 0.90625 2.125 0.90625q0.90625 0 1.53125 -0.359375q0.640625 -0.375 1.109375 -0.984375l1.046875 0.8125q-1.265625 1.9375 -3.78125 1.9375zm-0.21875 -9.0q-1.03125 0 -1.75 0.765625q-0.703125 0.75 -0.859375 2.109375l5.015625 0l0 -0.125q-0.0625 -1.3125 -0.703125 -2.03125q-0.625 -0.71875 -1.703125 -0.71875zm5.5088196 3.703125q0 -2.296875 1.09375 -3.703125q1.109375 -1.40625 2.875 -1.40625q1.765625 0 2.796875 1.203125l0 -5.234375l1.71875 0l0 14.25l-1.578125 0l-0.09375 -1.078125q-1.03125 1.265625 -2.859375 1.265625q-1.75 0 -2.859375 -1.421875q-1.09375 -1.4375 -1.09375 -3.734375l0 -0.140625zm1.71875 0.203125q0 1.703125 0.703125 2.671875q0.71875 0.96875 1.953125 0.96875q1.640625 0 2.390625 -1.46875l0 -4.609375q-0.78125 -1.421875 -2.375 -1.421875q-1.25 0 -1.96875 0.984375q-0.703125 0.96875 -0.703125 2.875zm16.171234 -7.5625l0 2.4375l1.875 0l0 1.3125l-1.875 0l0 6.234375q0 0.59375 0.25 0.90625q0.25 0.296875 0.859375 0.296875q0.296875 0 0.8125 -0.109375l0 1.390625q-0.671875 0.1875 -1.3125 0.1875q-1.15625 0 -1.75 -0.6875q-0.578125 -0.703125 -0.578125 -1.984375l0 -6.234375l-1.828125 0l0 -1.3125l1.828125 0l0 -2.4375l1.71875 0zm5.4848633 3.640625q1.140625 -1.390625 2.96875 -1.390625q3.1875 0 3.203125 3.578125l0 6.640625l-1.703125 0l0 -6.640625q-0.015625 -1.09375 -0.5 -1.609375q-0.484375 -0.515625 -1.515625 -0.515625q-0.84375 0 -1.46875 0.453125q-0.625 0.4375 -0.984375 1.15625l0 7.15625l-1.71875 0l0 -14.25l1.71875 0l0 5.421875zm12.728638 9.015625q-2.046875 0 -3.328125 -1.34375q-1.28125 -1.34375 -1.28125 -3.578125l0 -0.328125q0 -1.484375 0.5625 -2.65625q0.578125 -1.171875 1.59375 -1.828125q1.03125 -0.671875 2.234375 -0.671875q1.953125 0 3.03125 1.296875q1.09375 1.28125 1.09375 3.6875l0 0.703125l-6.796875 0q0.03125 1.484375 0.859375 2.40625q0.84375 0.90625 2.125 0.90625q0.90625 0 1.53125 -0.359375q0.640625 -0.375 1.109375 -0.984375l1.046875 0.8125q-1.265625 1.9375 -3.78125 1.9375zm-0.21875 -9.0q-1.03125 0 -1.75 0.765625q-0.703125 0.75 -0.859375 2.109375l5.015625 0l0 -0.125q-0.0625 -1.3125 -0.703125 -2.03125q-0.625 -0.71875 -1.703125 -0.71875z" fill-rule="nonzero"></path><path fill="#000000" fill-opacity="0.0" d="m640.1207 214.15794l151.21259 0l0 30.803146l-151.21259 0z" fill-rule="evenodd"></path><path fill="#000000" d="m680.4955 228.60919l0 2.4375l1.875 0l0 1.3125l-1.875 0l0 6.234375q0 0.59375 0.25 0.90625q0.25 0.296875 0.859375 0.296875q0.296875 0 0.8125 -0.109375l0 1.390625q-0.671875 0.1875 -1.3125 0.1875q-1.15625 0 -1.75 -0.6875q-0.578125 -0.703125 -0.578125 -1.984375l0 -6.234375l-1.828125 0l0 -1.3125l1.828125 0l0 -2.4375l1.71875 0zm5.4848633 3.640625q1.140625 -1.390625 2.96875 -1.390625q3.1875 0 3.203125 3.578125l0 6.640625l-1.703125 0l0 -6.640625q-0.015625 -1.09375 -0.5 -1.609375q-0.484375 -0.515625 -1.515625 -0.515625q-0.84375 0 -1.46875 0.453125q-0.625 0.4375 -0.984375 1.15625l0 7.15625l-1.71875 0l0 -14.25l1.71875 0l0 5.421875zm12.728638 9.015625q-2.046875 0 -3.328125 -1.34375q-1.28125 -1.34375 -1.28125 -3.578125l0 -0.328125q0 -1.484375 0.5625 -2.65625q0.578125 -1.171875 1.59375 -1.828125q1.03125 -0.671875 2.234375 -0.671875q1.953125 0 3.03125 1.296875q1.09375 1.28125 1.09375 3.6875l0 0.703125l-6.796875 0q0.03125 1.484375 0.859375 2.40625q0.84375 0.90625 2.125 0.90625q0.90625 0 1.53125 -0.359375q0.640625 -0.375 1.109375 -0.984375l1.046875 0.8125q-1.265625 1.9375 -3.78125 1.9375zm-0.21875 -9.0q-1.03125 0 -1.75 0.765625q-0.703125 0.75 -0.859375 2.109375l5.015625 0l0 -0.125q-0.0625 -1.3125 -0.703125 -2.03125q-0.625 -0.71875 -1.703125 -0.71875zm10.142944 3.703125q0 -2.34375 1.078125 -3.71875q1.09375 -1.390625 2.890625 -1.390625q1.828125 0 2.859375 1.296875l0.078125 -1.109375l1.578125 0l0 9.796875q0 1.9375 -1.15625 3.0625q-1.15625 1.125 -3.109375 1.125q-1.078125 0 -2.125 -0.46875q-1.03125 -0.453125 -1.578125 -1.265625l0.890625 -1.03125q1.09375 1.359375 2.6875 1.359375q1.265625 0 1.953125 -0.703125q0.703125 -0.703125 0.703125 -1.984375l0 -0.859375q-1.03125 1.1875 -2.8125 1.1875q-1.75 0 -2.84375 -1.421875q-1.09375 -1.421875 -1.09375 -3.875zm1.71875 0.203125q0 1.703125 0.703125 2.671875q0.703125 0.96875 1.953125 0.96875q1.625 0 2.375 -1.484375l0 -4.578125q-0.78125 -1.4375 -2.359375 -1.4375q-1.25 0 -1.96875 0.984375q-0.703125 0.96875 -0.703125 2.875zm14.013672 -3.59375q-0.390625 -0.0625 -0.84375 -0.0625q-1.6875 0 -2.296875 1.4375l0 7.125l-1.71875 0l0 -10.03125l1.671875 0l0.03125 1.15625q0.84375 -1.34375 2.390625 -1.34375q0.5 0 0.765625 0.125l0 1.59375zm5.6254272 8.6875q-2.046875 0 -3.328125 -1.34375q-1.28125 -1.34375 -1.28125 -3.578125l0 -0.328125q0 -1.484375 0.5625 -2.65625q0.578125 -1.171875 1.59375 -1.828125q1.03125 -0.671875 2.234375 -0.671875q1.953125 0 3.03125 1.296875q1.09375 1.28125 1.09375 3.6875l0 0.703125l-6.796875 0q0.03125 1.484375 0.859375 2.40625q0.84375 0.90625 2.125 0.90625q0.90625 0 1.53125 -0.359375q0.640625 -0.375 1.109375 -0.984375l1.046875 0.8125q-1.265625 1.9375 -3.78125 1.9375zm-0.21875 -9.0q-1.03125 0 -1.75 0.765625q-0.703125 0.75 -0.859375 2.109375l5.015625 0l0 -0.125q-0.0625 -1.3125 -0.703125 -2.03125q-0.625 -0.71875 -1.703125 -0.71875zm10.102539 9.0q-2.046875 0 -3.328125 -1.34375q-1.28125 -1.34375 -1.28125 -3.578125l0 -0.328125q0 -1.484375 0.5625 -2.65625q0.578125 -1.171875 1.59375 -1.828125q1.03125 -0.671875 2.234375 -0.671875q1.953125 0 3.03125 1.296875q1.09375 1.28125 1.09375 3.6875l0 0.703125l-6.796875 0q0.03125 1.484375 0.859375 2.40625q0.84375 0.90625 2.125 0.90625q0.90625 0 1.53125 -0.359375q0.640625 -0.375 1.109375 -0.984375l1.046875 0.8125q-1.265625 1.9375 -3.78125 1.9375zm-0.21875 -9.0q-1.03125 0 -1.75 0.765625q-0.703125 0.75 -0.859375 2.109375l5.015625 0l0 -0.125q-0.0625 -1.3125 -0.703125 -2.03125q-0.625 -0.71875 -1.703125 -0.71875zm7.555664 -1.21875l0.0625 1.25q1.140625 -1.4375 3.0 -1.4375q3.1875 0 3.203125 3.578125l0 6.640625l-1.703125 0l0 -6.640625q-0.015625 -1.09375 -0.5 -1.609375q-0.484375 -0.515625 -1.515625 -0.515625q-0.84375 0 -1.46875 0.453125q-0.625 0.4375 -0.984375 1.15625l0 7.15625l-1.71875 0l0 -10.03125l1.625 0z" fill-rule="nonzero"></path><path fill="#f05732" d="m17.334646 445.7695l0 0c0 -13.176575 11.47138 -23.858276 25.622046 -23.858276l0 0c14.150665 0 25.622051 10.681702 25.622051 23.858276l0 0c0 13.176544 -11.471386 23.858246 -25.622051 23.858246l0 0c-14.150665 0 -25.622046 -10.681702 -25.622046 -23.858246z" fill-rule="evenodd"></path><path stroke="#000000" stroke-width="1.0" stroke-linejoin="round" stroke-linecap="butt" d="m17.334646 445.7695l0 0c0 -13.176575 11.47138 -23.858276 25.622046 -23.858276l0 0c14.150665 0 25.622051 10.681702 25.622051 23.858276l0 0c0 13.176544 -11.471386 23.858246 -25.622051 23.858246l0 0c-14.150665 0 -25.622046 -10.681702 -25.622046 -23.858246z" fill-rule="evenodd"></path></g></svg>

