<?xml version="1.0" standalone="yes"?>

<svg version="1.1" viewBox="0.0 0.0 683.2939632545932 354.2782152230971" fill="none" stroke="none" stroke-linecap="square" stroke-miterlimit="10" xmlns="http://www.w3.org/2000/svg" xmlns:xlink="http://www.w3.org/1999/xlink"><clipPath id="p.0"><path d="m0 0l683.29395 0l0 354.27823l-683.29395 0l0 -354.27823z" clip-rule="nonzero"></path></clipPath><g clip-path="url(#p.0)"><path fill="#ffffff" d="m0 0l683.29395 0l0 354.27823l-683.29395 0z" fill-rule="evenodd"></path><path fill="#f05732" d="m40.440945 165.88452l40.440945 0l0 39.653534l-40.440945 0z" fill-rule="evenodd"></path><path stroke="#000000" stroke-width="1.0" stroke-linejoin="round" stroke-linecap="butt" d="m40.440945 165.88452l40.440945 0l0 39.653534l-40.440945 0z" fill-rule="evenodd"></path><path fill="#ffffff" d="m63.83916 190.27191l1.9218712 -7.671875l1.71875 0l-2.921875 10.03125l-1.3906212 0l-2.4375 -7.609375l-2.375 7.609375l-1.390625 0l-2.90625 -10.03125l1.703125 0l1.96875 7.5l2.34375 -7.5l1.375 0l2.390625 7.671875z" fill-rule="nonzero"></path><path fill="#f05732" d="m40.440945 39.65354l40.440945 0l0 39.65354l-40.440945 0z" fill-rule="evenodd"></path><path stroke="#000000" stroke-width="1.0" stroke-linejoin="round" stroke-linecap="butt" d="m40.440945 39.65354l40.440945 0l0 39.65354l-40.440945 0z" fill-rule="evenodd"></path><path fill="#ffffff" d="m60.710224 60.02531l2.21875 -3.65625l1.9999962 0l-3.2812462 4.953125l3.3906212 5.078129l-1.9843712 0l-2.328125 -3.7500038l-2.3125 3.7500038l-2.0 0l3.390625 -5.078129l-3.28125 -4.953125l1.984375 0l2.203125 3.65625z" fill-rule="nonzero"></path><path fill="#f05732" d="m40.440945 273.86353l40.440945 0l0 39.653534l-40.440945 0z" fill-rule="evenodd"></path><path stroke="#000000" stroke-width="1.0" stroke-linejoin="round" stroke-linecap="butt" d="m40.440945 273.86353l40.440945 0l0 39.653534l-40.440945 0z" fill-rule="evenodd"></path><path fill="#ffffff" d="m65.224884 295.70404q0 2.296875 -1.0625 3.703125q-1.0468712 1.390625 -2.8281212 1.390625q-1.90625 0 -2.953125 -1.34375l-0.078125 1.15625l-1.578125 0l0 -14.25l1.71875 0l0 5.3125q1.03125 -1.28125 2.859375 -1.28125q1.828125 0 2.8749962 1.390625q1.046875 1.375 1.046875 3.765625l0 0.15625zm-1.7187462 -0.203125q0 -1.75 -0.6875 -2.703125q-0.671875 -0.953125 -1.9375 -0.953125q-1.703125 0 -2.4375 1.578125l0 4.34375q0.78125 1.578125 2.453125 1.578125q1.234375 0 1.921875 -0.953125q0.6875 -0.96875 0.6875 -2.890625z" fill-rule="nonzero"></path><path fill="#000000" fill-opacity="0.0" d="m80.88189 59.480316l88.472435 0.40944672" fill-rule="evenodd"></path><path stroke="#000000" stroke-width="1.0" stroke-linejoin="round" stroke-linecap="butt" d="m80.88189 59.480316l88.472435 0.40944672" fill-rule="evenodd"></path><path fill="#942174" d="m441.7979 180.84514l0 0c0 -13.637512 11.668793 -24.692902 26.062988 -24.692902l0 0c6.912323 0 13.541565 2.6015625 18.429321 7.232376c4.8877563 4.630829 7.633667 10.91156 7.633667 17.460526l0 0c0 13.637527 -11.668793 24.692917 -26.062988 24.692917l0 0c-14.394196 0 -26.062988 -11.055389 -26.062988 -24.692917z" fill-rule="evenodd"></path><path stroke="#000000" stroke-width="1.0" stroke-linejoin="round" stroke-linecap="butt" d="m441.7979 180.84514l0 0c0 -13.637512 11.668793 -24.692902 26.062988 -24.692902l0 0c6.912323 0 13.541565 2.6015625 18.429321 7.232376c4.8877563 4.630829 7.633667 10.91156 7.633667 17.460526l0 0c0 13.637527 -11.668793 24.692917 -26.062988 24.692917l0 0c-14.394196 0 -26.062988 -11.055389 -26.062988 -24.692917z" fill-rule="evenodd"></path><path fill="#ffffff" d="m469.13336 180.14827l5.359375 0l0 2.3125l-5.359375 0l0 6.0625l-2.453125 0l0 -6.0625l-5.34375 0l0 -2.3125l5.34375 0l0 -5.609375l2.453125 0l0 5.609375z" fill-rule="nonzero"></path><path fill="#942174" d="m214.51443 116.46719l0 0c0 -13.63752 11.668793 -24.692917 26.062988 -24.692917l0 0c6.9123383 0 13.541565 2.6015701 18.429321 7.2323914c4.8877563 4.6308136 7.633667 10.911552 7.633667 17.460526l0 0c0 13.637512 -11.668793 24.692917 -26.062988 24.692917l0 0c-14.394196 0 -26.062988 -11.055405 -26.062988 -24.692917z" fill-rule="evenodd"></path><path stroke="#000000" stroke-width="1.0" stroke-linejoin="round" stroke-linecap="butt" d="m214.51443 116.46719l0 0c0 -13.63752 11.668793 -24.692917 26.062988 -24.692917l0 0c6.9123383 0 13.541565 2.6015701 18.429321 7.2323914c4.8877563 4.6308136 7.633667 10.911552 7.633667 17.460526l0 0c0 13.637512 -11.668793 24.692917 -26.062988 24.692917l0 0c-14.394196 0 -26.062988 -11.055405 -26.062988 -24.692917z" fill-rule="evenodd"></path><path fill="#ffffff" d="m239.18123 117.447395l-3.96875 -1.1875l0.59375 -2.0l3.984375 1.484375l-0.109375 -4.546875l2.015625 0l-0.140625 4.609375l3.921875 -1.453125l0.609375 2.0l-4.046875 1.203125l2.609375 3.578125l-1.640625 1.234375l-2.453125 -3.796875l-2.375 3.703125l-1.640625 -1.203125l2.640625 -3.625z" fill-rule="nonzero"></path><path fill="#000000" fill-opacity="0.0" d="m169.34908 59.90026l45.16536 56.566933" fill-rule="evenodd"></path><path stroke="#000000" stroke-width="1.0" stroke-linejoin="round" stroke-linecap="butt" d="m169.34908 59.90026l41.42166 51.87816" fill-rule="evenodd"></path><path fill="#000000" stroke="#000000" stroke-width="1.0" stroke-linecap="butt" d="m209.47995 112.80901l4.1223297 2.5157547l-1.5407867 -4.5769577z" fill-rule="evenodd"></path><path fill="#000000" fill-opacity="0.0" d="m170.26247 185.31758l44.25197 -68.85039" fill-rule="evenodd"></path><path stroke="#000000" stroke-width="1.0" stroke-linejoin="round" stroke-linecap="butt" d="m170.26247 185.31758l41.00789 -63.803024" fill-rule="evenodd"></path><path fill="#000000" stroke="#000000" stroke-width="1.0" stroke-linecap="butt" d="m212.65984 122.40762l1.0641785 -4.71064l-3.8431396 2.9245224z" fill-rule="evenodd"></path><path fill="#000000" fill-opacity="0.0" d="m82.2021 185.50656l88.47244 0.40945435" fill-rule="evenodd"></path><path stroke="#000000" stroke-width="1.0" stroke-linejoin="round" stroke-linecap="butt" d="m82.2021 185.50656l88.47244 0.40945435" fill-rule="evenodd"></path><path fill="#000000" fill-opacity="0.0" d="m82.2021 293.48557l130.4567 0.50393677" fill-rule="evenodd"></path><path stroke="#000000" stroke-width="1.0" stroke-linejoin="round" stroke-linecap="butt" d="m82.2021 293.48557l130.4567 0.50393677" fill-rule="evenodd"></path><path fill="#000000" fill-opacity="0.0" d="m396.63254 116.46719l45.165375 64.377945" fill-rule="evenodd"></path><path stroke="#000000" stroke-width="1.0" stroke-linejoin="round" stroke-linecap="butt" d="m396.63254 116.46719l41.71942 59.466187" fill-rule="evenodd"></path><path fill="#000000" stroke="#000000" stroke-width="1.0" stroke-linecap="butt" d="m436.99982 176.88199l3.9584656 2.7664032l-1.2541504 -4.6636505z" fill-rule="evenodd"></path><path fill="#000000" fill-opacity="0.0" d="m212.66405 294.0105l229.13387 -113.16536" fill-rule="evenodd"></path><path stroke="#000000" stroke-width="1.0" stroke-linejoin="round" stroke-linecap="butt" d="m212.66405 294.0105l223.75417 -110.50842" fill-rule="evenodd"></path><path fill="#000000" stroke="#000000" stroke-width="1.0" stroke-linecap="butt" d="m437.14966 184.98303l3.337494 -3.4905243l-4.8003235 0.528595z" fill-rule="evenodd"></path><path fill="#000000" fill-opacity="0.0" d="m88.973755 20.128609l27.401573 0l0 33.574802l-27.401573 0z" fill-rule="evenodd"></path><path fill="#35524a" d="m107.942505 47.048607l-8.84375 0l0 -1.234375l4.671875 -5.1875q1.046875 -1.1875 1.4375 -1.921875q0.390625 -0.734375 0.390625 -1.53125q0 -1.046875 -0.640625 -1.71875q-0.640625 -0.6875 -1.703125 -0.6875q-1.28125 0 -2.0 0.734375q-0.703125 0.71875 -0.703125 2.015625l-1.71875 0q0 -1.859375 1.203125 -3.0q1.203125 -1.15625 3.21875 -1.15625q1.875 0 2.96875 0.984375q1.109375 0.984375 1.109375 2.625q0 2.0 -2.546875 4.75l-3.625 3.921875l6.78125 0l0 1.40625z" fill-rule="nonzero"></path><path fill="#000000" fill-opacity="0.0" d="m88.973755 147.06561l27.401573 0l0 33.574814l-27.401573 0z" fill-rule="evenodd"></path><path fill="#35524a" d="m101.598755 166.39186l1.28125 0q1.21875 -0.015625 1.90625 -0.625q0.703125 -0.625 0.703125 -1.6875q0 -2.375 -2.359375 -2.375q-1.125 0 -1.796875 0.640625q-0.65625 0.625 -0.65625 1.671875l-1.703125 0q0 -1.59375 1.171875 -2.65625q1.171875 -1.0625 2.984375 -1.0625q1.90625 0 2.984375 1.015625q1.09375 1.0 1.09375 2.796875q0 0.890625 -0.578125 1.71875q-0.5625 0.8125 -1.546875 1.21875q1.109375 0.359375 1.71875 1.1875q0.609375 0.8125 0.609375 1.984375q0 1.8125 -1.1875 2.890625q-1.1875 1.0625 -3.09375 1.0625q-1.90625 0 -3.09375 -1.03125q-1.1875 -1.03125 -1.1875 -2.71875l1.71875 0q0 1.0625 0.6875 1.703125q0.703125 0.640625 1.875 0.640625q1.25 0 1.90625 -0.640625q0.65625 -0.65625 0.65625 -1.875q0 -1.171875 -0.734375 -1.796875q-0.71875 -0.640625 -2.078125 -0.65625l-1.28125 0l0 -1.40625z" fill-rule="nonzero"></path><path fill="#000000" fill-opacity="0.0" d="m88.973755 256.2021l27.401573 0l0 33.57483l-27.401573 0z" fill-rule="evenodd"></path><path fill="#35524a" d="m104.73938 283.1221l-1.734375 0l0 -11.4375l-3.453125 1.265625l0 -1.5625l4.921875 -1.84375l0.265625 0l0 13.578125z" fill-rule="nonzero"></path><path fill="#000000" fill-opacity="0.0" d="m332.0735 79.30708l27.40158 0l0 33.574806l-27.40158 0z" fill-rule="evenodd"></path><path fill="#35524a" d="m348.93286 92.71146l0 1.453125l-0.3125 0q-2.015625 0.03125 -3.203125 1.1875q-1.1875 1.15625 -1.359375 3.234375q1.0625 -1.21875 2.90625 -1.21875q1.765625 0 2.8125 1.25q1.0625 1.234375 1.0625 3.203125q0 2.09375 -1.140625 3.34375q-1.140625 1.25 -3.046875 1.25q-1.9375 0 -3.15625 -1.484375q-1.203125 -1.5 -1.203125 -3.84375l0 -0.65625q0 -3.734375 1.59375 -5.703125q1.59375 -1.96875 4.734375 -2.015625l0.3125 0zm-2.25 6.078125q-0.890625 0 -1.640625 0.53125q-0.734375 0.53125 -1.015625 1.328125l0 0.640625q0 1.65625 0.75 2.6875q0.75 1.015625 1.875 1.015625q1.15625 0 1.8125 -0.84375q0.671875 -0.859375 0.671875 -2.25q0 -1.390625 -0.671875 -2.25q-0.671875 -0.859375 -1.78125 -0.859375z" fill-rule="nonzero"></path><path fill="#f05732" d="m285.35303 96.64042l40.44095 0l0 39.65354l-40.44095 0z" fill-rule="evenodd"></path><path stroke="#000000" stroke-width="1.0" stroke-linejoin="round" stroke-linecap="butt" d="m285.35303 96.64042l40.44095 0l0 39.65354l-40.44095 0z" fill-rule="evenodd"></path><path fill="#ffffff" d="m303.85666 121.98094l5.875 0l0 1.40625l-7.96875 0l0 -1.265625l5.546875 -7.359375l-5.453125 0l0 -1.40625l7.59375 0l0 1.203125l-5.59375 7.421875z" fill-rule="nonzero"></path><path fill="#000000" fill-opacity="0.0" d="m266.6404 116.46719l18.70868 0" fill-rule="evenodd"></path><path stroke="#000000" stroke-width="1.0" stroke-linejoin="round" stroke-linecap="butt" d="m266.6404 116.46719l12.708679 0" fill-rule="evenodd"></path><path fill="#000000" stroke="#000000" stroke-width="1.0" stroke-linecap="butt" d="m279.3491 118.11893l4.538086 -1.6517334l-4.538086 -1.6517334z" fill-rule="evenodd"></path><path fill="#f05732" d="m512.63257 161.01837l40.440918 0l0 39.65355l-40.440918 0z" fill-rule="evenodd"></path><path stroke="#000000" stroke-width="1.0" stroke-linejoin="round" stroke-linecap="butt" d="m512.63257 161.01837l40.440918 0l0 39.65355l-40.440918 0z" fill-rule="evenodd"></path><path fill="#ffffff" d="m533.0176 185.24951l2.34375 -7.515625l1.84375 0l-4.046875 11.578125q-0.9375 2.5 -2.96875 2.5l-0.328125 -0.015625l-0.640625 -0.125l0 -1.390625l0.46875 0.03125q0.859375 0 1.34375 -0.359375q0.5 -0.34375 0.8125 -1.28125l0.375 -1.015625l-3.578125 -9.921875l1.875 0l2.5 7.515625z" fill-rule="nonzero"></path><path fill="#000000" fill-opacity="0.0" d="m493.9239 180.84514l18.70868 0" fill-rule="evenodd"></path><path stroke="#000000" stroke-width="1.0" stroke-linejoin="round" stroke-linecap="butt" d="m493.9239 180.84514l12.708649 0" fill-rule="evenodd"></path><path fill="#000000" stroke="#000000" stroke-width="1.0" stroke-linecap="butt" d="m506.63254 182.49687l4.5381165 -1.6517334l-4.5381165 -1.6517334z" fill-rule="evenodd"></path><path fill="#000000" fill-opacity="0.0" d="m560.9816 141.16011l27.40155 0l0 33.5748l-27.40155 0z" fill-rule="evenodd"></path><path fill="#35524a" d="m579.8254 155.53323l-5.59375 12.546875l-1.796875 0l5.578125 -12.09375l-7.3125 0l0 -1.421875l9.125 0l0 0.96875z" fill-rule="nonzero"></path><path fill="#000000" fill-opacity="0.0" d="m553.0735 180.64043l88.47247 0.4094391" fill-rule="evenodd"></path><path stroke="#000000" stroke-width="1.0" stroke-linejoin="round" stroke-linecap="butt" d="m553.0735 180.64043l88.47247 0.4094391" fill-rule="evenodd"></path><path fill="#000000" fill-opacity="0.0" d="m325.80054 116.26247l71.68503 0.37795258" fill-rule="evenodd"></path><path stroke="#000000" stroke-width="1.0" stroke-linejoin="round" stroke-linecap="butt" d="m325.80054 116.26247l71.68503 0.37795258" fill-rule="evenodd"></path></g></svg>

