<?xml version="1.0" standalone="yes"?>

<svg version="1.1" viewBox="0.0 0.0 456.90813648293965 299.8897637795276" fill="none" stroke="none" stroke-linecap="square" stroke-miterlimit="10" xmlns="http://www.w3.org/2000/svg" xmlns:xlink="http://www.w3.org/1999/xlink"><clipPath id="p.0"><path d="m0 0l456.90814 0l0 299.88977l-456.90814 0l0 -299.88977z" clip-rule="nonzero"></path></clipPath><g clip-path="url(#p.0)"><path fill="#ffffff" d="m0 0l456.90814 0l0 299.88977l-456.90814 0z" fill-rule="evenodd"></path><path fill="#f05732" d="m119.03674 55.07874l218.83466 0l0 181.88977l-218.83466 0z" fill-rule="evenodd"></path><path stroke="#000000" stroke-width="1.0" stroke-linejoin="round" stroke-linecap="butt" d="m119.03674 55.07874l218.83466 0l0 181.88977l-218.83466 0z" fill-rule="evenodd"></path><path fill="#ffffff" d="m200.55896 79.639366l3.859375 -11.15625l1.9375 0l-5.0 13.515625l-1.578125 0l-5.0 -13.515625l1.9375 0l3.84375 11.15625zm13.3228 2.359375q-0.15625 -0.296875 -0.25 -1.0625q-1.1875 1.25 -2.859375 1.25q-1.484375 0 -2.4375 -0.84375q-0.9375 -0.84375 -0.9375 -2.125q0 -1.5625 1.1875 -2.4375q1.1875 -0.875 3.359375 -0.875l1.671875 0l0 -0.78125q0 -0.90625 -0.546875 -1.4375q-0.53125 -0.53125 -1.578125 -0.53125q-0.921875 0 -1.546875 0.46875q-0.625 0.46875 -0.625 1.125l-1.71875 0q0 -0.75 0.53125 -1.453125q0.53125 -0.703125 1.4375 -1.109375q0.921875 -0.40625 2.015625 -0.40625q1.734375 0 2.71875 0.875q0.984375 0.859375 1.015625 2.375l0 4.625q0 1.375 0.359375 2.1875l0 0.15625l-1.796875 0zm-2.859375 -1.3125q0.8125 0 1.53125 -0.40625q0.734375 -0.421875 1.0625 -1.09375l0 -2.0625l-1.359375 0q-3.140625 0 -3.140625 1.84375q0 0.8125 0.53125 1.265625q0.53125 0.453125 1.375 0.453125zm11.663605 -7.1875q-0.390625 -0.0625 -0.84375 -0.0625q-1.6875 0 -2.296875 1.4375l0 7.125l-1.71875 0l0 -10.03125l1.671875 0l0.03125 1.15625q0.84375 -1.34375 2.390625 -1.34375q0.5 0 0.765625 0.125l0 1.59375zm3.3128815 8.5l-1.703125 0l0 -10.03125l1.703125 0l0 10.03125zm-1.84375 -12.703125q0 -0.421875 0.25 -0.703125q0.25 -0.28125 0.75 -0.28125q0.515625 0 0.765625 0.28125q0.265625 0.28125 0.265625 0.703125q0 0.421875 -0.265625 0.703125q-0.25 0.265625 -0.765625 0.265625q-0.5 0 -0.75 -0.265625q-0.25 -0.28125 -0.25 -0.703125zm10.71492 12.703125q-0.15625 -0.296875 -0.25 -1.0625q-1.1875 1.25 -2.859375 1.25q-1.484375 0 -2.4375 -0.84375q-0.9375 -0.84375 -0.9375 -2.125q0 -1.5625 1.1875 -2.4375q1.1875 -0.875 3.359375 -0.875l1.671875 0l0 -0.78125q0 -0.90625 -0.546875 -1.4375q-0.53125 -0.53125 -1.578125 -0.53125q-0.921875 0 -1.546875 0.46875q-0.625 0.46875 -0.625 1.125l-1.71875 0q0 -0.75 0.53125 -1.453125q0.53125 -0.703125 1.4375 -1.109375q0.921875 -0.40625 2.015625 -0.40625q1.734375 0 2.71875 0.875q0.984375 0.859375 1.015625 2.375l0 4.625q0 1.375 0.359375 2.1875l0 0.15625l-1.796875 0zm-2.859375 -1.3125q0.8125 0 1.53125 -0.40625q0.734375 -0.421875 1.0625 -1.09375l0 -2.0625l-1.359375 0q-3.140625 0 -3.140625 1.84375q0 0.8125 0.53125 1.265625q0.53125 0.453125 1.375 0.453125zm15.3042145 -3.59375q0 2.296875 -1.0624847 3.703125q-1.046875 1.390625 -2.828125 1.390625q-1.90625 0 -2.953125 -1.34375l-0.078125 1.15625l-1.578125 0l0 -14.25l1.71875 0l0 5.3125q1.03125 -1.28125 2.859375 -1.28125q1.828125 0 2.875 1.390625q1.0468597 1.375 1.0468597 3.765625l0 0.15625zm-1.7187347 -0.203125q0 -1.75 -0.6875 -2.703125q-0.671875 -0.953125 -1.9375 -0.953125q-1.703125 0 -2.4375 1.578125l0 4.34375q0.78125 1.578125 2.453125 1.578125q1.234375 0 1.921875 -0.953125q0.6875 -0.96875 0.6875 -2.890625zm5.544937 5.109375l-1.703125 0l0 -14.25l1.703125 0l0 14.25zm6.839905 0.1875q-2.046875 0 -3.328125 -1.34375q-1.28125 -1.34375 -1.28125 -3.578125l0 -0.328125q0 -1.484375 0.5625 -2.65625q0.578125 -1.171875 1.59375 -1.828125q1.03125 -0.671875 2.234375 -0.671875q1.953125 0 3.03125 1.296875q1.09375 1.28125 1.09375 3.6875l0 0.703125l-6.796875 0q0.03125 1.484375 0.859375 2.40625q0.84375 0.90625 2.125 0.90625q0.90625 0 1.53125 -0.359375q0.640625 -0.375 1.109375 -0.984375l1.046875 0.8125q-1.265625 1.9375 -3.78125 1.9375zm-0.21875 -9.0q-1.03125 0 -1.75 0.765625q-0.703125 0.75 -0.859375 2.109375l5.015625 0l0 -0.125q-0.0625 -1.3125 -0.703125 -2.03125q-0.625 -0.71875 -1.703125 -0.71875z" fill-rule="nonzero"></path><path fill="#942174" d="m186.67998 89.8771l83.52757 0l0 38.677162l-83.52757 0z" fill-rule="evenodd"></path><path stroke="#000000" stroke-width="1.0" stroke-linejoin="round" stroke-linecap="butt" d="m186.67998 89.8771l83.52757 0l0 38.677162l-83.52757 0z" fill-rule="evenodd"></path><path fill="#ffffff" d="m210.86292 111.026306q0 -2.296875 1.09375 -3.703125q1.109375 -1.40625 2.875 -1.40625q1.765625 0 2.796875 1.203125l0 -5.234375l1.71875 0l0 14.25l-1.578125 0l-0.09375 -1.078125q-1.03125 1.265625 -2.859375 1.265625q-1.75 0 -2.859375 -1.421875q-1.09375 -1.4375 -1.09375 -3.734375l0 -0.140625zm1.71875 0.203125q0 1.703125 0.703125 2.671875q0.71875 0.96875 1.953125 0.96875q1.640625 0 2.390625 -1.46875l0 -4.609375q-0.78125 -1.421875 -2.375 -1.421875q-1.25 0 -1.96875 0.984375q-0.703125 0.96875 -0.703125 2.875zm15.427719 4.90625q-0.15625 -0.296875 -0.25 -1.0625q-1.1875 1.25 -2.859375 1.25q-1.484375 0 -2.4375 -0.84375q-0.9375 -0.84375 -0.9375 -2.125q0 -1.5625 1.1875 -2.4375q1.1875 -0.875 3.359375 -0.875l1.671875 0l0 -0.78125q0 -0.90625 -0.546875 -1.4375q-0.53125 -0.53125 -1.578125 -0.53125q-0.921875 0 -1.546875 0.46875q-0.625 0.46875 -0.625 1.125l-1.71875 0q0 -0.75 0.53125 -1.453125q0.53125 -0.703125 1.4375 -1.109375q0.921875 -0.40625 2.015625 -0.40625q1.734375 0 2.71875 0.875q0.984375 0.859375 1.015625 2.375l0 4.625q0 1.375 0.359375 2.1875l0 0.15625l-1.796875 0zm-2.859375 -1.3125q0.8125 0 1.53125 -0.40625q0.734375 -0.421875 1.0625 -1.09375l0 -2.0625l-1.359375 0q-3.140625 0 -3.140625 1.84375q0 0.8125 0.53125 1.265625q0.53125 0.453125 1.375 0.453125zm9.132355 -11.15625l0 2.4375l1.875 0l0 1.3125l-1.875 0l0 6.234375q0 0.59375 0.25 0.90625q0.25 0.296875 0.859375 0.296875q0.296875 0 0.8125 -0.109375l0 1.390625q-0.671875 0.1875 -1.3125 0.1875q-1.15625 0 -1.75 -0.6875q-0.578125 -0.703125 -0.578125 -1.984375l0 -6.234375l-1.828125 0l0 -1.3125l1.828125 0l0 -2.4375l1.71875 0zm9.969254 12.46875q-0.15625 -0.296875 -0.25 -1.0625q-1.1875 1.25 -2.859375 1.25q-1.484375 0 -2.4375 -0.84375q-0.9375 -0.84375 -0.9375 -2.125q0 -1.5625 1.1875 -2.4375q1.1875 -0.875 3.359375 -0.875l1.671875 0l0 -0.78125q0 -0.90625 -0.546875 -1.4375q-0.53125 -0.53125 -1.578125 -0.53125q-0.921875 0 -1.546875 0.46875q-0.625 0.46875 -0.625 1.125l-1.71875 0q0 -0.75 0.53125 -1.453125q0.53125 -0.703125 1.4375 -1.109375q0.921875 -0.40625 2.015625 -0.40625q1.734375 0 2.71875 0.875q0.984375 0.859375 1.015625 2.375l0 4.625q0 1.375 0.359375 2.1875l0 0.15625l-1.796875 0zm-2.859375 -1.3125q0.8125 0 1.53125 -0.40625q0.734375 -0.421875 1.0625 -1.09375l0 -2.0625l-1.359375 0q-3.140625 0 -3.140625 1.84375q0 0.8125 0.53125 1.265625q0.53125 0.453125 1.375 0.453125z" fill-rule="nonzero"></path><path fill="#942174" d="m186.67998 136.97548l83.52757 0l0 38.67717l-83.52757 0z" fill-rule="evenodd"></path><path stroke="#000000" stroke-width="1.0" stroke-linejoin="round" stroke-linecap="butt" d="m186.67998 136.97548l83.52757 0l0 38.67717l-83.52757 0z" fill-rule="evenodd"></path><path fill="#ffffff" d="m210.60982 158.12468q0 -2.34375 1.078125 -3.71875q1.09375 -1.390625 2.890625 -1.390625q1.828125 0 2.859375 1.296875l0.078125 -1.109375l1.578125 0l0 9.796875q0 1.9375 -1.15625 3.0625q-1.15625 1.125 -3.109375 1.125q-1.078125 0 -2.125 -0.46875q-1.03125 -0.453125 -1.578125 -1.265625l0.890625 -1.03125q1.09375 1.359375 2.6875 1.359375q1.265625 0 1.953125 -0.703125q0.703125 -0.703125 0.703125 -1.984375l0 -0.859375q-1.03125 1.1875 -2.8125 1.1875q-1.75 0 -2.84375 -1.421875q-1.09375 -1.421875 -1.09375 -3.875zm1.71875 0.203125q0 1.703125 0.703125 2.671875q0.703125 0.96875 1.953125 0.96875q1.625 0 2.375 -1.484375l0 -4.578125q-0.78125 -1.4375 -2.359375 -1.4375q-1.25 0 -1.96875 0.984375q-0.703125 0.96875 -0.703125 2.875zm14.013687 -3.59375q-0.390625 -0.0625 -0.84375 -0.0625q-1.6875 0 -2.296875 1.4375l0 7.125l-1.71875 0l0 -10.03125l1.671875 0l0.03125 1.15625q0.84375 -1.34375 2.390625 -1.34375q0.5 0 0.765625 0.125l0 1.59375zm7.6566315 8.5q-0.15625 -0.296875 -0.25 -1.0625q-1.1875 1.25 -2.859375 1.25q-1.484375 0 -2.4375 -0.84375q-0.9375 -0.84375 -0.9375 -2.125q0 -1.5625 1.1875 -2.4375q1.1875 -0.875 3.359375 -0.875l1.671875 0l0 -0.78125q0 -0.90625 -0.546875 -1.4375q-0.53125 -0.53125 -1.578125 -0.53125q-0.921875 0 -1.546875 0.46875q-0.625 0.46875 -0.625 1.125l-1.71875 0q0 -0.75 0.53125 -1.453125q0.53125 -0.703125 1.4375 -1.109375q0.921875 -0.40625 2.015625 -0.40625q1.734375 0 2.71875 0.875q0.984375 0.859375 1.015625 2.375l0 4.625q0 1.375 0.359375 2.1875l0 0.15625l-1.796875 0zm-2.859375 -1.3125q0.8125 0 1.53125 -0.40625q0.734375 -0.421875 1.0625 -1.09375l0 -2.0625l-1.359375 0q-3.140625 0 -3.140625 1.84375q0 0.8125 0.53125 1.265625q0.53125 0.453125 1.375 0.453125zm6.3823547 -3.796875q0 -2.296875 1.09375 -3.703125q1.109375 -1.40625 2.875 -1.40625q1.765625 0 2.796875 1.203125l0 -5.234375l1.71875 0l0 14.25l-1.578125 0l-0.09375 -1.078125q-1.03125 1.265625 -2.859375 1.265625q-1.75 0 -2.859375 -1.421875q-1.09375 -1.4375 -1.09375 -3.734375l0 -0.140625zm1.71875 0.203125q0 1.703125 0.703125 2.671875q0.71875 0.96875 1.953125 0.96875q1.640625 0 2.390625 -1.46875l0 -4.609375q-0.78125 -1.421875 -2.375 -1.421875q-1.25 0 -1.96875 0.984375q-0.703125 0.96875 -0.703125 2.875z" fill-rule="nonzero"></path><path fill="#942174" d="m186.67998 184.07385l83.52757 0l0 38.67717l-83.52757 0z" fill-rule="evenodd"></path><path stroke="#000000" stroke-width="1.0" stroke-linejoin="round" stroke-linecap="butt" d="m186.67998 184.07385l83.52757 0l0 38.67717l-83.52757 0z" fill-rule="evenodd"></path><path fill="#ffffff" d="m204.19334 209.1137q0.921875 0 1.59375 -0.546875q0.6875 -0.5625 0.765625 -1.390625l1.625 0q-0.046875 0.859375 -0.59375 1.640625q-0.546875 0.765625 -1.46875 1.234375q-0.90625 0.46875 -1.921875 0.46875q-2.046875 0 -3.265625 -1.359375q-1.203125 -1.375 -1.203125 -3.75l0 -0.296875q0 -1.46875 0.53125 -2.609375q0.546875 -1.140625 1.546875 -1.765625q1.0 -0.625 2.375 -0.625q1.6875 0 2.796875 1.015625q1.125 1.0 1.203125 2.609375l-1.625 0q-0.078125 -0.96875 -0.734375 -1.59375q-0.65625 -0.625 -1.640625 -0.625q-1.296875 0 -2.03125 0.9375q-0.71875 0.9375 -0.71875 2.71875l0 0.328125q0 1.734375 0.71875 2.671875q0.71875 0.9375 2.046875 0.9375zm10.593506 -7.28125q-0.390625 -0.0625 -0.84375 -0.0625q-1.6875 0 -2.296875 1.4375l0 7.125l-1.71875 0l0 -10.03125l1.671875 0l0.03125 1.15625q0.84375 -1.34375 2.390625 -1.34375q0.5 0 0.765625 0.125l0 1.59375zm5.6253815 8.6875q-2.046875 0 -3.328125 -1.34375q-1.28125 -1.34375 -1.28125 -3.578125l0 -0.328125q0 -1.484375 0.5625 -2.65625q0.578125 -1.171875 1.59375 -1.828125q1.03125 -0.671875 2.234375 -0.671875q1.953125 0 3.03125 1.296875q1.09375 1.28125 1.09375 3.6875l0 0.703125l-6.796875 0q0.03125 1.484375 0.859375 2.40625q0.84375 0.90625 2.125 0.90625q0.90625 0 1.53125 -0.359375q0.640625 -0.375 1.109375 -0.984375l1.046875 0.8125q-1.265625 1.9375 -3.78125 1.9375zm-0.21875 -9.0q-1.03125 0 -1.75 0.765625q-0.703125 0.75 -0.859375 2.109375l5.015625 0l0 -0.125q-0.0625 -1.3125 -0.703125 -2.03125q-0.625 -0.71875 -1.703125 -0.71875zm12.133804 8.8125q-0.15625 -0.296875 -0.25 -1.0625q-1.1875 1.25 -2.859375 1.25q-1.484375 0 -2.4375 -0.84375q-0.9375 -0.84375 -0.9375 -2.125q0 -1.5625 1.1875 -2.4375q1.1875 -0.875 3.359375 -0.875l1.671875 0l0 -0.78125q0 -0.90625 -0.546875 -1.4375q-0.53125 -0.53125 -1.578125 -0.53125q-0.921875 0 -1.546875 0.46875q-0.625 0.46875 -0.625 1.125l-1.71875 0q0 -0.75 0.53125 -1.453125q0.53125 -0.703125 1.4375 -1.109375q0.921875 -0.40625 2.015625 -0.40625q1.734375 0 2.71875 0.875q0.984375 0.859375 1.015625 2.375l0 4.625q0 1.375 0.359375 2.1875l0 0.15625l-1.796875 0zm-2.859375 -1.3125q0.8125 0 1.53125 -0.40625q0.734375 -0.421875 1.0625 -1.09375l0 -2.0625l-1.359375 0q-3.140625 0 -3.140625 1.84375q0 0.8125 0.53125 1.265625q0.53125 0.453125 1.375 0.453125zm9.132355 -11.15625l0 2.4375l1.875 0l0 1.3125l-1.875 0l0 6.234375q0 0.59375 0.25 0.90625q0.25 0.296875 0.859375 0.296875q0.296875 0 0.8125 -0.109375l0 1.390625q-0.671875 0.1875 -1.3125 0.1875q-1.15625 0 -1.75 -0.6875q-0.578125 -0.703125 -0.578125 -1.984375l0 -6.234375l-1.828125 0l0 -1.3125l1.828125 0l0 -2.4375l1.71875 0zm3.3130035 7.359375q0 -1.484375 0.578125 -2.65625q0.578125 -1.171875 1.609375 -1.8125q1.046875 -0.640625 2.375 -0.640625q2.046875 0 3.3125 1.421875q1.265625 1.40625 1.265625 3.765625l0 0.125q0 1.46875 -0.5625 2.640625q-0.5625 1.15625 -1.609375 1.8125q-1.046875 0.640625 -2.390625 0.640625q-2.046875 0 -3.3125 -1.421875q-1.265625 -1.421875 -1.265625 -3.75l0 -0.125zm1.71875 0.203125q0 1.671875 0.78125 2.6875q0.78125 1.0 2.078125 1.0q1.296875 0 2.0625 -1.015625q0.78125 -1.03125 0.78125 -2.875q0 -1.65625 -0.78125 -2.671875q-0.78125 -1.03125 -2.078125 -1.03125q-1.28125 0 -2.0625 1.015625q-0.78125 1.0 -0.78125 2.890625zm14.233643 -3.59375q-0.390625 -0.0625 -0.84375 -0.0625q-1.6875 0 -2.296875 1.4375l0 7.125l-1.71875 0l0 -10.03125l1.671875 0l0.03125 1.15625q0.84375 -1.34375 2.390625 -1.34375q0.5 0 0.765625 0.125l0 1.59375z" fill-rule="nonzero"></path></g></svg>

