<?xml version="1.0" standalone="yes"?>

<svg version="1.1" viewBox="0.0 0.0 831.2414698162729 290.21522309711287" fill="none" stroke="none" stroke-linecap="square" stroke-miterlimit="10" xmlns="http://www.w3.org/2000/svg" xmlns:xlink="http://www.w3.org/1999/xlink"><clipPath id="p.0"><path d="m0 0l831.24146 0l0 290.2152l-831.24146 0l0 -290.2152z" clip-rule="nonzero"></path></clipPath><g clip-path="url(#p.0)"><path fill="#ffffff" d="m0 0l831.24146 0l0 290.2152l-831.24146 0z" fill-rule="evenodd"></path><path fill="#f05732" d="m33.627296 140.25722l40.44095 0l0 39.65355l-40.44095 0z" fill-rule="evenodd"></path><path stroke="#000000" stroke-width="1.0" stroke-linejoin="round" stroke-linecap="butt" d="m33.627296 140.25722l40.44095 0l0 39.65355l-40.44095 0z" fill-rule="evenodd"></path><path fill="#ffffff" d="m55.375435 167.00398l-1.734375 0l0 -11.4375l-3.453125 1.265625l0 -1.5625l4.921875 -1.84375l0.265625 0l0 13.578125z" fill-rule="nonzero"></path><path fill="#f05732" d="m129.1811 100.603676l40.440933 0l0 39.65354l-40.440933 0z" fill-rule="evenodd"></path><path stroke="#000000" stroke-width="1.0" stroke-linejoin="round" stroke-linecap="butt" d="m129.1811 100.603676l40.440933 0l0 39.65354l-40.440933 0z" fill-rule="evenodd"></path><path fill="#ffffff" d="m150.92924 127.35044l-1.734375 0l0 -11.4375l-3.453125 1.265625l0 -1.5625l4.921875 -1.84375l0.265625 0l0 13.578125z" fill-rule="nonzero"></path><path fill="#f05732" d="m129.1811 140.25722l40.440933 0l0 39.65355l-40.440933 0z" fill-rule="evenodd"></path><path stroke="#000000" stroke-width="1.0" stroke-linejoin="round" stroke-linecap="butt" d="m129.1811 140.25722l40.440933 0l0 39.65355l-40.440933 0z" fill-rule="evenodd"></path><path fill="#ffffff" d="m154.13237 167.00398l-8.84375 0l0 -1.234375l4.671875 -5.1875q1.046875 -1.1875 1.4375 -1.921875q0.390625 -0.734375 0.390625 -1.53125q0 -1.046875 -0.640625 -1.71875q-0.640625 -0.6875 -1.703125 -0.6875q-1.28125 0 -2.0 0.734375q-0.703125 0.71875 -0.703125 2.015625l-1.71875 0q0 -1.859375 1.203125 -3.0q1.203125 -1.15625 3.21875 -1.15625q1.875 0 2.96875 0.984375q1.109375 0.984375 1.109375 2.625q0 2.0 -2.546875 4.75l-3.625 3.921875l6.78125 0l0 1.40625z" fill-rule="nonzero"></path><path fill="#f05732" d="m129.1811 179.91077l40.440933 0l0 39.653534l-40.440933 0z" fill-rule="evenodd"></path><path stroke="#000000" stroke-width="1.0" stroke-linejoin="round" stroke-linecap="butt" d="m129.1811 179.91077l40.440933 0l0 39.653534l-40.440933 0z" fill-rule="evenodd"></path><path fill="#ffffff" d="m147.78862 199.06378l1.28125 0q1.21875 -0.015625 1.90625 -0.625q0.703125 -0.625 0.703125 -1.6875q0 -2.375 -2.359375 -2.375q-1.125 0 -1.796875 0.640625q-0.65625 0.625 -0.65625 1.671875l-1.703125 0q0 -1.59375 1.171875 -2.65625q1.171875 -1.0625 2.984375 -1.0625q1.90625 0 2.984375 1.015625q1.09375 1.0 1.09375 2.796875q0 0.890625 -0.578125 1.71875q-0.5625 0.8125 -1.546875 1.21875q1.109375 0.359375 1.71875 1.1875q0.609375 0.8125 0.609375 1.984375q0 1.8125 -1.1875 2.890625q-1.1875 1.0625 -3.09375 1.0625q-1.90625 0 -3.09375 -1.03125q-1.1875 -1.03125 -1.1875 -2.71875l1.71875 0q0 1.0625 0.6875 1.703125q0.703125 0.640625 1.875 0.640625q1.25 0 1.90625 -0.640625q0.65625 -0.65625 0.65625 -1.875q0 -1.171875 -0.734375 -1.796875q-0.71875 -0.640625 -2.078125 -0.65625l-1.28125 0l0 -1.40625z" fill-rule="nonzero"></path><path fill="#f05732" d="m239.78871 100.603676l40.440933 0l0 39.65354l-40.440933 0z" fill-rule="evenodd"></path><path stroke="#000000" stroke-width="1.0" stroke-linejoin="round" stroke-linecap="butt" d="m239.78871 100.603676l40.440933 0l0 39.65354l-40.440933 0z" fill-rule="evenodd"></path><path fill="#ffffff" d="m261.53687 127.35044l-1.734375 0l0 -11.4375l-3.453125 1.265625l0 -1.5625l4.921875 -1.84375l0.265625 0l0 13.578125z" fill-rule="nonzero"></path><path fill="#f05732" d="m239.78871 140.25722l40.440933 0l0 39.65355l-40.440933 0z" fill-rule="evenodd"></path><path stroke="#000000" stroke-width="1.0" stroke-linejoin="round" stroke-linecap="butt" d="m239.78871 140.25722l40.440933 0l0 39.65355l-40.440933 0z" fill-rule="evenodd"></path><path fill="#ffffff" d="m260.96194 167.00398l0 -3.25l-5.9062347 0l0 -1.53125l6.2187347 -8.8125l1.359375 0l0 8.8125l1.84375 0l0 1.53125l-1.84375 0l0 3.25l-1.671875 0zm0 -4.78125l0 -6.140625l-4.25 6.140625l4.25 0z" fill-rule="nonzero"></path><path fill="#f05732" d="m239.78871 179.91077l40.440933 0l0 39.653534l-40.440933 0z" fill-rule="evenodd"></path><path stroke="#000000" stroke-width="1.0" stroke-linejoin="round" stroke-linecap="butt" d="m239.78871 179.91077l40.440933 0l0 39.653534l-40.440933 0z" fill-rule="evenodd"></path><path fill="#ffffff" d="m264.615 194.11066l-5.59375 12.546875l-1.796875 0l5.578125 -12.09375l-7.3125153 0l0 -1.421875l9.125015 0l0 0.96875z" fill-rule="nonzero"></path><path fill="#f05732" d="m320.6706 100.603676l40.44095 0l0 39.65354l-40.44095 0z" fill-rule="evenodd"></path><path stroke="#000000" stroke-width="1.0" stroke-linejoin="round" stroke-linecap="butt" d="m320.6706 100.603676l40.44095 0l0 39.65354l-40.44095 0z" fill-rule="evenodd"></path><path fill="#ffffff" d="m339.2781 119.75669l1.28125 0q1.21875 -0.015625 1.90625 -0.625q0.703125 -0.625 0.703125 -1.6875q0 -2.375 -2.359375 -2.375q-1.125 0 -1.796875 0.640625q-0.65625 0.625 -0.65625 1.671875l-1.703125 0q0 -1.59375 1.171875 -2.65625q1.171875 -1.0625 2.984375 -1.0625q1.90625 0 2.984375 1.015625q1.09375 1.0 1.09375 2.796875q0 0.890625 -0.578125 1.71875q-0.5625 0.8125 -1.546875 1.21875q1.109375 0.359375 1.71875 1.1875q0.609375 0.8125 0.609375 1.984375q0 1.8125 -1.1875 2.890625q-1.1875 1.0625 -3.09375 1.0625q-1.90625 0 -3.09375 -1.03125q-1.1875 -1.03125 -1.1875 -2.71875l1.71875 0q0 1.0625 0.6875 1.703125q0.703125 0.640625 1.875 0.640625q1.25 0 1.90625 -0.640625q0.65625 -0.65625 0.65625 -1.875q0 -1.171875 -0.734375 -1.796875q-0.71875 -0.640625 -2.078125 -0.65625l-1.28125 0l0 -1.40625z" fill-rule="nonzero"></path><path fill="#f05732" d="m320.6706 140.25722l40.44095 0l0 39.65355l-40.44095 0z" fill-rule="evenodd"></path><path stroke="#000000" stroke-width="1.0" stroke-linejoin="round" stroke-linecap="butt" d="m320.6706 140.25722l40.44095 0l0 39.65355l-40.44095 0z" fill-rule="evenodd"></path><path fill="#ffffff" d="m343.51248 153.48836l0 1.453125l-0.3125 0q-2.015625 0.03125 -3.203125 1.1875q-1.1875 1.15625 -1.359375 3.234375q1.0625 -1.21875 2.90625 -1.21875q1.765625 0 2.8125 1.25q1.0625 1.234375 1.0625 3.203125q0 2.09375 -1.140625 3.34375q-1.140625 1.25 -3.046875 1.25q-1.9375 0 -3.15625 -1.484375q-1.203125 -1.5 -1.203125 -3.84375l0 -0.65625q0 -3.734375 1.59375 -5.703125q1.59375 -1.96875 4.734375 -2.015625l0.3125 0zm-2.25 6.078125q-0.890625 0 -1.640625 0.53125q-0.734375 0.53125 -1.015625 1.328125l0 0.640625q0 1.65625 0.75 2.6875q0.75 1.015625 1.875 1.015625q1.15625 0 1.8125 -0.84375q0.671875 -0.859375 0.671875 -2.25q0 -1.390625 -0.671875 -2.25q-0.671875 -0.859375 -1.78125 -0.859375z" fill-rule="nonzero"></path><path fill="#f05732" d="m320.6706 179.91077l40.44095 0l0 39.653534l-40.44095 0z" fill-rule="evenodd"></path><path stroke="#000000" stroke-width="1.0" stroke-linejoin="round" stroke-linecap="butt" d="m320.6706 179.91077l40.44095 0l0 39.653534l-40.44095 0z" fill-rule="evenodd"></path><path fill="#ffffff" d="m343.35623 200.72003q-0.546875 0.640625 -1.296875 1.03125q-0.734375 0.390625 -1.625 0.390625q-1.171875 0 -2.046875 -0.578125q-0.859375 -0.578125 -1.34375 -1.609375q-0.46875 -1.046875 -0.46875 -2.3125q0 -1.359375 0.515625 -2.4375q0.515625 -1.09375 1.453125 -1.65625q0.953125 -0.578125 2.21875 -0.578125q2.0 0 3.15625 1.5q1.15625 1.484375 1.15625 4.078125l0 0.5q0 3.9375 -1.5625 5.765625q-1.546875 1.8125 -4.703125 1.859375l-0.328125 0l0 -1.453125l0.359375 0q2.125 -0.03125 3.265625 -1.109375q1.140625 -1.078125 1.25 -3.390625zm-2.640625 0q0.859375 0 1.578125 -0.53125q0.734375 -0.53125 1.0625 -1.3125l0 -0.6875q0 -1.6875 -0.734375 -2.734375q-0.71875 -1.0625 -1.84375 -1.0625q-1.140625 0 -1.828125 0.875q-0.6875 0.859375 -0.6875 2.28125q0 1.375 0.65625 2.28125q0.671875 0.890625 1.796875 0.890625z" fill-rule="nonzero"></path><path fill="#f05732" d="m280.22964 100.603676l40.44095 0l0 39.65354l-40.44095 0z" fill-rule="evenodd"></path><path stroke="#000000" stroke-width="1.0" stroke-linejoin="round" stroke-linecap="butt" d="m280.22964 100.603676l40.44095 0l0 39.65354l-40.44095 0z" fill-rule="evenodd"></path><path fill="#ffffff" d="m305.1809 127.35044l-8.84375 0l0 -1.234375l4.671875 -5.1875q1.046875 -1.1875 1.4375 -1.921875q0.390625 -0.734375 0.390625 -1.53125q0 -1.046875 -0.640625 -1.71875q-0.640625 -0.6875 -1.703125 -0.6875q-1.28125 0 -2.0 0.734375q-0.703125 0.71875 -0.703125 2.015625l-1.71875 0q0 -1.859375 1.203125 -3.0q1.203125 -1.15625 3.21875 -1.15625q1.875 0 2.96875 0.984375q1.109375 0.984375 1.109375 2.625q0 2.0 -2.546875 4.75l-3.625 3.921875l6.78125 0l0 1.40625z" fill-rule="nonzero"></path><path fill="#f05732" d="m280.22964 140.25722l40.44095 0l0 39.65355l-40.44095 0z" fill-rule="evenodd"></path><path stroke="#000000" stroke-width="1.0" stroke-linejoin="round" stroke-linecap="butt" d="m280.22964 140.25722l40.44095 0l0 39.65355l-40.44095 0z" fill-rule="evenodd"></path><path fill="#ffffff" d="m297.1184 160.23836l0.6875 -6.75l6.921875 0l0 1.59375l-5.46875 0l-0.40625 3.6875q1.0 -0.59375 2.265625 -0.59375q1.84375 0 2.921875 1.21875q1.09375 1.21875 1.09375 3.296875q0 2.09375 -1.140625 3.296875q-1.125 1.203125 -3.140625 1.203125q-1.796875 0 -2.921875 -0.984375q-1.125 -1.0 -1.296875 -2.75l1.625 0q0.15625 1.15625 0.828125 1.75q0.671875 0.578125 1.765625 0.578125q1.203125 0 1.875 -0.8125q0.6875 -0.8125 0.6875 -2.25q0 -1.359375 -0.75 -2.171875q-0.734375 -0.828125 -1.953125 -0.828125q-1.125 0 -1.765625 0.484375l-0.453125 0.375l-1.375 -0.34375z" fill-rule="nonzero"></path><path fill="#f05732" d="m280.22964 179.91077l40.44095 0l0 39.653534l-40.44095 0z" fill-rule="evenodd"></path><path stroke="#000000" stroke-width="1.0" stroke-linejoin="round" stroke-linecap="butt" d="m280.22964 179.91077l40.44095 0l0 39.653534l-40.44095 0z" fill-rule="evenodd"></path><path fill="#ffffff" d="m304.52466 196.67316q0 1.015625 -0.53125 1.8125q-0.53125 0.78125 -1.4375 1.21875q1.046875 0.453125 1.65625 1.328125q0.625 0.875 0.625 1.984375q0 1.75 -1.1875 2.796875q-1.171875 1.03125 -3.109375 1.03125q-1.9375 0 -3.109375 -1.046875q-1.171875 -1.046875 -1.171875 -2.78125q0 -1.09375 0.59375 -1.96875q0.59375 -0.890625 1.65625 -1.34375q-0.90625 -0.453125 -1.421875 -1.234375q-0.515625 -0.796875 -0.515625 -1.796875q0 -1.703125 1.09375 -2.703125q1.09375 -1.0 2.875 -1.0q1.78125 0 2.875 1.0q1.109375 1.0 1.109375 2.703125zm-1.40625 6.296875q0 -1.125 -0.71875 -1.84375q-0.71875 -0.71875 -1.875 -0.71875q-1.15625 0 -1.859375 0.71875q-0.703125 0.703125 -0.703125 1.859375q0 1.140625 0.6875 1.796875q0.6875 0.65625 1.890625 0.65625q1.21875 0 1.890625 -0.65625q0.6875 -0.671875 0.6875 -1.8125zm-2.578125 -8.59375q-1.0 0 -1.625 0.625q-0.625 0.625 -0.625 1.703125q0 1.03125 0.609375 1.671875q0.625 0.625 1.640625 0.625q1.03125 0 1.640625 -0.625q0.625 -0.640625 0.625 -1.671875q0 -1.03125 -0.640625 -1.671875q-0.640625 -0.65625 -1.625 -0.65625z" fill-rule="nonzero"></path><path fill="#999999" d="m467.87927 100.603676l40.44095 0l0 39.65354l-40.44095 0z" fill-rule="evenodd"></path><path stroke="#000000" stroke-width="1.0" stroke-linejoin="round" stroke-linecap="butt" d="m467.87927 100.603676l40.44095 0l0 39.65354l-40.44095 0z" fill-rule="evenodd"></path><path fill="#ffffff" d="m489.6274 127.35044l-1.734375 0l0 -11.4375l-3.453125 1.265625l0 -1.5625l4.921875 -1.84375l0.265625 0l0 13.578125z" fill-rule="nonzero"></path><path fill="#cfe2f3" d="m467.87927 140.25722l40.44095 0l0 39.65355l-40.44095 0z" fill-rule="evenodd"></path><path stroke="#000000" stroke-width="1.0" stroke-linejoin="round" stroke-linecap="butt" d="m467.87927 140.25722l40.44095 0l0 39.65355l-40.44095 0z" fill-rule="evenodd"></path><path fill="#ffffff" d="m489.0525 167.00398l0 -3.25l-5.90625 0l0 -1.53125l6.21875 -8.8125l1.359375 0l0 8.8125l1.84375 0l0 1.53125l-1.84375 0l0 3.25l-1.671875 0zm0 -4.78125l0 -6.140625l-4.25 6.140625l4.25 0z" fill-rule="nonzero"></path><path fill="#cfe2f3" d="m467.87927 179.91077l40.44095 0l0 39.653534l-40.44095 0z" fill-rule="evenodd"></path><path stroke="#000000" stroke-width="1.0" stroke-linejoin="round" stroke-linecap="butt" d="m467.87927 179.91077l40.44095 0l0 39.653534l-40.44095 0z" fill-rule="evenodd"></path><path fill="#ffffff" d="m492.70554 194.11066l-5.59375 12.546875l-1.796875 0l5.578125 -12.09375l-7.3125 0l0 -1.421875l9.125 0l0 0.96875z" fill-rule="nonzero"></path><path fill="#999999" d="m548.76117 100.603676l40.440918 0l0 39.65354l-40.440918 0z" fill-rule="evenodd"></path><path stroke="#000000" stroke-width="1.0" stroke-linejoin="round" stroke-linecap="butt" d="m548.76117 100.603676l40.440918 0l0 39.65354l-40.440918 0z" fill-rule="evenodd"></path><path fill="#ffffff" d="m567.36865 119.75669l1.28125 0q1.21875 -0.015625 1.90625 -0.625q0.703125 -0.625 0.703125 -1.6875q0 -2.375 -2.359375 -2.375q-1.125 0 -1.796875 0.640625q-0.65625 0.625 -0.65625 1.671875l-1.703125 0q0 -1.59375 1.171875 -2.65625q1.171875 -1.0625 2.984375 -1.0625q1.90625 0 2.984375 1.015625q1.09375 1.0 1.09375 2.796875q0 0.890625 -0.578125 1.71875q-0.5625 0.8125 -1.546875 1.21875q1.109375 0.359375 1.71875 1.1875q0.609375 0.8125 0.609375 1.984375q0 1.8125 -1.1875 2.890625q-1.1875 1.0625 -3.09375 1.0625q-1.90625 0 -3.09375 -1.03125q-1.1875 -1.03125 -1.1875 -2.71875l1.71875 0q0 1.0625 0.6875 1.703125q0.703125 0.640625 1.875 0.640625q1.25 0 1.90625 -0.640625q0.65625 -0.65625 0.65625 -1.875q0 -1.171875 -0.734375 -1.796875q-0.71875 -0.640625 -2.078125 -0.65625l-1.28125 0l0 -1.40625z" fill-rule="nonzero"></path><path fill="#999999" d="m548.76117 140.25722l40.440918 0l0 39.65355l-40.440918 0z" fill-rule="evenodd"></path><path stroke="#000000" stroke-width="1.0" stroke-linejoin="round" stroke-linecap="butt" d="m548.76117 140.25722l40.440918 0l0 39.65355l-40.440918 0z" fill-rule="evenodd"></path><path fill="#ffffff" d="m571.603 153.48836l0 1.453125l-0.3125 0q-2.015625 0.03125 -3.203125 1.1875q-1.1875 1.15625 -1.359375 3.234375q1.0625 -1.21875 2.90625 -1.21875q1.765625 0 2.8125 1.25q1.0625 1.234375 1.0625 3.203125q0 2.09375 -1.140625 3.34375q-1.140625 1.25 -3.046875 1.25q-1.9375 0 -3.15625 -1.484375q-1.203125 -1.5 -1.203125 -3.84375l0 -0.65625q0 -3.734375 1.59375 -5.703125q1.59375 -1.96875 4.734375 -2.015625l0.3125 0zm-2.25 6.078125q-0.890625 0 -1.640625 0.53125q-0.734375 0.53125 -1.015625 1.328125l0 0.640625q0 1.65625 0.75 2.6875q0.75 1.015625 1.875 1.015625q1.15625 0 1.8125 -0.84375q0.671875 -0.859375 0.671875 -2.25q0 -1.390625 -0.671875 -2.25q-0.671875 -0.859375 -1.78125 -0.859375z" fill-rule="nonzero"></path><path fill="#999999" d="m548.76117 179.91077l40.440918 0l0 39.653534l-40.440918 0z" fill-rule="evenodd"></path><path stroke="#000000" stroke-width="1.0" stroke-linejoin="round" stroke-linecap="butt" d="m548.76117 179.91077l40.440918 0l0 39.653534l-40.440918 0z" fill-rule="evenodd"></path><path fill="#ffffff" d="m571.4468 200.72003q-0.546875 0.640625 -1.296875 1.03125q-0.734375 0.390625 -1.625 0.390625q-1.171875 0 -2.046875 -0.578125q-0.859375 -0.578125 -1.34375 -1.609375q-0.46875 -1.046875 -0.46875 -2.3125q0 -1.359375 0.515625 -2.4375q0.515625 -1.09375 1.453125 -1.65625q0.953125 -0.578125 2.21875 -0.578125q2.0 0 3.15625 1.5q1.15625 1.484375 1.15625 4.078125l0 0.5q0 3.9375 -1.5625 5.765625q-1.546875 1.8125 -4.703125 1.859375l-0.328125 0l0 -1.453125l0.359375 0q2.125 -0.03125 3.265625 -1.109375q1.140625 -1.078125 1.25 -3.390625zm-2.640625 0q0.859375 0 1.578125 -0.53125q0.734375 -0.53125 1.0625 -1.3125l0 -0.6875q0 -1.6875 -0.734375 -2.734375q-0.71875 -1.0625 -1.84375 -1.0625q-1.140625 0 -1.828125 0.875q-0.6875 0.859375 -0.6875 2.28125q0 1.375 0.65625 2.28125q0.671875 0.890625 1.796875 0.890625z" fill-rule="nonzero"></path><path fill="#999999" d="m508.32022 100.603676l40.44095 0l0 39.65354l-40.44095 0z" fill-rule="evenodd"></path><path stroke="#000000" stroke-width="1.0" stroke-linejoin="round" stroke-linecap="butt" d="m508.32022 100.603676l40.44095 0l0 39.65354l-40.44095 0z" fill-rule="evenodd"></path><path fill="#ffffff" d="m533.2715 127.35044l-8.84375 0l0 -1.234375l4.671875 -5.1875q1.046875 -1.1875 1.4375 -1.921875q0.390625 -0.734375 0.390625 -1.53125q0 -1.046875 -0.640625 -1.71875q-0.640625 -0.6875 -1.703125 -0.6875q-1.28125 0 -2.0 0.734375q-0.703125 0.71875 -0.703125 2.015625l-1.71875 0q0 -1.859375 1.203125 -3.0q1.203125 -1.15625 3.21875 -1.15625q1.875 0 2.96875 0.984375q1.109375 0.984375 1.109375 2.625q0 2.0 -2.546875 4.75l-3.625 3.921875l6.78125 0l0 1.40625z" fill-rule="nonzero"></path><path fill="#cfe2f3" d="m508.32022 140.25722l40.44095 0l0 39.65355l-40.44095 0z" fill-rule="evenodd"></path><path stroke="#000000" stroke-width="1.0" stroke-linejoin="round" stroke-linecap="butt" d="m508.32022 140.25722l40.44095 0l0 39.65355l-40.44095 0z" fill-rule="evenodd"></path><path fill="#ffffff" d="m525.209 160.23836l0.6875 -6.75l6.921875 0l0 1.59375l-5.46875 0l-0.40625 3.6875q1.0 -0.59375 2.265625 -0.59375q1.84375 0 2.921875 1.21875q1.09375 1.21875 1.09375 3.296875q0 2.09375 -1.140625 3.296875q-1.125 1.203125 -3.140625 1.203125q-1.796875 0 -2.921875 -0.984375q-1.125 -1.0 -1.296875 -2.75l1.625 0q0.15625 1.15625 0.828125 1.75q0.671875 0.578125 1.765625 0.578125q1.203125 0 1.875 -0.8125q0.6875 -0.8125 0.6875 -2.25q0 -1.359375 -0.75 -2.171875q-0.734375 -0.828125 -1.953125 -0.828125q-1.125 0 -1.765625 0.484375l-0.453125 0.375l-1.375 -0.34375z" fill-rule="nonzero"></path><path fill="#cfe2f3" d="m508.32022 179.91077l40.44095 0l0 39.653534l-40.44095 0z" fill-rule="evenodd"></path><path stroke="#000000" stroke-width="1.0" stroke-linejoin="round" stroke-linecap="butt" d="m508.32022 179.91077l40.44095 0l0 39.653534l-40.44095 0z" fill-rule="evenodd"></path><path fill="#ffffff" d="m532.61523 196.67316q0 1.015625 -0.53125 1.8125q-0.53125 0.78125 -1.4375 1.21875q1.046875 0.453125 1.65625 1.328125q0.625 0.875 0.625 1.984375q0 1.75 -1.1875 2.796875q-1.171875 1.03125 -3.109375 1.03125q-1.9375 0 -3.109375 -1.046875q-1.171875 -1.046875 -1.171875 -2.78125q0 -1.09375 0.59375 -1.96875q0.59375 -0.890625 1.65625 -1.34375q-0.90625 -0.453125 -1.421875 -1.234375q-0.515625 -0.796875 -0.515625 -1.796875q0 -1.703125 1.09375 -2.703125q1.09375 -1.0 2.875 -1.0q1.78125 0 2.875 1.0q1.109375 1.0 1.109375 2.703125zm-1.40625 6.296875q0 -1.125 -0.71875 -1.84375q-0.71875 -0.71875 -1.875 -0.71875q-1.15625 0 -1.859375 0.71875q-0.703125 0.703125 -0.703125 1.859375q0 1.140625 0.6875 1.796875q0.6875 0.65625 1.890625 0.65625q1.21875 0 1.890625 -0.65625q0.6875 -0.671875 0.6875 -1.8125zm-2.578125 -8.59375q-1.0 0 -1.625 0.625q-0.625 0.625 -0.625 1.703125q0 1.03125 0.609375 1.671875q0.625 0.625 1.640625 0.625q1.03125 0 1.640625 -0.625q0.625 -0.640625 0.625 -1.671875q0 -1.03125 -0.640625 -1.671875q-0.640625 -0.65625 -1.625 -0.65625z" fill-rule="nonzero"></path><path fill="#942174" d="m445.95013 119.480316l40.44095 0l0 39.65355l-40.44095 0z" fill-rule="evenodd"></path><path stroke="#000000" stroke-width="1.0" stroke-linejoin="round" stroke-linecap="butt" d="m445.95013 119.480316l40.44095 0l0 39.65355l-40.44095 0z" fill-rule="evenodd"></path><path fill="#ffffff" d="m467.69827 146.22708l-1.734375 0l0 -11.4375l-3.453125 1.265625l0 -1.5625l4.921875 -1.84375l0.265625 0l0 13.578125z" fill-rule="nonzero"></path><path fill="#d9ead3" d="m445.95013 159.13387l40.44095 0l0 39.653534l-40.44095 0z" fill-rule="evenodd"></path><path stroke="#000000" stroke-width="1.0" stroke-linejoin="round" stroke-linecap="butt" d="m445.95013 159.13387l40.44095 0l0 39.653534l-40.44095 0z" fill-rule="evenodd"></path><path fill="#ffffff" d="m467.12338 185.88063l0 -3.25l-5.90625 0l0 -1.53125l6.21875 -8.8125l1.359375 0l0 8.8125l1.84375 0l0 1.53125l-1.84375 0l0 3.25l-1.671875 0zm0 -4.78125l0 -6.140625l-4.25 6.140625l4.25 0z" fill-rule="nonzero"></path><path fill="#d9ead3" d="m445.95013 198.7874l40.44095 0l0 39.65355l-40.44095 0z" fill-rule="evenodd"></path><path stroke="#000000" stroke-width="1.0" stroke-linejoin="round" stroke-linecap="butt" d="m445.95013 198.7874l40.44095 0l0 39.65355l-40.44095 0z" fill-rule="evenodd"></path><path fill="#ffffff" d="m470.7764 212.98729l-5.59375 12.546875l-1.796875 0l5.578125 -12.09375l-7.3125 0l0 -1.421875l9.125 0l0 0.96875z" fill-rule="nonzero"></path><path fill="#942174" d="m526.83203 119.480316l40.440918 0l0 39.65355l-40.440918 0z" fill-rule="evenodd"></path><path stroke="#000000" stroke-width="1.0" stroke-linejoin="round" stroke-linecap="butt" d="m526.83203 119.480316l40.440918 0l0 39.65355l-40.440918 0z" fill-rule="evenodd"></path><path fill="#ffffff" d="m545.4395 138.63333l1.28125 0q1.21875 -0.015625 1.90625 -0.625q0.703125 -0.625 0.703125 -1.6875q0 -2.375 -2.359375 -2.375q-1.125 0 -1.796875 0.640625q-0.65625 0.625 -0.65625 1.671875l-1.703125 0q0 -1.59375 1.171875 -2.65625q1.171875 -1.0625 2.984375 -1.0625q1.90625 0 2.984375 1.015625q1.09375 1.0 1.09375 2.796875q0 0.890625 -0.578125 1.71875q-0.5625 0.8125 -1.546875 1.21875q1.109375 0.359375 1.71875 1.1875q0.609375 0.8125 0.609375 1.984375q0 1.8125 -1.1875 2.890625q-1.1875 1.0625 -3.09375 1.0625q-1.90625 0 -3.09375 -1.03125q-1.1875 -1.03125 -1.1875 -2.71875l1.71875 0q0 1.0625 0.6875 1.703125q0.703125 0.640625 1.875 0.640625q1.25 0 1.90625 -0.640625q0.65625 -0.65625 0.65625 -1.875q0 -1.171875 -0.734375 -1.796875q-0.71875 -0.640625 -2.078125 -0.65625l-1.28125 0l0 -1.40625z" fill-rule="nonzero"></path><path fill="#942174" d="m526.83203 159.13387l40.440918 0l0 39.653534l-40.440918 0z" fill-rule="evenodd"></path><path stroke="#000000" stroke-width="1.0" stroke-linejoin="round" stroke-linecap="butt" d="m526.83203 159.13387l40.440918 0l0 39.653534l-40.440918 0z" fill-rule="evenodd"></path><path fill="#ffffff" d="m549.6739 172.365l0 1.453125l-0.3125 0q-2.015625 0.03125 -3.203125 1.1875q-1.1875 1.15625 -1.359375 3.234375q1.0625 -1.21875 2.90625 -1.21875q1.765625 0 2.8125 1.25q1.0625 1.234375 1.0625 3.203125q0 2.09375 -1.140625 3.34375q-1.140625 1.25 -3.046875 1.25q-1.9375 0 -3.15625 -1.484375q-1.203125 -1.5 -1.203125 -3.84375l0 -0.65625q0 -3.734375 1.59375 -5.703125q1.59375 -1.96875 4.734375 -2.015625l0.3125 0zm-2.25 6.078125q-0.890625 0 -1.640625 0.53125q-0.734375 0.53125 -1.015625 1.328125l0 0.640625q0 1.65625 0.75 2.6875q0.75 1.015625 1.875 1.015625q1.15625 0 1.8125 -0.84375q0.671875 -0.859375 0.671875 -2.25q0 -1.390625 -0.671875 -2.25q-0.671875 -0.859375 -1.78125 -0.859375z" fill-rule="nonzero"></path><path fill="#942174" d="m526.83203 198.7874l40.440918 0l0 39.65355l-40.440918 0z" fill-rule="evenodd"></path><path stroke="#000000" stroke-width="1.0" stroke-linejoin="round" stroke-linecap="butt" d="m526.83203 198.7874l40.440918 0l0 39.65355l-40.440918 0z" fill-rule="evenodd"></path><path fill="#ffffff" d="m549.51764 219.59666q-0.546875 0.640625 -1.296875 1.03125q-0.734375 0.390625 -1.625 0.390625q-1.171875 0 -2.046875 -0.578125q-0.859375 -0.578125 -1.34375 -1.609375q-0.46875 -1.046875 -0.46875 -2.3125q0 -1.359375 0.515625 -2.4375q0.515625 -1.09375 1.453125 -1.65625q0.953125 -0.578125 2.21875 -0.578125q2.0 0 3.15625 1.5q1.15625 1.484375 1.15625 4.078125l0 0.5q0 3.9375 -1.5625 5.765625q-1.546875 1.8125 -4.703125 1.859375l-0.328125 0l0 -1.453125l0.359375 0q2.125 -0.03125 3.265625 -1.109375q1.140625 -1.078125 1.25 -3.390625zm-2.640625 0q0.859375 0 1.578125 -0.53125q0.734375 -0.53125 1.0625 -1.3125l0 -0.6875q0 -1.6875 -0.734375 -2.734375q-0.71875 -1.0625 -1.84375 -1.0625q-1.140625 0 -1.828125 0.875q-0.6875 0.859375 -0.6875 2.28125q0 1.375 0.65625 2.28125q0.671875 0.890625 1.796875 0.890625z" fill-rule="nonzero"></path><path fill="#942174" d="m486.39108 119.480316l40.44095 0l0 39.65355l-40.44095 0z" fill-rule="evenodd"></path><path stroke="#000000" stroke-width="1.0" stroke-linejoin="round" stroke-linecap="butt" d="m486.39108 119.480316l40.44095 0l0 39.65355l-40.44095 0z" fill-rule="evenodd"></path><path fill="#ffffff" d="m511.34235 146.22708l-8.84375 0l0 -1.234375l4.671875 -5.1875q1.046875 -1.1875 1.4375 -1.921875q0.390625 -0.734375 0.390625 -1.53125q0 -1.046875 -0.640625 -1.71875q-0.640625 -0.6875 -1.703125 -0.6875q-1.28125 0 -2.0 0.734375q-0.703125 0.71875 -0.703125 2.015625l-1.71875 0q0 -1.859375 1.203125 -3.0q1.203125 -1.15625 3.21875 -1.15625q1.875 0 2.96875 0.984375q1.109375 0.984375 1.109375 2.625q0 2.0 -2.546875 4.75l-3.625 3.921875l6.78125 0l0 1.40625z" fill-rule="nonzero"></path><path fill="#d9ead3" d="m486.39108 159.13387l40.44095 0l0 39.653534l-40.44095 0z" fill-rule="evenodd"></path><path stroke="#000000" stroke-width="1.0" stroke-linejoin="round" stroke-linecap="butt" d="m486.39108 159.13387l40.44095 0l0 39.653534l-40.44095 0z" fill-rule="evenodd"></path><path fill="#ffffff" d="m503.27985 179.115l0.6875 -6.75l6.921875 0l0 1.59375l-5.46875 0l-0.40625 3.6875q1.0 -0.59375 2.265625 -0.59375q1.84375 0 2.921875 1.21875q1.09375 1.21875 1.09375 3.296875q0 2.09375 -1.140625 3.296875q-1.125 1.203125 -3.140625 1.203125q-1.796875 0 -2.921875 -0.984375q-1.125 -1.0 -1.296875 -2.75l1.625 0q0.15625 1.15625 0.828125 1.75q0.671875 0.578125 1.765625 0.578125q1.203125 0 1.875 -0.8125q0.6875 -0.8125 0.6875 -2.25q0 -1.359375 -0.75 -2.171875q-0.734375 -0.828125 -1.953125 -0.828125q-1.125 0 -1.765625 0.484375l-0.453125 0.375l-1.375 -0.34375z" fill-rule="nonzero"></path><path fill="#d9ead3" d="m486.39108 198.7874l40.44095 0l0 39.65355l-40.44095 0z" fill-rule="evenodd"></path><path stroke="#000000" stroke-width="1.0" stroke-linejoin="round" stroke-linecap="butt" d="m486.39108 198.7874l40.44095 0l0 39.65355l-40.44095 0z" fill-rule="evenodd"></path><path fill="#ffffff" d="m510.6861 215.54979q0 1.015625 -0.53125 1.8125q-0.53125 0.78125 -1.4375 1.21875q1.046875 0.453125 1.65625 1.328125q0.625 0.875 0.625 1.984375q0 1.75 -1.1875 2.796875q-1.171875 1.03125 -3.109375 1.03125q-1.9375 0 -3.109375 -1.046875q-1.171875 -1.046875 -1.171875 -2.78125q0 -1.09375 0.59375 -1.96875q0.59375 -0.890625 1.65625 -1.34375q-0.90625 -0.453125 -1.421875 -1.234375q-0.515625 -0.796875 -0.515625 -1.796875q0 -1.703125 1.09375 -2.703125q1.09375 -1.0 2.875 -1.0q1.78125 0 2.875 1.0q1.109375 1.0 1.109375 2.703125zm-1.40625 6.296875q0 -1.125 -0.71875 -1.84375q-0.71875 -0.71875 -1.875 -0.71875q-1.15625 0 -1.859375 0.71875q-0.703125 0.703125 -0.703125 1.859375q0 1.140625 0.6875 1.796875q0.6875 0.65625 1.890625 0.65625q1.21875 0 1.890625 -0.65625q0.6875 -0.671875 0.6875 -1.8125zm-2.578125 -8.59375q-1.0 0 -1.625 0.625q-0.625 0.625 -0.625 1.703125q0 1.03125 0.609375 1.671875q0.625 0.625 1.640625 0.625q1.03125 0 1.640625 -0.625q0.625 -0.640625 0.625 -1.671875q0 -1.03125 -0.640625 -1.671875q-0.640625 -0.65625 -1.625 -0.65625z" fill-rule="nonzero"></path><path fill="#f05732" d="m421.14172 140.25722l40.44095 0l0 39.65355l-40.44095 0z" fill-rule="evenodd"></path><path stroke="#000000" stroke-width="1.0" stroke-linejoin="round" stroke-linecap="butt" d="m421.14172 140.25722l40.44095 0l0 39.65355l-40.44095 0z" fill-rule="evenodd"></path><path fill="#ffffff" d="m442.88986 167.00398l-1.734375 0l0 -11.4375l-3.453125 1.265625l0 -1.5625l4.921875 -1.84375l0.265625 0l0 13.578125z" fill-rule="nonzero"></path><path fill="#f05732" d="m421.14172 179.91077l40.44095 0l0 39.653534l-40.44095 0z" fill-rule="evenodd"></path><path stroke="#000000" stroke-width="1.0" stroke-linejoin="round" stroke-linecap="butt" d="m421.14172 179.91077l40.44095 0l0 39.653534l-40.44095 0z" fill-rule="evenodd"></path><path fill="#ffffff" d="m442.31497 206.65753l0 -3.25l-5.90625 0l0 -1.53125l6.21875 -8.8125l1.359375 0l0 8.8125l1.84375 0l0 1.53125l-1.84375 0l0 3.25l-1.671875 0zm0 -4.78125l0 -6.140625l-4.25 6.140625l4.25 0z" fill-rule="nonzero"></path><path fill="#f05732" d="m421.14172 219.5643l40.44095 0l0 39.653534l-40.44095 0z" fill-rule="evenodd"></path><path stroke="#000000" stroke-width="1.0" stroke-linejoin="round" stroke-linecap="butt" d="m421.14172 219.5643l40.44095 0l0 39.653534l-40.44095 0z" fill-rule="evenodd"></path><path fill="#ffffff" d="m445.968 233.7642l-5.59375 12.546875l-1.796875 0l5.578125 -12.09375l-7.3125 0l0 -1.421875l9.125 0l0 0.96875z" fill-rule="nonzero"></path><path fill="#f05732" d="m502.02362 140.25722l40.440918 0l0 39.65355l-40.440918 0z" fill-rule="evenodd"></path><path stroke="#000000" stroke-width="1.0" stroke-linejoin="round" stroke-linecap="butt" d="m502.02362 140.25722l40.440918 0l0 39.65355l-40.440918 0z" fill-rule="evenodd"></path><path fill="#ffffff" d="m520.6311 159.41023l1.28125 0q1.21875 -0.015625 1.90625 -0.625q0.703125 -0.625 0.703125 -1.6875q0 -2.375 -2.359375 -2.375q-1.125 0 -1.796875 0.640625q-0.65625 0.625 -0.65625 1.671875l-1.703125 0q0 -1.59375 1.171875 -2.65625q1.171875 -1.0625 2.984375 -1.0625q1.90625 0 2.984375 1.015625q1.09375 1.0 1.09375 2.796875q0 0.890625 -0.578125 1.71875q-0.5625 0.8125 -1.546875 1.21875q1.109375 0.359375 1.71875 1.1875q0.609375 0.8125 0.609375 1.984375q0 1.8125 -1.1875 2.890625q-1.1875 1.0625 -3.09375 1.0625q-1.90625 0 -3.09375 -1.03125q-1.1875 -1.03125 -1.1875 -2.71875l1.71875 0q0 1.0625 0.6875 1.703125q0.703125 0.640625 1.875 0.640625q1.25 0 1.90625 -0.640625q0.65625 -0.65625 0.65625 -1.875q0 -1.171875 -0.734375 -1.796875q-0.71875 -0.640625 -2.078125 -0.65625l-1.28125 0l0 -1.40625z" fill-rule="nonzero"></path><path fill="#f05732" d="m502.02362 179.91077l40.440918 0l0 39.653534l-40.440918 0z" fill-rule="evenodd"></path><path stroke="#000000" stroke-width="1.0" stroke-linejoin="round" stroke-linecap="butt" d="m502.02362 179.91077l40.440918 0l0 39.653534l-40.440918 0z" fill-rule="evenodd"></path><path fill="#ffffff" d="m524.8655 193.1419l0 1.453125l-0.3125 0q-2.015625 0.03125 -3.203125 1.1875q-1.1875 1.15625 -1.359375 3.234375q1.0625 -1.21875 2.90625 -1.21875q1.765625 0 2.8125 1.25q1.0625 1.234375 1.0625 3.203125q0 2.09375 -1.140625 3.34375q-1.140625 1.25 -3.046875 1.25q-1.9375 0 -3.15625 -1.484375q-1.203125 -1.5 -1.203125 -3.84375l0 -0.65625q0 -3.734375 1.59375 -5.703125q1.59375 -1.96875 4.734375 -2.015625l0.3125 0zm-2.25 6.078125q-0.890625 0 -1.640625 0.53125q-0.734375 0.53125 -1.015625 1.328125l0 0.640625q0 1.65625 0.75 2.6875q0.75 1.015625 1.875 1.015625q1.15625 0 1.8125 -0.84375q0.671875 -0.859375 0.671875 -2.25q0 -1.390625 -0.671875 -2.25q-0.671875 -0.859375 -1.78125 -0.859375z" fill-rule="nonzero"></path><path fill="#f05732" d="m502.02362 219.5643l40.440918 0l0 39.653534l-40.440918 0z" fill-rule="evenodd"></path><path stroke="#000000" stroke-width="1.0" stroke-linejoin="round" stroke-linecap="butt" d="m502.02362 219.5643l40.440918 0l0 39.653534l-40.440918 0z" fill-rule="evenodd"></path><path fill="#ffffff" d="m524.7092 240.37358q-0.546875 0.640625 -1.296875 1.03125q-0.734375 0.390625 -1.625 0.390625q-1.171875 0 -2.046875 -0.578125q-0.859375 -0.578125 -1.34375 -1.609375q-0.46875 -1.046875 -0.46875 -2.3125q0 -1.359375 0.515625 -2.4375q0.515625 -1.09375 1.453125 -1.65625q0.953125 -0.578125 2.21875 -0.578125q2.0 0 3.15625 1.5q1.15625 1.484375 1.15625 4.078125l0 0.5q0 3.9375 -1.5625 5.765625q-1.546875 1.8125 -4.703125 1.859375l-0.328125 0l0 -1.453125l0.359375 0q2.125 -0.03125 3.265625 -1.109375q1.140625 -1.078125 1.25 -3.390625zm-2.640625 0q0.859375 0 1.578125 -0.53125q0.734375 -0.53125 1.0625 -1.3125l0 -0.6875q0 -1.6875 -0.734375 -2.734375q-0.71875 -1.0625 -1.84375 -1.0625q-1.140625 0 -1.828125 0.875q-0.6875 0.859375 -0.6875 2.28125q0 1.375 0.65625 2.28125q0.671875 0.890625 1.796875 0.890625z" fill-rule="nonzero"></path><path fill="#f05732" d="m461.58267 140.25722l40.44095 0l0 39.65355l-40.44095 0z" fill-rule="evenodd"></path><path stroke="#000000" stroke-width="1.0" stroke-linejoin="round" stroke-linecap="butt" d="m461.58267 140.25722l40.44095 0l0 39.65355l-40.44095 0z" fill-rule="evenodd"></path><path fill="#ffffff" d="m486.53394 167.00398l-8.84375 0l0 -1.234375l4.671875 -5.1875q1.046875 -1.1875 1.4375 -1.921875q0.390625 -0.734375 0.390625 -1.53125q0 -1.046875 -0.640625 -1.71875q-0.640625 -0.6875 -1.703125 -0.6875q-1.28125 0 -2.0 0.734375q-0.703125 0.71875 -0.703125 2.015625l-1.71875 0q0 -1.859375 1.203125 -3.0q1.203125 -1.15625 3.21875 -1.15625q1.875 0 2.96875 0.984375q1.109375 0.984375 1.109375 2.625q0 2.0 -2.546875 4.75l-3.625 3.921875l6.78125 0l0 1.40625z" fill-rule="nonzero"></path><path fill="#f05732" d="m461.58267 179.91077l40.44095 0l0 39.653534l-40.44095 0z" fill-rule="evenodd"></path><path stroke="#000000" stroke-width="1.0" stroke-linejoin="round" stroke-linecap="butt" d="m461.58267 179.91077l40.44095 0l0 39.653534l-40.44095 0z" fill-rule="evenodd"></path><path fill="#ffffff" d="m478.47144 199.8919l0.6875 -6.75l6.921875 0l0 1.59375l-5.46875 0l-0.40625 3.6875q1.0 -0.59375 2.265625 -0.59375q1.84375 0 2.921875 1.21875q1.09375 1.21875 1.09375 3.296875q0 2.09375 -1.140625 3.296875q-1.125 1.203125 -3.140625 1.203125q-1.796875 0 -2.921875 -0.984375q-1.125 -1.0 -1.296875 -2.75l1.625 0q0.15625 1.15625 0.828125 1.75q0.671875 0.578125 1.765625 0.578125q1.203125 0 1.875 -0.8125q0.6875 -0.8125 0.6875 -2.25q0 -1.359375 -0.75 -2.171875q-0.734375 -0.828125 -1.953125 -0.828125q-1.125 0 -1.765625 0.484375l-0.453125 0.375l-1.375 -0.34375z" fill-rule="nonzero"></path><path fill="#f05732" d="m461.58267 219.5643l40.44095 0l0 39.653534l-40.44095 0z" fill-rule="evenodd"></path><path stroke="#000000" stroke-width="1.0" stroke-linejoin="round" stroke-linecap="butt" d="m461.58267 219.5643l40.44095 0l0 39.653534l-40.44095 0z" fill-rule="evenodd"></path><path fill="#ffffff" d="m485.8777 236.3267q0 1.015625 -0.53125 1.8125q-0.53125 0.78125 -1.4375 1.21875q1.046875 0.453125 1.65625 1.328125q0.625 0.875 0.625 1.984375q0 1.75 -1.1875 2.796875q-1.171875 1.03125 -3.109375 1.03125q-1.9375 0 -3.109375 -1.046875q-1.171875 -1.046875 -1.171875 -2.78125q0 -1.09375 0.59375 -1.96875q0.59375 -0.890625 1.65625 -1.34375q-0.90625 -0.453125 -1.421875 -1.234375q-0.515625 -0.796875 -0.515625 -1.796875q0 -1.703125 1.09375 -2.703125q1.09375 -1.0 2.875 -1.0q1.78125 0 2.875 1.0q1.109375 1.0 1.109375 2.703125zm-1.40625 6.296875q0 -1.125 -0.71875 -1.84375q-0.71875 -0.71875 -1.875 -0.71875q-1.15625 0 -1.859375 0.71875q-0.703125 0.703125 -0.703125 1.859375q0 1.140625 0.6875 1.796875q0.6875 0.65625 1.890625 0.65625q1.21875 0 1.890625 -0.65625q0.6875 -0.671875 0.6875 -1.8125zm-2.578125 -8.59375q-1.0 0 -1.625 0.625q-0.625 0.625 -0.625 1.703125q0 1.03125 0.609375 1.671875q0.625 0.625 1.640625 0.625q1.03125 0 1.640625 -0.625q0.625 -0.640625 0.625 -1.671875q0 -1.03125 -0.640625 -1.671875q-0.640625 -0.65625 -1.625 -0.65625z" fill-rule="nonzero"></path><path fill="#000000" fill-opacity="0.0" d="m2.1417322 14.139108l98.17323 0l0 62.551186l-98.17323 0z" fill-rule="evenodd"></path><path fill="#000000" d="m38.014477 30.862232q-1.4375 -0.421875 -2.109375 -1.03125q-0.65625 -0.609375 -0.65625 -1.5q0 -1.0 0.796875 -1.65625q0.8125 -0.671875 2.109375 -0.671875q0.875 0 1.5625 0.34375q0.6875 0.34375 1.0625 0.9375q0.390625 0.59375 0.390625 1.3125l-1.140625 0q0 -0.78125 -0.5 -1.21875q-0.484375 -0.4375 -1.375 -0.4375q-0.828125 0 -1.296875 0.375q-0.46875 0.359375 -0.46875 1.0q0 0.53125 0.4375 0.890625q0.453125 0.359375 1.515625 0.65625q1.0625 0.296875 1.65625 0.65625q0.609375 0.359375 0.890625 0.84375q0.296875 0.484375 0.296875 1.125q0 1.046875 -0.8125 1.671875q-0.8125 0.625 -2.15625 0.625q-0.890625 0 -1.65625 -0.34375q-0.75 -0.34375 -1.171875 -0.921875q-0.40625 -0.59375 -0.40625 -1.328125l1.125 0q0 0.765625 0.578125 1.21875q0.578125 0.453125 1.53125 0.453125q0.890625 0 1.359375 -0.359375q0.46875 -0.375 0.46875 -1.0q0 -0.625 -0.4375 -0.96875q-0.4375 -0.34375 -1.59375 -0.671875zm6.9785156 3.03125q0.578125 0 1.015625 -0.34375q0.4375 -0.359375 0.484375 -0.890625l1.03125 0q-0.03125 0.546875 -0.390625 1.046875q-0.34375 0.484375 -0.921875 0.78125q-0.5625 0.296875 -1.21875 0.296875q-1.296875 0 -2.0625 -0.859375q-0.75 -0.875 -0.75 -2.375l0 -0.1875q0 -0.921875 0.328125 -1.640625q0.34375 -0.71875 0.96875 -1.109375q0.640625 -0.40625 1.515625 -0.40625q1.0625 0 1.765625 0.640625q0.71875 0.625 0.765625 1.65625l-1.03125 0q-0.046875 -0.625 -0.46875 -1.015625q-0.421875 -0.390625 -1.03125 -0.390625q-0.828125 0 -1.28125 0.59375q-0.453125 0.59375 -0.453125 1.71875l0 0.203125q0 1.09375 0.453125 1.6875q0.453125 0.59375 1.28125 0.59375zm7.65625 0.765625q-0.09375 -0.1875 -0.15625 -0.671875q-0.75 0.796875 -1.796875 0.796875q-0.9375 0 -1.546875 -0.53125q-0.59375 -0.53125 -0.59375 -1.359375q0 -0.984375 0.75 -1.53125q0.75 -0.546875 2.125 -0.546875l1.046875 0l0 -0.5q0 -0.5625 -0.34375 -0.890625q-0.328125 -0.34375 -1.0 -0.34375q-0.578125 0 -0.96875 0.296875q-0.390625 0.28125 -0.390625 0.703125l-1.09375 0q0 -0.484375 0.328125 -0.921875q0.34375 -0.4375 0.921875 -0.6875q0.578125 -0.265625 1.265625 -0.265625q1.109375 0 1.71875 0.546875q0.625 0.546875 0.65625 1.5l0 2.921875q0 0.875 0.21875 1.390625l0 0.09375l-1.140625 0zm-1.796875 -0.828125q0.515625 0 0.96875 -0.265625q0.453125 -0.265625 0.65625 -0.6875l0 -1.296875l-0.84375 0q-2.0 0 -2.0 1.171875q0 0.5 0.34375 0.796875q0.34375 0.28125 0.875 0.28125zm5.5898438 0.828125l-1.078125 0l0 -9.0l1.078125 0l0 9.0zm5.6464844 0q-0.09375 -0.1875 -0.15625 -0.671875q-0.75 0.796875 -1.796875 0.796875q-0.9375 0 -1.546875 -0.53125q-0.59375 -0.53125 -0.59375 -1.359375q0 -0.984375 0.75 -1.53125q0.75 -0.546875 2.125 -0.546875l1.046875 0l0 -0.5q0 -0.5625 -0.34375 -0.890625q-0.328125 -0.34375 -1.0 -0.34375q-0.578125 0 -0.96875 0.296875q-0.390625 0.28125 -0.390625 0.703125l-1.09375 0q0 -0.484375 0.328125 -0.921875q0.34375 -0.4375 0.921875 -0.6875q0.578125 -0.265625 1.265625 -0.265625q1.109375 0 1.71875 0.546875q0.625 0.546875 0.65625 1.5l0 2.921875q0 0.875 0.21875 1.390625l0 0.09375l-1.140625 0zm-1.796875 -0.828125q0.515625 0 0.96875 -0.265625q0.453125 -0.265625 0.65625 -0.6875l0 -1.296875l-0.84375 0q-2.0 0 -2.0 1.171875q0 0.5 0.34375 0.796875q0.34375 0.28125 0.875 0.28125zm7.480465 -4.546875q-0.25 -0.03125 -0.53125 -0.03125q-1.078125 0 -1.4531174 0.90625l0 4.5l-1.078125 0l0 -6.34375l1.046875 0l0.015625 0.734375q0.5312424 -0.84375 1.5156174 -0.84375q0.3125 0 0.484375 0.078125l0 1.0z" fill-rule="nonzero"></path><path fill="#000000" d="m17.088697 45.205982l-2.015626 0l0 3.453125l-1.125 0l0 -8.53125l2.828126 0q1.4375 0 2.203125 0.65625q0.78125 0.65625 0.78125 1.90625q0 0.796875 -0.4375 1.390625q-0.421875 0.59375 -1.1875 0.890625l2.0 3.609375l0 0.078125l-1.203125 0l-1.84375 -3.453125zm-2.015626 -0.921875l1.734376 0q0.84375 0 1.328125 -0.421875q0.5 -0.4375 0.5 -1.171875q0 -0.78125 -0.46875 -1.203125q-0.46875 -0.421875 -1.359375 -0.4375l-1.734376 0l0 3.234375zm10.013673 4.375q-0.09375 -0.1875 -0.15625 -0.671875q-0.75 0.796875 -1.796875 0.796875q-0.9375 0 -1.546875 -0.53125q-0.59375 -0.53125 -0.59375 -1.359375q0 -0.984375 0.75 -1.53125q0.75 -0.546875 2.125 -0.546875l1.046875 0l0 -0.5q0 -0.5625 -0.34375 -0.890625q-0.328125 -0.34375 -1.0 -0.34375q-0.578125 0 -0.96875 0.296875q-0.390625 0.28125 -0.390625 0.703125l-1.09375 0q0 -0.484375 0.328125 -0.921875q0.34375 -0.4375 0.921875 -0.6875q0.578125 -0.265625 1.265625 -0.265625q1.109375 0 1.71875 0.546875q0.625 0.546875 0.65625 1.5l0 2.921875q0 0.875 0.21875 1.390625l0 0.09375l-1.140625 0zm-1.796875 -0.828125q0.515625 0 0.96875 -0.265625q0.453125 -0.265625 0.65625 -0.6875l0 -1.296875l-0.84375 0q-2.0 0 -2.0 1.171875q0 0.5 0.34375 0.796875q0.34375 0.28125 0.875 0.28125zm5.4335938 -5.515625l0.03125 0.796875q0.734375 -0.90625 1.90625 -0.90625q2.015623 0 2.031248 2.265625l0 4.1875l-1.0937481 0l0 -4.203125q0 -0.671875 -0.3125 -1.0q-0.296875 -0.328125 -0.953125 -0.328125q-0.53125 0 -0.9375 0.28125q-0.390625 0.28125 -0.609375 0.734375l0 4.515625l-1.078125 0l0 -6.34375l1.015625 0zm7.371092 3.40625l-0.6875 0.703125l0 2.234375l-1.078125 0l0 -9.0l1.078125 0l0 5.4375l0.578125 -0.6875l1.984375 -2.09375l1.3125 0l-2.46875 2.65625l2.765625 3.6875l-1.28125 0l-2.203125 -2.9375zm12.521484 -0.703125q0 1.90625 -0.65625 2.84375q-0.640625 0.921875 -2.03125 0.921875q-1.359375 0 -2.015625 -0.90625q-0.65625 -0.90625 -0.6875 -2.71875l0 -1.4375q0 -1.890625 0.640625 -2.796875q0.65625 -0.921875 2.046875 -0.921875q1.375 0 2.03125 0.890625q0.65625 0.875 0.671875 2.71875l0 1.40625zm-1.09375 -1.484375q0 -1.375 -0.390625 -2.0q-0.375 -0.640625 -1.21875 -0.640625q-0.828125 0 -1.21875 0.640625q-0.375 0.625 -0.375 1.921875l0 1.734375q0 1.375 0.390625 2.046875q0.40625 0.65625 1.21875 0.65625q0.796875 0 1.1875 -0.625q0.390625 -0.625 0.40625 -1.953125l0 -1.78125zm11.630859 -2.484375l-2.75 0l0 7.609375l-1.109375 0l0 -7.609375l-2.75 0l0 -0.921875l6.609375 0l0 0.921875zm3.7226562 7.734375q-1.296875 0 -2.109375 -0.84375q-0.796875 -0.859375 -0.796875 -2.28125l0 -0.1875q0 -0.953125 0.359375 -1.6875q0.359375 -0.75 1.0 -1.15625q0.65625 -0.421875 1.40625 -0.421875q1.234375 0 1.9218788 0.8125q0.6875 0.8125 0.6875 2.328125l0 0.453125l-4.296879 0q0.03125 0.9375 0.546875 1.515625q0.53125 0.578125 1.34375 0.578125q0.5625 0 0.953125 -0.234375q0.4062538 -0.234375 0.7187538 -0.625l0.65625 0.515625q-0.796875 1.234375 -2.3906288 1.234375zm-0.140625 -5.6875q-0.65625 0 -1.109375 0.484375q-0.4375 0.46875 -0.53125 1.328125l3.1718788 0l0 -0.078125q-0.046875 -0.828125 -0.4531288 -1.28125q-0.390625 -0.453125 -1.078125 -0.453125zm4.888668 -0.78125l0.03125 0.796875q0.734375 -0.90625 1.90625 -0.90625q2.015625 0 2.03125 2.265625l0 4.1875l-1.09375 0l0 -4.203125q0 -0.671875 -0.3125 -1.0q-0.296875 -0.328125 -0.953125 -0.328125q-0.53125 0 -0.9375 0.28125q-0.390625 0.28125 -0.609375 0.734375l0 4.515625l-1.078125 0l0 -6.34375l1.015625 0zm9.292969 4.65625q0 -0.4375 -0.34375 -0.671875q-0.328125 -0.25 -1.15625 -0.421875q-0.8125 -0.171875 -1.296875 -0.421875q-0.484375 -0.25 -0.71875 -0.578125q-0.21875 -0.34375 -0.21875 -0.8125q0 -0.78125 0.65625 -1.3125q0.65625 -0.546875 1.6875 -0.546875q1.078125 0 1.734375 0.5625q0.671875 0.546875 0.671875 1.40625l-1.078125 0q0 -0.4375 -0.390625 -0.75q-0.375 -0.328125 -0.9375 -0.328125q-0.59375 0 -0.9375 0.265625q-0.328125 0.25 -0.328125 0.65625q0 0.390625 0.3125 0.59375q0.3125 0.203125 1.125 0.390625q0.8125 0.171875 1.3125 0.421875q0.5 0.25 0.734375 0.609375q0.25 0.359375 0.25 0.859375q0 0.859375 -0.6875 1.375q-0.671875 0.515625 -1.75 0.515625q-0.765625 0 -1.359375 -0.265625q-0.578125 -0.28125 -0.90625 -0.765625q-0.328125 -0.484375 -0.328125 -1.046875l1.078125 0q0.03125 0.546875 0.4375 0.875q0.40625 0.3125 1.078125 0.3125q0.609375 0 0.984375 -0.25q0.375 -0.25 0.375 -0.671875zm2.203125 -1.546875q0 -0.921875 0.359375 -1.671875q0.375 -0.75 1.03125 -1.140625q0.65625 -0.40625 1.484375 -0.40625q1.296875 0 2.09375 0.890625q0.8125 0.890625 0.8125 2.390625l0 0.078125q0 0.921875 -0.359375 1.65625q-0.359375 0.734375 -1.015625 1.15625q-0.65625 0.40625 -1.515625 0.40625q-1.28125 0 -2.09375 -0.890625q-0.796875 -0.90625 -0.796875 -2.390625l0 -0.078125zm1.09375 0.140625q0 1.046875 0.484375 1.6875q0.5 0.640625 1.3125 0.640625q0.828125 0 1.3125 -0.640625q0.484375 -0.65625 0.484375 -1.828125q0 -1.03125 -0.5 -1.671875q-0.484375 -0.65625 -1.3125 -0.65625q-0.796875 0 -1.296875 0.640625q-0.484375 0.625 -0.484375 1.828125zm9.109375 -2.28125q-0.25 -0.03125 -0.53125 -0.03125q-1.078125 0 -1.453125 0.90625l0 4.5l-1.078125 0l0 -6.34375l1.046875 0l0.015625 0.734375q0.53125 -0.84375 1.515625 -0.84375q0.3125 0 0.484375 0.078125l0 1.0z" fill-rule="nonzero"></path><path fill="#000000" fill-opacity="0.0" d="m625.44354 151.29134l211.37012 0l0 47.496063l-211.37012 0z" fill-rule="evenodd"></path><path fill="#ffffff" d="m634.44354 160.67853l187.42383 0l0 14.0625l-187.42383 0l0 -14.0625z" fill-rule="nonzero"></path><path fill="#000000" d="m637.50604 162.95197l-1.109375 0l0 9.796875l1.109375 0l0 0.890625l-2.203125 0l0 -11.578125l2.203125 0l0 0.890625zm2.4160156 0.984375l0 1.53125l1.171875 0l0 0.84375l-1.171875 0l0 3.921875q0 0.390625 0.15625 0.578125q0.15625 0.1875 0.53125 0.1875q0.1875 0 0.515625 -0.0625l0 0.875q-0.421875 0.125 -0.828125 0.125q-0.71875 0 -1.09375 -0.4375q-0.375 -0.453125 -0.375 -1.265625l0 -3.921875l-1.15625 0l0 -0.84375l1.15625 0l0 -1.53125l1.09375 0zm2.1542969 4.640625q0 -0.921875 0.359375 -1.671875q0.375 -0.75 1.03125 -1.140625q0.65625 -0.40625 1.484375 -0.40625q1.296875 0 2.09375 0.890625q0.8125 0.890625 0.8125 2.390625l0 0.078125q0 0.921875 -0.359375 1.65625q-0.359375 0.734375 -1.015625 1.15625q-0.65625 0.40625 -1.515625 0.40625q-1.28125 0 -2.09375 -0.890625q-0.796875 -0.90625 -0.796875 -2.390625l0 -0.078125zm1.09375 0.140625q0 1.046875 0.484375 1.6875q0.5 0.640625 1.3125 0.640625q0.828125 0 1.3125 -0.640625q0.484375 -0.65625 0.484375 -1.828125q0 -1.03125 -0.5 -1.671875q-0.484375 -0.65625 -1.3125 -0.65625q-0.796875 0 -1.296875 0.640625q-0.484375 0.625 -0.484375 1.828125zm9.109375 -2.28125q-0.25 -0.03125 -0.53125 -0.03125q-1.078125 0 -1.453125 0.90625l0 4.5l-1.078125 0l0 -6.34375l1.046875 0l0.015625 0.734375q0.53125 -0.84375 1.515625 -0.84375q0.3125 0 0.484375 0.078125l0 1.0zm3.5292969 4.609375q0.578125 0 1.015625 -0.34375q0.4375 -0.359375 0.484375 -0.890625l1.03125 0q-0.03125 0.546875 -0.390625 1.046875q-0.34375 0.484375 -0.921875 0.78125q-0.5625 0.296875 -1.21875 0.296875q-1.296875 0 -2.0625 -0.859375q-0.75 -0.875 -0.75 -2.375l0 -0.1875q0 -0.921875 0.328125 -1.640625q0.34375 -0.71875 0.96875 -1.109375q0.640625 -0.40625 1.515625 -0.40625q1.0625 0 1.765625 0.640625q0.71875 0.625 0.765625 1.65625l-1.03125 0q-0.046875 -0.625 -0.46875 -1.015625q-0.421875 -0.390625 -1.03125 -0.390625q-0.828125 0 -1.28125 0.59375q-0.453125 0.59375 -0.453125 1.71875l0 0.203125q0 1.09375 0.453125 1.6875q0.453125 0.59375 1.28125 0.59375zm4.828125 -4.8125q0.71875 -0.875 1.875 -0.875q2.015625 0 2.03125 2.265625l0 4.1875l-1.09375 0l0 -4.203125q0 -0.671875 -0.3125 -1.0q-0.296875 -0.328125 -0.953125 -0.328125q-0.53125 0 -0.9375 0.28125q-0.390625 0.28125 -0.609375 0.734375l0 4.515625l-1.078125 0l0 -9.0l1.078125 0l0 3.421875zm5.546875 5.015625q0 -0.28125 0.15625 -0.46875q0.171875 -0.1875 0.5 -0.1875q0.34375 0 0.515625 0.1875q0.171875 0.1875 0.171875 0.46875q0 0.265625 -0.171875 0.453125q-0.171875 0.171875 -0.515625 0.171875q-0.328125 0 -0.5 -0.171875q-0.15625 -0.1875 -0.15625 -0.453125zm8.017578 -3.203125l-3.59375 0l0 3.765625l-1.125 0l0 -8.53125l5.296875 0l0 0.921875l-4.171875 0l0 2.921875l3.59375 0l0 0.921875zm2.9296875 3.765625l-1.078125 0l0 -9.0l1.078125 0l0 9.0zm1.4433594 -3.234375q0 -0.921875 0.359375 -1.671875q0.375 -0.75 1.03125 -1.140625q0.65625 -0.40625 1.484375 -0.40625q1.296875 0 2.09375 0.890625q0.8125 0.890625 0.8125 2.390625l0 0.078125q0 0.921875 -0.359375 1.65625q-0.359375 0.734375 -1.015625 1.15625q-0.65625 0.40625 -1.515625 0.40625q-1.28125 0 -2.09375 -0.890625q-0.796875 -0.90625 -0.796875 -2.390625l0 -0.078125zm1.09375 0.140625q0 1.046875 0.484375 1.6875q0.5 0.640625 1.3125 0.640625q0.828125 0 1.3125 -0.640625q0.484375 -0.65625 0.484375 -1.828125q0 -1.03125 -0.5 -1.671875q-0.484375 -0.65625 -1.3125 -0.65625q-0.796875 0 -1.296875 0.640625q-0.484375 0.625 -0.484375 1.828125zm9.953125 3.09375q-0.09375 -0.1875 -0.15625 -0.671875q-0.75 0.796875 -1.796875 0.796875q-0.9375 0 -1.546875 -0.53125q-0.59375 -0.53125 -0.59375 -1.359375q0 -0.984375 0.75 -1.53125q0.75 -0.546875 2.125 -0.546875l1.046875 0l0 -0.5q0 -0.5625 -0.34375 -0.890625q-0.328125 -0.34375 -1.0 -0.34375q-0.578125 0 -0.96875 0.296875q-0.390625 0.28125 -0.390625 0.703125l-1.09375 0q0 -0.484375 0.328125 -0.921875q0.34375 -0.4375 0.921875 -0.6875q0.578125 -0.265625 1.265625 -0.265625q1.109375 0 1.71875 0.546875q0.625 0.546875 0.65625 1.5l0 2.921875q0 0.875 0.21875 1.390625l0 0.09375l-1.140625 0zm-1.796875 -0.828125q0.515625 0 0.96875 -0.265625q0.453125 -0.265625 0.65625 -0.6875l0 -1.296875l-0.84375 0q-2.0 0 -2.0 1.171875q0 0.5 0.34375 0.796875q0.34375 0.28125 0.875 0.28125zm5.8867188 -7.046875l0 1.53125l1.171875 0l0 0.84375l-1.171875 0l0 3.921875q0 0.390625 0.15625 0.578125q0.15625 0.1875 0.53125 0.1875q0.1875 0 0.515625 -0.0625l0 0.875q-0.421875 0.125 -0.828125 0.125q-0.71875 0 -1.09375 -0.4375q-0.375 -0.453125 -0.375 -1.265625l0 -3.921875l-1.15625 0l0 -0.84375l1.15625 0l0 -1.53125l1.09375 0zm8.513672 0.265625l-2.75 0l0 7.609375l-1.109375 0l0 -7.609375l-2.75 0l0 -0.921875l6.609375 0l0 0.921875zm3.7226562 7.734375q-1.296875 0 -2.109375 -0.84375q-0.796875 -0.859375 -0.796875 -2.28125l0 -0.1875q0 -0.953125 0.359375 -1.6875q0.359375 -0.75 1.0 -1.15625q0.65625 -0.421875 1.40625 -0.421875q1.234375 0 1.921875 0.8125q0.6875 0.8125 0.6875 2.328125l0 0.453125l-4.296875 0q0.03125 0.9375 0.546875 1.515625q0.53125 0.578125 1.34375 0.578125q0.5625 0 0.953125 -0.234375q0.40625 -0.234375 0.71875 -0.625l0.65625 0.515625q-0.796875 1.234375 -2.390625 1.234375zm-0.140625 -5.6875q-0.65625 0 -1.109375 0.484375q-0.4375 0.46875 -0.53125 1.328125l3.171875 0l0 -0.078125q-0.046875 -0.828125 -0.453125 -1.28125q-0.390625 -0.453125 -1.078125 -0.453125zm4.888672 -0.78125l0.03125 0.796875q0.734375 -0.90625 1.90625 -0.90625q2.015625 0 2.03125 2.265625l0 4.1875l-1.09375 0l0 -4.203125q0 -0.671875 -0.3125 -1.0q-0.296875 -0.328125 -0.953125 -0.328125q-0.53125 0 -0.9375 0.28125q-0.390625 0.28125 -0.609375 0.734375l0 4.515625l-1.078125 0l0 -6.34375l1.015625 0zm9.292969 4.65625q0 -0.4375 -0.34375 -0.671875q-0.328125 -0.25 -1.15625 -0.421875q-0.8125 -0.171875 -1.296875 -0.421875q-0.484375 -0.25 -0.71875 -0.578125q-0.21875 -0.34375 -0.21875 -0.8125q0 -0.78125 0.65625 -1.3125q0.65625 -0.546875 1.6875 -0.546875q1.078125 0 1.734375 0.5625q0.671875 0.546875 0.671875 1.40625l-1.078125 0q0 -0.4375 -0.390625 -0.75q-0.375 -0.328125 -0.9375 -0.328125q-0.59375 0 -0.9375 0.265625q-0.328125 0.25 -0.328125 0.65625q0 0.390625 0.3125 0.59375q0.3125 0.203125 1.125 0.390625q0.8125 0.171875 1.3125 0.421875q0.5 0.25 0.734375 0.609375q0.25 0.359375 0.25 0.859375q0 0.859375 -0.6875 1.375q-0.671875 0.515625 -1.75 0.515625q-0.765625 0 -1.359375 -0.265625q-0.578125 -0.28125 -0.90625 -0.765625q-0.328125 -0.484375 -0.328125 -1.046875l1.078125 0q0.03125 0.546875 0.4375 0.875q0.40625 0.3125 1.078125 0.3125q0.609375 0 0.984375 -0.25q0.375 -0.25 0.375 -0.671875zm2.203125 -1.546875q0 -0.921875 0.359375 -1.671875q0.375 -0.75 1.03125 -1.140625q0.65625 -0.40625 1.484375 -0.40625q1.296875 0 2.09375 0.890625q0.8125 0.890625 0.8125 2.390625l0 0.078125q0 0.921875 -0.359375 1.65625q-0.359375 0.734375 -1.015625 1.15625q-0.65625 0.40625 -1.515625 0.40625q-1.28125 0 -2.09375 -0.890625q-0.796875 -0.90625 -0.796875 -2.390625l0 -0.078125zm1.09375 0.140625q0 1.046875 0.484375 1.6875q0.5 0.640625 1.3125 0.640625q0.828125 0 1.3125 -0.640625q0.484375 -0.65625 0.484375 -1.828125q0 -1.03125 -0.5 -1.671875q-0.484375 -0.65625 -1.3125 -0.65625q-0.796875 0 -1.296875 0.640625q-0.484375 0.625 -0.484375 1.828125zm9.109375 -2.28125q-0.25 -0.03125 -0.53125 -0.03125q-1.078125 0 -1.453125 0.90625l0 4.5l-1.078125 0l0 -6.34375l1.046875 0l0.015625 0.734375q0.53125 -0.84375 1.515625 -0.84375q0.3125 0 0.484375 0.078125l0 1.0zm3.671875 2.140625q0 -0.921875 0.359375 -1.671875q0.375 -0.75 1.03125 -1.140625q0.65625 -0.40625 1.484375 -0.40625q1.296875 0 2.09375 0.890625q0.8125 0.890625 0.8125 2.390625l0 0.078125q0 0.921875 -0.359375 1.65625q-0.359375 0.734375 -1.015625 1.15625q-0.65625 0.40625 -1.515625 0.40625q-1.28125 0 -2.09375 -0.890625q-0.796875 -0.90625 -0.796875 -2.390625l0 -0.078125zm1.09375 0.140625q0 1.046875 0.484375 1.6875q0.5 0.640625 1.3125 0.640625q0.828125 0 1.3125 -0.640625q0.484375 -0.65625 0.484375 -1.828125q0 -1.03125 -0.5 -1.671875q-0.484375 -0.65625 -1.3125 -0.65625q-0.796875 0 -1.296875 0.640625q-0.484375 0.625 -0.484375 1.828125zm6.578125 3.09375l0 -5.5l-1.0 0l0 -0.84375l1.0 0l0 -0.640625q0 -1.03125 0.53125 -1.578125q0.546875 -0.5625 1.546875 -0.5625q0.375 0 0.75 0.09375l-0.0625 0.890625q-0.28125 -0.0625 -0.578125 -0.0625q-0.53125 0 -0.828125 0.3125q-0.28125 0.3125 -0.28125 0.875l0 0.671875l1.359375 0l0 0.84375l-1.359375 0l0 5.5l-1.078125 0zm10.292969 -1.6875q0 -0.4375 -0.34375 -0.671875q-0.328125 -0.25 -1.15625 -0.421875q-0.8125 -0.171875 -1.296875 -0.421875q-0.484375 -0.25 -0.71875 -0.578125q-0.21875 -0.34375 -0.21875 -0.8125q0 -0.78125 0.65625 -1.3125q0.65625 -0.546875 1.6875 -0.546875q1.078125 0 1.734375 0.5625q0.671875 0.546875 0.671875 1.40625l-1.078125 0q0 -0.4375 -0.390625 -0.75q-0.375 -0.328125 -0.9375 -0.328125q-0.59375 0 -0.9375 0.265625q-0.328125 0.25 -0.328125 0.65625q0 0.390625 0.3125 0.59375q0.3125 0.203125 1.125 0.390625q0.8125 0.171875 1.3125 0.421875q0.5 0.25 0.734375 0.609375q0.25 0.359375 0.25 0.859375q0 0.859375 -0.6875 1.375q-0.671875 0.515625 -1.75 0.515625q-0.765625 0 -1.359375 -0.265625q-0.578125 -0.28125 -0.90625 -0.765625q-0.328125 -0.484375 -0.328125 -1.046875l1.078125 0q0.03125 0.546875 0.4375 0.875q0.40625 0.3125 1.078125 0.3125q0.609375 0 0.984375 -0.25q0.375 -0.25 0.375 -0.671875zm3.671875 1.6875l-1.078125 0l0 -6.34375l1.078125 0l0 6.34375zm-1.171875 -8.015625q0 -0.265625 0.15625 -0.453125q0.171875 -0.1875 0.484375 -0.1875q0.3125 0 0.46875 0.1875q0.171875 0.1875 0.171875 0.453125q0 0.25 -0.171875 0.4375q-0.15625 0.171875 -0.46875 0.171875q-0.3125 0 -0.484375 -0.171875q-0.15625 -0.1875 -0.15625 -0.4375zm3.9277344 7.125l3.703125 0l0 0.890625l-5.03125 0l0 -0.796875l3.5 -4.640625l-3.453125 0l0 -0.90625l4.8125 0l0 0.765625l-3.53125 4.6875zm7.5566406 1.015625q-1.296875 0 -2.109375 -0.84375q-0.796875 -0.859375 -0.796875 -2.28125l0 -0.1875q0 -0.953125 0.359375 -1.6875q0.359375 -0.75 1.0 -1.15625q0.65625 -0.421875 1.40625 -0.421875q1.234375 0 1.921875 0.8125q0.6875 0.8125 0.6875 2.328125l0 0.453125l-4.296875 0q0.03125 0.9375 0.546875 1.515625q0.53125 0.578125 1.34375 0.578125q0.5625 0 0.953125 -0.234375q0.40625 -0.234375 0.71875 -0.625l0.65625 0.515625q-0.796875 1.234375 -2.390625 1.234375zm-0.140625 -5.6875q-0.65625 0 -1.109375 0.484375q-0.4375 0.46875 -0.53125 1.328125l3.171875 0l0 -0.078125q-0.046875 -0.828125 -0.453125 -1.28125q-0.390625 -0.453125 -1.078125 -0.453125zm8.296875 0.765625l0.8125 0q0.78125 -0.015625 1.21875 -0.40625q0.4375 -0.390625 0.4375 -1.0625q0 -1.5 -1.5 -1.5q-0.703125 0 -1.125 0.40625q-0.40625 0.40625 -0.40625 1.0625l-1.09375 0q0 -1.015625 0.734375 -1.6875q0.75 -0.671875 1.890625 -0.671875q1.203125 0 1.890625 0.640625q0.6875 0.640625 0.6875 1.78125q0 0.5625 -0.359375 1.078125q-0.359375 0.515625 -0.984375 0.78125q0.703125 0.21875 1.078125 0.734375q0.390625 0.515625 0.390625 1.265625q0 1.140625 -0.75 1.828125q-0.75 0.671875 -1.953125 0.671875q-1.1875 0 -1.953125 -0.65625q-0.75 -0.65625 -0.75 -1.71875l1.09375 0q0 0.671875 0.4375 1.078125q0.4375 0.40625 1.1875 0.40625q0.78125 0 1.1875 -0.40625q0.421875 -0.421875 0.421875 -1.1875q0 -0.734375 -0.453125 -1.125q-0.453125 -0.40625 -1.328125 -0.421875l-0.8125 0l0 -0.890625zm7.4101562 0.765625l1.40625 -2.3125l1.265625 0l-2.078125 3.140625l2.140625 3.203125l-1.25 0l-1.46875 -2.375l-1.46875 2.375l-1.265625 0l2.140625 -3.203125l-2.0625 -3.140625l1.25 0l1.390625 2.3125zm5.2753906 -0.765625l0.8125 0q0.78125 -0.015625 1.21875 -0.40625q0.4375 -0.390625 0.4375 -1.0625q0 -1.5 -1.5 -1.5q-0.703125 0 -1.125 0.40625q-0.40625 0.40625 -0.40625 1.0625l-1.09375 0q0 -1.015625 0.734375 -1.6875q0.75 -0.671875 1.890625 -0.671875q1.203125 0 1.890625 0.640625q0.6875 0.640625 0.6875 1.78125q0 0.5625 -0.359375 1.078125q-0.359375 0.515625 -0.984375 0.78125q0.703125 0.21875 1.078125 0.734375q0.390625 0.515625 0.390625 1.265625q0 1.140625 -0.75 1.828125q-0.75 0.671875 -1.953125 0.671875q-1.1875 0 -1.953125 -0.65625q-0.75 -0.65625 -0.75 -1.71875l1.09375 0q0 0.671875 0.4375 1.078125q0.4375 0.40625 1.1875 0.40625q0.78125 0 1.1875 -0.40625q0.421875 -0.421875 0.421875 -1.1875q0 -0.734375 -0.453125 -1.125q-0.453125 -0.40625 -1.328125 -0.421875l-0.8125 0l0 -0.890625zm7.4101562 0.765625l1.40625 -2.3125l1.265625 0l-2.078125 3.140625l2.140625 3.203125l-1.25 0l-1.46875 -2.375l-1.46875 2.375l-1.265625 0l2.140625 -3.203125l-2.0625 -3.140625l1.25 0l1.390625 2.3125zm5.2753906 -0.765625l0.8125 0q0.78125 -0.015625 1.21875 -0.40625q0.4375 -0.390625 0.4375 -1.0625q0 -1.5 -1.5 -1.5q-0.703125 0 -1.125 0.40625q-0.40625 0.40625 -0.40625 1.0625l-1.09375 0q0 -1.015625 0.734375 -1.6875q0.75 -0.671875 1.890625 -0.671875q1.203125 0 1.890625 0.640625q0.6875 0.640625 0.6875 1.78125q0 0.5625 -0.359375 1.078125q-0.359375 0.515625 -0.984375 0.78125q0.703125 0.21875 1.078125 0.734375q0.390625 0.515625 0.390625 1.265625q0 1.140625 -0.75 1.828125q-0.75 0.671875 -1.953125 0.671875q-1.1875 0 -1.953125 -0.65625q-0.75 -0.65625 -0.75 -1.71875l1.09375 0q0 0.671875 0.4375 1.078125q0.4375 0.40625 1.1875 0.40625q0.78125 0 1.1875 -0.40625q0.421875 -0.421875 0.421875 -1.1875q0 -0.734375 -0.453125 -1.125q-0.453125 -0.40625 -1.328125 -0.421875l-0.8125 0l0 -0.890625zm7.4101562 0.765625l1.40625 -2.3125l1.265625 0l-2.078125 3.140625l2.140625 3.203125l-1.25 0l-1.46875 -2.375l-1.46875 2.375l-1.265625 0l2.140625 -3.203125l-2.0625 -3.140625l1.25 0l1.390625 2.3125zm5.2753906 -0.765625l0.8125 0q0.78125 -0.015625 1.21875 -0.40625q0.4375 -0.390625 0.4375 -1.0625q0 -1.5 -1.5 -1.5q-0.703125 0 -1.125 0.40625q-0.40625 0.40625 -0.40625 1.0625l-1.09375 0q0 -1.015625 0.734375 -1.6875q0.75 -0.671875 1.890625 -0.671875q1.203125 0 1.890625 0.640625q0.6875 0.640625 0.6875 1.78125q0 0.5625 -0.359375 1.078125q-0.359375 0.515625 -0.984375 0.78125q0.703125 0.21875 1.078125 0.734375q0.390625 0.515625 0.390625 1.265625q0 1.140625 -0.75 1.828125q-0.75 0.671875 -1.953125 0.671875q-1.1875 0 -1.953125 -0.65625q-0.75 -0.65625 -0.75 -1.71875l1.09375 0q0 0.671875 0.4375 1.078125q0.4375 0.40625 1.1875 0.40625q0.78125 0 1.1875 -0.40625q0.421875 -0.421875 0.421875 -1.1875q0 -0.734375 -0.453125 -1.125q-0.453125 -0.40625 -1.328125 -0.421875l-0.8125 0l0 -0.890625zm4.5039062 -4.953125l2.21875 0l0 11.578125l-2.21875 0l0 -0.890625l1.140625 0l0 -9.796875l-1.140625 0l0 -0.890625z" fill-rule="nonzero"></path><path fill="#000000" fill-opacity="0.0" d="m100.314964 14.139108l98.173225 0l0 62.551186l-98.173225 0z" fill-rule="evenodd"></path><path fill="#000000" d="m135.66525 33.159107l2.4375 -7.03125l1.234375 0l-3.171875 8.53125l-0.984375 0l-3.15625 -8.53125l1.21875 0l2.421875 7.03125zm7.2753906 1.625q-1.296875 0 -2.109375 -0.84375q-0.796875 -0.859375 -0.796875 -2.28125l0 -0.1875q0 -0.953125 0.359375 -1.6875q0.359375 -0.75 1.0 -1.15625q0.65625 -0.421875 1.40625 -0.421875q1.234375 0 1.921875 0.8125q0.6875 0.8125 0.6875 2.328125l0 0.453125l-4.296875 0q0.03125 0.9375 0.546875 1.515625q0.53125 0.578125 1.34375 0.578125q0.5625 0 0.953125 -0.234375q0.40625 -0.234375 0.71875 -0.625l0.65625 0.515625q-0.796875 1.234375 -2.390625 1.234375zm-0.140625 -5.6875q-0.65625 0 -1.109375 0.484375q-0.4375 0.46875 -0.53125 1.328125l3.171875 0l0 -0.078125q-0.046875 -0.828125 -0.453125 -1.28125q-0.390625 -0.453125 -1.078125 -0.453125zm6.404297 4.796875q0.578125 0 1.015625 -0.34375q0.4375 -0.359375 0.484375 -0.890625l1.03125 0q-0.03125 0.546875 -0.390625 1.046875q-0.34375 0.484375 -0.921875 0.78125q-0.5625 0.296875 -1.21875 0.296875q-1.296875 0 -2.0625 -0.859375q-0.75 -0.875 -0.75 -2.375l0 -0.1875q0 -0.921875 0.328125 -1.640625q0.34375 -0.71875 0.96875 -1.109375q0.640625 -0.40625 1.515625 -0.40625q1.0625 0 1.765625 0.640625q0.71875 0.625 0.765625 1.65625l-1.03125 0q-0.046875 -0.625 -0.46875 -1.015625q-0.421875 -0.390625 -1.03125 -0.390625q-0.828125 0 -1.28125 0.59375q-0.453125 0.59375 -0.453125 1.71875l0 0.203125q0 1.09375 0.453125 1.6875q0.453125 0.59375 1.28125 0.59375zm5.21875 -7.109375l0 1.53125l1.171875 0l0 0.84375l-1.171875 0l0 3.921875q0 0.390625 0.15625 0.578125q0.15625 0.1875 0.53125 0.1875q0.1875 0 0.515625 -0.0625l0 0.875q-0.421875 0.125 -0.828125 0.125q-0.71875 0 -1.09375 -0.4375q-0.375 -0.453125 -0.375 -1.265625l0 -3.921875l-1.15625 0l0 -0.84375l1.15625 0l0 -1.53125l1.09375 0zm2.1542969 4.640625q0 -0.921875 0.359375 -1.671875q0.375 -0.75 1.03125 -1.140625q0.65625 -0.40625 1.484375 -0.40625q1.296875 0 2.09375 0.890625q0.8125 0.890625 0.8125 2.390625l0 0.078125q0 0.921875 -0.359375 1.65625q-0.359375 0.734375 -1.015625 1.15625q-0.65625 0.40625 -1.515625 0.40625q-1.28125 0 -2.09375 -0.890625q-0.796875 -0.90625 -0.796875 -2.390625l0 -0.078125zm1.09375 0.140625q0 1.046875 0.484375 1.6875q0.5 0.640625 1.3125 0.640625q0.828125 0 1.3125 -0.640625q0.484375 -0.65625 0.484375 -1.828125q0 -1.03125 -0.5 -1.671875q-0.484375 -0.65625 -1.3125 -0.65625q-0.796875 0 -1.296875 0.640625q-0.484375 0.625 -0.484375 1.828125zm9.10936 -2.28125q-0.25 -0.03125 -0.53125 -0.03125q-1.078125 0 -1.453125 0.90625l0 4.5l-1.0781097 0l0 -6.34375l1.0468597 0l0.015625 0.734375q0.53125 -0.84375 1.515625 -0.84375q0.3125 0 0.484375 0.078125l0 1.0z" fill-rule="nonzero"></path><path fill="#000000" d="m115.261925 45.205982l-2.015625 0l0 3.453125l-1.125 0l0 -8.53125l2.828125 0q1.4375 0 2.203125 0.65625q0.78125 0.65625 0.78125 1.90625q0 0.796875 -0.4375 1.390625q-0.421875 0.59375 -1.1875 0.890625l2.0 3.609375l0 0.078125l-1.203125 0l-1.84375 -3.453125zm-2.015625 -0.921875l1.734375 0q0.84375 0 1.328125 -0.421875q0.5 -0.4375 0.5 -1.171875q0 -0.78125 -0.46875 -1.203125q-0.46875 -0.421875 -1.359375 -0.4375l-1.734375 0l0 3.234375zm10.013672 4.375q-0.09375 -0.1875 -0.15625 -0.671875q-0.75 0.796875 -1.796875 0.796875q-0.9375 0 -1.546875 -0.53125q-0.59375 -0.53125 -0.59375 -1.359375q0 -0.984375 0.75 -1.53125q0.75 -0.546875 2.125 -0.546875l1.046875 0l0 -0.5q0 -0.5625 -0.34375 -0.890625q-0.328125 -0.34375 -1.0 -0.34375q-0.578125 0 -0.96875 0.296875q-0.390625 0.28125 -0.390625 0.703125l-1.09375 0q0 -0.484375 0.328125 -0.921875q0.34375 -0.4375 0.921875 -0.6875q0.578125 -0.265625 1.265625 -0.265625q1.109375 0 1.71875 0.546875q0.625 0.546875 0.65625 1.5l0 2.921875q0 0.875 0.21875 1.390625l0 0.09375l-1.140625 0zm-1.796875 -0.828125q0.515625 0 0.96875 -0.265625q0.453125 -0.265625 0.65625 -0.6875l0 -1.296875l-0.84375 0q-2.0 0 -2.0 1.171875q0 0.5 0.34375 0.796875q0.34375 0.28125 0.875 0.28125zm5.4335938 -5.515625l0.03125 0.796875q0.734375 -0.90625 1.9062576 -0.90625q2.015625 0 2.03125 2.265625l0 4.1875l-1.09375 0l0 -4.203125q0 -0.671875 -0.3125 -1.0q-0.296875 -0.328125 -0.953125 -0.328125q-0.5312576 0 -0.9375076 0.28125q-0.390625 0.28125 -0.609375 0.734375l0 4.515625l-1.078125 0l0 -6.34375l1.015625 0zm7.3711014 3.40625l-0.6875 0.703125l0 2.234375l-1.078125 0l0 -9.0l1.078125 0l0 5.4375l0.578125 -0.6875l1.984375 -2.09375l1.3125 0l-2.46875 2.65625l2.765625 3.6875l-1.28125 0l-2.203125 -2.9375zm10.724609 2.9375l-1.078125 0l0 -7.21875l-2.1875 0.796875l0 -0.984375l3.109375 -1.171875l0.15625 0l0 8.578125zm12.333984 -7.609375l-2.75 0l0 7.609375l-1.109375 0l0 -7.609375l-2.75 0l0 -0.921875l6.609375 0l0 0.921875zm3.7226562 7.734375q-1.296875 0 -2.109375 -0.84375q-0.796875 -0.859375 -0.796875 -2.28125l0 -0.1875q0 -0.953125 0.359375 -1.6875q0.359375 -0.75 1.0 -1.15625q0.65625 -0.421875 1.40625 -0.421875q1.234375 0 1.921875 0.8125q0.6875 0.8125 0.6875 2.328125l0 0.453125l-4.296875 0q0.03125 0.9375 0.546875 1.515625q0.53125 0.578125 1.34375 0.578125q0.5625 0 0.953125 -0.234375q0.40625 -0.234375 0.71875 -0.625l0.65625 0.515625q-0.796875 1.234375 -2.390625 1.234375zm-0.140625 -5.6875q-0.65625 0 -1.109375 0.484375q-0.4375 0.46875 -0.53125 1.328125l3.171875 0l0 -0.078125q-0.046875 -0.828125 -0.453125 -1.28125q-0.390625 -0.453125 -1.078125 -0.453125zm4.8886566 -0.78125l0.03125 0.796875q0.734375 -0.90625 1.90625 -0.90625q2.015625 0 2.03125 2.265625l0 4.1875l-1.09375 0l0 -4.203125q0 -0.671875 -0.3125 -1.0q-0.296875 -0.328125 -0.953125 -0.328125q-0.53125 0 -0.9375 0.28125q-0.390625 0.28125 -0.609375 0.734375l0 4.515625l-1.078125 0l0 -6.34375l1.015625 0zm9.292969 4.65625q0 -0.4375 -0.34375 -0.671875q-0.328125 -0.25 -1.15625 -0.421875q-0.8125 -0.171875 -1.296875 -0.421875q-0.484375 -0.25 -0.71875 -0.578125q-0.21875 -0.34375 -0.21875 -0.8125q0 -0.78125 0.65625 -1.3125q0.65625 -0.546875 1.6875 -0.546875q1.078125 0 1.734375 0.5625q0.671875 0.546875 0.671875 1.40625l-1.078125 0q0 -0.4375 -0.390625 -0.75q-0.375 -0.328125 -0.9375 -0.328125q-0.59375 0 -0.9375 0.265625q-0.328125 0.25 -0.328125 0.65625q0 0.390625 0.3125 0.59375q0.3125 0.203125 1.125 0.390625q0.8125 0.171875 1.3125 0.421875q0.5 0.25 0.734375 0.609375q0.25 0.359375 0.25 0.859375q0 0.859375 -0.6875 1.375q-0.671875 0.515625 -1.75 0.515625q-0.765625 0 -1.359375 -0.265625q-0.578125 -0.28125 -0.90625 -0.765625q-0.328125 -0.484375 -0.328125 -1.046875l1.078125 0q0.03125 0.546875 0.4375 0.875q0.40625 0.3125 1.078125 0.3125q0.609375 0 0.984375 -0.25q0.375 -0.25 0.375 -0.671875zm2.203125 -1.546875q0 -0.921875 0.359375 -1.671875q0.375 -0.75 1.03125 -1.140625q0.65625 -0.40625 1.484375 -0.40625q1.296875 0 2.09375 0.890625q0.8125 0.890625 0.8125 2.390625l0 0.078125q0 0.921875 -0.359375 1.65625q-0.359375 0.734375 -1.015625 1.15625q-0.65625 0.40625 -1.515625 0.40625q-1.28125 0 -2.09375 -0.890625q-0.796875 -0.90625 -0.796875 -2.390625l0 -0.078125zm1.09375 0.140625q0 1.046875 0.484375 1.6875q0.5 0.640625 1.3125 0.640625q0.828125 0 1.3125 -0.640625q0.484375 -0.65625 0.484375 -1.828125q0 -1.03125 -0.5 -1.671875q-0.484375 -0.65625 -1.3125 -0.65625q-0.796875 0 -1.296875 0.640625q-0.484375 0.625 -0.484375 1.828125zm9.109375 -2.28125q-0.25 -0.03125 -0.53125 -0.03125q-1.078125 0 -1.453125 0.90625l0 4.5l-1.078125 0l0 -6.34375l1.046875 0l0.015625 0.734375q0.53125 -0.84375 1.515625 -0.84375q0.3125 0 0.484375 0.078125l0 1.0z" fill-rule="nonzero"></path><path fill="#000000" fill-opacity="0.0" d="m247.97113 14.139108l98.17322 0l0 62.551186l-98.17322 0z" fill-rule="evenodd"></path><path fill="#000000" d="m282.57336 26.127857l2.796875 6.953125l2.78125 -6.953125l1.46875 0l0 8.53125l-1.125 0l0 -3.328125l0.109375 -3.578125l-2.8125 6.90625l-0.859375 0l-2.796875 -6.890625l0.109375 3.5625l0 3.328125l-1.125 0l0 -8.53125l1.453125 0zm12.7734375 8.53125q-0.09375 -0.1875 -0.15625 -0.671875q-0.75 0.796875 -1.796875 0.796875q-0.9375 0 -1.546875 -0.53125q-0.59375 -0.53125 -0.59375 -1.359375q0 -0.984375 0.75 -1.53125q0.75 -0.546875 2.125 -0.546875l1.046875 0l0 -0.5q0 -0.5625 -0.34375 -0.890625q-0.328125 -0.34375 -1.0 -0.34375q-0.578125 0 -0.96875 0.296875q-0.390625 0.28125 -0.390625 0.703125l-1.09375 0q0 -0.484375 0.328125 -0.921875q0.34375 -0.4375 0.921875 -0.6875q0.578125 -0.265625 1.265625 -0.265625q1.109375 0 1.71875 0.546875q0.625 0.546875 0.65625 1.5l0 2.921875q0 0.875 0.21875 1.390625l0 0.09375l-1.140625 0zm-1.796875 -0.828125q0.515625 0 0.96875 -0.265625q0.453125 -0.265625 0.65625 -0.6875l0 -1.296875l-0.84375 0q-2.0 0 -2.0 1.171875q0 0.5 0.34375 0.796875q0.34375 0.28125 0.875 0.28125zm5.8867188 -7.046875l0 1.53125l1.171875 0l0 0.84375l-1.171875 0l0 3.921875q0 0.390625 0.15625 0.578125q0.15625 0.1875 0.53125 0.1875q0.1875 0 0.515625 -0.0625l0 0.875q-0.421875 0.125 -0.828125 0.125q-0.71875 0 -1.09375 -0.4375q-0.375 -0.453125 -0.375 -1.265625l0 -3.921875l-1.15625 0l0 -0.84375l1.15625 0l0 -1.53125l1.09375 0zm5.513672 2.5q-0.25 -0.03125 -0.53125 -0.03125q-1.078125 0 -1.453125 0.90625l0 4.5l-1.078125 0l0 -6.34375l1.046875 0l0.015625 0.734375q0.53125 -0.84375 1.515625 -0.84375q0.3125 0 0.484375 0.078125l0 1.0zm2.1699219 5.375l-1.078125 0l0 -6.34375l1.078125 0l0 6.34375zm-1.171875 -8.015625q0 -0.265625 0.15625 -0.453125q0.171875 -0.1875 0.484375 -0.1875q0.3125 0 0.46875 0.1875q0.171875 0.1875 0.171875 0.453125q0 0.25 -0.171875 0.4375q-0.15625 0.171875 -0.46875 0.171875q-0.3125 0 -0.484375 -0.171875q-0.15625 -0.1875 -0.15625 -0.4375zm5.0371094 3.984375l1.40625 -2.3125l1.265625 0l-2.078125 3.140625l2.140625 3.203125l-1.25 0l-1.46875 -2.375l-1.46875 2.375l-1.265625 0l2.140625 -3.203125l-2.0625 -3.140625l1.25 0l1.390625 2.3125z" fill-rule="nonzero"></path><path fill="#000000" d="m262.9181 45.205982l-2.015625 0l0 3.453125l-1.125 0l0 -8.53125l2.828125 0q1.4375 0 2.203125 0.65625q0.78125 0.65625 0.78125 1.90625q0 0.796875 -0.4375 1.390625q-0.421875 0.59375 -1.1875 0.890625l2.0 3.609375l0 0.078125l-1.203125 0l-1.84375 -3.453125zm-2.015625 -0.921875l1.734375 0q0.84375 0 1.328125 -0.421875q0.5 -0.4375 0.5 -1.171875q0 -0.78125 -0.46875 -1.203125q-0.46875 -0.421875 -1.359375 -0.4375l-1.734375 0l0 3.234375zm10.013672 4.375q-0.09375 -0.1875 -0.15625 -0.671875q-0.75 0.796875 -1.796875 0.796875q-0.9375 0 -1.546875 -0.53125q-0.59375 -0.53125 -0.59375 -1.359375q0 -0.984375 0.75 -1.53125q0.75 -0.546875 2.125 -0.546875l1.046875 0l0 -0.5q0 -0.5625 -0.34375 -0.890625q-0.328125 -0.34375 -1.0 -0.34375q-0.578125 0 -0.96875 0.296875q-0.390625 0.28125 -0.390625 0.703125l-1.09375 0q0 -0.484375 0.328125 -0.921875q0.34375 -0.4375 0.921875 -0.6875q0.578125 -0.265625 1.265625 -0.265625q1.109375 0 1.71875 0.546875q0.625 0.546875 0.65625 1.5l0 2.921875q0 0.875 0.21875 1.390625l0 0.09375l-1.140625 0zm-1.796875 -0.828125q0.515625 0 0.96875 -0.265625q0.453125 -0.265625 0.65625 -0.6875l0 -1.296875l-0.84375 0q-2.0 0 -2.0 1.171875q0 0.5 0.34375 0.796875q0.34375 0.28125 0.875 0.28125zm5.4335938 -5.515625l0.03125 0.796875q0.734375 -0.90625 1.90625 -0.90625q2.015625 0 2.03125 2.265625l0 4.1875l-1.09375 0l0 -4.203125q0 -0.671875 -0.3125 -1.0q-0.296875 -0.328125 -0.953125 -0.328125q-0.53125 0 -0.9375 0.28125q-0.390625 0.28125 -0.609375 0.734375l0 4.515625l-1.078125 0l0 -6.34375l1.015625 0zm7.3710938 3.40625l-0.6875 0.703125l0 2.234375l-1.078125 0l0 -9.0l1.078125 0l0 5.4375l0.578125 -0.6875l1.984375 -2.09375l1.3125 0l-2.46875 2.65625l2.765625 3.6875l-1.28125 0l-2.203125 -2.9375zm12.755859 2.9375l-5.59375 0l0 -0.78125l2.953125 -3.28125q0.65625 -0.75 0.90625 -1.203125q0.25 -0.46875 0.25 -0.96875q0 -0.671875 -0.40625 -1.09375q-0.390625 -0.4375 -1.078125 -0.4375q-0.796875 0 -1.25 0.46875q-0.453125 0.453125 -0.453125 1.28125l-1.078125 0q0 -1.1875 0.75 -1.90625q0.765625 -0.734375 2.03125 -0.734375q1.203125 0 1.890625 0.625q0.6875 0.625 0.6875 1.671875q0 1.25 -1.609375 3.0l-2.28125 2.46875l4.28125 0l0 0.890625zm10.302734 -7.609375l-2.75 0l0 7.609375l-1.109375 0l0 -7.609375l-2.75 0l0 -0.921875l6.609375 0l0 0.921875zm3.7226562 7.734375q-1.296875 0 -2.109375 -0.84375q-0.796875 -0.859375 -0.796875 -2.28125l0 -0.1875q0 -0.953125 0.359375 -1.6875q0.359375 -0.75 1.0 -1.15625q0.65625 -0.421875 1.40625 -0.421875q1.234375 0 1.921875 0.8125q0.6875 0.8125 0.6875 2.328125l0 0.453125l-4.296875 0q0.03125 0.9375 0.546875 1.515625q0.53125 0.578125 1.34375 0.578125q0.5625 0 0.953125 -0.234375q0.40625 -0.234375 0.71875 -0.625l0.65625 0.515625q-0.796875 1.234375 -2.390625 1.234375zm-0.140625 -5.6875q-0.65625 0 -1.109375 0.484375q-0.4375 0.46875 -0.53125 1.328125l3.171875 0l0 -0.078125q-0.046875 -0.828125 -0.453125 -1.28125q-0.390625 -0.453125 -1.078125 -0.453125zm4.888672 -0.78125l0.03125 0.796875q0.734375 -0.90625 1.90625 -0.90625q2.015625 0 2.03125 2.265625l0 4.1875l-1.09375 0l0 -4.203125q0 -0.671875 -0.3125 -1.0q-0.296875 -0.328125 -0.953125 -0.328125q-0.53125 0 -0.9375 0.28125q-0.390625 0.28125 -0.609375 0.734375l0 4.515625l-1.078125 0l0 -6.34375l1.015625 0zm9.292969 4.65625q0 -0.4375 -0.34375 -0.671875q-0.328125 -0.25 -1.15625 -0.421875q-0.8125 -0.171875 -1.296875 -0.421875q-0.484375 -0.25 -0.71875 -0.578125q-0.21875 -0.34375 -0.21875 -0.8125q0 -0.78125 0.65625 -1.3125q0.65625 -0.546875 1.6875 -0.546875q1.078125 0 1.734375 0.5625q0.671875 0.546875 0.671875 1.40625l-1.078125 0q0 -0.4375 -0.390625 -0.75q-0.375 -0.328125 -0.9375 -0.328125q-0.59375 0 -0.9375 0.265625q-0.328125 0.25 -0.328125 0.65625q0 0.390625 0.3125 0.59375q0.3125 0.203125 1.125 0.390625q0.8125 0.171875 1.3125 0.421875q0.5 0.25 0.734375 0.609375q0.25 0.359375 0.25 0.859375q0 0.859375 -0.6875 1.375q-0.671875 0.515625 -1.75 0.515625q-0.765625 0 -1.359375 -0.265625q-0.578125 -0.28125 -0.90625 -0.765625q-0.328125 -0.484375 -0.328125 -1.046875l1.078125 0q0.03125 0.546875 0.4375 0.875q0.40625 0.3125 1.078125 0.3125q0.609375 0 0.984375 -0.25q0.375 -0.25 0.375 -0.671875zm2.203125 -1.546875q0 -0.921875 0.359375 -1.671875q0.375 -0.75 1.03125 -1.140625q0.65625 -0.40625 1.484375 -0.40625q1.296875 0 2.09375 0.890625q0.8125 0.890625 0.8125 2.390625l0 0.078125q0 0.921875 -0.359375 1.65625q-0.359375 0.734375 -1.015625 1.15625q-0.65625 0.40625 -1.515625 0.40625q-1.28125 0 -2.09375 -0.890625q-0.796875 -0.90625 -0.796875 -2.390625l0 -0.078125zm1.09375 0.140625q0 1.046875 0.484375 1.6875q0.5 0.640625 1.3125 0.640625q0.828125 0 1.3125 -0.640625q0.484375 -0.65625 0.484375 -1.828125q0 -1.03125 -0.5 -1.671875q-0.484375 -0.65625 -1.3125 -0.65625q-0.796875 0 -1.296875 0.640625q-0.484375 0.625 -0.484375 1.828125zm9.109375 -2.28125q-0.25 -0.03125 -0.53125 -0.03125q-1.078125 0 -1.453125 0.90625l0 4.5l-1.078125 0l0 -6.34375l1.046875 0l0.015625 0.734375q0.53125 -0.84375 1.515625 -0.84375q0.3125 0 0.484375 0.078125l0 1.0z" fill-rule="nonzero"></path><path fill="#000000" fill-opacity="0.0" d="m448.16534 14.139108l98.17322 0l0 62.551186l-98.17322 0z" fill-rule="evenodd"></path><path fill="#000000" d="m463.1123 45.205982l-2.015625 0l0 3.453125l-1.125 0l0 -8.53125l2.828125 0q1.4375 0 2.203125 0.65625q0.78125 0.65625 0.78125 1.90625q0 0.796875 -0.4375 1.390625q-0.421875 0.59375 -1.1875 0.890625l2.0 3.609375l0 0.078125l-1.203125 0l-1.84375 -3.453125zm-2.015625 -0.921875l1.734375 0q0.84375 0 1.328125 -0.421875q0.5 -0.4375 0.5 -1.171875q0 -0.78125 -0.46875 -1.203125q-0.46875 -0.421875 -1.359375 -0.4375l-1.734375 0l0 3.234375zm10.013672 4.375q-0.09375 -0.1875 -0.15625 -0.671875q-0.75 0.796875 -1.796875 0.796875q-0.9375 0 -1.546875 -0.53125q-0.59375 -0.53125 -0.59375 -1.359375q0 -0.984375 0.75 -1.53125q0.75 -0.546875 2.125 -0.546875l1.046875 0l0 -0.5q0 -0.5625 -0.34375 -0.890625q-0.328125 -0.34375 -1.0 -0.34375q-0.578125 0 -0.96875 0.296875q-0.390625 0.28125 -0.390625 0.703125l-1.09375 0q0 -0.484375 0.328125 -0.921875q0.34375 -0.4375 0.921875 -0.6875q0.578125 -0.265625 1.265625 -0.265625q1.109375 0 1.71875 0.546875q0.625 0.546875 0.65625 1.5l0 2.921875q0 0.875 0.21875 1.390625l0 0.09375l-1.140625 0zm-1.796875 -0.828125q0.515625 0 0.96875 -0.265625q0.453125 -0.265625 0.65625 -0.6875l0 -1.296875l-0.84375 0q-2.0 0 -2.0 1.171875q0 0.5 0.34375 0.796875q0.34375 0.28125 0.875 0.28125zm5.4335938 -5.515625l0.03125 0.796875q0.734375 -0.90625 1.90625 -0.90625q2.015625 0 2.03125 2.265625l0 4.1875l-1.09375 0l0 -4.203125q0 -0.671875 -0.3125 -1.0q-0.296875 -0.328125 -0.953125 -0.328125q-0.53125 0 -0.9375 0.28125q-0.390625 0.28125 -0.609375 0.734375l0 4.515625l-1.078125 0l0 -6.34375l1.015625 0zm7.3710938 3.40625l-0.6875 0.703125l0 2.234375l-1.078125 0l0 -9.0l1.078125 0l0 5.4375l0.578125 -0.6875l1.984375 -2.09375l1.3125 0l-2.46875 2.65625l2.765625 3.6875l-1.28125 0l-2.203125 -2.9375zm8.740234 -1.859375l0.8125 0q0.78125 -0.015625 1.21875 -0.40625q0.4375 -0.390625 0.4375 -1.0625q0 -1.5 -1.5 -1.5q-0.703125 0 -1.125 0.40625q-0.40625 0.40625 -0.40625 1.0625l-1.09375 0q0 -1.015625 0.734375 -1.6875q0.75 -0.671875 1.890625 -0.671875q1.203125 0 1.890625 0.640625q0.6875 0.640625 0.6875 1.78125q0 0.5625 -0.359375 1.078125q-0.359375 0.515625 -0.984375 0.78125q0.703125 0.21875 1.078125 0.734375q0.390625 0.515625 0.390625 1.265625q0 1.140625 -0.75 1.828125q-0.75 0.671875 -1.953125 0.671875q-1.1875 0 -1.953125 -0.65625q-0.75 -0.65625 -0.75 -1.71875l1.09375 0q0 0.671875 0.4375 1.078125q0.4375 0.40625 1.1875 0.40625q0.78125 0 1.1875 -0.40625q0.421875 -0.421875 0.421875 -1.1875q0 -0.734375 -0.453125 -1.125q-0.453125 -0.40625 -1.328125 -0.421875l-0.8125 0l0 -0.890625zm14.318359 -2.8125l-2.75 0l0 7.609375l-1.109375 0l0 -7.609375l-2.75 0l0 -0.921875l6.609375 0l0 0.921875zm3.7226562 7.734375q-1.296875 0 -2.109375 -0.84375q-0.796875 -0.859375 -0.796875 -2.28125l0 -0.1875q0 -0.953125 0.359375 -1.6875q0.359375 -0.75 1.0 -1.15625q0.65625 -0.421875 1.40625 -0.421875q1.234375 0 1.921875 0.8125q0.6875 0.8125 0.6875 2.328125l0 0.453125l-4.296875 0q0.03125 0.9375 0.546875 1.515625q0.53125 0.578125 1.34375 0.578125q0.5625 0 0.953125 -0.234375q0.40625 -0.234375 0.71875 -0.625l0.65625 0.515625q-0.796875 1.234375 -2.390625 1.234375zm-0.140625 -5.6875q-0.65625 0 -1.109375 0.484375q-0.4375 0.46875 -0.53125 1.328125l3.171875 0l0 -0.078125q-0.046875 -0.828125 -0.453125 -1.28125q-0.390625 -0.453125 -1.078125 -0.453125zm4.888672 -0.78125l0.03125 0.796875q0.734375 -0.90625 1.90625 -0.90625q2.015625 0 2.03125 2.265625l0 4.1875l-1.09375 0l0 -4.203125q0 -0.671875 -0.3125 -1.0q-0.296875 -0.328125 -0.953125 -0.328125q-0.53125 0 -0.9375 0.28125q-0.390625 0.28125 -0.609375 0.734375l0 4.515625l-1.078125 0l0 -6.34375l1.015625 0zm9.292969 4.65625q0 -0.4375 -0.34375 -0.671875q-0.328125 -0.25 -1.15625 -0.421875q-0.8125 -0.171875 -1.296875 -0.421875q-0.484375 -0.25 -0.71875 -0.578125q-0.21875 -0.34375 -0.21875 -0.8125q0 -0.78125 0.65625 -1.3125q0.65625 -0.546875 1.6875 -0.546875q1.078125 0 1.734375 0.5625q0.671875 0.546875 0.671875 1.40625l-1.078125 0q0 -0.4375 -0.390625 -0.75q-0.375 -0.328125 -0.9375 -0.328125q-0.59375 0 -0.9375 0.265625q-0.328125 0.25 -0.328125 0.65625q0 0.390625 0.3125 0.59375q0.3125 0.203125 1.125 0.390625q0.8125 0.171875 1.3125 0.421875q0.5 0.25 0.734375 0.609375q0.25 0.359375 0.25 0.859375q0 0.859375 -0.6875 1.375q-0.671875 0.515625 -1.75 0.515625q-0.765625 0 -1.359375 -0.265625q-0.578125 -0.28125 -0.90625 -0.765625q-0.328125 -0.484375 -0.328125 -1.046875l1.078125 0q0.03125 0.546875 0.4375 0.875q0.40625 0.3125 1.078125 0.3125q0.609375 0 0.984375 -0.25q0.375 -0.25 0.375 -0.671875zm2.203125 -1.546875q0 -0.921875 0.359375 -1.671875q0.375 -0.75 1.03125 -1.140625q0.65625 -0.40625 1.484375 -0.40625q1.296875 0 2.09375 0.890625q0.8125 0.890625 0.8125 2.390625l0 0.078125q0 0.921875 -0.359375 1.65625q-0.359375 0.734375 -1.015625 1.15625q-0.65625 0.40625 -1.515625 0.40625q-1.28125 0 -2.09375 -0.890625q-0.796875 -0.90625 -0.796875 -2.390625l0 -0.078125zm1.09375 0.140625q0 1.046875 0.484375 1.6875q0.5 0.640625 1.3125 0.640625q0.828125 0 1.3125 -0.640625q0.484375 -0.65625 0.484375 -1.828125q0 -1.03125 -0.5 -1.671875q-0.484375 -0.65625 -1.3125 -0.65625q-0.796875 0 -1.296875 0.640625q-0.484375 0.625 -0.484375 1.828125zm9.109375 -2.28125q-0.25 -0.03125 -0.53125 -0.03125q-1.078125 0 -1.453125 0.90625l0 4.5l-1.078125 0l0 -6.34375l1.046875 0l0.015625 0.734375q0.53125 -0.84375 1.515625 -0.84375q0.3125 0 0.484375 0.078125l0 1.0z" fill-rule="nonzero"></path><path fill="#000000" fill-opacity="0.0" d="m682.042 14.139108l98.17322 0l0 62.551186l-98.17322 0z" fill-rule="evenodd"></path><path fill="#000000" d="m696.98895 45.205982l-2.015625 0l0 3.453125l-1.125 0l0 -8.53125l2.828125 0q1.4375 0 2.203125 0.65625q0.78125 0.65625 0.78125 1.90625q0 0.796875 -0.4375 1.390625q-0.421875 0.59375 -1.1875 0.890625l2.0 3.609375l0 0.078125l-1.203125 0l-1.84375 -3.453125zm-2.015625 -0.921875l1.734375 0q0.84375 0 1.328125 -0.421875q0.5 -0.4375 0.5 -1.171875q0 -0.78125 -0.46875 -1.203125q-0.46875 -0.421875 -1.359375 -0.4375l-1.734375 0l0 3.234375zm10.013672 4.375q-0.09375 -0.1875 -0.15625 -0.671875q-0.75 0.796875 -1.796875 0.796875q-0.9375 0 -1.546875 -0.53125q-0.59375 -0.53125 -0.59375 -1.359375q0 -0.984375 0.75 -1.53125q0.75 -0.546875 2.125 -0.546875l1.046875 0l0 -0.5q0 -0.5625 -0.34375 -0.890625q-0.328125 -0.34375 -1.0 -0.34375q-0.578125 0 -0.96875 0.296875q-0.390625 0.28125 -0.390625 0.703125l-1.09375 0q0 -0.484375 0.328125 -0.921875q0.34375 -0.4375 0.921875 -0.6875q0.578125 -0.265625 1.265625 -0.265625q1.109375 0 1.71875 0.546875q0.625 0.546875 0.65625 1.5l0 2.921875q0 0.875 0.21875 1.390625l0 0.09375l-1.140625 0zm-1.796875 -0.828125q0.515625 0 0.96875 -0.265625q0.453125 -0.265625 0.65625 -0.6875l0 -1.296875l-0.84375 0q-2.0 0 -2.0 1.171875q0 0.5 0.34375 0.796875q0.34375 0.28125 0.875 0.28125zm5.4335938 -5.515625l0.03125 0.796875q0.734375 -0.90625 1.90625 -0.90625q2.015625 0 2.03125 2.265625l0 4.1875l-1.09375 0l0 -4.203125q0 -0.671875 -0.3125 -1.0q-0.296875 -0.328125 -0.953125 -0.328125q-0.53125 0 -0.9375 0.28125q-0.390625 0.28125 -0.609375 0.734375l0 4.515625l-1.078125 0l0 -6.34375l1.015625 0zm7.3710938 3.40625l-0.6875 0.703125l0 2.234375l-1.078125 0l0 -9.0l1.078125 0l0 5.4375l0.578125 -0.6875l1.984375 -2.09375l1.3125 0l-2.46875 2.65625l2.765625 3.6875l-1.28125 0l-2.203125 -2.9375zm11.740234 0.078125l1.1875 0l0 0.875l-1.1875 0l0 1.984375l-1.078125 0l0 -1.984375l-3.890625 0l0 -0.640625l3.8125 -5.90625l1.15625 0l0 5.671875zm-3.734375 0l2.65625 0l0 -4.1875l-0.140625 0.234375l-2.515625 3.953125zm15.052734 -4.75l-2.75 0l0 7.609375l-1.109375 0l0 -7.609375l-2.75 0l0 -0.921875l6.609375 0l0 0.921875zm3.7226562 7.734375q-1.296875 0 -2.109375 -0.84375q-0.796875 -0.859375 -0.796875 -2.28125l0 -0.1875q0 -0.953125 0.359375 -1.6875q0.359375 -0.75 1.0 -1.15625q0.65625 -0.421875 1.40625 -0.421875q1.234375 0 1.921875 0.8125q0.6875 0.8125 0.6875 2.328125l0 0.453125l-4.296875 0q0.03125 0.9375 0.546875 1.515625q0.53125 0.578125 1.34375 0.578125q0.5625 0 0.953125 -0.234375q0.40625 -0.234375 0.71875 -0.625l0.65625 0.515625q-0.796875 1.234375 -2.390625 1.234375zm-0.140625 -5.6875q-0.65625 0 -1.109375 0.484375q-0.4375 0.46875 -0.53125 1.328125l3.171875 0l0 -0.078125q-0.046875 -0.828125 -0.453125 -1.28125q-0.390625 -0.453125 -1.078125 -0.453125zm4.888672 -0.78125l0.03125 0.796875q0.734375 -0.90625 1.90625 -0.90625q2.015625 0 2.03125 2.265625l0 4.1875l-1.09375 0l0 -4.203125q0 -0.671875 -0.3125 -1.0q-0.296875 -0.328125 -0.953125 -0.328125q-0.53125 0 -0.9375 0.28125q-0.390625 0.28125 -0.609375 0.734375l0 4.515625l-1.078125 0l0 -6.34375l1.015625 0zm9.292969 4.65625q0 -0.4375 -0.34375 -0.671875q-0.328125 -0.25 -1.15625 -0.421875q-0.8125 -0.171875 -1.296875 -0.421875q-0.484375 -0.25 -0.71875 -0.578125q-0.21875 -0.34375 -0.21875 -0.8125q0 -0.78125 0.65625 -1.3125q0.65625 -0.546875 1.6875 -0.546875q1.078125 0 1.734375 0.5625q0.671875 0.546875 0.671875 1.40625l-1.078125 0q0 -0.4375 -0.390625 -0.75q-0.375 -0.328125 -0.9375 -0.328125q-0.59375 0 -0.9375 0.265625q-0.328125 0.25 -0.328125 0.65625q0 0.390625 0.3125 0.59375q0.3125 0.203125 1.125 0.390625q0.8125 0.171875 1.3125 0.421875q0.5 0.25 0.734375 0.609375q0.25 0.359375 0.25 0.859375q0 0.859375 -0.6875 1.375q-0.671875 0.515625 -1.75 0.515625q-0.765625 0 -1.359375 -0.265625q-0.578125 -0.28125 -0.90625 -0.765625q-0.328125 -0.484375 -0.328125 -1.046875l1.078125 0q0.03125 0.546875 0.4375 0.875q0.40625 0.3125 1.078125 0.3125q0.609375 0 0.984375 -0.25q0.375 -0.25 0.375 -0.671875zm2.203125 -1.546875q0 -0.921875 0.359375 -1.671875q0.375 -0.75 1.03125 -1.140625q0.65625 -0.40625 1.484375 -0.40625q1.296875 0 2.09375 0.890625q0.8125 0.890625 0.8125 2.390625l0 0.078125q0 0.921875 -0.359375 1.65625q-0.359375 0.734375 -1.015625 1.15625q-0.65625 0.40625 -1.515625 0.40625q-1.28125 0 -2.09375 -0.890625q-0.796875 -0.90625 -0.796875 -2.390625l0 -0.078125zm1.09375 0.140625q0 1.046875 0.484375 1.6875q0.5 0.640625 1.3125 0.640625q0.828125 0 1.3125 -0.640625q0.484375 -0.65625 0.484375 -1.828125q0 -1.03125 -0.5 -1.671875q-0.484375 -0.65625 -1.3125 -0.65625q-0.796875 0 -1.296875 0.640625q-0.484375 0.625 -0.484375 1.828125zm9.109375 -2.28125q-0.25 -0.03125 -0.53125 -0.03125q-1.078125 0 -1.453125 0.90625l0 4.5l-1.078125 0l0 -6.34375l1.046875 0l0.015625 0.734375q0.53125 -0.84375 1.515625 -0.84375q0.3125 0 0.484375 0.078125l0 1.0z" fill-rule="nonzero"></path></g></svg>

